<svg width="41" height="37" viewBox="0 0 41 37" fill="none" xmlns="http://www.w3.org/2000/svg">
<g clip-path="url(#clip0_624_12631)">
<path d="M10.3654 33.112C10.3919 32.4265 10.3496 31.7409 10.2571 31.0634C10.0959 29.8664 9.38231 29.0149 8.4732 28.3133C7.84951 27.8339 7.20731 27.3814 6.56512 26.9261C5.40494 26.104 4.64647 24.9981 4.23948 23.6297C4.02542 22.912 3.75586 22.2185 3.38587 21.5651C3.31716 21.4419 3.26694 21.2571 3.05816 21.3348C2.57454 21.5088 2.11205 21.2919 1.639 21.2758C0.94659 21.2491 0.724598 20.909 0.60303 20.2716C0.299112 18.6569 -0.0840901 17.0582 0.0163352 15.3953C0.0559767 14.7526 0.18283 14.1313 0.499962 13.5609C0.624172 13.3387 0.769525 13.2208 1.04173 13.186C1.36943 13.1432 1.69714 13.1137 2.02748 13.1137C2.66968 13.1137 3.06081 12.8674 3.05024 12.214C3.00795 9.75033 4.35841 7.94545 5.71415 6.12986C5.78815 6.03078 5.87536 5.93706 5.93614 5.82727C6.38806 4.99981 7.11746 4.53118 7.93408 4.12415C11.1318 2.52546 14.4802 1.39005 17.9581 0.616149C19.9666 0.168946 21.991 -0.106874 24.0497 0.0323751C26.0688 0.168946 28.0588 0.484934 29.9616 1.21331C32.6308 2.23893 34.375 4.24733 35.6118 6.77523C36.1113 7.79282 36.4971 8.8586 36.846 9.93778C36.8909 10.0797 36.9068 10.2136 36.8751 10.377C36.7799 10.8777 36.92 11.3758 36.9385 11.8792C36.9491 12.1604 37.1684 12.0078 37.282 11.9917C37.9163 11.898 38.5321 11.914 39.1584 12.0908C39.8085 12.2756 40.1917 12.7361 40.493 13.2931C40.8498 13.9546 40.9291 14.6963 40.9766 15.4301C41.048 16.5066 40.9502 17.5804 40.8604 18.6515C40.8207 19.1255 40.7864 19.5968 40.7546 20.0708C40.7467 20.2127 40.7546 20.3493 40.5723 20.3921C40.0332 20.5234 39.6235 20.8822 39.1901 21.1955C38.6193 21.6079 38.0167 21.8061 37.2953 21.6936C36.1747 21.5195 35.6726 21.782 35.144 22.7969C34.4886 24.0581 33.9522 25.3783 33.1593 26.5673C32.3612 27.7643 31.3939 28.7792 30.173 29.5263C29.9404 29.6683 29.9034 29.8048 29.9325 30.0592C30.0699 31.2509 30.2232 32.4425 30.1518 33.6476C30.1228 34.1242 30.0039 34.5741 29.8611 35.0267C29.4568 36.3093 28.4578 36.7351 27.2712 36.8369C26.267 36.9226 25.2601 36.9038 24.3615 36.3254C24.2162 36.2317 24.1422 36.3227 24.0365 36.3763C22.6807 37.0538 21.2457 37.1877 19.8424 36.6976C19.2557 36.4914 18.7694 36.5048 18.2171 36.6146C16.9829 36.861 15.7831 36.8556 14.6996 36.0791C14.6256 36.0255 14.5806 35.9934 14.4881 36.0523C13.8327 36.4807 13.0901 36.5022 12.3449 36.5102C12.2074 36.5102 12.0647 36.4888 11.9326 36.5129C11.227 36.6521 10.9125 36.221 10.6773 35.6533C10.4738 35.1579 10.3866 34.641 10.3654 34.1108C10.3549 33.7814 10.3654 33.4467 10.3654 33.112ZM11.811 32.7826C11.811 33.2727 11.8163 33.76 11.8084 34.2501C11.8057 34.3947 11.7846 34.5125 11.959 34.5875C12.3501 34.7535 12.7254 34.957 13.1403 35.0588C13.8671 35.2382 14.5066 34.8901 14.6494 34.2153C14.7101 33.9314 14.6705 33.6342 14.6282 33.3423C14.5674 32.9192 14.4776 32.48 14.6652 32.0676C14.837 31.6847 15.0035 31.6526 15.3259 31.9123C15.5981 32.1319 15.7435 32.4131 15.754 32.7746C15.7752 33.4226 15.606 34.0439 15.5188 34.6785C15.4818 34.941 15.5162 35.0588 15.8175 35.1284C16.4993 35.2864 17.1838 35.2703 17.8709 35.2543C18.2382 35.2436 18.4312 35.0615 18.5025 34.6866C18.5739 34.3224 18.5633 33.9689 18.5237 33.6074C18.4602 32.9995 18.2937 32.4024 18.3809 31.7811C18.4047 31.6151 18.4047 31.4035 18.5607 31.3419C18.7509 31.2669 18.9254 31.4142 19.0734 31.5401C19.261 31.6981 19.3588 31.9177 19.3852 32.156C19.4116 32.405 19.409 32.6567 19.409 32.9085C19.4143 33.4815 19.261 34.0439 19.3086 34.6196C19.3165 34.7321 19.2531 34.9142 19.446 34.9088C19.8635 34.8981 20.0882 35.1739 20.3207 35.4551C20.408 35.5622 20.5137 35.6693 20.6537 35.6881C21.4941 35.7898 22.3266 35.7872 23.1168 35.4176C23.3467 35.3105 23.4524 35.1445 23.4656 34.866C23.5053 34.0787 23.3652 33.3075 23.3467 32.5255C23.3361 32.148 23.3229 31.7677 23.5476 31.4356C23.7643 31.1197 23.8488 31.125 24.0629 31.4517C24.4884 32.0998 24.3668 32.8201 24.3193 33.5217C24.2902 33.9689 24.2611 34.4107 24.343 34.8553C24.3695 34.9972 24.4118 35.0561 24.5545 35.107C25.3103 35.3801 26.082 35.5515 26.8907 35.506C27.8896 35.4471 28.3098 35.1123 28.4763 34.1697C28.5398 33.8163 28.553 33.444 28.5318 33.0852C28.4895 32.3622 28.4314 31.6365 28.3363 30.9188C28.2306 30.1074 28.4076 29.4353 29.1053 28.9559C29.2639 28.8462 29.3934 28.6962 29.5519 28.5864C30.8046 27.7241 31.83 26.6664 32.4299 25.2284C32.6017 24.8213 32.8025 24.4277 32.9743 24.0206C33.3998 23.0245 34.0129 22.1542 34.6181 21.2651C35.3475 20.194 35.4585 18.8818 35.6092 17.6152C35.7757 16.1986 35.7413 14.7713 35.8497 13.3494C35.8761 12.9905 35.8602 12.6612 35.6039 12.3746C35.4823 12.2381 35.4427 12.056 35.448 11.8685C35.4585 11.5043 35.4162 11.1455 35.374 10.784C35.1123 8.57475 34.2561 6.63866 32.7312 5.04265C30.2232 2.42103 27.073 1.42486 23.5476 1.48913C21.4545 1.5293 19.3773 1.77031 17.3265 2.20412C14.6071 2.77718 11.9828 3.62606 9.60959 5.13102C6.3722 7.18226 4.27384 9.96992 4.14963 13.9974C4.14434 14.1875 4.07563 14.2839 3.88535 14.2866C3.63429 14.292 3.56029 14.4232 3.58408 14.6696C3.60522 14.8918 3.58143 15.1168 3.57879 15.339C3.57086 16.5682 3.52858 17.8 3.78228 19.0104C4.10999 20.5662 4.87903 21.9319 5.69036 23.2682C6.30877 24.2858 6.93511 25.3114 7.87329 26.0719C8.48641 26.57 9.21053 26.8886 9.87387 27.3064C10.7856 27.8794 11.3406 28.6989 11.5996 29.7486C11.8559 30.7501 11.8744 31.765 11.811 32.7826ZM35.8814 20.2315C36.5209 20.2636 37.1658 20.3172 37.8106 20.3172C38.17 20.3172 38.4977 20.2395 38.7726 19.8967C39.317 19.2219 39.3857 18.4212 39.5125 17.6286C39.7081 16.3995 39.4888 15.1917 39.3355 13.9787C39.3117 13.7912 39.2033 13.6895 39.0395 13.6145C38.2889 13.269 37.5146 13.3306 36.735 13.4592C36.5711 13.4859 36.5289 13.5582 36.5632 13.7484C36.7561 14.8168 36.6531 15.8907 36.4971 16.9511C36.3359 18.0437 36.0928 19.1228 35.8814 20.2315ZM1.74999 16.3807C1.74999 16.7851 1.75792 17.1894 1.74735 17.5938C1.73678 18.041 1.77378 18.4828 1.9297 18.9006C2.06713 19.2755 2.32347 19.5272 2.74103 19.5674C3.00795 19.5941 3.10045 19.5218 3.05552 19.2219C2.95774 18.5525 2.84939 17.8803 2.8441 17.2082C2.83881 16.5119 2.80446 15.8184 2.74103 15.1275C2.67761 14.4178 2.66175 14.4286 2.0037 14.45C1.80285 14.4553 1.73678 14.5062 1.76585 14.7124C1.84249 15.2667 1.75792 15.8237 1.74999 16.3807Z" fill="#10100F"/>
<path d="M11.8111 32.7849C11.8745 31.7646 11.856 30.7524 11.6076 29.7509C11.3486 28.7012 10.791 27.8844 9.88188 27.3087C9.21855 26.8909 8.49443 26.5723 7.8813 26.0742C6.94312 25.311 6.31678 24.288 5.69837 23.2705C4.88704 21.9342 4.11799 20.5712 3.79029 19.0127C3.53658 17.8023 3.57622 16.5705 3.58679 15.3413C3.58944 15.1164 3.61322 14.8914 3.59208 14.6718C3.56829 14.4255 3.64229 14.2943 3.89336 14.2889C4.08364 14.2862 4.15235 14.1898 4.15763 13.9997C4.2792 9.9722 6.38021 7.18723 9.6176 5.13331C11.9908 3.62835 14.6151 2.78215 17.3345 2.20641C19.3853 1.77259 21.4625 1.53159 23.5556 1.49142C27.0784 1.42447 30.2312 2.42331 32.7392 5.04494C34.2641 6.63827 35.1204 8.57704 35.382 10.7863C35.4243 11.1478 35.4666 11.5066 35.456 11.8708C35.4507 12.0609 35.4904 12.243 35.6119 12.3769C35.8683 12.6635 35.8841 12.9928 35.8577 13.3517C35.7494 14.7709 35.7837 16.2009 35.6172 17.6175C35.4666 18.8841 35.3556 20.1936 34.6262 21.2674C34.021 22.1591 33.4052 23.0268 32.9824 24.0229C32.8079 24.43 32.6071 24.8236 32.438 25.2307C31.8354 26.666 30.8127 27.7264 29.56 28.5887C29.4014 28.6985 29.2719 28.8484 29.1133 28.9582C28.4157 29.4376 28.2386 30.1097 28.3443 30.9211C28.4368 31.6388 28.4976 32.3645 28.5399 33.0875C28.561 33.4463 28.5452 33.8186 28.4844 34.172C28.3179 35.1146 27.9003 35.4494 26.8987 35.5083C26.09 35.5538 25.321 35.3824 24.5625 35.1093C24.4198 35.0584 24.3775 34.9968 24.3511 34.8576C24.2691 34.413 24.2982 33.9712 24.3273 33.524C24.3749 32.8224 24.4964 32.102 24.0709 31.454C23.8569 31.1273 23.7697 31.1219 23.5556 31.4379C23.331 31.77 23.3442 32.1502 23.3547 32.5278C23.3759 33.3098 23.5133 34.081 23.4737 34.8683C23.4605 35.1468 23.3547 35.3128 23.1248 35.4199C22.3346 35.7895 21.5022 35.7921 20.6618 35.6904C20.5217 35.6743 20.416 35.5645 20.3288 35.4574C20.0962 35.1762 19.8716 34.9004 19.454 34.9111C19.2611 34.9165 19.3272 34.7344 19.3166 34.6219C19.2717 34.0462 19.4223 33.4838 19.417 32.9108C19.4144 32.659 19.4197 32.4073 19.3932 32.1583C19.3668 31.9199 19.269 31.7004 19.0814 31.5424C18.9334 31.4165 18.7616 31.2665 18.5687 31.3442C18.4128 31.4058 18.4128 31.6147 18.389 31.7834C18.3018 32.4046 18.4683 33.0018 18.5317 33.6097C18.5687 33.9712 18.5819 34.3247 18.5105 34.6889C18.4365 35.0638 18.2436 35.2458 17.8789 35.2566C17.1918 35.2753 16.5073 35.2914 15.8255 35.1307C15.5242 35.0611 15.4898 34.9432 15.5268 34.6808C15.6141 34.0488 15.7832 33.4249 15.7621 32.7769C15.7515 32.4153 15.6061 32.1342 15.3339 31.9146C15.0141 31.6548 14.8477 31.687 14.6732 32.0699C14.4856 32.485 14.5754 32.9215 14.6362 33.3446C14.6785 33.6391 14.7182 33.9337 14.6574 34.2176C14.5147 34.8924 13.8751 35.2405 13.1484 35.0611C12.7334 34.9593 12.3582 34.7558 11.967 34.5898C11.7952 34.5148 11.8138 34.397 11.8164 34.2524C11.8164 33.7623 11.8111 33.2749 11.8111 32.7849ZM20.379 18.8975C20.4133 20.6649 21.2643 22.0012 22.5434 23.1098C23.2834 23.7525 24.174 23.9747 25.1122 23.9024C27.4352 23.723 29.0631 22.4243 30.2762 20.4962C30.44 20.3275 30.5352 20.1133 30.6356 19.9044C30.8364 19.5295 31.0214 19.1466 31.1324 18.7342C31.2064 18.544 31.2963 18.3593 31.3016 18.1504C31.4337 17.7942 31.4628 17.422 31.4892 17.0471C31.6319 15.1619 30.9818 13.6328 29.4543 12.5376C28.1302 11.5896 26.6344 11.3352 25.062 11.6512C24.1317 11.8387 23.2094 12.0342 22.5408 12.875C21.3674 14.3559 20.4239 15.9144 20.3499 17.8772C20.2891 17.9388 20.2891 18.0111 20.3235 18.0834C20.3235 18.1557 20.3261 18.228 20.3261 18.2977C20.3129 18.5012 20.3261 18.702 20.379 18.8975ZM15.2441 20.8336C15.3313 20.6783 15.4344 20.5257 15.4132 20.3328C15.4634 20.2043 15.5321 20.0811 15.5638 19.9499C15.7911 18.9805 15.733 18.0138 15.4898 17.0578C15.1833 15.8581 14.5622 14.9129 13.3783 14.4201C11.7054 13.7239 10.0193 13.673 8.33322 14.3318C7.18625 14.779 6.44099 15.5877 6.19785 16.8623C6.01815 17.8103 6.00229 18.7422 6.22957 19.6741C6.73434 21.7494 8.40986 24.0336 11.3883 23.6828C13.1959 23.4686 14.4856 22.5126 15.2441 20.8336ZM18.1485 24.5183C18.167 24.9709 18.3335 25.6564 18.4603 26.35C18.5608 26.9043 18.8303 27.1614 19.3589 27.1962C19.6179 27.2149 19.8795 27.2417 20.1358 27.2819C20.3499 27.3167 20.4583 27.223 20.5587 27.0436C20.823 26.5723 20.8362 26.0661 20.7913 25.5493C20.7014 24.4621 19.8134 23.5704 18.825 23.5704C18.1696 23.5731 18.1406 23.6025 18.1485 24.5183ZM16.5549 27.3729C16.6817 27.3729 16.798 27.397 16.9011 27.3676C17.1416 27.3033 17.4587 27.3167 17.5354 27.0061C17.6173 26.6847 17.6728 26.358 17.6146 26.0153C17.5169 25.4395 17.3002 24.8986 17.1627 24.3362C17.1072 24.1167 16.9936 24.0122 16.8086 23.9292C16.1003 23.6132 15.6326 23.7926 15.3181 24.5183C15.0274 25.1932 15.067 25.9028 15.1014 26.6124C15.1251 27.0703 15.3762 27.2551 15.7938 27.2926C16.0528 27.314 16.3038 27.4158 16.5549 27.3729Z" fill="#EDEDED"/>
<path d="M35.8789 20.2308C36.0903 19.1221 36.3335 18.0429 36.4947 16.9504C36.6506 15.8899 36.7537 14.8188 36.5607 13.7476C36.5264 13.5575 36.5687 13.4852 36.7325 13.4584C37.5121 13.3272 38.2865 13.2683 39.037 13.6137C39.2009 13.6887 39.3092 13.7932 39.333 13.9779C39.4863 15.191 39.7056 16.3987 39.5101 17.6279C39.3832 18.4232 39.3145 19.2212 38.7701 19.896C38.4953 20.2388 38.1675 20.3165 37.8081 20.3165C37.1659 20.3165 36.5211 20.2629 35.8789 20.2308Z" fill="#EDEDED"/>
<path d="M1.75034 16.3817C1.75827 15.8247 1.84284 15.2677 1.7662 14.7134C1.73712 14.5099 1.80319 14.459 2.00405 14.451C2.6621 14.4322 2.6806 14.4188 2.74138 15.1285C2.80217 15.8194 2.83916 16.5129 2.84445 17.2092C2.84974 17.8813 2.95809 18.5561 3.05587 19.2229C3.1008 19.5202 3.0083 19.5951 2.74138 19.5684C2.32118 19.5255 2.06747 19.2765 1.93005 18.9016C1.77677 18.4812 1.73712 18.042 1.7477 17.5948C1.75827 17.1904 1.75034 16.7861 1.75034 16.3817Z" fill="#EDEDED"/>
<path d="M31.3024 18.1483C31.2971 18.3572 31.2072 18.542 31.1332 18.7321C30.5729 18.7883 30.3774 19.2489 30.6364 19.9023C30.5359 20.1112 30.4408 20.3228 30.277 20.4941C29.788 20.3763 30.018 19.9023 29.8065 19.4899C29.64 20.2558 29.1353 20.6762 28.7574 21.1931C28.3821 21.7072 27.9302 22.1169 27.391 22.441C26.7224 22.8453 26.0617 22.8292 25.409 22.4115C25.0363 22.1732 24.6452 21.9268 24.3994 21.5573C24.0347 21.0083 23.5722 20.7164 22.9195 20.7432C22.7662 20.5102 22.7107 20.2424 22.6314 19.98C22.8904 19.9559 23.0675 20.2264 23.3344 20.1808C23.3529 20.213 23.374 20.2424 23.4084 20.1969C23.411 20.1942 23.3819 20.1674 23.3661 20.1514C23.2154 19.7042 23.16 19.2275 22.7027 18.9142C22.3513 18.6705 22.3513 18.1537 22.6605 17.8377C22.8904 17.6047 22.9274 17.3557 22.9485 17.0531C23.0463 15.6151 23.4269 14.2654 24.2144 13.0497C24.3413 12.8542 24.5289 12.7471 24.735 12.7685C25.2134 12.8167 25.66 12.6186 26.1199 12.5543C26.7066 12.474 27.288 12.4793 27.872 12.4391C28.0755 12.4258 28.242 12.4954 28.4085 12.6078C30.1501 13.8049 30.9376 15.8668 30.4487 17.9609C30.4249 18.0626 30.3483 18.1617 30.4646 18.2769C30.7209 18.1082 31.0169 18.1778 31.3024 18.1483Z" fill="#7E7A63"/>
<path d="M15.4118 20.3315C15.4329 20.5243 15.3298 20.6769 15.2426 20.8322C15.0629 20.7626 14.8726 20.7171 14.7114 20.6207C14.5793 20.543 14.5132 20.5162 14.4154 20.6582C14.1432 21.0572 13.7891 21.3785 13.4482 21.7213C12.7901 22.3854 12.0052 22.6799 11.1278 22.7335C10.7235 22.7603 10.2425 22.8138 9.93593 22.4309C9.35451 21.6972 8.96338 20.859 8.67532 19.9673C8.46918 19.3299 8.54054 18.6632 8.43747 17.9589C8.13619 18.2534 8.01727 18.5721 7.94856 18.9122C7.91684 19.0729 7.93006 19.2496 7.73978 19.3273C7.73449 19.1559 7.73185 18.9845 7.72656 18.8131C7.87456 18.6123 7.79263 18.3793 7.79263 18.1651C7.79527 17.9294 7.83756 17.7795 8.10977 17.8196C8.44804 17.8705 8.52468 17.6884 8.54318 17.3831C8.58282 16.7646 8.76517 16.1808 9.03474 15.6265C9.09552 15.5006 9.16952 15.3908 9.29902 15.3185C9.8355 15.0159 10.4037 14.8097 11.0195 14.791C12.4096 14.7508 13.4746 15.3426 14.2252 16.5316C14.5581 17.0564 14.907 17.5679 14.9176 18.2267C14.7616 18.7756 14.8806 19.3514 14.759 19.9057C14.7854 19.9084 14.8119 19.9137 14.8383 19.9164C15.0814 19.9807 15.2056 20.2136 15.4118 20.3315Z" fill="#7E7A63"/>
<path d="M15.4143 20.3326C15.2082 20.2148 15.084 19.9845 14.8435 19.9175C14.965 19.3578 14.9016 18.7901 14.9228 18.2278C14.9148 17.569 14.5633 17.0576 14.2303 16.5327C13.4798 15.3464 12.4148 14.7519 11.0247 14.7921C10.4089 14.8109 9.8407 15.017 9.30421 15.3196C9.17472 15.3919 9.10336 15.5017 9.03994 15.6276C8.77037 16.1819 8.58538 16.7684 8.54838 17.3843C8.52988 17.6895 8.45324 17.8716 8.11497 17.8208C7.84276 17.7806 7.80048 17.9306 7.79783 18.1662C7.79519 18.3804 7.87976 18.6134 7.73176 18.8142C7.68155 18.0511 7.71326 17.2879 7.72383 16.5247C7.72648 16.3935 7.90619 16.2033 7.68419 16.1471C7.51241 16.1016 7.4067 16.2997 7.34063 16.4417C7.11864 16.9237 7.00764 17.4325 6.97329 17.9627C6.931 18.6188 7.05786 19.2588 7.15035 19.9015C7.16885 19.9336 7.18735 19.9657 7.20585 20.0005C7.21378 20.0541 7.22435 20.1103 7.23228 20.1639C7.02879 20.8119 7.10543 20.9619 7.64984 20.9806C7.85333 21.2056 7.97226 21.5135 8.3026 21.6903C8.07532 20.8815 7.85597 20.1184 7.74498 19.3284C7.93526 19.2534 7.92204 19.0767 7.95376 18.9133C8.01983 18.5732 8.13875 18.2546 8.44267 17.96C8.54574 18.6643 8.47703 19.3311 8.68052 19.9684C8.96858 20.8628 9.35971 21.701 9.94112 22.432C10.245 22.8176 10.7287 22.7614 11.133 22.7346C12.0131 22.6784 12.7953 22.3865 13.4534 21.7224C13.7916 21.3796 14.1458 21.0583 14.4206 20.6593C14.5184 20.5147 14.5871 20.5415 14.7166 20.6218C14.8778 20.7182 15.0707 20.7664 15.2478 20.8333C14.4893 22.5124 13.1997 23.4684 11.3946 23.6826C8.41624 24.0334 6.74072 21.7492 6.23595 19.6738C6.00867 18.7446 6.02189 17.8127 6.20424 16.8621C6.44737 15.5874 7.18999 14.7787 8.3396 14.3315C10.0257 13.6728 11.7118 13.7263 13.3847 14.4199C14.5686 14.9126 15.1897 15.8579 15.4962 17.0576C15.7394 18.0136 15.7975 18.9803 15.5702 19.9497C15.5332 20.0809 15.4645 20.204 15.4143 20.3326Z" fill="#10100F"/>
<path d="M31.3037 18.1479C31.0209 18.1774 30.7222 18.1077 30.4633 18.2764C30.3496 18.164 30.4236 18.0622 30.4474 17.9605C30.939 15.8664 30.1488 13.8044 28.4072 12.6074C28.2407 12.4923 28.0742 12.4226 27.8707 12.4387C27.2866 12.4762 26.7079 12.4708 26.1185 12.5539C25.6613 12.6181 25.2147 12.8136 24.7337 12.7681C24.5276 12.7467 24.34 12.8538 24.2131 13.0493C23.4256 14.265 23.045 15.6173 22.9472 17.0527C22.9261 17.3553 22.8891 17.6043 22.6592 17.8373C22.3473 18.1533 22.35 18.6701 22.7014 18.9138C23.156 19.2271 23.2115 19.7037 23.3648 20.1509C23.3542 20.1617 23.3436 20.1724 23.3331 20.1804C23.0688 20.2259 22.8891 19.9555 22.6301 19.9796C22.6037 19.9474 22.5614 19.9207 22.5535 19.8832C22.2442 18.4773 22.2099 17.0607 22.3341 15.628C22.379 15.1166 22.5297 14.6185 22.5455 14.016C21.4937 15.2585 21.314 16.6885 21.1977 18.1426C20.8964 18.1399 20.6084 18.1988 20.323 18.2952C20.323 18.2229 20.3203 18.1506 20.3203 18.081C20.3705 18.0167 20.3785 17.9471 20.3467 17.8748C20.4207 15.9119 21.3642 14.3534 22.5376 12.8725C23.2062 12.0317 24.1285 11.8362 25.0588 11.6487C26.6312 11.3328 28.127 11.5845 29.4511 12.5351C30.9786 13.6304 31.6314 15.1594 31.486 17.0446C31.4649 17.4195 31.4358 17.7918 31.3037 18.1479Z" fill="#10100F"/>
<path d="M22.9225 20.7446C23.5753 20.7178 24.0378 21.0097 24.4025 21.5587C24.6482 21.9282 25.0367 22.1746 25.412 22.4129C26.0648 22.8306 26.7255 22.8467 27.3941 22.4423C27.9332 22.1183 28.3851 21.7086 28.7604 21.1945C29.1383 20.6777 29.6431 20.2546 29.8096 19.4914C30.021 19.9038 29.7911 20.3777 30.28 20.4956C29.067 22.4236 27.439 23.7197 25.116 23.9018C24.1752 23.9741 23.2872 23.7491 22.5472 23.1091C21.2681 22.0005 20.4172 20.6643 20.3828 18.8969C20.6788 18.7496 20.9748 18.7202 21.2655 18.913C21.2761 19.0495 21.284 19.1888 21.2946 19.3253C21.1651 19.6413 21.2655 19.9761 21.2259 20.2974C21.1756 20.6884 21.2814 20.9053 21.7121 20.8249C21.9341 21.2373 22.1455 21.6524 22.4653 22.0005C23.0573 22.6432 23.7788 22.927 24.7407 22.8869C23.8343 22.3406 23.2608 21.639 22.9225 20.7446Z" fill="#10100F"/>
<path d="M18.1494 24.5157C18.1414 23.5999 18.1705 23.5678 18.8286 23.5704C19.817 23.5704 20.7023 24.4622 20.7948 25.5494C20.8371 26.0662 20.8239 26.5723 20.5622 27.0436C20.4644 27.2204 20.3534 27.3168 20.1394 27.282C19.883 27.2391 19.6214 27.2123 19.3624 27.1963C18.8312 27.1588 18.5643 26.9044 18.4638 26.3501C18.3344 25.6538 18.1679 24.9683 18.1494 24.5157ZM18.9686 25.0968C18.9818 25.4583 19.0162 25.8064 19.1536 26.1278C19.2805 26.425 19.5104 26.4331 19.7958 26.3715C20.0997 26.3045 19.9623 26.0849 19.9597 25.943C19.9544 25.5333 19.846 25.1531 19.5183 24.8665C19.373 24.738 19.2144 24.5612 19.032 24.6469C18.8708 24.7273 19.0056 24.9549 18.9686 25.0968Z" fill="#10100F"/>
<path d="M16.5533 27.3718C16.3049 27.4147 16.0538 27.3156 15.7948 27.2915C15.3773 27.254 15.1262 27.0719 15.1024 26.6113C15.0681 25.899 15.0258 25.192 15.3191 24.5172C15.6336 23.7915 16.0987 23.6094 16.8096 23.9281C16.9946 24.0111 17.1109 24.1129 17.1638 24.3351C17.3038 24.8975 17.5179 25.4384 17.6157 26.0141C17.6738 26.3569 17.6183 26.6863 17.5364 27.0049C17.4571 27.3183 17.1426 27.3022 16.9021 27.3665C16.7964 27.3932 16.6802 27.3718 16.5533 27.3718ZM16.6643 26.148C16.6749 25.7704 16.6432 25.4357 16.4582 25.1438C16.2679 24.8412 16.0697 24.8493 15.9137 25.1733C15.779 25.4518 15.7446 25.7597 15.7446 26.0704C15.7473 26.3917 16.0723 26.6541 16.4634 26.6274C16.8599 26.5979 16.5903 26.2792 16.6643 26.148Z" fill="#10100F"/>
<path d="M21.2634 18.9105C20.9727 18.7204 20.6767 18.7471 20.3807 18.8944C20.3279 18.6989 20.3146 18.5008 20.3305 18.2973C20.6133 18.2009 20.904 18.1419 21.2053 18.1446C21.2238 18.4017 21.2449 18.6561 21.2634 18.9105Z" fill="#7E7A63"/>
<path d="M30.6346 19.9006C30.3783 19.2473 30.5739 18.7867 31.1315 18.7305C31.0205 19.1455 30.8355 19.5258 30.6346 19.9006Z" fill="#10100F"/>
<path d="M20.3504 17.875C20.3821 17.95 20.3742 18.0196 20.3239 18.0812C20.2896 18.0089 20.2896 17.9366 20.3504 17.875Z" fill="#7E7A63"/>
<path d="M21.2639 18.9081C21.2428 18.6537 21.2243 18.3993 21.2031 18.1422C21.3194 16.6908 21.4965 15.2582 22.5509 14.0156C22.5324 14.6181 22.3818 15.1162 22.3395 15.6277C22.2153 17.0604 22.2497 18.477 22.5589 19.8828C22.5668 19.9176 22.6091 19.9471 22.6355 19.9792C22.7148 20.239 22.7703 20.5095 22.9236 20.7424C23.2619 21.6395 23.8353 22.3384 24.7418 22.882C23.7798 22.9222 23.0584 22.6384 22.4664 21.9957C22.1466 21.6475 21.9352 21.2325 21.7132 20.8201C21.5731 20.3193 21.4357 19.8212 21.2956 19.3205C21.2851 19.1839 21.2745 19.0473 21.2639 18.9081Z" fill="#EDEDED"/>
<path d="M23.3677 20.1562C23.3835 20.1723 23.4126 20.1991 23.4099 20.2018C23.3756 20.2473 23.3544 20.2179 23.3359 20.1857C23.3465 20.175 23.3571 20.1643 23.3677 20.1562Z" fill="#10100F"/>
<path d="M7.74182 19.3287C7.85282 20.1186 8.07217 20.8791 8.29944 21.6905C7.9691 21.5165 7.85017 21.2085 7.64668 20.9809C7.50661 20.7078 7.36919 20.4346 7.22912 20.1642C7.22119 20.1106 7.21062 20.0544 7.20269 20.0008C7.22384 19.9446 7.19212 19.9205 7.1472 19.9017C7.0547 19.259 6.9252 18.6217 6.97013 17.9629C7.00449 17.4327 7.11813 16.9212 7.33748 16.4419C7.40355 16.2973 7.50926 16.1018 7.68104 16.1473C7.90303 16.2063 7.72332 16.3964 7.72068 16.5249C7.70746 17.2881 7.67839 18.0513 7.72861 18.8145C7.73125 18.9859 7.73653 19.1573 7.74182 19.3287Z" fill="#EDEDED"/>
<path d="M14.9203 18.2227C14.8991 18.785 14.9626 19.3527 14.841 19.9124C14.8146 19.9097 14.7881 19.9044 14.7617 19.9017C14.8806 19.35 14.7644 18.7743 14.9203 18.2227Z" fill="#EDEDED"/>
<path d="M7.2282 20.1641C7.36827 20.4372 7.50569 20.7104 7.64576 20.9808C7.10135 20.9621 7.02471 20.8121 7.2282 20.1641Z" fill="#7E7A63"/>
<path d="M7.14453 19.8984C7.18946 19.9145 7.22117 19.9413 7.20003 19.9975C7.17889 19.9627 7.16039 19.9306 7.14453 19.8984Z" fill="#7E7A63"/>
<path d="M21.2913 19.3242C21.4314 19.825 21.5688 20.3231 21.7089 20.8238C21.2754 20.9042 21.1724 20.6872 21.2226 20.2963C21.2622 19.9749 21.1618 19.6402 21.2913 19.3242Z" fill="#7E7A63"/>
<path d="M18.9671 25.096C19.0041 24.9541 18.8693 24.7265 19.0305 24.6515C19.2129 24.5658 19.3715 24.7425 19.5168 24.8711C19.8445 25.1576 19.9529 25.5352 19.9581 25.9476C19.9608 26.0895 20.0982 26.3091 19.7943 26.376C19.5089 26.4376 19.279 26.4296 19.1521 26.1323C19.012 25.8056 18.9803 25.4575 18.9671 25.096Z" fill="#7E7A63"/>
<path d="M16.6659 26.1465C16.5893 26.2778 16.8615 26.5964 16.4651 26.6259C16.0739 26.6527 15.7489 26.3902 15.7462 26.0689C15.7436 25.7582 15.7806 25.4503 15.9154 25.1718C16.0686 24.8478 16.2695 24.8397 16.4598 25.1423C16.6448 25.4342 16.6791 25.769 16.6659 26.1465Z" fill="#7E7A63"/>
</g>
<defs>
<clipPath id="clip0_624_12631">
<rect width="41" height="37" fill="white"/>
</clipPath>
</defs>
</svg>
