<svg width="253" height="266" viewBox="0 0 253 266" fill="none" xmlns="http://www.w3.org/2000/svg">
<g clip-path="url(#clip0_288_5675)">
<path opacity="0.29" d="M252.755 168.094C255.29 188.983 238.037 200.849 219.754 207.927C217.138 208.94 214.505 209.855 211.937 210.754C208.372 211.849 205.674 214.399 203.728 217.766C198.381 228.309 193.818 247.988 178.299 240.502C164.399 234.046 150.09 222.376 135.012 229.568C132.952 230.467 130.94 231.594 129.092 233.082C127.555 234.308 126.067 235.779 124.628 237.348C123.189 238.917 121.75 240.584 120.311 242.202C111.284 253.137 98.3809 259.038 85.282 262.977C79.0188 265.02 72.1341 261.473 69.5339 255.131C63.4015 239.652 62.1913 224.043 54.2273 209.921C52.9681 207.796 51.5945 205.883 50.0736 204.135C47.0483 200.62 43.4506 197.711 38.9862 195.782C36.8603 194.998 34.7998 194.409 32.8537 193.739C25.086 191.075 19.3133 186.678 20.7197 176.642C22.5349 163.991 31.8725 153.416 30.5643 140.013C30.597 137.561 30.3517 135.191 29.8938 132.903C29.2233 129.47 28.0786 126.185 26.5741 123.063C26.0672 122.017 25.5275 121.003 24.9551 119.99C24.301 118.928 23.3362 117.931 22.4858 117.113C21.6027 116.394 20.6543 115.789 19.6731 115.25C18.6755 114.711 17.6453 114.237 16.5987 113.779C8.01325 111.474 0.736084 103.612 0.0656034 94.5571C-0.0161625 93.4293 0.000190658 92.2688 0.131016 91.0919C0.359961 88.9997 0.932322 86.9403 1.78269 84.9952C2.20787 84.0145 2.69847 83.0828 3.25447 82.1675C7.91513 74.8449 15.9282 68.454 24.7099 70.0558C30.3844 71.0855 35.9118 74.0767 41.8643 72.0335C42.9436 71.8211 44.0393 71.6249 45.1186 71.3961C49.4359 70.4971 53.655 69.2876 57.1546 66.4926C59.0515 64.858 60.6869 62.8149 61.9951 60.2324C62.8782 58.1239 63.565 55.95 64.2518 53.7597C65.6419 49.3956 67.0646 45.0151 69.076 40.9125C77.1872 24.6328 93.6549 41.9095 106.28 42.972C112.298 43.4296 117.596 40.2097 121.848 36.0907C123.091 34.8812 124.301 33.6716 125.495 32.4457C127.293 30.6314 129.076 28.8171 130.907 27.0519C147.195 12.3903 169.893 -9.0708 192.134 4.13604C200.212 9.23571 202.191 19.9091 206.361 28.3758C207.473 30.5334 208.683 32.5438 210.09 34.3418C211.643 36.5484 213.164 38.5098 214.587 40.3895C218.626 45.7997 216.255 53.8578 214.946 60.4612C214.619 62.1938 214.292 63.8937 214.047 65.4792C212.526 75.3353 218.953 80.9907 227.571 80.7291C230.4 81.1378 232.412 82.805 233.458 85.0442C234.505 87.2835 234.587 90.0949 233.556 92.7264C229.795 103.007 223.041 111.621 221.03 122.327C220.637 124.142 220.179 126.267 220.883 128.146C221.782 131.072 223.237 133.72 224.938 136.221C226.067 137.904 227.26 139.539 228.536 141.206C234.799 149.182 241.896 155.966 248.928 162.896C250.482 164.628 251.757 166.377 252.755 168.094Z" fill="white"/>
<path opacity="0.11" d="M249.06 212.077C246.411 232.95 226.836 239.847 207.408 241.825C204.628 242.103 201.865 242.299 199.166 242.479C195.454 242.593 192.233 244.342 189.518 247.088C181.767 255.866 172.56 273.682 159.363 262.322C147.49 252.384 136.501 237.298 120.181 240.256C117.957 240.583 115.749 241.139 113.59 242.07C111.791 242.855 110.009 243.885 108.226 245.012C106.444 246.14 104.661 247.383 102.863 248.559C91.4644 256.732 77.5478 259.02 63.9093 259.347C57.368 259.658 51.5626 254.411 50.5978 247.579C48.4392 230.972 51.0884 215.575 46.8365 199.786C46.1334 197.399 45.2666 195.193 44.2364 193.084C42.1595 188.883 39.3958 185.124 35.5528 182.051C33.6886 180.727 31.8407 179.616 30.1236 178.455C23.2716 173.813 18.7418 168.044 22.5521 158.694C27.409 146.942 39.0034 139.194 41.0148 125.873C41.6362 123.503 41.9797 121.166 42.1105 118.828C42.2904 115.331 41.996 111.849 41.2928 108.433C41.0639 107.289 40.7859 106.161 40.4752 105.033C40.099 103.824 39.4122 102.614 38.7908 101.601C38.1203 100.669 37.3517 99.8354 36.5177 99.0509C35.6837 98.2663 34.8006 97.5308 33.9012 96.8116C26.1661 92.3004 21.0476 82.7712 22.6175 73.8468C22.8137 72.7353 23.1081 71.6238 23.5169 70.5124C24.2528 68.551 25.2994 66.704 26.6077 65.0531C27.2618 64.2195 27.965 63.4349 28.7336 62.7158C35.0295 56.8806 44.3509 52.8106 52.4457 56.7008C57.6787 59.2016 62.2903 63.5657 68.5536 63.1571C69.6492 63.2388 70.7612 63.3369 71.8569 63.4022C76.2559 63.6801 80.6386 63.6311 84.6942 61.8495C86.9346 60.7707 89.0114 59.2342 90.9084 57.093C92.2657 55.2951 93.4595 53.3664 94.6696 51.4213C97.0899 47.5639 99.5265 43.7064 102.47 40.2739C114.293 26.6912 126.002 47.76 137.956 52.1405C143.664 54.1836 149.567 52.4674 154.702 49.607C156.19 48.7734 157.662 47.9071 159.117 47.0572C161.292 45.7822 163.467 44.491 165.659 43.2814C184.988 33.4254 212.184 18.6984 230.466 37.3645C237.04 44.4256 236.337 55.2787 238.316 64.5791C238.872 66.9491 239.542 69.2374 240.458 71.3296C241.423 73.8795 242.404 76.1678 243.336 78.3744C245.904 84.6836 241.668 91.8427 238.79 97.874C238.038 99.4595 237.318 101.012 236.697 102.483C232.821 111.604 237.645 118.779 246.051 120.823C248.684 121.967 250.221 124.108 250.695 126.56C251.153 129.011 250.548 131.741 248.913 134.013C242.764 142.954 234.113 149.508 229.567 159.315C228.733 160.966 227.785 162.911 228.013 164.889C228.177 167.962 228.929 170.904 229.959 173.781C230.646 175.693 231.399 177.605 232.233 179.55C236.337 188.933 241.554 197.367 246.656 205.948C247.719 208.122 248.52 210.148 249.06 212.077Z" fill="white"/>
<path d="M147.39 240.78C144.217 240.78 141.029 240.78 137.856 240.78C133.31 239.292 128.764 238.688 124.234 240.78C122.566 240.78 120.898 240.78 119.23 240.78C119.05 240.159 118.51 240.371 118.101 240.306C110.644 238.965 103.138 238.214 95.5831 238.034C94.2585 238.001 92.9993 237.887 92.4924 236.318C92.149 235.222 92.4924 233.523 91.315 233.196C90.3338 232.934 89.0419 233.751 87.8971 234.078C86.965 234.34 86.0165 234.634 85.068 234.847C84.3158 235.01 83.6453 234.896 82.9748 234.356C77.3493 229.829 70.8571 226.723 64.4303 223.65C60.2766 221.672 57.4802 219.106 56.2374 214.775C55.5833 212.486 54.3568 210.296 55.5506 207.795C55.7795 207.305 55.7304 206.504 54.8147 206.488C52.9504 206.471 51.3805 205.393 49.6143 205.033C47.2431 204.559 45.8531 203.104 45.199 200.963C43.302 194.703 40.8654 188.59 39.4263 182.199C38.2979 177.165 36.6299 172.065 39.7861 167.08C40.3257 166.246 39.688 165.445 39.2464 164.808C37.0224 161.604 36.172 158.253 36.3683 154.216C36.6299 148.577 35.6324 142.938 34.5204 137.364C33.7681 133.572 34.1606 129.748 37.0551 127.034C38.8867 125.334 38.9357 123.765 38.625 121.689C37.4149 113.795 38.3797 106.227 42.0919 99.0679C44.0052 95.3739 46.5563 92.8077 51.0861 93.1346C51.6258 93.1673 52.4762 93.4125 52.3617 92.4154C51.9201 88.1657 53.9316 84.3083 54.3241 80.173C54.8801 74.1907 55.0273 74.207 60.849 72.4417C61.5031 72.2456 62.1409 71.9841 62.795 71.886C64.4957 71.6081 65.2643 70.6765 65.6405 68.9602C66.7034 64.2038 68.306 59.2186 71.7729 56.064C79.1645 49.3625 87.6518 44.3118 98.3305 45.0637C99.0664 45.1127 99.7205 45.2762 100.293 44.4263C101.83 42.2033 104.185 41.1245 106.72 40.5361C116.908 38.2151 127.276 37.2671 137.66 36.4498C139.802 36.2864 141.699 36.9565 143.253 38.4276C143.809 38.9506 144.234 39.016 145.002 38.918C148.976 38.4603 152.917 38.967 156.859 39.5718C158.445 39.8169 159.851 41.0592 161.29 40.7976C164.087 40.2909 166.311 41.1409 168.469 42.661C169.565 43.4292 170.644 43.8705 171.756 42.6283C172.214 42.1216 172.885 42.2033 173.441 42.5139C179.426 45.93 185.967 48.6106 189.827 54.8381C190.203 55.4428 190.726 55.6553 191.266 55.8024C199.082 58.1561 204.283 64.024 209.745 69.516C210.203 69.99 210.644 70.6274 210.791 71.2485C211.674 75.0569 212.492 78.8654 211.854 82.8536C211.266 86.5639 210.35 90.1762 208.976 93.6577C208.682 94.4259 208.731 94.7691 209.532 94.9489C212.983 95.7335 214.553 98.3814 215.632 101.356C217.529 106.57 220.718 111.85 215.272 116.949C214.258 117.897 215.436 118.322 216.106 118.698C218.085 119.842 220.014 121.052 220.881 123.324C222.893 128.669 224.495 134.128 225.804 139.685C226 140.519 225.575 141.516 226.409 142.186C226.409 145.357 226.409 148.544 226.409 151.715C225.133 154.282 224.512 157.224 222.075 159.136C221.895 159.267 221.928 159.708 221.911 160.002C221.682 165.151 219.851 169.842 217.758 174.451C217.071 175.955 216.76 177.459 217.071 179.061C218.87 188.181 212.852 193.755 207.292 199.1C204.446 201.829 201.241 204.33 198.674 207.305C195.943 210.46 192.819 213.14 189.679 215.788C187.668 217.488 186 219.302 184.708 221.542C179.851 229.959 181.699 230.188 170.84 231.398C168.142 231.692 167.472 232.983 167.374 235.222C167.357 235.517 167.341 235.827 167.275 236.121C166.932 237.903 165.984 238.867 164.038 238.916C161.699 238.982 159.344 239.096 157.038 239.472C153.85 240.044 150.53 239.734 147.39 240.78ZM84.6756 185.386C84.4793 185.958 84.5774 186.449 85.1334 186.759H85.0844C85.346 188.655 86.4908 190.241 87.0304 192.039C87.4065 193.314 88.0607 193.559 89.3689 193.346C92.5905 192.823 93.6535 193.363 95.1907 196.288C96.0901 198.021 96.7442 199.884 97.4474 201.715C98.4286 204.265 98.5267 204.445 100.767 202.696C103.024 200.93 105.526 200.293 108.175 200.636C112.247 201.159 116.303 201.274 120.391 201.388C121.666 201.421 122.926 201.535 124.087 202.254C125.444 203.104 127.505 201.715 127.505 201.503C127.374 198.348 130.105 199.214 131.576 198.381C132.165 198.037 133.179 198.413 133.392 197.335C132.476 197.024 131.576 197.138 130.693 197.302C124.545 198.397 118.347 198.103 112.149 198.07C108.388 198.054 105.035 197.008 101.895 195.177C97.8235 192.791 93.3591 190.976 90.3174 187.103C89.8759 186.53 89.3526 185.909 88.4695 185.942C87.2103 185.452 85.9675 184.961 84.7083 184.455C84.4466 184.536 84.2013 184.618 83.9397 184.7C84.1686 184.945 84.2177 185.403 84.7083 185.386H84.6756ZM43.809 114.073C43.8907 114.171 43.9889 114.252 44.1033 114.334C43.4001 116.443 43.1548 118.568 43.7436 120.774C43.9561 121.575 43.9234 122.474 43.1875 123.079C42.5498 123.602 42.2064 122.523 41.6013 122.458C41.6013 122.981 41.5686 123.275 41.6013 123.569C41.8956 126.577 41.8956 126.56 44.7575 125.89C50.0232 124.664 55.2235 123.013 60.7509 123.651C63.0567 123.912 65.1826 122.932 67.3903 122.523C68.5513 122.311 69.091 121.689 69.0092 120.006C68.8947 117.685 66.916 115.952 67.423 113.599C69.091 113.501 70.3338 112.814 71.2169 111.294C72.0346 109.888 73.4573 109.169 75.4197 108.385C74.3731 109.79 73.6372 110.657 73.0485 111.605C72.6887 112.177 71.8547 112.945 72.7214 113.566C73.5391 114.154 74.0787 113.239 74.5039 112.683C77.0877 109.333 79.9822 106.178 82.9094 103.203C86.3763 99.6727 87.6355 95.6518 88.2079 91.0915C88.3877 89.6368 88.028 89.2935 86.5725 89.5224C83.7925 89.98 80.9961 90.1108 78.445 88.5253C77.66 88.0349 76.8751 88.3455 76.0411 88.4763C74.1768 88.7705 72.3453 89.4897 70.2848 88.983C70.9062 88.2965 71.1515 87.61 70.988 86.8254C70.4647 84.4063 70.0395 81.9546 69.369 79.5845C68.813 77.6558 68.4696 74.9425 67.1122 74.1416C65.5096 73.1936 63.302 75.2041 61.3232 75.7925C57.8073 76.8059 57.8563 77.0184 57.3658 80.6306C57.2186 81.7748 58.3142 81.3662 58.3633 82.069C58.5105 84.7332 57.9872 87.2831 56.9242 89.7839C56.9242 88.1494 56.9242 86.5149 56.9242 84.8967C56.728 84.913 56.5317 84.9294 56.3355 84.9457C57.3985 87.8552 55.1417 90.879 57.3003 93.9028C59.0011 96.2565 62.0264 96.6978 63.6781 94.3442C65.0354 92.3991 66.5072 90.5521 69.1891 90.1762C66.0329 92.6933 65.9185 96.1421 65.4769 99.7217C65.1989 101.928 65.1335 103.857 65.7876 105.949C66.5726 108.45 67.5047 110.951 67.4393 113.648C65.9021 113.975 65.7713 112.651 65.4933 111.801C64.7083 109.365 64.1687 106.848 63.3837 104.413C61.961 100.049 58.0362 97.368 53.441 97.2699C52.0019 97.2372 51.0371 98.7083 49.876 98.4304C46.8016 97.7112 46.033 99.9832 45.2481 101.863C43.5637 105.835 42.6479 110.052 41.9611 114.301C41.7812 115.364 41.1434 116.475 41.9447 117.93C42.4353 116.328 42.7297 114.988 43.809 114.073ZM107.897 235.86C109.516 236.448 111.233 236.334 112.885 236.628C116.826 237.282 120.767 237.952 124.79 237.118C126.769 236.71 128.061 236.089 128.486 233.67C130.17 224.19 129.173 214.775 128.339 205.344C128.257 204.477 127.962 203.317 127.128 203.448C125.117 203.775 123.351 202.859 121.487 202.761C117.137 202.516 112.754 202.679 108.371 202.679L108.42 202.696C106.131 201.535 104.07 201.797 102.484 203.317C102.01 203.775 101.994 204.216 102.059 204.739C102.157 205.572 102.631 205.115 103.024 205C103.204 204.951 103.433 205.082 103.629 205.115C103.482 205.442 103.433 205.867 103.187 206.079C98.5104 210.182 98.9028 215.968 98.1179 221.345C97.9543 222.473 97.938 223.568 97.382 224.598C96.4499 226.331 95.5341 228.063 94.651 229.812C93.588 231.904 95.6158 235.222 97.938 235.321C101.258 235.451 104.577 235.68 107.897 235.86ZM188.289 165.053C188.943 163.075 189.418 161.114 189.32 158.956C189.091 153.219 188.911 147.466 190.039 141.778C190.203 140.977 189.908 140.454 189.483 139.931C186.425 136.204 185.248 132.346 188.338 127.982C189.27 126.675 189.287 125.383 187.292 124.517C185.591 123.782 183.629 122.523 183.449 120.627C183.105 116.949 181.846 113.337 181.993 109.676C182.255 103.824 180.473 98.9044 176.744 94.4913C175.419 92.9221 174.487 91.0751 176.139 88.5743C168.518 88.3128 162.222 85.0601 155.828 82.1344C155.174 81.8402 154.553 81.3171 154.487 80.6797C154.209 77.7375 152.28 76.7568 149.729 76.2828C147.243 75.8252 144.724 74.3051 142.288 75.4165C140.129 76.3972 137.954 77.002 135.697 77.4106C131.102 78.2606 126.458 78.9307 121.846 79.7153C121.241 79.8134 120.358 79.6499 120.227 80.5489C120.195 80.7287 120.898 80.9902 121.438 81.3335C117.447 82.02 113.621 82.8045 109.843 83.7852C112.509 81.8892 115.599 81.0719 118.674 80.4508C117.693 78.5711 116.27 78.6692 114.7 78.5058C112.852 78.3096 110.841 78.6856 109.14 77.7866C107.75 77.0674 107.194 77.6558 106.491 78.7346C104.954 81.0719 103.253 83.2949 101.65 85.5832C100.963 86.5639 100.031 87.1033 98.8538 87.3321C96.7769 87.708 94.7328 88.3945 92.6396 88.4926C90.2684 88.5907 89.8432 89.8329 89.7614 91.778C89.5979 95.3249 88.6003 98.6266 86.2291 101.389C83.0239 105.116 79.7696 108.793 76.548 112.504C74.7655 114.563 72.8686 116.41 72.656 119.532C72.5415 121.314 71.6421 123.422 69.1237 123.667C68.3714 123.733 68.3878 124.288 68.4696 124.844C69.1891 129.65 69.9086 134.471 70.6609 139.44C71.3314 138.835 71.3804 138.214 71.5603 137.642C73.1302 132.461 73.261 127.002 74.5693 121.739C75.2888 118.894 75.943 116.377 79.0828 115.364C79.9331 115.086 80.8326 114.514 80.9634 113.55C81.503 109.398 84.2504 106.407 86.7034 103.465C88.7639 100.98 91.2986 98.6102 94.7001 97.7439C94.3239 99.215 93.2283 99.9178 91.9364 100.49C86.6543 102.811 84.1359 107.616 82.2226 112.487C81.3232 114.792 80.3256 116.41 78.3632 117.636C77.5292 118.143 76.3191 118.617 76.27 119.581C76.1392 122.392 75.1253 125.024 74.831 127.754C74.4221 131.513 73.9152 135.223 72.8849 138.852C72.6723 139.587 72.5088 140.29 72.6069 141.075C73.0157 144.327 73.2938 147.596 74.7165 150.686C74.7001 146.894 75.2888 143.134 75.436 139.326C75.6323 134.766 77.5619 130.32 79.6878 126.135C78.7884 130.924 77.0386 135.534 76.7279 140.454C76.4172 145.39 75.0435 150.244 76.0574 155.246C76.8751 159.365 78.7394 163.255 78.6085 167.57C78.6085 167.766 78.723 168.159 79.2136 168.011C78.0362 155.393 77.333 142.791 80.4564 130.369C80.669 130.385 80.8653 130.385 81.0779 130.401C80.7672 133.572 80.4564 136.727 80.1294 139.98C80.9307 139.751 80.6036 138.737 81.6012 138.656C80.898 142.905 80.2275 147.106 80.1948 151.356C77.9871 151.487 79.1318 152.958 79.2954 154.02C79.5897 153.121 79.8841 152.238 80.1784 151.339C82.2062 146.959 84.9699 143.003 87.7336 139.064C90.3501 135.321 92.983 131.464 96.6624 128.636C99.1481 126.724 101.863 125.057 104.594 123.487C111.691 119.434 119.377 117.211 127.521 118.273C137.267 119.548 146.392 122.539 152.656 130.957C154.716 133.736 157.758 135.599 159.41 138.803C162.5 144.769 162.746 151.241 163.318 157.698C163.743 162.52 161.764 166.884 160.636 171.395C158.428 180.319 153.457 187.233 145.166 191.548C144.414 191.941 143.596 192.3 143.482 193.951C161.094 184.765 171.004 171.166 171.691 150.816C172.574 154.658 172.786 157.894 172.018 161.196C170.644 167.063 167.979 172.392 165.051 177.606C164.136 179.241 163.024 180.679 161.65 182.036C160.26 183.409 158.625 184.765 157.872 186.727C157.693 186.792 157.513 186.857 157.333 186.923C157.365 186.972 157.431 187.07 157.447 187.07C157.611 186.972 157.758 186.874 157.921 186.776C158.265 186.645 158.641 186.547 158.952 186.367C164.266 183.376 167.897 178.767 170.742 173.585C174.013 167.652 177.104 161.637 177.006 154.494C176.875 145.472 174.7 136.939 171.707 128.522C171.151 126.969 169.581 125.907 169.728 124.06C171.249 125.302 172.067 126.985 172.705 128.767C173.49 130.973 174.209 133.196 174.896 135.436C178.576 147.384 179.54 159.169 173.522 170.839C169.189 179.224 163.612 186.122 154.618 189.783C152.738 190.551 150.906 191.434 149.254 192.627C148.911 192.693 148.567 192.742 148.11 192.823C148.649 193.199 149.058 193.167 149.467 192.856C155.37 191.777 160.538 189.162 165.1 185.288C165.182 185.386 165.28 185.468 165.379 185.566C165.264 186.204 165.166 186.841 165.051 187.495C164.855 187.642 164.348 187.626 164.577 187.985C164.741 188.247 165.117 188.067 165.329 187.805C166.883 187.119 168.273 186.302 169.614 185.125C171.446 183.523 173.522 182.166 175.223 180.385C174.536 181.431 174.749 182.657 174.405 183.817C177.464 183.539 177.464 183.539 178.494 181.202C179.704 178.456 180.783 175.628 182.141 172.964C183.285 170.741 184.217 168.273 186.507 166.835C185.133 169.891 183.449 172.817 182.468 176.07C181.813 178.227 180.996 180.336 179.949 182.346C178.886 184.373 179.491 185.615 181.781 186.302C183.056 186.678 184.446 186.906 185.411 187.985C188.698 191.728 191.658 195.667 192.279 201.045C196.564 198.495 201.11 196.338 205.64 194.164C207.243 193.395 208.06 192.088 208.976 190.731C209.957 189.293 210.906 187.789 212.165 186.629C214.275 184.683 214.52 182.411 213.964 179.845C213.866 179.404 213.849 178.946 213.8 178.489C213.081 171.82 209.369 166.246 207.014 160.182C206.589 159.087 205.656 158.139 204.136 158.662C201.715 159.479 199.246 160.166 196.826 161.016C193.751 162.078 191.315 164.17 188.289 165.053ZM116.81 77.1001C117.725 77.9827 118.2 78.7346 119.573 78.4731C125.215 77.4106 130.857 76.3972 136.548 75.5963C138.281 75.3512 138.919 74.4685 139.213 73.0792C139.606 71.1668 139.884 69.2218 140.162 67.293C141.159 60.4935 142.092 53.6939 143.138 46.9107C143.482 44.7205 145.15 42.3177 141.666 41.1409C141.552 41.1082 141.47 40.9121 141.388 40.7976C140.538 39.5227 139.344 39.1468 137.856 39.2612C135.599 39.441 133.326 39.5064 131.07 39.6371C122.991 40.0785 114.962 40.8957 107.079 42.8735C106.115 43.1186 105.297 43.609 104.414 44.2628C101.552 46.3713 101.568 48.676 103.04 51.471C103.335 52.0267 103.285 52.7949 103.351 53.4651C103.841 58.8099 104.25 64.1548 105.232 69.4342C105.493 70.8236 105.15 73.1936 108.012 72.2783C108.371 72.1639 108.862 72.5235 109.303 72.6379C111.021 73.1282 112.738 73.6186 114.553 74.1416C114.258 73.2263 113.343 72.2292 114.586 71.8697C116.45 71.3466 117.545 72.8504 118.641 74.0926C119.328 73.8311 118.314 72.5562 119.475 72.6869C120.931 72.8504 121.863 73.7003 122.451 75.0406C120.98 75.5963 120.276 74.1907 119.181 73.8964C118.886 75.2531 120.146 75.7434 120.571 77.0347C119.164 76.2992 118.151 76.953 116.81 77.1001ZM57.9545 165.952C55.665 166.589 53.0158 165.985 50.7591 167.194C48.1589 168.567 45.7223 170.251 43.0894 171.558C41.2742 172.457 40.9308 173.585 41.2579 175.514C42.5988 183.343 45.0028 190.878 47.374 198.43C47.8319 199.868 48.3061 200.734 49.9578 201.029C51.6421 201.323 53.2284 202.156 54.8637 202.712C58.4614 203.922 62.0264 204.674 65.7876 203.153C70.8244 201.127 75.7958 198.969 80.6036 196.419C82.0591 195.651 83.3673 194.605 84.7573 193.69C85.5913 193.134 85.6568 192.545 85.1989 191.614C82.4025 185.828 80.2602 179.813 78.6576 173.585C78.1833 171.771 77.6928 169.94 76.7116 168.289C76.4499 167.864 76.4499 167.309 75.7304 167.227C72.5906 166.884 69.4671 165.805 66.3273 167.472C65.3625 167.979 64.136 167.962 63.024 168.208C61.3723 168.584 59.9496 168.289 59.3118 166.573C59.0011 165.789 58.5432 165.985 57.9545 165.952ZM70.4156 154.331C70.1212 149.966 70.1376 146.109 69.2055 142.333C68.1589 138.067 68.2406 133.638 67.5865 129.323C67.4557 128.424 67.194 127.933 66.2455 127.541C62.6805 126.037 58.8866 126.528 55.2398 126.43C51.0534 126.331 46.9488 127.803 42.8114 128.636C41.3396 128.93 39.7207 129.47 39.1483 130.957C38.1508 133.523 37.1369 136.122 38.1017 139.048C38.6904 140.813 38.854 142.742 39.0829 144.605C39.5898 148.495 40.6528 152.467 40.0314 156.292C39.5571 159.201 40.7836 161.048 41.8956 163.255C42.975 165.38 44.4958 166.001 46.8343 165.74C53.6372 164.971 60.5219 164.873 67.0795 162.618C68.862 162.013 70.4483 161.473 70.1866 158.989C70.0558 157.289 70.3502 155.54 70.4156 154.331ZM95.7794 47.6135C96.041 47.5972 95.7467 47.5972 95.4523 47.6462C91.1841 48.3491 87.194 49.7874 83.4164 51.9123C77.8563 55.0342 73.0812 58.7609 70.3011 64.7759C68.1752 69.4179 68.3387 73.8147 70.5301 78.2606C71.2005 79.6172 72.1981 80.7941 72.7868 82.1834C74.1441 85.3707 77.2185 86.0735 79.9495 87.2013C81.6502 87.9042 83.073 86.6947 84.463 85.7957C84.8227 85.5668 85.3297 85.4851 85.7712 85.4851C88.2896 85.4197 90.6445 84.2919 93.3918 85.2072C95.7957 86.0082 99.279 83.2785 100.276 80.7123C101.16 78.4404 102.272 76.3155 103.94 74.5012C104.397 73.9945 104.888 73.5532 104.61 72.7359C102.484 66.345 102.713 59.6272 101.961 53.0401C101.519 49.0846 100.211 47.7443 95.7794 47.6135ZM97.1367 203.464C95.8448 200.734 95.3051 197.269 92.6069 194.883C92.1163 194.441 91.6257 194.311 90.9552 194.605C85.8857 196.828 80.9143 199.165 75.5505 200.783C71.1351 202.107 66.9814 204.412 62.4679 205.736C58.9684 206.749 58.1507 208.743 59.2137 212.143C59.4426 212.862 59.6225 213.598 59.7533 214.333C60.2276 216.965 61.5849 218.73 64.1033 219.923C70.3665 222.898 76.5153 226.151 82.3207 229.976C83.8906 231.005 85.2152 232.329 87.3902 231.202C89.0255 230.352 91.4294 230.335 92.4924 229.109C94.5038 226.756 96.1718 224.059 96.4499 220.659C96.8423 215.935 95.2724 211.212 96.5316 206.504C96.7442 205.638 96.875 204.739 97.1367 203.464ZM188.731 197.22C188.371 194.752 187.014 193.085 184.659 192.496C184.185 192.382 183.678 192.039 183.351 191.663C181.993 190.159 180.636 188.639 179.393 187.037C177.562 184.683 176.204 184.209 173.719 185.713C170.873 187.429 167.913 188.933 164.937 190.404C164.103 190.813 163.727 191.434 163.58 192.317C163.073 195.324 162.893 198.446 163.465 201.339C164.152 204.902 164.217 208.269 163.432 211.735C163.285 212.421 162.942 212.666 162.386 213.009C159.9 214.562 159.344 218.109 161.225 220.25C163.449 222.817 165.738 225.334 167.995 227.884C168.355 228.292 168.633 228.619 169.287 228.472C171.118 228.063 173.015 227.851 174.831 227.377C176.106 227.05 177.447 226.739 178.265 225.399C179.508 223.323 180.93 221.362 182.19 219.302C184.986 214.742 187.341 209.92 188.649 204.755C189.221 202.402 188.731 199.754 188.731 197.22ZM157.758 77.9664C157.137 80.0422 158.739 81.3825 160.374 82.1834C165.051 84.4717 170.219 85.3053 175.19 86.711C177.431 87.3485 178.755 86.4495 179.786 85.0438C181.045 83.3276 182.435 81.6277 182.533 79.2249C182.598 77.5087 183.138 75.8252 183.514 74.1253C184.741 68.6006 186.065 63.1087 186.752 57.486C186.997 55.4919 186.752 53.9881 184.921 52.6478C181.928 50.4576 178.952 48.251 175.665 46.5511C174.536 45.9627 172.672 43.3965 172.051 47.1232C172.034 47.2213 171.789 47.2703 171.691 47.3684C169.352 49.5259 167.701 52.2555 165.771 54.74C165.493 55.0996 165.215 55.5082 165.428 55.9822C166.016 57.2898 165.329 58.3196 164.708 59.3493C162.778 62.5856 160.849 65.822 158.919 69.0583C158.608 69.565 158.101 70.0227 158.199 70.6765C158.576 73.0302 157.921 75.3348 157.758 77.9664ZM188.682 58.0744C187.962 63.5827 186.392 68.8131 185.591 74.1743C184.872 78.9634 183.203 83.2622 180.685 87.3158C180.309 87.9042 179.933 88.4763 179.295 88.7705C177.921 89.4079 176.711 90.1435 177.382 91.9741C178.445 94.8835 180.391 96.5834 182.337 96.2238C183.939 95.9296 185.689 95.7498 186.997 96.5017C188.24 97.2209 189.385 97.0574 190.317 96.6652C193.702 95.2104 197.267 94.998 200.783 95.1777C203.269 95.3085 204.446 94.0499 205.754 92.4154C207.145 90.6829 208.273 88.133 207.848 86.662C207.046 83.8506 208.109 81.6604 208.567 79.2413C209.205 75.8415 208.453 72.7033 206.278 70.1861C201.568 64.7432 195.714 60.804 188.682 58.0744ZM204.888 98.5448C203.907 98.8227 202.844 98.8554 202.206 98.0381C201.306 96.9103 201.388 96.7959 200.162 96.8776C198.134 97.0084 196.073 97.0901 194.062 97.3843C190.71 97.8583 187.308 98.267 184.283 100.016C183.694 100.359 183.154 100.539 183.269 101.487C183.939 107.322 184.544 113.174 185.084 119.025C185.215 120.415 185.885 120.987 187.096 121.363C189.042 121.951 191.102 122.376 192.852 123.357C194.389 124.223 195.648 124.125 196.924 123.324C200.849 120.856 205.493 119.908 209.287 116.998C211.38 115.397 212.852 113.403 214.667 111.654C215.059 111.278 215.321 110.869 215.109 110.248C214.013 107.044 212.966 103.808 211.854 100.621C211.642 100.032 211.429 99.0352 210.677 99.1169C208.731 99.3131 207.423 98.1199 205.902 97.3516C205.28 97.0411 204.528 96.5834 203.792 97.417C203.923 98.0055 204.92 97.7439 204.888 98.5448ZM190.759 152.745C190.759 154.184 190.595 155.638 190.808 157.044C190.971 158.172 189.712 159.806 191.364 160.329C192.557 160.705 194.046 160.673 195.387 160.264C195.746 160.149 196.073 159.953 196.45 159.872C200.015 159.103 203.056 156.848 206.736 156.325C208.077 156.129 209.385 156.341 210.726 156.08C213.817 155.475 216.94 154.707 220.145 155.083C220.701 155.148 221.159 155.213 221.421 154.543C222.713 151.307 223.923 148.021 223.154 144.475C222.615 142.039 222.091 139.62 221.993 137.119C221.96 136.547 222.14 135.877 221.208 135.795C217.611 135.501 213.996 135.746 210.415 135.812C205.869 135.893 201.764 138.1 197.725 140.159C193.375 142.382 189.647 144.867 190.759 150.669C190.873 151.356 190.759 152.059 190.759 152.745ZM130.236 206.259C130.17 208.841 130.514 210.492 133.261 211.113C135.943 211.718 138.428 213.173 140.98 214.301C144.152 215.706 147.325 217.112 150.726 217.88C152.966 218.387 156.221 217.717 156.63 216.573C157.251 214.807 158.379 213.434 159.557 212.045C160.08 211.424 160.865 210.852 160.718 209.937C160.489 208.466 161.192 207.305 161.797 206.096C161.993 205.703 162.32 205.197 162.206 204.886C160.98 201.225 160.849 197.367 160.26 193.608C160.047 192.202 159.622 192.006 158.428 192.284C149.222 194.392 140.211 197.089 131.38 200.44C130.366 200.832 129.925 201.437 130.088 202.483C130.317 203.856 130.824 205.246 130.236 206.259ZM146 238.132C151.773 237.527 157.562 236.939 163.334 236.318C164.528 236.187 166.049 233.686 165.395 232.771C163.4 230.008 161.208 227.377 159.54 224.369C159.426 224.173 159.05 224.042 158.788 224.042C156.989 223.993 155.779 222.817 154.422 221.901C153.555 221.313 152.966 220.234 151.871 220.103C146.164 219.466 141.323 216.671 136.368 214.121C134.046 212.928 130.873 214.873 130.808 217.504C130.693 222.702 131.397 227.916 130.661 233.114C130.546 233.948 130.759 234.487 131.707 234.34C135.191 233.833 138.052 236.301 141.421 236.367C141.895 236.383 142.549 236.677 142.811 237.053C143.645 238.246 144.79 238.165 146 238.132ZM164.168 54.7073C164.103 54.5112 164.07 54.2987 163.972 54.0862C162.337 50.1797 160.669 46.3059 158.134 42.8571C157.709 42.2687 157.235 41.9745 156.466 41.8928C153.621 41.6149 150.808 41.3207 147.93 41.337C145.411 41.3534 144.806 42.3668 144.675 44.4099C144.643 44.933 144.61 45.4723 144.577 45.9954C144.234 50.8172 144.07 55.6553 142.648 60.33C142.5 60.8367 142.5 61.278 142.599 61.8338C143.138 65.2826 144.446 68.6987 143.285 72.2783C142.975 73.2263 143.514 73.6022 144.495 73.6513C146.376 73.7493 148.404 73.7493 150.039 74.632C151.822 75.58 152.688 74.9098 153.604 73.6022C154.046 72.9811 154.602 72.4581 154.994 71.8206C157.48 67.8488 159.753 63.7461 162.468 59.9377C163.645 58.2542 163.351 56.3745 164.168 54.7073ZM210.301 119.777C208.878 120.447 206.752 119.875 205.084 120.774C199.426 123.765 192.607 124.877 188.976 131.17C188.224 132.477 187.652 133.425 188.273 134.815C188.993 136.367 189.794 137.757 191.871 137.724C195.239 137.675 198.592 137.969 201.879 136.613C204.577 135.501 207.553 135.092 210.366 134.308C211.903 133.883 212.705 135.403 213.719 135.06C215.468 134.471 217.218 134.177 219.033 134.128C219.851 134.112 220.031 133.818 219.884 133.017C219.491 130.941 219.197 128.849 218.821 126.789C218.117 122.997 214.503 119.908 210.301 119.777ZM214.34 172.752C216.515 169.188 217.398 165.38 218.281 161.572C219.23 157.485 218.396 156.668 214.046 157.126C212.034 157.338 210.84 159.038 208.992 159.496C208.322 159.659 208.829 160.231 208.992 160.591C210.808 164.579 212.983 168.42 214.34 172.752ZM193.571 208.727C196.728 204.085 201.176 201.486 203.89 196.566C202.255 197.416 201.143 198.005 200.015 198.577C198.804 199.198 197.611 199.835 196.384 200.44C194.782 201.241 192.492 201.617 191.707 202.908C190.693 204.624 193.163 206.145 193.571 208.727ZM73.7516 155.148C74.7165 152.925 73.0812 151.192 73.2447 149.215C73.2938 148.561 72.6233 148.119 71.9855 148.25C71.2823 148.397 71.4785 149.133 71.5603 149.574C72.3289 153.513 71.5603 157.354 70.8244 161.196C70.6772 161.98 70.6118 162.487 71.593 162.634C72.0836 162.716 72.5252 163.092 72.9994 163.288C73.6535 163.566 74.2913 164.383 74.9945 163.745C75.5505 163.239 75.0108 162.503 74.88 161.849C74.4221 159.561 74.1114 157.273 73.7516 155.148ZM160.211 43.2331C160.8 44.2465 161.143 44.8185 161.47 45.407C161.797 45.9954 162.108 46.6001 162.419 47.2049C163.858 49.9509 163.874 49.9836 166.85 48.7577C167.815 48.3654 169.352 48.4635 169.63 47.5318C169.99 46.3713 168.142 46.4694 167.635 45.5868C167.423 45.2108 166.948 44.9656 166.736 44.5734C166.114 43.4129 165.182 43.1023 163.939 43.2167C162.844 43.3148 161.715 43.2331 160.211 43.2331ZM71.3314 145.177C71.2333 143.919 71.9037 142.48 70.5791 140.977C70.8898 142.693 71.1024 143.935 71.3314 145.177ZM75.0599 152.435C74.9945 152.418 74.9454 152.402 74.88 152.369C74.88 153.481 74.88 154.592 74.88 155.704C74.9454 155.704 74.9945 155.704 75.0599 155.704C75.0599 154.625 75.0599 153.53 75.0599 152.435Z" fill="#1D1D1D"/>
<path d="M80.1773 151.34C80.2264 147.074 80.8805 142.874 81.5837 138.64C80.6025 138.738 80.9296 139.735 80.1119 139.964C80.439 136.712 80.7497 133.541 81.0604 130.386C80.8478 130.37 80.6516 130.37 80.439 130.353C77.3155 142.792 78.0187 155.394 79.1962 167.996C78.7056 168.127 78.5747 167.751 78.5911 167.555C78.7056 163.24 76.8577 159.349 76.04 155.231C75.0425 150.213 76.3998 145.358 76.7105 140.438C77.0212 135.502 78.7873 130.909 79.6704 126.12C79.8339 125.744 79.9975 125.368 80.161 124.992C80.3082 124.845 80.4554 124.682 80.6025 124.534L80.5862 124.551C81.0114 124.371 81.1095 124.028 81.0441 123.619H81.0277C82.1397 123.521 82.3687 122.508 82.8266 121.788C86.1136 116.721 89.8584 112.079 94.8298 108.549C95.3204 108.206 95.8437 107.879 96.0236 107.258L96.0072 107.274C96.7431 107.307 97.2664 106.849 97.8715 106.522C102.107 104.283 105.786 101.03 111.085 100.883C114.012 100.801 116.858 100.311 119.801 100.998C122.418 101.619 125.1 101.913 127.765 102.354C124.691 99.8861 120.848 100.18 117.463 98.9544C120.619 98.4477 123.742 98.7256 126.833 99.1505C133.57 100.099 140.226 101.292 146.064 105.149C147.144 105.868 148.158 106.931 149.678 106.816H149.662C149.826 106.98 149.973 107.127 150.136 107.29L150.12 107.274C150.283 107.437 150.431 107.585 150.594 107.748L150.578 107.732C150.758 108.14 151.101 108.222 151.494 108.206L151.477 108.189C151.641 108.631 151.984 108.729 152.393 108.647H152.377C152.54 108.81 152.687 108.958 152.851 109.121L152.835 109.105C153.063 109.742 153.521 110.053 154.208 110.02L154.192 110.004C154.355 110.429 154.699 110.543 155.108 110.461H155.091C155.255 110.608 155.402 110.772 155.566 110.919L155.549 110.903C157.381 112.455 158.967 114.384 161.469 115.005C161.453 116.1 162.058 116.476 163.072 116.378C163.595 116.918 164.118 117.441 164.642 117.98C164.527 119.353 165.083 120.203 166.473 120.465L166.457 120.448C166.62 120.612 166.767 120.759 166.931 120.922L166.915 120.906C167.078 121.069 167.225 121.216 167.389 121.38L167.373 121.364C167.323 121.788 167.422 122.115 167.847 122.295L167.83 122.279C167.994 122.442 168.141 122.589 168.305 122.753L168.288 122.736C168.37 123.57 168.697 124.159 169.662 124.109L169.646 124.077C169.498 125.924 171.085 127.003 171.624 128.539C174.617 136.94 176.792 145.489 176.923 154.511C177.021 161.654 173.93 167.669 170.66 173.602C167.798 178.784 164.184 183.409 158.869 186.384C158.542 186.564 158.182 186.662 157.839 186.793L157.806 186.744C158.558 184.782 160.193 183.426 161.584 182.053C162.957 180.696 164.069 179.258 164.985 177.623C167.896 172.409 170.578 167.081 171.951 161.213C172.72 157.927 172.524 154.675 171.624 150.834C170.954 171.183 161.027 184.782 143.415 193.968C143.53 192.301 144.347 191.958 145.099 191.566C153.391 187.251 158.362 180.337 160.57 171.412C161.682 166.901 163.677 162.553 163.252 157.715C162.679 151.259 162.434 144.786 159.343 138.82C157.691 135.616 154.65 133.753 152.589 130.974C146.326 122.557 137.201 119.566 127.454 118.291C119.327 117.228 111.625 119.451 104.527 123.505C101.796 125.074 99.0816 126.725 96.5959 128.653C92.9165 131.481 90.2836 135.339 87.6671 139.082C84.9198 143.004 82.1561 146.96 80.1119 151.357L80.1773 151.34ZM87.7979 118.094C87.6671 118.274 87.5363 118.438 87.4055 118.618C87.2746 118.781 87.1275 118.944 86.9966 119.124C86.9639 119.173 86.9149 119.222 86.8822 119.271C86.9149 119.222 86.9476 119.157 86.9803 119.108C87.1438 118.961 87.3073 118.814 87.4545 118.683C87.618 118.536 87.7816 118.405 87.9451 118.258C88.0923 118.111 88.2558 117.964 88.403 117.817C89.3678 117.473 90.2346 117.032 90.7252 116.068C90.9704 115.904 91.6246 116.117 91.461 115.659C91.3466 115.332 90.8396 115.61 90.578 115.872C89.5477 116.133 88.5665 116.46 88.2558 117.67C88.0923 117.784 87.9451 117.947 87.7979 118.094ZM166.015 132.266C166.146 132.429 166.277 132.609 166.408 132.772C166.408 133.312 166.588 133.786 166.915 134.227C169.155 137.186 171.821 139.833 173.57 143.152C172.982 138.46 169.695 135.6 166.522 132.658C166.342 132.527 166.179 132.396 166.015 132.266C165.999 132.217 165.983 132.151 165.95 132.102C165.933 132.07 165.868 132.07 165.835 132.07C165.901 132.135 165.95 132.2 166.015 132.266ZM90.6107 131.367C90.8069 131.089 90.9868 130.827 91.183 130.549C94.0612 128.801 96.2198 126.218 98.3948 123.783C105.378 115.953 114.29 114.417 124.069 115.43C126.375 115.675 128.665 116.035 131.559 116.427C129.956 115.169 128.648 114.858 127.324 114.564C122.581 113.485 117.904 114.776 113.194 114.907C102.271 115.201 96.1054 121.968 91.0032 130.419C90.6924 130.631 90.5616 130.958 90.6107 131.367C90.5616 131.416 90.5289 131.481 90.4962 131.53C90.5453 131.465 90.578 131.416 90.6107 131.367ZM162.826 141.337C162.892 141.37 162.941 141.403 163.006 141.419C162.941 141.403 162.892 141.37 162.826 141.337C162.892 139.588 162.565 137.986 161.109 136.336C161.142 138.477 161.502 140.062 162.826 141.337ZM166.211 161.409C169.106 158.026 169.041 153.089 165.819 150.687C167.323 154.364 165.328 157.862 166.211 161.409ZM133.898 104.381C136.383 108.778 137.43 109.399 139.948 107.797C137.642 108.369 136.743 107.111 136.023 105.345C135.745 104.626 135.026 103.825 133.898 104.381ZM153.08 113.714C152.18 112.227 151.183 110.837 149.008 109.922C150.136 111.949 151.314 113.126 153.08 113.714ZM142.712 109.415C144.249 109.415 145.786 109.415 147.929 109.415C145.819 108.386 144.282 108.467 142.712 109.415ZM81.3057 129.176C82.2051 128.032 83.0882 126.888 83.2845 124.894C82.0416 126.414 81.3875 127.656 81.3057 129.176Z" fill="#405039"/>
<path d="M164.658 117.947C164.135 117.407 163.612 116.884 163.088 116.345C162.68 115.756 162.32 115.07 161.486 114.972C161.208 114.106 160.374 113.762 159.801 113.158C160.161 113.207 160.521 113.256 160.881 113.321C161.044 113.468 161.224 113.664 161.388 113.37C161.42 113.321 161.257 113.141 161.175 113.027C160.946 112.357 160.472 111.932 159.85 111.654C159.654 111.392 159.458 111.114 159.262 110.853C159.18 110.771 159.033 110.591 159.016 110.608C158.771 110.787 158.951 110.902 159.082 111.033C159.229 111.343 159.376 111.637 159.523 111.948C159.572 112.324 159.638 112.716 159.687 113.092C158.379 112.259 157.348 110.886 155.582 110.886L155.599 110.902C155.68 110.51 155.435 110.444 155.124 110.444H155.141C154.994 109.987 154.667 109.839 154.225 109.987L154.241 110.003C154.045 109.3 153.571 109.006 152.868 109.088L152.884 109.104C152.917 108.761 152.704 108.663 152.41 108.63H152.426C152.263 108.189 151.936 108.058 151.51 108.172L151.527 108.189C151.38 107.698 151.118 107.486 150.611 107.715L150.627 107.731C150.725 107.322 150.513 107.224 150.153 107.257L150.169 107.273C150.218 106.914 149.99 106.816 149.695 106.799H149.712C149.401 106.489 149.106 106.162 148.763 105.9C142.565 101.324 135.419 99.5584 127.913 98.3652C116.106 96.4692 105.82 99.7382 96.3511 106.505C96.0894 106.685 95.9259 106.93 96.0731 107.257L96.0894 107.241C95.5007 106.881 95.0919 107.322 94.683 107.6C91.7395 109.578 88.9594 111.801 86.8335 114.612C84.7076 117.44 82.0093 119.973 81.0772 123.602H81.0935C80.6357 123.765 80.5702 124.109 80.6357 124.534L80.652 124.517C80.5048 124.664 80.3577 124.828 80.2105 124.975C80.0469 125.351 79.8834 125.727 79.7199 126.103C77.594 130.287 75.6479 134.733 75.4681 139.293C75.3045 143.102 74.7322 146.845 74.7485 150.653C73.3258 147.564 73.0478 144.295 72.639 141.042C72.5408 140.258 72.7207 139.555 72.917 138.819C73.9472 135.191 74.4542 131.48 74.863 127.721C75.1573 125.008 76.1876 122.36 76.3021 119.548C76.3511 118.584 77.5613 118.126 78.3953 117.603C80.374 116.377 81.3552 114.759 82.2546 112.455C84.1679 107.584 86.6863 102.778 91.9684 100.457C93.2603 99.8853 94.356 99.1824 94.7321 97.7114L94.6994 97.7441C94.8629 97.5643 95.0265 97.3681 95.19 97.1883C95.1736 97.0249 95.2554 96.8941 95.4026 96.8451C96.2366 96.7634 96.4328 96.2076 96.58 95.4721C97.3977 91.3531 98.8695 90.16 103.105 90.0129C103.955 89.9802 104.969 90.2744 105.345 89.0812L105.476 89.0648L105.591 89.1302C105.901 88.9668 106.228 88.8033 106.539 88.6562L106.49 88.6889C108.976 88.411 111.396 87.7899 113.751 86.94C116.662 85.8939 119.54 84.7988 122.647 84.3901C124.904 84.0796 127.389 84.717 129.254 82.6903C129.924 81.9711 130.268 82.9845 130.529 83.4094C131.772 85.3545 133.162 86.8582 135.811 86.4333C136.482 86.3189 137.283 86.7111 137.97 87.0054C140.472 88.0841 142.892 89.3427 145.427 90.3234C148.992 91.6964 152.442 93.6578 156.465 93.2328C157.806 93.0857 158.542 93.429 158.918 94.8183C159.262 96.0932 160.423 96.7307 161.453 97.5316C165.182 100.425 169.384 102.925 171.429 107.486C172.164 109.137 173.162 110.477 174.65 111.474C175.043 112.389 176.465 112.765 175.991 114.122C175.451 115.74 175.092 117.391 176.351 118.813C177.97 120.627 178.575 122.589 177.921 124.991C177.561 126.315 177.904 127.41 179.654 127.28L179.638 127.263C179.654 129.127 179.621 130.99 179.703 132.853C179.818 135.125 179.687 137.463 180.979 139.522C181.42 140.421 182.042 141.271 181.829 142.366C180.456 142.513 181.715 143.38 181.404 143.886C179.703 146.632 179 149.362 181.731 151.944C181.257 155.099 182.958 158.303 181.404 161.441C180.962 162.324 181.224 163.37 181.191 164.334C181.126 166.344 181.584 168.649 180.325 170.235C179.098 171.771 177.299 172.915 176.236 175.056C175.582 172.229 176.743 169.973 176.302 167.064C174.765 171.82 174.765 176.119 175.092 180.45L175.124 180.401C173.424 182.183 171.347 183.539 169.515 185.141C168.174 186.302 166.784 187.135 165.231 187.822C165.133 187.724 165.051 187.609 164.953 187.495C165.067 186.858 165.165 186.22 165.28 185.566C165.329 185.419 165.378 185.256 165.427 185.109C165.28 185.174 165.149 185.239 165.002 185.305C160.439 189.179 155.288 191.794 149.368 192.873C149.303 192.791 149.237 192.709 149.156 192.627C150.824 191.434 152.655 190.535 154.519 189.783C163.514 186.138 169.09 179.224 173.424 170.839C179.458 159.185 178.477 147.4 174.797 135.436C174.11 133.197 173.391 130.974 172.606 128.767C171.968 126.985 171.151 125.286 169.63 124.06L169.646 124.092C169.319 123.504 169.123 122.768 168.272 122.719L168.289 122.736C168.305 122.409 168.191 122.213 167.814 122.262L167.831 122.278C167.994 121.804 167.733 121.543 167.357 121.346L167.373 121.363C167.209 121.199 167.062 121.052 166.899 120.889L166.915 120.905C166.866 120.627 166.752 120.431 166.441 120.431L166.457 120.447C166.326 119.287 165.329 118.731 164.658 117.947ZM158.248 109.284C158.313 109.464 158.444 109.807 158.46 109.807C158.853 109.692 158.738 109.447 158.575 109.202C157.888 105.197 156.711 103.873 153.064 103.269C155.68 104.544 157.692 106.309 158.248 109.284ZM139.736 97.1393C140.374 97.3191 140.93 98.0056 141.731 97.4989C141.208 96.7143 140.325 96.747 139.622 96.4201C135.402 94.2626 131.003 93.3799 126.326 94.6058C130.791 95.5211 135.386 95.7173 139.736 97.1393ZM106.605 97.7114C103.824 97.3845 101.96 98.0546 100.619 99.7218C102.811 98.97 104.708 98.3325 106.605 97.7114ZM142.68 97.9075C142.696 97.9566 142.696 98.0383 142.729 98.0546C142.778 98.0873 142.876 98.12 142.925 98.0873C143.088 97.9893 143.072 97.8912 142.876 97.8422C142.81 97.8422 142.745 97.8912 142.68 97.9075ZM144.331 98.3815C144.266 98.3652 144.2 98.3162 144.151 98.3162C143.939 98.3652 143.939 98.4633 144.135 98.5613C144.184 98.5777 144.266 98.5613 144.315 98.5286C144.331 98.496 144.315 98.4306 144.331 98.3815Z" fill="#4D6B40"/>
<path d="M95.3864 96.862C95.2229 96.9274 95.1575 97.0418 95.1738 97.2216C94.9122 97.3197 94.5851 97.3524 94.6832 97.7774L94.7159 97.7447C91.3145 98.611 88.7797 100.965 86.7192 103.465C84.2662 106.424 81.5189 109.399 80.9793 113.55C80.8484 114.531 79.949 115.103 79.0986 115.365C75.9588 116.378 75.3047 118.879 74.5852 121.739C73.2606 126.986 73.1461 132.445 71.5762 137.643C71.3963 138.215 71.3636 138.836 70.6767 139.441C69.9245 134.472 69.205 129.667 68.4854 124.845C68.4037 124.289 68.3873 123.733 69.1395 123.668C71.6416 123.423 72.5574 121.314 72.6718 119.533C72.8681 116.411 74.7814 114.564 76.5639 112.504C79.7855 108.794 83.0398 105.116 86.245 101.39C88.6162 98.6437 89.6137 95.3419 89.7773 91.7787C89.859 89.8173 90.3006 88.5914 92.6554 88.4934C94.7323 88.3953 96.7928 87.7088 98.8696 87.3329C100.047 87.1204 100.979 86.581 101.666 85.5839C103.269 83.2956 104.969 81.0727 106.507 78.7353C107.226 77.6566 107.766 77.0518 109.156 77.7873C110.873 78.6863 112.868 78.3104 114.716 78.5065C116.286 78.67 117.725 78.5882 118.69 80.4516C115.615 81.0727 112.525 81.8899 109.859 83.786C113.637 82.8053 117.463 82.0207 121.453 81.3342C120.914 80.991 120.227 80.7131 120.243 80.5496C120.374 79.6507 121.257 79.8141 121.862 79.716C126.474 78.9315 131.102 78.2613 135.713 77.4114C137.97 77.0028 140.145 76.398 142.304 75.4173C144.74 74.3058 147.259 75.8423 149.744 76.2836C152.312 76.7412 154.225 77.7383 154.503 80.6804C154.569 81.3342 155.19 81.8409 155.844 82.1351C162.238 85.0772 168.534 88.3136 176.155 88.5751C174.519 91.0759 175.435 92.9229 176.76 94.492C180.488 98.9052 182.255 103.825 182.009 109.677C181.846 113.338 183.105 116.95 183.465 120.628C183.645 122.524 185.607 123.782 187.308 124.518C189.319 125.368 189.286 126.675 188.354 127.983C185.264 132.364 186.441 136.205 189.499 139.931C189.924 140.454 190.219 140.994 190.055 141.778C188.943 147.466 189.107 153.22 189.335 158.957C189.417 161.098 188.959 163.076 188.305 165.054L188.322 164.988C187.896 164.841 187.569 164.907 187.389 165.364C187.062 165.855 186.752 166.345 186.425 166.835C184.119 168.274 183.203 170.725 182.058 172.965C180.685 175.629 179.605 178.457 178.412 181.203C177.381 183.556 177.381 183.556 174.323 183.818C174.667 182.657 174.454 181.432 175.141 180.385L175.108 180.434C176.024 180.614 176.237 179.96 176.416 179.307C177.25 176.43 178.608 173.847 180.619 171.641C181.093 171.118 181.388 170.529 181.47 169.826C182.32 162.667 184.282 155.508 181.764 148.3C181.649 147.973 181.682 147.532 181.813 147.221C182.533 145.587 182.304 143.985 181.846 142.367C182.042 141.272 181.437 140.422 180.995 139.523C180.963 138.33 181.11 137.104 180.881 135.959C180.292 133.083 181.241 129.994 179.654 127.264L179.671 127.28C179 126.463 179 125.531 179.213 124.551C179.425 123.603 179.556 122.622 179.213 121.674C178.297 119.091 176.515 116.885 176.008 114.139C176.498 112.782 175.059 112.406 174.667 111.491C175.37 111.099 175.026 110.641 174.748 110.183C171.51 104.61 167.079 100.147 161.878 96.4044C160.652 95.5217 159.098 94.0834 159.425 93.119C160.488 89.9644 158.183 90.8797 157.12 91.1249C153.669 91.9422 150.578 91.223 147.471 89.7683C143.857 88.0684 140.276 85.9762 136.22 85.8455C133.408 85.7474 131.838 84.2436 130.758 82.2659C129.794 80.4843 128.861 81.1054 127.995 81.8409C127.079 82.6091 126.13 83.1322 124.986 83.2466C119.769 83.7369 114.896 85.7637 109.745 86.5156C108.387 86.7117 106.932 87.0877 106.49 88.7549L106.539 88.7222C106.032 88.4934 105.869 88.951 105.591 89.2125L105.476 89.1472L105.346 89.1635C103.105 88.7385 100.897 88.9837 98.7552 89.7029C97.9212 89.9808 96.9727 90.4711 96.8418 91.4518C96.5965 93.2825 95.3373 94.9006 95.3864 96.862Z" fill="#7F9276"/>
<path d="M116.809 77.0998C118.15 76.9527 119.164 76.2988 120.57 77.0507C120.145 75.7595 118.886 75.2691 119.18 73.9125C120.276 74.2067 120.962 75.6124 122.451 75.0566C121.846 73.7163 120.93 72.8664 119.474 72.7029C118.313 72.5722 119.311 73.8471 118.64 74.1086C117.545 72.8664 116.449 71.3626 114.585 71.8857C113.342 72.2289 114.274 73.2423 114.552 74.1576C112.737 73.6346 111.02 73.1442 109.303 72.6539C108.861 72.5231 108.371 72.1799 108.011 72.2943C105.149 73.2096 105.492 70.8396 105.231 69.4503C104.25 64.1708 103.841 58.826 103.35 53.4811C103.285 52.811 103.35 52.0427 103.039 51.487C101.568 48.692 101.551 46.3873 104.413 44.2788C105.296 43.625 106.114 43.1347 107.079 42.8895C114.944 40.9117 122.99 40.0945 131.069 39.6532C133.325 39.5224 135.599 39.457 137.855 39.2772C139.343 39.1628 140.537 39.5387 141.388 40.8137C141.469 40.9444 141.551 41.1242 141.666 41.1569C145.149 42.3338 143.481 44.7365 143.137 46.9267C142.091 53.7099 141.159 60.5095 140.161 67.309C139.883 69.2378 139.605 71.1828 139.213 73.0952C138.918 74.4845 138.28 75.3672 136.547 75.6124C130.872 76.4133 125.214 77.4267 119.572 78.4891C118.215 78.7343 117.725 77.9824 116.809 77.0998ZM136.416 72.9645C134.323 71.7386 132.753 72.8337 130.529 73.5038C132.851 73.8634 134.519 73.6673 136.416 72.9645ZM129.401 73.1769C127.782 73.6673 126.572 74.0269 125.296 74.4028C127.095 75.2855 127.504 75.1874 129.401 73.1769Z" fill="#B5C3B6"/>
<path d="M57.9545 165.951C58.5433 165.984 59.0012 165.788 59.2792 166.556C59.9169 168.272 61.3397 168.567 62.9913 168.191C64.087 167.945 65.3298 167.962 66.2947 167.455C69.4345 165.788 72.5579 166.867 75.6977 167.21C76.4173 167.292 76.4336 167.847 76.6789 168.272C77.6601 169.907 78.1671 171.738 78.625 173.568C80.2276 179.796 82.3698 185.811 85.1662 191.597C85.6241 192.529 85.5587 193.133 84.7247 193.673C83.3347 194.588 82.0264 195.634 80.571 196.402C75.7632 198.936 70.7918 201.11 65.755 203.137C62.0101 204.657 58.4288 203.905 54.8311 202.695C53.1958 202.139 51.6095 201.306 49.9251 201.012C48.2735 200.717 47.7992 199.851 47.3413 198.413C44.9701 190.861 42.5826 183.326 41.2253 175.497C40.8982 173.585 41.2416 172.457 43.0568 171.541C45.6897 170.234 48.1263 168.55 50.7264 167.177C53.0159 165.984 55.6487 166.589 57.9545 165.951ZM74.6838 177.638C73.8008 177.654 72.9014 177.589 72.0183 177.703C71.3642 177.785 71.0698 178.374 70.9553 178.995C70.8572 179.567 71.0534 180.041 71.5931 180.286C71.773 180.368 72.0183 180.302 72.2472 180.302C71.6912 178.096 74.3241 178.962 74.7493 177.703C74.831 177.638 74.9291 177.573 75.0109 177.507C74.9619 177.458 74.9291 177.409 74.8801 177.36C74.8147 177.458 74.7493 177.556 74.6838 177.638ZM45.8532 180.172C44.8393 183.146 44.8229 185.713 46.1312 188.099C47.3086 190.257 47.9464 192.512 48.4043 194.882C48.5678 195.716 48.6169 196.746 49.8107 197.416C49.3691 194.588 49.6144 191.842 47.8973 189.619C46.6381 187.968 46.262 186.121 46.1312 184.143C46.0658 182.967 46.3929 181.773 45.8532 180.172ZM79.508 188.704C79.4099 188.066 79.5244 187.314 78.625 187.102C77.8073 186.906 77.8564 187.658 77.6111 188.05C76.7771 189.292 75.9757 190.567 75.2235 191.875C74.9946 192.267 74.3895 192.708 74.9782 193.248C75.4524 193.656 75.9921 193.395 76.4663 193.182C78.3633 192.3 79.1646 190.665 79.508 188.704ZM53.7518 199.328C56.1066 201.077 56.8916 201.191 58.8867 200.391C57.4312 199.541 55.845 199.786 53.7518 199.328ZM49.5817 172.015C51.1189 172.113 52.4926 171.607 54.3568 171.002C52.2636 170.626 50.89 171.182 49.5817 172.015Z" fill="#B5C3B6"/>
<path d="M70.4162 154.331C70.3508 155.54 70.0401 157.289 70.22 159.006C70.4816 161.49 68.879 162.029 67.1129 162.634C60.5389 164.873 53.6542 164.988 46.8676 165.756C44.5291 166.018 43.0083 165.396 41.929 163.272C40.817 161.065 39.5905 159.218 40.0647 156.309C40.6861 152.484 39.6232 148.512 39.1162 144.622C38.8709 142.758 38.7074 140.83 38.135 139.064C37.1702 136.139 38.1841 133.54 39.1817 130.974C39.754 129.486 41.373 128.947 42.8448 128.653C46.9658 127.819 51.0704 126.348 55.2732 126.446C58.9199 126.544 62.7139 126.054 66.2789 127.558C67.211 127.95 67.4726 128.457 67.6198 129.339C68.2739 133.671 68.1922 138.084 69.2388 142.35C70.1546 146.109 70.1218 149.967 70.4162 154.331ZM44.0549 161.604C44.2348 161.621 44.4147 161.621 44.5946 161.637C44.5128 161.523 44.431 161.392 44.3329 161.277C43.6297 159.97 42.9265 158.662 42.0271 156.979C41.9944 159.185 42.3705 160.705 44.0549 161.604ZM42.6812 131.546C41.5529 132.739 41.1604 134.014 41.1604 135.207C41.1604 140.961 41.3239 146.714 41.4711 152.467C41.5038 153.563 41.9126 154.56 42.9756 155.475C43.6951 152.435 43.6624 149.591 42.763 146.976C41.651 143.788 42.1089 140.797 42.6812 137.659C43.0246 135.763 43.6134 133.769 42.6812 131.546ZM51.3484 159.594C52.3623 159.97 53.3762 160.28 54.5536 159.234C53.3271 159.087 52.3296 158.973 51.3484 159.594Z" fill="#B5C3B6"/>
<path d="M95.7783 47.6133C100.21 47.7441 101.518 49.0844 101.976 53.0399C102.728 59.6269 102.499 66.3448 104.625 72.7357C104.903 73.5529 104.413 73.9943 103.955 74.501C102.287 76.3153 101.175 78.4401 100.292 80.7121C99.2943 83.2783 95.811 86.0242 93.4071 85.207C90.6598 84.2917 88.3213 85.4195 85.7865 85.4849C85.345 85.5012 84.838 85.5666 84.4783 85.7954C83.0883 86.6944 81.6492 87.9039 79.9648 87.2011C77.2502 86.0733 74.1758 85.3704 72.8021 82.1831C72.2134 80.8102 71.2159 79.617 70.5454 78.2603C68.354 73.8145 68.1905 69.434 70.3164 64.7756C73.0801 58.7443 77.8716 55.0176 83.4317 51.9121C87.2093 49.7872 91.1994 48.3652 95.4676 47.646C95.7456 47.5969 96.04 47.5969 95.7783 47.6133Z" fill="#B5C3B6"/>
<path d="M108.388 202.68C112.754 202.68 117.137 202.517 121.503 202.762C123.367 202.86 125.133 203.775 127.145 203.448C127.979 203.318 128.273 204.478 128.355 205.344C129.189 214.775 130.203 224.19 128.502 233.67C128.077 236.089 126.785 236.711 124.806 237.119C120.783 237.936 116.859 237.266 112.901 236.629C112.917 236.482 112.901 236.335 112.885 236.188C115.877 236.106 116.63 235.926 117.84 234.962C112.427 234.504 107.259 232.379 101.487 233.229C103.825 233.948 105.886 234.602 107.946 235.239C107.93 235.452 107.913 235.664 107.913 235.861C104.594 235.681 101.274 235.468 97.9543 235.321C95.6322 235.223 93.6044 231.905 94.6673 229.813C95.5504 228.064 96.4662 226.331 97.3983 224.599C97.9543 223.569 97.9707 222.474 98.1342 221.346C98.9191 215.969 98.5103 210.166 103.204 206.08C103.449 205.867 103.498 205.442 103.645 205.116C103.449 205.066 103.22 204.952 103.04 205.001C102.648 205.099 102.19 205.557 102.075 204.74C102.01 204.217 102.043 203.775 102.5 203.318C104.087 201.797 106.147 201.536 108.437 202.696C107.112 203.04 105.575 201.846 104.397 203.252C104.087 203.514 103.498 203.824 103.923 204.217C104.316 204.543 104.528 203.922 104.725 203.595C105.886 203.072 107.456 204.167 108.388 202.68ZM110.039 203.448C115.387 205.115 120.98 204.674 126.442 205.361C121.029 204.315 115.501 204.069 110.039 203.448ZM96.6788 229.094C95.9756 231.709 96.3517 232.444 98.3631 232.935C97.8235 231.709 97.3329 230.565 96.6788 229.094Z" fill="#B5C3B6"/>
<path d="M186.409 166.818C186.736 166.327 187.047 165.837 187.374 165.347C187.701 165.265 188.24 165.706 188.306 164.971L188.289 165.036C191.315 164.17 193.751 162.061 196.728 161.015C199.148 160.165 201.617 159.479 204.038 158.662C205.558 158.139 206.491 159.087 206.916 160.182C209.271 166.246 212.983 171.819 213.702 178.488C213.751 178.946 213.768 179.404 213.866 179.845C214.406 182.411 214.16 184.683 212.067 186.628C210.808 187.789 209.859 189.292 208.878 190.731C207.962 192.071 207.145 193.395 205.542 194.163C201.012 196.337 196.482 198.495 192.182 201.044C191.56 195.651 188.6 191.728 185.313 187.985C184.365 186.906 182.975 186.677 181.683 186.301C179.393 185.615 178.788 184.389 179.851 182.346C180.914 180.335 181.716 178.227 182.37 176.069C183.351 172.816 185.019 169.891 186.409 166.818Z" fill="#B5C3B6"/>
<path d="M97.137 203.463C96.8754 204.738 96.7445 205.621 96.5156 206.487C95.2564 211.194 96.8263 215.918 96.4338 220.642C96.1558 224.025 94.4878 226.738 92.4764 229.092C91.4134 230.334 89.0095 230.334 87.3742 231.184C85.1992 232.312 83.8909 230.988 82.3047 229.958C76.4993 226.134 70.3505 222.897 64.0872 219.906C61.5689 218.713 60.2115 216.948 59.7373 214.316C59.6065 213.581 59.4266 212.829 59.1976 212.126C58.1347 208.726 58.9523 206.732 62.4519 205.719C66.9654 204.395 71.1191 202.09 75.5345 200.766C80.8983 199.148 85.8697 196.81 90.9392 194.588C91.6096 194.293 92.0839 194.424 92.5908 194.865C95.3055 197.268 95.8288 200.733 97.137 203.463ZM87.7176 199.279C88.6661 198.494 90.1706 198.984 91.2172 197.726C89.6309 197.808 88.2899 197.709 87.3905 199.001C87.0635 199.099 87.0144 199.328 87.1289 199.622C87.3251 199.491 87.5213 199.377 87.7176 199.279ZM92.8361 217.798C93.9972 213.662 93.7028 209.723 93.7846 205.424C91.119 208.399 90.6939 214.267 92.8361 217.798ZM92.0021 198.657C92.1493 200.178 92.6889 201.485 93.7028 202.58C93.8664 202.76 94.3243 202.548 94.3079 202.188C94.2589 200.684 93.5557 199.507 92.3292 198.657C92.2965 198.625 92.2147 198.657 92.0021 198.657ZM92.7707 222.391C91.8713 223.028 90.8247 223.371 90.9228 224.679C90.9392 224.989 91.2826 225.153 91.6096 225.038C92.8198 224.597 93.0814 223.731 92.7707 222.391Z" fill="#B5C3B6"/>
<path d="M188.731 197.22C188.731 199.754 189.221 202.402 188.633 204.772C187.341 209.953 184.969 214.759 182.173 219.319C180.914 221.378 179.491 223.34 178.248 225.416C177.447 226.756 176.106 227.05 174.814 227.393C172.999 227.867 171.102 228.08 169.27 228.488C168.6 228.636 168.338 228.309 167.979 227.9C165.738 225.35 163.449 222.833 161.208 220.267C159.344 218.109 159.884 214.579 162.369 213.026C162.925 212.683 163.252 212.438 163.416 211.751C164.201 208.27 164.136 204.902 163.449 201.356C162.893 198.462 163.056 195.341 163.563 192.333C163.71 191.45 164.086 190.829 164.92 190.421C167.897 188.933 170.84 187.446 173.702 185.73C176.204 184.226 177.545 184.716 179.377 187.054C180.636 188.655 181.977 190.175 183.334 191.679C183.678 192.055 184.168 192.398 184.642 192.513C187.03 193.085 188.387 194.752 188.731 197.22Z" fill="#B5C3B6"/>
<path d="M157.759 77.9677C157.922 75.3361 158.577 73.0478 158.217 70.6778C158.119 70.024 158.626 69.5663 158.936 69.0596C160.866 65.8233 162.796 62.587 164.725 59.3506C165.347 58.3209 166.034 57.2912 165.445 55.9836C165.232 55.5096 165.51 55.1009 165.788 54.7413C167.718 52.2569 169.37 49.5272 171.708 47.3697C171.823 47.2716 172.052 47.2226 172.068 47.1245C172.689 43.3978 174.554 45.9804 175.682 46.5524C178.969 48.2523 181.945 50.4589 184.938 52.6492C186.769 53.9895 187.015 55.4932 186.769 57.4873C186.083 63.11 184.758 68.602 183.531 74.1266C183.155 75.8265 182.599 77.51 182.55 79.2263C182.469 81.629 181.062 83.3289 179.803 85.0451C178.773 86.4671 177.448 87.3498 175.208 86.7123C170.236 85.3066 165.069 84.4567 160.392 82.1847C158.724 81.3675 157.137 80.0272 157.759 77.9677Z" fill="#B5C3B6"/>
<path d="M188.681 58.0742C195.713 60.8038 201.567 64.743 206.293 70.1859C208.484 72.7031 209.237 75.8413 208.583 79.2411C208.125 81.6602 207.062 83.8668 207.863 86.6618C208.272 88.1328 207.16 90.6827 205.77 92.4153C204.462 94.0498 203.284 95.3083 200.799 95.1776C197.283 94.9978 193.718 95.2103 190.332 96.665C189.4 97.0736 188.256 97.2371 187.013 96.5015C185.688 95.7333 183.955 95.9131 182.352 96.2237C180.406 96.5833 178.46 94.8997 177.397 91.9739C176.743 90.1596 177.937 89.4241 179.31 88.7703C179.932 88.4761 180.324 87.904 180.7 87.3156C183.219 83.262 184.887 78.9632 185.606 74.1741C186.391 68.8129 187.945 63.5825 188.681 58.0742Z" fill="#B5C3B6"/>
<path d="M204.888 98.546C204.921 97.7614 203.924 98.0066 203.744 97.4508C204.48 96.6172 205.232 97.0749 205.853 97.3855C207.391 98.1537 208.699 99.3469 210.628 99.1507C211.381 99.069 211.61 100.05 211.806 100.654C212.934 103.858 213.964 107.078 215.06 110.282C215.273 110.903 215.011 111.311 214.619 111.687C212.803 113.436 211.332 115.43 209.238 117.032C205.444 119.925 200.8 120.873 196.875 123.358C195.6 124.159 194.341 124.257 192.803 123.39C191.07 122.41 189.01 121.968 187.047 121.396C185.821 121.037 185.15 120.448 185.036 119.059C184.496 113.207 183.891 107.356 183.221 101.521C183.106 100.573 183.646 100.393 184.234 100.05C187.26 98.3008 190.645 97.8922 194.014 97.4181C196.025 97.1239 198.069 97.0586 200.113 96.9115C201.34 96.8297 201.242 96.9441 202.157 98.0719C202.844 98.8565 203.907 98.8238 204.888 98.546ZM207.489 99.9843C210.203 101.57 210.727 104.054 210.563 107.045C212.1 103.531 210.792 100.507 207.489 99.9843Z" fill="#B5C3B6"/>
<path d="M190.76 152.744C190.76 152.058 190.874 151.371 190.744 150.701C189.632 144.899 193.36 142.398 197.71 140.191C201.749 138.132 205.854 135.925 210.4 135.843C213.981 135.778 217.595 135.533 221.193 135.827C222.125 135.909 221.945 136.579 221.978 137.151C222.093 139.652 222.616 142.071 223.139 144.506C223.908 148.053 222.698 151.339 221.406 154.575C221.144 155.245 220.686 155.18 220.13 155.114C216.925 154.738 213.818 155.507 210.711 156.111C209.37 156.373 208.062 156.16 206.721 156.357C203.041 156.88 199.999 159.135 196.434 159.903C196.075 159.985 195.731 160.181 195.372 160.296C194.047 160.721 192.542 160.753 191.349 160.361C189.697 159.838 190.956 158.187 190.793 157.076C190.596 155.637 190.76 154.183 190.76 152.744Z" fill="#B5C3B6"/>
<path d="M67.4715 113.632C67.5369 110.935 66.5884 108.45 65.8198 105.933C65.1657 103.841 65.2474 101.912 65.5091 99.7058C65.9506 96.1262 66.0487 92.6774 69.2213 90.1602C66.5393 90.5362 65.0676 92.3832 63.7102 94.3282C62.0586 96.6819 59.0332 96.2406 57.3325 93.8869C55.1575 90.8631 57.4306 87.8392 56.3677 84.9298C56.5639 84.9135 56.7601 84.8971 56.9564 84.8808C56.9564 86.5153 56.9564 88.1498 56.9564 89.768C58.0193 87.2835 58.5426 84.7337 58.3955 82.0531C58.3628 81.3502 57.2507 81.7589 57.3979 80.6147C57.8722 77.0024 57.8395 76.79 61.3554 75.7766C63.3505 75.2045 65.5418 73.1777 67.1444 74.1257C68.5017 74.9266 68.8451 77.6399 69.4011 79.5686C70.0716 81.9387 70.4968 84.3904 71.0201 86.8095C71.1836 87.5941 70.9383 88.2806 70.3169 88.9671C72.3611 89.4737 74.209 88.7546 76.0732 88.4604C76.9072 88.3296 77.6922 88.019 78.4771 88.5094C81.0282 90.0949 83.8246 89.9641 86.6047 89.5064C88.0601 89.2613 88.4362 89.6045 88.24 91.0756C87.6676 95.6522 86.4084 99.6731 82.9416 103.187C80.0143 106.162 77.1198 109.317 74.536 112.667C74.1109 113.223 73.5712 114.155 72.7535 113.55C71.8868 112.929 72.7208 112.161 73.0806 111.589C73.6857 110.641 74.4052 109.758 75.4518 108.369C73.4894 109.153 72.0831 109.889 71.2491 111.278C70.366 112.798 69.1231 113.485 67.4551 113.583C67.4224 113.599 67.4715 113.632 67.4715 113.632ZM82.0585 99.3135C81.3717 102.158 78.7879 103.955 77.9375 106.669C80.4232 104.838 82.2384 102.599 82.0585 99.3135Z" fill="#B5C3B6"/>
<path d="M130.235 206.259C130.807 205.23 130.317 203.857 130.088 202.467C129.924 201.421 130.366 200.816 131.38 200.424C140.194 197.073 149.221 194.376 158.428 192.268C159.622 191.99 160.047 192.203 160.259 193.592C160.848 197.351 160.963 201.209 162.206 204.87C162.32 205.197 161.993 205.704 161.797 206.08C161.192 207.289 160.488 208.45 160.717 209.921C160.865 210.852 160.08 211.424 159.556 212.029C158.379 213.418 157.251 214.791 156.629 216.557C156.22 217.717 152.966 218.371 150.726 217.864C147.324 217.096 144.152 215.69 140.979 214.285C138.428 213.157 135.942 211.719 133.26 211.097C130.513 210.493 130.17 208.842 130.235 206.259Z" fill="#B5C3B6"/>
<path d="M145.999 238.133C144.789 238.149 143.644 238.247 142.794 237.038C142.532 236.662 141.878 236.368 141.404 236.351C138.035 236.286 135.173 233.818 131.69 234.324C130.742 234.472 130.529 233.932 130.643 233.099C131.379 227.901 130.676 222.687 130.791 217.489C130.84 214.841 134.012 212.896 136.351 214.106C141.306 216.655 146.146 219.45 151.853 220.088C152.966 220.219 153.538 221.297 154.405 221.886C155.762 222.818 156.988 223.978 158.771 224.027C159.033 224.027 159.409 224.158 159.523 224.354C161.208 227.345 163.382 229.977 165.378 232.755C166.032 233.654 164.511 236.171 163.317 236.302C157.561 236.956 151.772 237.544 145.999 238.133Z" fill="#B5C3B6"/>
<path d="M43.8094 114.074C42.7301 114.989 42.4521 116.329 41.9942 117.915C41.1929 116.46 41.847 115.348 42.0105 114.286C42.6974 110.036 43.6131 105.803 45.2975 101.847C46.0825 99.9841 46.8511 97.6958 49.9255 98.4149C51.0702 98.6928 52.0514 97.2218 53.4905 97.2544C58.0857 97.3689 62.0105 100.033 63.4332 104.397C64.2181 106.833 64.7578 109.35 65.5427 111.785C65.8207 112.635 65.9516 113.975 67.4888 113.632L67.4397 113.583C66.9328 115.937 68.9115 117.653 69.026 119.99C69.1077 121.674 68.5681 122.295 67.407 122.508C65.1993 122.916 63.0734 123.897 60.7676 123.635C55.2402 123.014 50.0399 124.665 44.7742 125.875C41.9124 126.545 41.9124 126.561 41.6181 123.554C41.5853 123.259 41.6181 122.949 41.6181 122.442C42.2395 122.524 42.5665 123.586 43.2043 123.063C43.9402 122.475 43.9729 121.576 43.7603 120.759C43.1716 118.552 43.4169 116.427 44.1201 114.319C44.1364 114.139 44.2509 113.861 44.1855 113.812C43.9239 113.681 43.8421 113.877 43.8094 114.074ZM47.8813 103.417C45.412 105.541 44.5289 107.96 45.0195 111.05C45.9843 108.353 46.6221 105.77 47.8813 103.417Z" fill="#B5C3B6"/>
<path d="M164.167 54.7068C163.35 56.374 163.644 58.2537 162.45 59.9373C159.736 63.7457 157.463 67.8483 154.977 71.8201C154.585 72.4576 154.012 72.997 153.587 73.6017C152.671 74.9093 151.804 75.5958 150.022 74.6315C148.387 73.7488 146.375 73.7488 144.478 73.6508C143.513 73.6017 142.957 73.2258 143.268 72.2778C144.446 68.6982 143.121 65.2821 142.581 61.8333C142.5 61.2775 142.483 60.8362 142.63 60.3295C144.037 55.6548 144.217 50.8167 144.56 45.9949C144.593 45.4719 144.625 44.9325 144.658 44.4094C144.789 42.3663 145.394 41.3529 147.912 41.3366C150.807 41.3202 153.62 41.6308 156.449 41.8923C157.217 41.974 157.692 42.2682 158.117 42.8567C160.652 46.2891 162.32 50.1792 163.955 54.0857C164.053 54.2982 164.102 54.5107 164.167 54.7068Z" fill="#B5C3B6"/>
<path d="M210.3 119.777C214.503 119.924 218.117 122.997 218.82 126.773C219.213 128.849 219.491 130.941 219.883 133.001C220.031 133.785 219.867 134.079 219.033 134.112C217.218 134.161 215.468 134.455 213.718 135.044C212.704 135.387 211.903 133.867 210.366 134.292C207.537 135.076 204.577 135.485 201.879 136.596C198.592 137.953 195.239 137.675 191.87 137.708C189.81 137.741 188.992 136.351 188.273 134.798C187.635 133.426 188.207 132.477 188.976 131.154C192.606 124.861 199.426 123.733 205.084 120.758C206.752 119.875 208.861 120.431 210.3 119.777Z" fill="#B5C3B6"/>
<path d="M88.4535 185.975C89.3365 185.926 89.8435 186.564 90.3014 187.136C93.3431 191.01 97.8075 192.824 101.879 195.21C105.019 197.041 108.372 198.087 112.133 198.103C118.331 198.12 124.529 198.43 130.677 197.335C131.56 197.172 132.46 197.057 133.376 197.368C133.147 198.447 132.149 198.071 131.56 198.414C130.089 199.248 127.358 198.398 127.489 201.536C127.505 201.748 125.428 203.138 124.071 202.288C122.91 201.569 121.667 201.454 120.375 201.421C116.303 201.307 112.231 201.193 108.159 200.67C105.51 200.326 103.008 200.964 100.751 202.729C98.5107 204.478 98.4126 204.298 97.4314 201.748C96.7282 199.918 96.074 198.054 95.1746 196.322C93.6374 193.396 92.5908 192.857 89.3529 193.38C88.0446 193.592 87.3905 193.347 87.0144 192.072C86.4747 190.274 85.33 188.705 85.0684 186.793C86.2948 186.858 87.8648 188.509 88.4535 185.975Z" fill="#7F9276"/>
<path d="M214.34 172.752C212.982 168.421 210.807 164.596 208.992 160.591C208.829 160.215 208.322 159.66 208.992 159.496C210.856 159.055 212.034 157.339 214.045 157.126C218.395 156.669 219.229 157.502 218.281 161.572C217.381 165.38 216.515 169.189 214.34 172.752Z" fill="#B5C3B6"/>
<path d="M193.571 208.727C193.163 206.128 190.693 204.608 191.707 202.924C192.492 201.633 194.782 201.257 196.384 200.456C197.594 199.851 198.804 199.23 200.015 198.592C201.127 198.02 202.255 197.432 203.89 196.582C201.192 201.502 196.728 204.084 193.571 208.727Z" fill="#B5C3B6"/>
<path d="M73.7515 155.147C74.0949 157.272 74.422 159.577 74.8799 161.849C75.0107 162.502 75.5503 163.222 74.9943 163.745C74.2911 164.398 73.637 163.565 72.9992 163.287C72.525 163.091 72.0835 162.715 71.5929 162.633C70.6117 162.47 70.6607 161.979 70.8243 161.195C71.5602 157.354 72.3288 153.513 71.5602 149.573C71.4784 149.132 71.2822 148.397 71.9853 148.25C72.6231 148.119 73.3099 148.56 73.2445 149.214C73.081 151.175 74.7163 152.924 73.7515 155.147Z" fill="#7F9276"/>
<path d="M160.211 43.2331C161.715 43.2331 162.844 43.3149 163.956 43.2168C165.199 43.1024 166.131 43.4293 166.752 44.5734C166.965 44.9657 167.439 45.1946 167.652 45.5868C168.159 46.4695 169.99 46.3551 169.647 47.5319C169.369 48.4636 167.832 48.3655 166.867 48.7578C163.89 49.9837 163.874 49.951 162.435 47.205C162.124 46.6002 161.814 46.0118 161.486 45.407C161.143 44.835 160.8 44.2629 160.211 43.2331Z" fill="#B5C3B6"/>
<path d="M88.4534 185.976C87.8646 188.509 86.2947 186.858 85.0846 186.777H85.1337C85.3953 186.172 85.3463 185.681 84.6758 185.404L84.6921 185.42C84.6921 185.109 84.6921 184.799 84.6921 184.488C85.9513 184.979 87.1942 185.485 88.4534 185.976Z" fill="#405039"/>
<path d="M107.896 235.861C107.913 235.649 107.929 235.436 107.929 235.24C109.581 235.551 111.216 235.878 112.868 236.188C112.884 236.335 112.901 236.482 112.884 236.63C111.233 236.335 109.515 236.45 107.896 235.861Z" fill="#7F9276"/>
<path d="M80.1452 151.324C79.8508 152.223 79.5565 153.106 79.2621 154.005C79.0986 152.942 77.9539 151.471 80.1615 151.341C80.1779 151.341 80.1452 151.324 80.1452 151.324Z" fill="#405039"/>
<path d="M71.3323 145.177C71.1197 143.935 70.8908 142.693 70.5801 140.977C71.8883 142.48 71.2342 143.919 71.3323 145.177Z" fill="#405039"/>
<path d="M75.0607 152.435C75.0607 153.53 75.0607 154.625 75.0607 155.704C74.9953 155.704 74.9463 155.704 74.8809 155.704C74.8809 154.592 74.8809 153.481 74.8809 152.369C74.9299 152.402 74.9953 152.418 75.0607 152.435Z" fill="#405039"/>
<path d="M149.369 192.84C148.977 193.151 148.568 193.167 148.012 192.807C148.47 192.726 148.813 192.677 149.156 192.611C149.238 192.677 149.304 192.758 149.369 192.84Z" fill="#4D6B40"/>
<path d="M84.6924 184.488C84.6924 184.799 84.6924 185.109 84.6924 185.42C84.2182 185.436 84.1691 184.979 83.9238 184.733C84.1855 184.652 84.4308 184.57 84.6924 184.488Z" fill="#7F9276"/>
<path d="M84.6748 185.387C85.3453 185.681 85.3943 186.171 85.1327 186.76C84.5767 186.449 84.4786 185.959 84.6748 185.387Z" fill="#7F9276"/>
<path d="M165.215 187.789C165.002 188.051 164.626 188.23 164.463 187.969C164.234 187.593 164.74 187.626 164.937 187.479C165.035 187.577 165.133 187.691 165.215 187.789Z" fill="#4D6B40"/>
<path d="M157.839 186.758C157.692 186.856 157.528 186.97 157.364 187.052C157.364 187.052 157.299 186.954 157.25 186.905C157.43 186.84 157.61 186.774 157.79 186.709C157.806 186.725 157.839 186.758 157.839 186.758Z" fill="#405039"/>
<path d="M96.0419 107.272C95.8947 106.929 96.0582 106.7 96.3199 106.52C105.788 99.7532 116.075 96.5005 127.882 98.3802C135.388 99.5734 142.534 101.339 148.732 105.915C149.075 106.177 149.37 106.52 149.68 106.814C148.176 106.929 147.162 105.85 146.066 105.147C140.212 101.29 133.556 100.096 126.835 99.1484C123.744 98.7071 120.621 98.4456 117.465 98.9523C120.866 100.195 124.709 99.884 127.767 102.352C125.118 101.911 122.42 101.617 119.803 100.995C116.876 100.309 114.014 100.799 111.087 100.881C105.805 101.012 102.109 104.281 97.8734 106.52C97.301 106.831 96.7614 107.305 96.0419 107.272Z" fill="#1D1D1D"/>
<path d="M91.0039 130.402C96.0897 121.952 102.271 115.185 113.195 114.891C117.905 114.76 122.582 113.469 127.324 114.548C128.633 114.842 129.941 115.153 131.56 116.411C128.682 116.019 126.392 115.659 124.07 115.414C114.291 114.384 105.378 115.921 98.3955 123.766C96.2206 126.218 94.0619 128.801 91.1838 130.533C91.1184 130.501 91.0693 130.452 91.0039 130.402Z" fill="#1D1D1D"/>
<path d="M81.0449 123.618C81.9771 120.005 84.659 117.472 86.8012 114.628C88.9272 111.8 91.7072 109.577 94.6508 107.616C95.0596 107.338 95.4684 106.897 96.0572 107.256C95.8773 107.894 95.354 108.204 94.8634 108.547C89.892 112.078 86.1471 116.736 82.8601 121.787C82.3859 122.506 82.1569 123.52 81.0449 123.618Z" fill="#1D1D1D"/>
<path d="M166.213 161.408C165.33 157.861 167.325 154.363 165.82 150.686C169.042 153.088 169.124 158.041 166.213 161.408Z" fill="#1D1D1D"/>
<path d="M166.507 132.656C169.68 135.598 172.967 138.459 173.555 143.15C171.806 139.815 169.156 137.168 166.9 134.225C166.572 133.784 166.393 133.31 166.393 132.771C166.393 132.771 166.507 132.656 166.507 132.656Z" fill="#1D1D1D"/>
<path d="M133.898 104.379C135.027 103.823 135.746 104.608 136.041 105.344C136.744 107.109 137.643 108.367 139.965 107.795C137.431 109.413 136.384 108.776 133.898 104.379Z" fill="#1D1D1D"/>
<path d="M159.802 113.173C160.374 113.762 161.208 114.121 161.486 114.988C158.984 114.383 157.414 112.454 155.566 110.885C157.333 110.869 158.363 112.242 159.671 113.091C159.687 113.091 159.802 113.173 159.802 113.173Z" fill="#1D1D1D"/>
<path d="M153.082 113.712C151.316 113.124 150.138 111.93 149.01 109.92C151.185 110.852 152.182 112.241 153.082 113.712Z" fill="#1D1D1D"/>
<path d="M162.828 141.336C161.504 140.061 161.128 138.459 161.111 136.334C162.567 137.985 162.894 139.603 162.828 141.336Z" fill="#1D1D1D"/>
<path d="M142.713 109.414C144.266 108.466 145.82 108.384 147.93 109.414C145.787 109.414 144.25 109.414 142.713 109.414Z" fill="#1D1D1D"/>
<path d="M81.3066 129.175C81.3884 127.655 82.0425 126.413 83.2854 124.893C83.1055 126.887 82.2061 128.031 81.3066 129.175Z" fill="#1D1D1D"/>
<path d="M164.659 117.945C165.329 118.73 166.327 119.286 166.49 120.43C165.1 120.185 164.528 119.318 164.659 117.945Z" fill="#1D1D1D"/>
<path d="M88.2402 117.635C88.5509 116.426 89.5321 116.115 90.5624 115.854C90.6114 115.919 90.6605 115.984 90.7259 116.05C90.2353 117.014 89.3686 117.472 88.4038 117.799C88.3874 117.782 88.2402 117.635 88.2402 117.635Z" fill="#1D1D1D"/>
<path d="M161.487 114.988C162.321 115.086 162.664 115.773 163.089 116.361C162.075 116.443 161.47 116.083 161.487 114.988Z" fill="#1D1D1D"/>
<path d="M168.289 122.703C169.156 122.752 169.336 123.488 169.663 124.076C168.698 124.125 168.371 123.537 168.289 122.703Z" fill="#1D1D1D"/>
<path d="M152.852 109.07C153.571 108.988 154.029 109.282 154.225 109.985C153.538 110.034 153.081 109.724 152.852 109.07Z" fill="#1D1D1D"/>
<path d="M90.5469 115.837C90.8085 115.576 91.3155 115.298 91.4299 115.625C91.5935 116.083 90.9557 115.87 90.694 116.034C90.6613 115.968 90.6123 115.903 90.5469 115.837Z" fill="#1D1D1D"/>
<path d="M151.479 108.172C151.92 108.058 152.247 108.188 152.394 108.63C151.985 108.711 151.642 108.597 151.479 108.172Z" fill="#1D1D1D"/>
<path d="M150.578 107.714C151.085 107.469 151.363 107.698 151.494 108.188C151.101 108.205 150.758 108.123 150.578 107.714Z" fill="#1D1D1D"/>
<path d="M167.389 121.33C167.766 121.526 168.027 121.788 167.864 122.262C167.422 122.098 167.324 121.755 167.389 121.33Z" fill="#1D1D1D"/>
<path d="M80.5875 124.551C80.5384 124.142 80.5875 123.783 81.0454 123.619C81.1108 124.028 81.0127 124.371 80.5875 124.551Z" fill="#1D1D1D"/>
<path d="M154.209 109.988C154.667 109.857 154.978 109.988 155.125 110.445C154.716 110.527 154.373 110.412 154.209 109.988Z" fill="#1D1D1D"/>
<path d="M90.5959 131.35C90.5469 130.958 90.6777 130.648 91.0048 130.402C91.0702 130.451 91.1192 130.5 91.1846 130.549C90.9884 130.827 90.8085 131.089 90.5959 131.35Z" fill="#1D1D1D"/>
<path d="M90.6125 131.367C90.5798 131.416 90.5471 131.481 90.498 131.53C90.5308 131.465 90.5634 131.416 90.6125 131.367C90.5962 131.35 90.6125 131.367 90.6125 131.367Z" fill="#1D1D1D"/>
<path d="M155.125 110.443C155.419 110.46 155.665 110.525 155.599 110.901C155.436 110.754 155.272 110.59 155.125 110.443Z" fill="#1D1D1D"/>
<path d="M80.1777 124.975C80.3249 124.828 80.4721 124.665 80.6192 124.518C80.4721 124.681 80.3249 124.828 80.1777 124.975Z" fill="#1D1D1D"/>
<path d="M149.664 106.816C149.958 106.833 150.187 106.914 150.138 107.29C149.975 107.127 149.828 106.964 149.664 106.816Z" fill="#1D1D1D"/>
<path d="M167.83 122.244C168.206 122.195 168.321 122.375 168.304 122.718C168.141 122.555 167.994 122.408 167.83 122.244Z" fill="#1D1D1D"/>
<path d="M166.015 132.265C165.966 132.199 165.901 132.134 165.852 132.068C165.884 132.085 165.95 132.085 165.966 132.101C165.982 132.15 165.999 132.215 166.015 132.265Z" fill="#1D1D1D"/>
<path d="M150.121 107.256C150.465 107.224 150.693 107.305 150.595 107.73C150.432 107.567 150.285 107.42 150.121 107.256Z" fill="#1D1D1D"/>
<path d="M166.916 120.889C167.08 121.052 167.227 121.199 167.39 121.363C167.243 121.199 167.08 121.052 166.916 120.889Z" fill="#1D1D1D"/>
<path d="M166.473 120.432C166.783 120.432 166.898 120.628 166.947 120.906C166.783 120.742 166.62 120.595 166.473 120.432Z" fill="#1D1D1D"/>
<path d="M166.016 132.264C166.179 132.394 166.343 132.525 166.506 132.672L166.392 132.787C166.261 132.607 166.13 132.427 166.016 132.264Z" fill="#1D1D1D"/>
<path d="M86.9653 119.09C86.9326 119.139 86.8999 119.204 86.8672 119.253C86.8999 119.204 86.949 119.155 86.9817 119.106L86.9653 119.09Z" fill="#1D1D1D"/>
<path d="M87.4555 118.649C87.2919 118.796 87.1284 118.944 86.9648 119.074L86.9812 119.091C87.112 118.927 87.2592 118.764 87.39 118.584L87.4555 118.649Z" fill="#1D1D1D"/>
<path d="M87.3906 118.601C87.5214 118.421 87.6523 118.258 87.7831 118.078L87.9303 118.225C87.7667 118.372 87.6032 118.503 87.4397 118.65C87.456 118.65 87.3906 118.601 87.3906 118.601Z" fill="#1D1D1D"/>
<path d="M87.7988 118.092C87.946 117.945 88.0932 117.798 88.2404 117.635C88.2404 117.635 88.3875 117.782 88.4039 117.782C88.2567 117.929 88.0932 118.076 87.946 118.223C87.9296 118.223 87.7988 118.092 87.7988 118.092Z" fill="#1D1D1D"/>
<path d="M162.828 141.353C162.894 141.386 162.943 141.402 163.008 141.435C162.959 141.402 162.894 141.369 162.828 141.353C162.828 141.337 162.828 141.353 162.828 141.353Z" fill="#1D1D1D"/>
<path d="M152.393 108.631C152.671 108.664 152.883 108.762 152.867 109.105C152.703 108.941 152.54 108.778 152.393 108.631Z" fill="#1D1D1D"/>
<path d="M106.475 88.6742C106.916 87.007 108.372 86.631 109.729 86.4349C114.88 85.6994 119.77 83.6562 124.97 83.1659C126.115 83.0515 127.063 82.5448 127.979 81.7602C128.846 81.0247 129.778 80.4036 130.743 82.1852C131.822 84.1629 133.392 85.683 136.205 85.7648C140.26 85.8955 143.842 88.004 147.456 89.6876C150.563 91.1423 153.654 91.8615 157.104 91.0442C158.167 90.799 160.473 89.8837 159.41 93.0383C159.083 94.0027 160.636 95.441 161.863 96.3237C167.063 100.067 171.495 104.529 174.733 110.103C175.011 110.577 175.354 111.018 174.651 111.41C173.163 110.413 172.165 109.073 171.429 107.422C169.385 102.862 165.183 100.361 161.454 97.4678C160.407 96.6669 159.263 96.0295 158.919 94.7546C158.543 93.3652 157.807 93.022 156.466 93.1691C152.443 93.594 148.993 91.6326 145.428 90.2597C142.893 89.2953 140.473 88.0204 137.971 86.9416C137.284 86.6474 136.483 86.2551 135.812 86.3695C133.163 86.7945 131.773 85.2907 130.53 83.3457C130.252 82.9207 129.925 81.9073 129.255 82.6265C127.374 84.6533 124.888 84.0322 122.648 84.3264C119.541 84.7514 116.663 85.8301 113.752 86.8762C111.381 87.7752 108.977 88.3963 106.475 88.6742Z" fill="#1D1D1D"/>
<path d="M181.846 142.334C182.304 143.952 182.533 145.57 181.813 147.188C181.683 147.499 181.65 147.957 181.764 148.267C184.283 155.492 182.337 162.635 181.47 169.794C181.388 170.497 181.094 171.085 180.62 171.608C178.592 173.815 177.235 176.397 176.417 179.274C176.221 179.928 176.024 180.582 175.109 180.402C174.798 176.07 174.798 171.772 176.319 167.015C176.744 169.925 175.599 172.18 176.253 175.008C177.316 172.867 179.132 171.723 180.342 170.186C181.601 168.601 181.143 166.296 181.208 164.285C181.241 163.305 180.996 162.275 181.421 161.392C182.975 158.254 181.274 155.05 181.748 151.896C179.033 149.313 179.737 146.584 181.421 143.838C181.732 143.364 180.473 142.481 181.846 142.334Z" fill="#1D1D1D"/>
<path d="M176.009 114.105C176.532 116.851 178.298 119.074 179.214 121.641C179.558 122.589 179.427 123.569 179.214 124.517C178.985 125.498 178.985 126.43 179.672 127.247C177.922 127.378 177.562 126.283 177.939 124.959C178.609 122.556 177.988 120.594 176.369 118.78C175.093 117.374 175.453 115.724 176.009 114.105Z" fill="#1D1D1D"/>
<path d="M139.737 97.1399C135.387 95.7342 130.792 95.5381 126.344 94.6228C131.021 93.3969 135.42 94.2632 139.639 96.4371C139.672 96.6659 139.704 96.8947 139.737 97.1399Z" fill="#1D1D1D"/>
<path d="M95.3862 96.8621C95.3371 94.9007 96.5963 93.2826 96.8252 91.3702C96.9561 90.3895 97.9045 89.8992 98.7386 89.6213C100.881 88.9021 103.089 88.6569 105.329 89.0819C104.953 90.2751 103.923 89.9809 103.089 90.0136C98.853 90.1607 97.3813 91.3539 96.5636 95.4728C96.4001 96.2247 96.2202 96.7641 95.3862 96.8621Z" fill="#1D1D1D"/>
<path d="M179.639 127.248C181.225 129.978 180.276 133.067 180.865 135.944C181.094 137.088 180.963 138.314 180.98 139.507C179.704 137.447 179.819 135.11 179.704 132.838C179.622 130.958 179.655 129.095 179.639 127.248Z" fill="#1D1D1D"/>
<path d="M158.248 109.283C157.692 106.308 155.681 104.542 153.064 103.268C156.711 103.856 157.889 105.18 158.575 109.201C158.428 109.103 158.314 109.135 158.248 109.283Z" fill="#1D1D1D"/>
<path d="M106.604 97.7112C104.707 98.3487 102.81 98.9861 100.619 99.7217C101.96 98.0545 103.824 97.3843 106.604 97.7112Z" fill="#1D1D1D"/>
<path d="M139.737 97.1391C139.704 96.8939 139.671 96.6651 139.639 96.4199C140.342 96.7305 141.225 96.7141 141.748 97.4987C140.931 97.989 140.391 97.3025 139.737 97.1391Z" fill="#405039"/>
<path d="M159.803 113.174L159.689 113.093C159.64 112.717 159.574 112.324 159.525 111.949C159.64 111.85 159.754 111.752 159.852 111.654C160.474 111.932 160.964 112.357 161.177 113.027C161.079 113.125 160.981 113.223 160.883 113.322C160.523 113.289 160.163 113.223 159.803 113.174Z" fill="#405039"/>
<path d="M159.246 110.852C159.443 111.113 159.639 111.391 159.835 111.652C159.721 111.751 159.606 111.849 159.508 111.93C159.361 111.62 159.214 111.326 159.066 111.015C159.132 110.982 159.197 110.917 159.246 110.852Z" fill="#405039"/>
<path d="M158.575 109.185C158.739 109.43 158.853 109.676 158.461 109.79C158.444 109.79 158.33 109.447 158.248 109.267C158.313 109.136 158.428 109.103 158.575 109.185Z" fill="#405039"/>
<path d="M105.576 89.1304C105.838 88.8689 106.001 88.4276 106.525 88.6401C106.214 88.8035 105.887 88.967 105.576 89.1304Z" fill="#1D1D1D"/>
<path d="M142.68 97.9072C142.745 97.8908 142.81 97.8418 142.86 97.8418C143.072 97.8908 143.088 97.9889 142.909 98.087C142.86 98.1197 142.761 98.087 142.712 98.0543C142.696 98.0379 142.696 97.9726 142.68 97.9072Z" fill="#405039"/>
<path d="M144.332 98.3811C144.332 98.4302 144.348 98.5119 144.315 98.5282C144.266 98.5609 144.184 98.5773 144.135 98.5609C143.939 98.4792 143.939 98.3811 144.152 98.3157C144.201 98.2994 144.266 98.3484 144.332 98.3811Z" fill="#405039"/>
<path d="M164.986 185.272C165.133 185.207 165.264 185.142 165.411 185.076C165.362 185.223 165.313 185.387 165.264 185.534C165.183 185.452 165.084 185.37 164.986 185.272Z" fill="#1D1D1D"/>
<path d="M159.083 111.033C158.952 110.903 158.756 110.788 159.018 110.608C159.034 110.592 159.181 110.772 159.263 110.854C159.198 110.919 159.132 110.984 159.083 111.033Z" fill="#405039"/>
<path d="M94.6682 97.7608C94.5701 97.3358 94.8972 97.3032 95.1588 97.2051C95.0116 97.4012 94.8317 97.581 94.6682 97.7608Z" fill="#1D1D1D"/>
<path d="M161.175 113.043C161.257 113.157 161.421 113.337 161.388 113.386C161.208 113.68 161.044 113.484 160.881 113.337C160.979 113.239 161.077 113.125 161.175 113.043Z" fill="#405039"/>
<path d="M188.305 164.988C188.24 165.723 187.7 165.282 187.373 165.364C187.553 164.906 187.88 164.824 188.305 164.988Z" fill="#1D1D1D"/>
<path d="M136.416 72.9642C134.503 73.667 132.851 73.8632 130.529 73.5036C132.753 72.8335 134.323 71.7383 136.416 72.9642Z" fill="#1D1D1D"/>
<path d="M129.402 73.1777C127.521 75.1882 127.096 75.2862 125.297 74.4036C126.572 74.0277 127.766 73.6681 129.402 73.1777Z" fill="#1D1D1D"/>
<path d="M45.852 180.174C46.408 181.776 46.0646 182.969 46.1464 184.146C46.2772 186.123 46.6533 187.97 47.9125 189.621C49.6296 191.844 49.3679 194.59 49.8258 197.418C48.632 196.764 48.583 195.718 48.4194 194.884C47.9616 192.514 47.3238 190.259 46.1464 188.101C44.8218 185.731 44.8381 183.149 45.852 180.174Z" fill="#1D1D1D"/>
<path d="M79.5072 188.705C79.1801 190.667 78.3788 192.301 76.4492 193.151C75.9749 193.363 75.4353 193.641 74.961 193.216C74.3723 192.693 74.9774 192.252 75.2063 191.843C75.9586 190.552 76.7599 189.277 77.5939 188.019C77.8392 187.643 77.8065 186.874 78.6078 187.071C79.5236 187.316 79.4091 188.068 79.5072 188.705Z" fill="#1D1D1D"/>
<path d="M53.752 199.328C55.8452 199.786 57.4314 199.524 58.8868 200.391C56.8918 201.208 56.1232 201.093 53.752 199.328Z" fill="#1D1D1D"/>
<path d="M74.7487 177.72C74.3235 178.978 71.6906 178.112 72.2303 180.319C72.0177 180.319 71.756 180.384 71.5761 180.302C71.0365 180.057 70.8403 179.583 70.9384 179.011C71.0528 178.39 71.3472 177.802 72.0013 177.72C72.868 177.605 73.7675 177.671 74.6669 177.654L74.7487 177.72Z" fill="#1D1D1D"/>
<path d="M49.582 172.016C50.8903 171.166 52.2639 170.627 54.3572 171.003C52.4929 171.607 51.1192 172.13 49.582 172.016Z" fill="#1D1D1D"/>
<path d="M74.6836 177.638C74.749 177.557 74.8144 177.459 74.8962 177.377C74.9452 177.426 74.9779 177.475 75.027 177.524C74.9452 177.589 74.8471 177.655 74.7654 177.72C74.749 177.72 74.6836 177.638 74.6836 177.638Z" fill="#1D1D1D"/>
<path d="M42.681 131.545C43.6131 133.768 43.0244 135.762 42.681 137.674C42.1086 140.813 41.6671 143.804 42.7628 146.991C43.6622 149.59 43.6949 152.434 42.9754 155.49C41.9124 154.575 41.5036 153.578 41.4709 152.483C41.3237 146.73 41.1602 140.976 41.1602 135.223C41.1602 134.013 41.5526 132.722 42.681 131.545Z" fill="#1D1D1D"/>
<path d="M44.0531 161.604C42.3688 160.705 41.9926 159.169 42.0253 156.979C42.9248 158.662 43.628 159.97 44.3312 161.277C44.2167 161.375 44.1349 161.49 44.0531 161.604Z" fill="#1D1D1D"/>
<path d="M51.3477 159.594C52.3288 158.989 53.3264 159.087 54.5529 159.234C53.3755 160.264 52.3616 159.953 51.3477 159.594Z" fill="#4D6B40"/>
<path d="M44.3327 161.277C44.4145 161.392 44.4962 161.523 44.5943 161.637C44.4145 161.621 44.2346 161.621 44.0547 161.604C44.1365 161.49 44.2182 161.375 44.3327 161.277Z" fill="#1D1D1D"/>
<path d="M112.869 236.188C111.217 235.877 109.582 235.55 107.93 235.24C105.87 234.602 103.793 233.948 101.471 233.229C107.243 232.395 112.411 234.52 117.824 234.962C116.614 235.91 115.862 236.089 112.869 236.188Z" fill="#1D1D1D"/>
<path d="M110.039 203.447C115.501 204.068 121.028 204.314 126.441 205.36C120.979 204.673 115.387 205.131 110.039 203.447Z" fill="#1D1D1D"/>
<path d="M96.6786 229.094C97.3164 230.565 97.8233 231.709 98.363 232.935C96.3516 232.445 95.9918 231.709 96.6786 229.094Z" fill="#1D1D1D"/>
<path d="M108.387 202.68C107.455 204.167 105.885 203.072 104.724 203.579C104.609 203.464 104.511 203.35 104.396 203.252C105.574 201.862 107.111 203.039 108.436 202.696L108.387 202.68Z" fill="#1D1D1D"/>
<path d="M104.725 203.578C104.545 203.921 104.316 204.526 103.923 204.199C103.482 203.823 104.087 203.512 104.398 203.234C104.496 203.349 104.61 203.463 104.725 203.578Z" fill="#1D1D1D"/>
<path d="M92.8361 217.799C90.6938 214.252 91.119 208.384 93.7846 205.426C93.7028 209.725 93.9971 213.664 92.8361 217.799Z" fill="#1D1D1D"/>
<path d="M92.002 198.659C92.1982 198.659 92.2963 198.626 92.3454 198.659C93.5719 199.509 94.2751 200.686 94.3241 202.19C94.3405 202.549 93.8826 202.762 93.719 202.582C92.6888 201.487 92.1491 200.163 92.002 198.659Z" fill="#1D1D1D"/>
<path d="M92.7703 222.391C93.0811 223.731 92.8194 224.614 91.6093 225.039C91.2822 225.153 90.9551 224.99 90.9224 224.679C90.8243 223.371 91.8709 223.028 92.7703 222.391Z" fill="#1D1D1D"/>
<path d="M87.3906 198.986C88.29 197.695 89.631 197.809 91.2173 197.711C90.1707 198.969 88.6498 198.479 87.7177 199.264C87.6196 199.166 87.5051 199.068 87.3906 198.986Z" fill="#1D1D1D"/>
<path d="M87.7181 199.281C87.5219 199.395 87.3256 199.509 87.1458 199.607C87.0313 199.313 87.0803 199.084 87.4074 198.986C87.5055 199.068 87.62 199.166 87.7181 199.281Z" fill="#1D1D1D"/>
<path d="M207.486 99.9824C210.79 100.489 212.098 103.513 210.561 107.044C210.724 104.052 210.201 101.568 207.486 99.9824Z" fill="#1D1D1D"/>
<path d="M82.0585 99.3125C82.2384 102.598 80.4395 104.821 77.9375 106.668C78.7879 103.954 81.3553 102.173 82.0585 99.3125Z" fill="#1D1D1D"/>
<path d="M47.8807 103.416C46.6379 105.77 45.9838 108.352 45.0189 111.049C44.512 107.96 45.4114 105.557 47.8807 103.416Z" fill="#1D1D1D"/>
<path d="M43.8086 114.073C43.8413 113.877 43.9231 113.664 44.152 113.828C44.2174 113.877 44.1193 114.155 44.0866 114.334C43.9885 114.253 43.8904 114.171 43.8086 114.073Z" fill="#1D1D1D"/>
<g opacity="0.7">
<path opacity="0.7" d="M161.881 158.875C160.245 172.441 150.597 184.7 137.351 188.787C134.407 189.604 131.464 190.094 128.52 190.258C118.708 190.748 109.223 186.662 103.009 178.489C99.5751 173.749 97.4492 168.682 97.2857 162.961C97.2857 157.404 98.5939 152.01 102.192 147.27C107.425 140.405 116.092 136.973 124.432 139.588C130.483 141.549 135.225 146.78 135.716 153.154C135.879 156.096 135.061 159.038 133.099 161.49C130.319 164.596 125.904 166.067 122.142 163.452C119.526 161.654 119.853 158.712 120.017 155.933C120.18 154.625 118.708 154.462 117.564 154.625C114.129 155.443 112.494 158.712 112.331 161.817C112.167 168.519 117.727 174.239 124.432 175.384C131.3 176.528 137.678 173.912 142.257 168.846C145.691 164.923 147.49 160.019 147.817 154.789C148.471 144.982 143.402 135.828 134.898 130.435C128.52 126.512 121.488 125.204 114.293 126.021C102.846 127.492 93.1974 134.848 87.9644 144.982C86.002 148.741 85.0208 152.664 84.2031 156.75C85.1843 150.049 87.6373 143.674 92.0526 138.28C95.3233 134.357 99.0845 131.252 103.5 128.964C107.915 126.675 112.658 125.695 117.564 125.368C127.376 124.877 136.86 128.964 143.075 137.136C146.509 141.876 148.635 146.943 148.798 152.664C148.798 158.221 147.49 163.615 143.892 168.355C138.659 175.22 129.992 178.653 121.652 176.037C115.601 174.076 110.859 168.846 110.532 162.471C110.205 158.875 111.349 155.279 114.456 152.827C117.237 150.702 120.834 150.049 123.941 152.174C126.558 153.971 126.394 156.914 125.904 159.692C125.904 160.183 126.231 160.836 126.885 161C130.319 161.654 132.772 158.712 133.426 155.606C134.244 151.52 132.936 147.76 130.156 144.818C126.558 140.895 121.325 139.424 116.255 140.242C111.513 140.895 107.098 143.02 103.827 146.78C99.7386 151.683 97.6127 157.731 98.1033 164.105C98.5939 169.499 100.556 174.403 103.99 178.816C107.425 183.066 111.676 186.008 116.746 187.969C125.25 191.075 134.407 190.258 142.42 186.335C147.49 183.72 151.578 180.124 155.012 175.547C158.774 170.48 160.9 164.923 161.881 158.875Z" fill="#2D986C"/>
</g>
<g opacity="0.26">
<path opacity="0.26" d="M144.218 191.891C137.513 195.487 129.827 196.304 122.305 195.16C115.11 194.016 108.895 190.91 103.662 185.843C99.9011 182.084 97.2846 177.834 95.4857 172.931C91.561 161.162 94.8316 147.596 105.625 140.077C113.311 134.847 122.632 133.866 130.645 138.443C135.224 141.058 138.331 145.144 139.966 150.048C142.256 157.566 138.658 166.556 130.645 168.844C126.23 169.989 120.997 168.518 119.198 164.104C118.38 161.979 118.544 159.528 120.179 157.566C121.16 156.422 122.796 156.422 123.94 155.441C125.412 153.97 123.45 152.009 121.978 151.355C120.179 150.701 118.217 150.701 116.418 151.355C111.839 152.99 109.059 157.566 108.732 162.306C108.405 168.681 111.512 174.238 116.908 177.834C122.305 181.267 128.192 181.92 134.243 180.449C146.181 177.344 153.703 165.739 153.376 153.807C153.212 147.596 151.414 141.875 147.652 136.481C143.728 130.924 138.658 127.328 132.607 124.876C123.286 121.117 112.82 121.771 103.662 125.693C103.826 125.693 103.826 125.693 103.989 125.693C109.877 122.588 116.745 121.771 123.45 122.261C129.337 122.915 134.733 124.876 139.803 128.309C146.017 132.395 150.105 138.116 152.395 144.817C155.502 154.297 154.03 164.922 147.325 172.931C139.966 181.757 127.538 185.189 117.235 179.305C111.021 175.709 106.933 169.171 107.26 161.979C107.587 155.278 112.493 149.23 119.361 148.413C123.123 148.086 127.211 149.884 128.683 153.643C129.01 154.624 129.173 155.605 129.173 156.586C129.01 159.201 126.884 161.162 124.431 161.979C122.959 162.47 123.286 164.431 124.267 165.249C125.903 166.556 127.701 167.21 129.991 166.72C135.551 165.575 138.822 160.672 139.149 155.278C139.476 149.067 136.369 143.346 130.972 139.914C124.758 135.827 117.235 135.664 110.531 138.279C100.555 142.529 94.341 152.99 94.5045 163.777C94.6681 176.527 103.335 188.132 115.273 192.872C124.594 196.468 135.224 196.141 144.218 191.891Z" fill="#2D986C"/>
</g>
<path d="M9.1582 95.6504L15.5523 95.3398L14.7183 105.686L9.1582 95.6504Z" fill="black"/>
<path d="M13.2305 83.0813L18.1364 87.3801L23.5003 78.6191L13.2305 83.0813Z" fill="black"/>
<path d="M80.8514 242.871L80.4589 249.524L70.6797 247.546L80.8514 242.871Z" fill="black"/>
<path d="M89.0257 247.645L84.4141 252.27L92.1982 258.759L89.0257 247.645Z" fill="black"/>
<path d="M29.9416 104.92C29.8599 104.675 29.7944 104.43 29.729 104.185C29.7454 104.25 29.7617 104.332 29.7781 104.397C29.3366 102.697 29.1403 100.916 29.2057 99.1506C29.2221 98.4968 29.3039 97.843 29.402 97.1892C29.3856 97.2546 29.3693 97.3363 29.3693 97.4017C29.6146 95.996 30.0888 94.623 30.8411 93.4135C30.792 93.4789 30.7593 93.5442 30.7102 93.6096C31.1354 92.9231 31.6424 92.302 32.2147 91.7299C32.2801 91.6645 32.3619 91.5992 32.4273 91.5338C32.46 91.5011 32.4927 91.4684 32.5254 91.4357C32.6399 91.3376 32.4273 91.5174 32.4273 91.5174C32.4437 91.5011 32.4764 91.4684 32.4927 91.4521C32.6563 91.305 32.8361 91.1742 33.016 91.0434C33.3921 90.7656 33.7683 90.5204 34.1607 90.2916C34.2262 90.2589 34.2752 90.2262 34.3406 90.1935C34.5532 90.0791 34.0953 90.3243 34.3243 90.2098C34.4388 90.1445 34.5696 90.0954 34.6841 90.03C34.9457 89.8993 35.2237 89.7849 35.5017 89.6704C35.7143 89.5887 35.9923 89.4089 36.0741 89.1637C36.1558 88.9513 36.0904 88.7061 35.9269 88.5426C35.469 88.1177 34.7004 88.1013 34.1444 88.3301C32.2965 89.082 30.5467 90.1935 29.2384 91.7626C28.2082 92.9885 27.4723 94.4759 27.0635 96.045C26.6873 97.4671 26.5565 98.9381 26.6056 100.409C26.6383 101.521 26.7855 102.616 26.9981 103.695C27.0798 104.103 27.1779 104.512 27.2924 104.92C27.3415 105.084 27.3742 105.247 27.4396 105.411V105.427C27.5214 105.656 27.8648 105.819 28.0447 105.885C28.339 105.983 28.7315 105.999 29.0422 105.917C29.5492 105.836 30.1379 105.509 29.9416 104.92Z" fill="black"/>
</g>
<defs>
<clipPath id="clip0_288_5675">
<rect width="253" height="266" fill="white"/>
</clipPath>
</defs>
</svg>
