<svg viewBox="0 0 1440 440" fill="none" xmlns="http://www.w3.org/2000/svg">
  <g transform="translate(0,67)">
    <g clip-path="url(#clip0_75_11512)">
      <path
        d="M1112.46 257.517C1114.82 248.619 1117.18 239.399 1119.54 230.393C1124.79 230.071 1128.86 229.857 1134.86 229.428C1125.43 216.778 1116.86 205.413 1108.39 193.835C1106.79 191.583 1104.86 188.796 1104.75 186.223C1104.11 171.964 1103.79 157.705 1103.57 143.446C1103.36 125.864 1103.57 108.282 1103.57 90.4849C1105.82 89.52 1108.82 88.3407 1112.25 86.947C1103.46 58.5365 1094.89 30.6621 1085.46 0.107422C1071.96 30.3405 1059.64 57.8933 1047.32 85.6605C1050.86 86.947 1056.43 87.3758 1058.36 90.1633C1060.39 93.2724 1058.89 98.6328 1059 103.028C1059 104.529 1059.21 106.03 1059.54 107.531C1063.93 127.687 1057.07 143.446 1038.21 154.811C1038.21 142.481 1038.32 130.688 1038.21 119.003C1038.11 111.498 1036.61 103.35 1047.54 102.492C1037.89 84.8028 1028.79 67.9709 1018.61 49.3165C1012.82 69.043 1007.57 86.8398 1002.32 104.529C1010.04 107.746 1013.14 118.788 1013.14 137.443C1008 139.372 1001.46 139.801 999.857 142.803C995.357 151.594 992.893 161.35 989.679 170.678C991.072 172.393 993.643 174.108 993.857 176.145C994.929 184.186 995.25 192.334 995.786 200.482C995.786 201.339 995.465 202.304 995.036 202.948C989.572 211.203 984 219.458 978.536 227.713C979.5 227.82 980.465 228.035 981.429 228.142C982.822 232.752 984.107 237.469 985.929 243.473C974.25 242.293 964.715 241.328 954.643 240.256C954.215 231.787 953.786 223.746 953.465 215.705C957.965 215.277 961.286 215.705 963.965 214.526C966.643 213.347 968.572 210.559 970.822 208.522C968.357 207.129 966.107 204.877 963.429 204.556C960 204.02 956.465 204.877 952.5 205.199C951.643 196.515 950.893 188.796 950.036 180.541C945.215 181.291 941.464 181.827 937.607 182.363C938.143 190.726 938.572 198.123 939 205.949C931.072 206.914 924.322 207.665 916.929 208.522C917.786 212.168 918.429 214.848 919.072 217.314H940.072C940.5 225.569 941.036 233.609 941.465 242.079C919.929 244.223 900.75 255.373 878.679 250.763C879.536 238.648 880.286 227.284 881.143 215.062C887.679 215.491 893.572 215.813 899.893 216.134C901.607 207.558 903.214 199.41 904.929 191.369C896.893 189.225 887.786 189.546 884.786 185.365C881.679 181.077 884.357 172.393 884.572 165.746C884.572 165.531 884.357 165.21 883.929 164.352C876.75 162.53 869.357 160.064 861.643 158.884C859.822 158.67 856.179 162.422 855.536 164.995C854.357 169.713 854.786 174.966 854.465 180.541C850.179 180.005 847.286 179.361 844.286 179.254C841.286 179.147 838.179 179.04 835.286 179.79C833.25 180.326 830.572 181.934 830.036 183.65C827.036 192.87 830.036 198.23 839.357 201.768C841.929 202.733 844.822 203.162 846.965 204.663C849 206.164 851.464 208.951 851.357 211.095C851.036 225.676 850.072 240.149 849.536 253.014C839.572 258.589 830.786 263.521 820.715 269.096C820.179 259.983 819.322 252.585 819.429 245.081C819.964 217.957 811.393 219.994 792.215 226.641C782.679 229.964 780.215 234.253 781.5 244.652C782.786 254.515 783.965 264.378 785.036 273.17C764.465 280.138 744.75 286.785 724.607 293.539C723.322 286.356 722.036 279.388 720.75 272.312C739.179 271.669 739.179 271.669 742.393 259.768C737.572 261.484 734.143 263.306 730.5 263.95C726.643 264.593 722.572 264.164 718.5 264.164C719.464 260.197 720 256.016 721.607 252.264C722.25 250.763 725.036 250.12 725.893 249.691C731.143 251.513 735.536 252.907 742.179 255.158C733.715 241.007 731.572 240.256 717.215 243.687L716.679 241.221C724.822 239.399 733.072 237.683 741.215 235.861C735.429 232.43 729 229.535 723 230.179C717.107 230.822 711.536 235.11 707.143 237.255C707.786 231.787 708.643 224.175 709.607 216.67C708.215 216.456 706.822 216.241 705.429 216.027C703.286 226.105 701.25 236.182 699.107 246.153C698.572 246.153 698.036 246.153 697.5 246.153C696.75 240.042 696.107 233.931 695.357 227.82C694.393 227.927 693.429 228.035 692.465 228.142C688.393 240.364 691.393 251.835 696 263.628C700.072 274.242 703.179 285.177 707.357 298.042C688.929 296.22 673.072 294.719 656.25 293.003C657.429 281.746 658.286 271.883 659.679 262.02C662.679 240.256 659.143 233.824 639.107 225.354V203.698C645 201.125 649.393 199.41 653.572 197.265C653.786 197.158 652.822 192.548 651.643 192.227C647.893 191.047 643.822 190.94 639 190.297C639 189.118 637.714 184.936 639.214 182.899C645.429 174.859 638.679 172.071 634.607 167.461C623.572 175.716 634.929 185.901 631.179 195.121C626.572 195.443 619.607 189.654 617.143 201.018H632.143C632.786 209.809 633.429 217.85 633.965 224.604C628.393 228.356 622.393 230.286 619.715 234.467C614.893 241.972 608.25 243.258 600 244.116C598.929 238.863 597.964 233.824 596.893 228.785C596.143 228.892 595.5 228.999 594.75 229.107V246.26C594 246.475 593.25 246.689 592.393 246.903C590.679 243.687 587.572 240.471 587.465 237.147C586.822 222.567 578.893 214.419 565.929 211.095V188.689C571.393 186.652 575.572 185.365 579.322 183.435C579.857 183.114 579.429 178.504 578.679 178.182C574.714 176.788 570.536 176.145 564.643 174.859C562.179 169.82 575.143 158.134 557.465 152.774V180.97C551.357 178.933 545.465 176.36 543.215 186.759H558.965C559.393 193.299 560.357 199.302 559.929 205.306C559.714 208.094 557.572 212.06 555.215 213.132C544.179 218.386 539.465 226.855 539.893 238.648C540.215 246.26 540.965 253.765 541.179 261.377C541.179 263.199 539.893 264.915 539.25 266.737C538.607 266.63 537.857 266.523 537.215 266.308C535.822 262.127 534.429 257.946 533.036 253.765L531.107 254.301C531.75 259.125 532.5 263.842 533.143 268.667C532.072 268.024 531 267.488 529.929 266.844C526.072 270.168 522.215 273.384 517.5 277.458C514.607 275.099 511.286 272.419 507.322 269.203C507.536 271.883 507.75 274.135 507.965 276.708C505.179 277.458 502.607 278.209 500.036 278.959C498.322 276.172 496.715 273.813 494.143 269.525C494.572 274.456 494.786 277.136 495 280.031C487.822 281.639 481.179 283.14 474.536 284.641C474.536 284.534 474.536 284.534 474.536 284.427C472.179 280.889 469.929 277.351 466.179 271.776C467.036 277.565 467.465 280.674 468 283.891C465.965 284.534 464.25 285.07 462.322 285.606C464.786 286.571 466.822 287.321 468.75 288.072C468.75 288.822 468.643 289.68 468.643 290.43C464.465 291.074 460.393 291.824 456.215 292.467C455.036 285.713 454.072 279.924 453.107 274.135C452.465 274.242 451.929 274.242 451.286 274.349V286.678C444.322 285.284 435.643 292.146 433.286 276.815C432.107 282.497 431.465 285.177 430.715 288.608C423.643 288.608 417 288.715 410.25 288.608C402.643 288.393 393.322 291.61 392.036 278.959C390.322 282.497 388.929 285.284 387.536 287.965C388.286 288.501 390.643 290.216 393.75 292.467C377.357 299.222 380.893 283.676 376.179 279.173C374.357 281.318 372.857 284.427 371.572 284.427C367.822 284.105 364.072 282.604 359.679 281.318C356.893 286.035 350.893 286.678 344.357 281.532C338.572 287.965 333.857 288.393 328.5 283.462C326.786 285.177 324.965 288.286 323.679 288.072C321.215 287.75 318.965 285.499 317.357 284.534C315.75 286.892 314.572 290.216 312.322 291.181C310.822 291.824 307.822 288.929 305.679 287.429C301.715 284.748 297.965 281.961 293.893 279.173V264.807C297.75 263.628 301.286 262.556 304.715 261.484C304.715 260.305 304.607 259.232 304.607 258.053C301.179 257.195 297.643 256.445 294.107 255.587C294.215 244.223 294.215 244.223 288.857 239.828V257.946C285.322 258.911 282.322 259.876 279.215 260.733C279.429 261.698 279.643 262.663 279.857 263.628H289.393C289.929 269.203 290.357 274.563 290.572 277.244C285.107 283.569 279.536 287.643 277.607 293.003C275.572 298.471 277.179 305.225 277.179 311.015C251.357 311.765 227.465 299.222 203.893 309.728C200.679 304.689 198.857 297.828 194.893 296.22C183.75 291.61 186.215 283.676 186.857 276.386C190.822 274.992 194.036 273.92 197.25 272.848C197.25 271.776 197.143 270.597 197.143 269.525C193.715 268.774 190.393 268.131 186.107 267.166C183.75 263.628 193.393 255.587 181.393 252.371V269.846C177.75 270.811 174.965 271.562 172.072 272.312C172.179 273.277 172.286 274.242 172.5 275.207C175.5 275.528 178.5 275.743 182.143 276.064C180.643 281.854 188.25 289.037 179.465 293.539C171.643 297.613 168.643 303.617 169.179 312.087C169.393 315.517 169.179 318.948 169.179 323.129C163.286 320.985 158.679 319.699 154.393 317.769C148.286 314.874 146.679 297.077 151.179 292.038C153.215 289.68 153.322 285.606 154.715 280.674C148.5 282.175 145.393 282.819 142.072 283.676C140.572 280.46 139.179 277.565 137.572 274.242C133.179 276.493 129.429 278.423 125.893 280.245C126.965 283.891 127.822 287 128.572 290.002C125.357 292.146 122.572 293.861 119.357 295.898C121.179 299.543 122.786 302.652 124.286 305.654C127.5 305.118 130.179 304.689 133.286 304.153C135 309.621 136.607 314.66 138.215 319.699C137.143 319.377 136.072 318.948 134.893 318.626C131.679 323.451 128.572 328.275 125.357 332.992C124.607 334.065 123.643 335.78 122.572 335.887C113.25 337.174 103.822 338.353 94.286 339.532C82.6074 343.392 70.7146 343.713 58.5003 341.998C57.3217 341.891 56.3574 341.355 55.3931 340.712C47.2503 341.462 39.3217 342.212 30.8574 343.07V320.878C34.8217 317.554 44.5717 319.377 41.036 308.978C38.4646 308.442 35.2503 307.798 31.3931 307.048C31.0717 304.368 30.6431 301.58 30.1074 297.613C26.1431 298.042 22.3931 298.364 18.1074 298.793C17.8931 305.976 17.036 312.515 7.39314 310.157C6.21456 318.09 6.64314 323.88 15.9646 323.451V336.53C9.64314 340.39 4.50028 343.499 -0.642578 346.608V397.747H1140.54V262.77C1131.75 261.055 1122.32 259.34 1112.46 257.517ZM309.322 310.586C308.465 309.728 307.607 308.763 306.75 307.906C309.429 304.368 312 300.722 314.679 297.185C315.75 297.721 316.715 298.257 317.786 298.685C318.107 302.116 318.322 305.547 318.643 309.406C315 309.942 312.107 310.264 309.322 310.586ZM321.965 308.442C322.072 302.116 318 295.469 328.5 296.005C328.822 301.259 333.536 308.013 321.965 308.442ZM334.715 306.619C330.107 294.826 331.179 293.432 344.036 294.183C344.679 297.077 345.322 300.079 346.179 303.939C341.465 305.011 338.036 305.761 334.715 306.619ZM349.715 302.009C345.215 297.935 353.786 291.717 347.893 286.678H359.357C362.357 302.009 362.036 302.545 349.715 302.009ZM396 290.645H431.465C419.679 297.399 399.643 296.756 396 290.645ZM435.536 289.68C440.572 289.037 445.5 288.393 450.857 287.75C449.679 295.362 447 296.005 435.536 289.68ZM473.143 295.791C473.679 291.395 474 287.965 474.429 284.427C481.5 283.783 488.465 283.033 495.965 282.39C496.715 285.82 497.357 288.822 498.322 293.325C489.75 294.183 481.607 295.04 473.143 295.791ZM515.25 288.822C515.036 288.822 514.286 283.247 515.25 282.604C518.572 280.567 522.643 279.495 528 277.458C528.215 282.926 528.429 285.499 528.536 289.037C523.715 289.144 519.429 289.251 515.25 288.822ZM581.893 282.175C582.964 273.706 583.929 265.665 584.893 257.517C585.965 257.517 586.929 257.41 588 257.41C589.5 265.451 591 273.384 592.607 282.175H581.893ZM598.5 279.924C597 271.454 595.5 262.985 594 254.408C595.5 254.194 597 254.086 598.5 253.872C598.929 262.449 599.357 271.133 599.786 279.709C599.357 279.817 598.929 279.924 598.5 279.924ZM613.179 284.212C605.572 286.249 602.357 282.926 602.679 275.099C602.893 267.916 602.679 260.626 602.679 252.264C605.036 251.621 608.357 250.763 613.179 249.476V284.212ZM1011.64 201.983C1008 202.197 1005.21 202.411 1001.46 202.626C1000.18 193.728 999.107 186.008 997.929 177.324C1002.54 176.681 1006.82 176.038 1011.75 175.395V201.983H1011.64ZM1087.18 100.884C1087.29 98.8472 1089.96 97.0247 1091.46 95.0949C1093.07 96.9175 1095.86 98.6328 1095.96 100.563C1096.39 109.568 1096.18 118.681 1096.18 129.08C1092.96 128.544 1090.07 128.008 1087.07 127.472C1086.96 118.252 1086.64 109.568 1087.18 100.884ZM1086.96 153.953C1088.25 152.238 1090.71 150.093 1092.21 150.308C1093.82 150.629 1096.07 153.524 1096.07 155.347C1096.5 164.674 1096.29 174.001 1096.29 183.543C1089.21 185.151 1086.54 183.328 1085.89 175.18C1085.25 167.783 1081.61 160.707 1086.96 153.953ZM1067.46 211.095C1061.57 211.631 1056.64 211.953 1050.96 212.489C1050.64 204.341 1044.32 196.301 1052.79 190.297C1055.46 188.367 1061.57 188.26 1064.14 190.082C1072.18 195.443 1067.14 203.484 1067.46 211.095ZM1068.64 127.043C1067.68 126.722 1066.39 125.114 1066.39 123.934C1066.18 114.5 1066.29 105.065 1066.29 95.631C1068 95.5238 1069.61 95.4165 1071.32 95.2021C1071.54 105.065 1071.75 115.036 1071.75 124.899C1071.64 125.757 1069.39 127.258 1068.64 127.043ZM1068.96 182.042V149.45C1075.5 161.35 1074.54 178.825 1068.96 182.042ZM1107.75 258.696C1095.54 256.123 1084.18 253.765 1072.29 251.299V237.469H1110.43C1109.57 244.652 1108.71 251.085 1107.75 258.696Z"
        fill="#1B533A"/>
      <path
        d="M943.287 88.0187C937.501 61.3236 944.894 44.5989 968.144 35.3789C965.144 41.5971 961.394 47.6008 959.358 54.1405C958.073 58.1073 959.573 62.8245 959.465 67.1129C959.144 77.405 952.394 85.5529 950.144 95.0945C948.965 100.026 949.073 105.279 948.644 109.997C940.93 110.425 931.715 109.032 924.537 112.141C919.18 114.499 913.394 116 908.144 118.895C906.965 119.538 905.144 120.61 904.501 120.182C894.751 114.285 886.18 117.716 877.18 124.255C884.465 105.172 903.323 97.3459 929.037 100.241C934.287 95.845 938.037 92.5215 943.287 88.0187Z"
        fill="#1B533A"/>
      <path
        d="M1060.61 18.6544C1043.47 23.4788 1026.11 28.4105 1009.07 33.3421C997.608 23.586 985.823 13.6156 973.93 3.43067C986.144 1.39369 999.108 7.18299 1005.75 17.4751C1008.86 22.2995 1019.25 23.8004 1024.07 20.2625C1037.04 10.6137 1051.39 10.0776 1060.61 18.6544Z"
        fill="#1B533A"/>
      <path
        d="M710.144 145.054C699.001 137.978 688.501 131.438 677.787 124.684C679.716 113.32 681.644 101.741 683.787 88.3398C690.323 96.9166 691.823 104.528 688.394 112.569C685.18 120.288 687.216 124.255 695.037 126.399C704.037 128.972 709.18 134.869 710.144 145.054Z"
        fill="#1B533A"/>
      <path
        d="M774.644 95.2023C767.359 85.8751 760.501 77.1912 752.787 67.2207C762.644 68.4 768.859 72.1523 772.609 79.7642C776.144 86.9472 780.859 88.2337 787.823 84.1598C795.537 79.657 803.037 79.7642 810.859 85.2319C798.323 88.6626 786.537 91.9861 774.644 95.2023Z"
        fill="#1B533A"/>
      <path
        d="M912.75 12.0078C915.214 31.3055 911.786 33.0208 895.5 33.5569C905.571 29.9118 913.393 24.5513 912.75 12.0078Z"
        fill="#1B533A"/>
      <path
        d="M843.857 85.2309C853.607 81.8002 861.215 76.8686 860.25 64.7539C865.5 79.7632 859.715 86.5174 843.857 85.2309Z"
        fill="#1B533A"/>
      <path
        d="M1018.82 43.6341C1002.97 54.1406 1001.14 52.3181 991.822 38.3809C999.858 44.8134 1008.64 47.6009 1018.82 43.6341Z"
        fill="#1B533A"/>
      <path
        d="M1141.18 262.77L1311.11 290.966C1325.25 293.324 1339.61 294.396 1353.97 294.289L1521.11 293.003L1506.11 402.999L1257.75 402.892L1066.18 397.746L1141.18 262.77Z"
        fill="#1B533A"/>
      <path
        d="M1251.86 227.07C1253.57 220.852 1253.57 216.028 1249.29 211.847C1248.86 211.418 1248.21 210.989 1248 210.346C1243.71 200.697 1234.71 201.34 1226.36 200.268C1221.75 199.732 1217.14 198.982 1212.64 198.124C1211.68 197.91 1210.61 196.409 1210.39 195.337C1209 188.797 1205.04 184.83 1198.82 183.007C1196.25 182.257 1193.68 181.721 1191.21 180.756C1183.29 177.969 1179.64 168.641 1184.25 162.209C1185.75 167.355 1185.43 173.251 1190.89 175.717C1193.79 177.111 1196.89 178.076 1199.89 179.148C1200.75 173.895 1201.71 169.392 1202.04 164.889C1202.14 163.603 1200.54 161.994 1199.36 160.815C1196.46 157.813 1195.5 150.845 1197.64 147.307C1197.86 147.307 1198.39 147.307 1198.39 147.414C1199.57 152.238 1202.25 156.205 1204.93 160.279C1206.32 162.423 1206.54 165.961 1206.11 168.749C1204.29 179.684 1211.25 185.688 1218.21 191.799C1219.07 192.549 1220.68 192.763 1221.96 192.763C1226.68 192.549 1231.39 192.013 1237.29 191.477C1235.14 185.58 1233.54 179.684 1230.96 174.216C1228.82 169.713 1226.25 165.854 1228.29 160.172C1229.89 155.562 1228.39 150.416 1226.04 145.913C1225.29 144.412 1224.64 142.911 1223.79 140.981C1224.96 140.981 1225.61 140.767 1226.14 140.981C1229.79 142.482 1234.61 151.595 1233.96 155.562C1233.75 157.277 1233.11 159.314 1233.86 160.601C1235.36 163.495 1237.5 166.176 1239.43 168.856C1241.46 167.14 1243.71 165.64 1245.64 163.71C1247.04 162.316 1248.11 160.601 1249.07 158.778C1251 155.026 1251 151.488 1248.11 148.057C1245.54 145.055 1243.29 141.946 1240.71 138.623C1244.68 137.015 1248.54 140.767 1254.64 151.81C1255.71 149.987 1256.89 148.593 1257.32 147.092C1257.86 145.055 1257.64 142.911 1258.07 140.767C1258.29 139.802 1259.04 138.837 1259.57 137.98C1260.32 138.73 1261.61 139.373 1261.71 140.338C1262.68 146.02 1263.21 151.488 1257.43 155.24C1256.14 156.098 1255.39 157.92 1254.43 159.314C1251.64 163.495 1249.18 167.784 1246.07 171.75C1244.68 173.466 1244.04 174.752 1244.68 177.004C1248 188.261 1256.25 195.122 1265.89 201.447C1269.43 194.8 1273.07 188.582 1275.96 181.935C1276.71 180.327 1275.21 177.54 1274.46 175.396C1273.39 172.287 1272 169.285 1270.82 166.283C1271.46 165.961 1272.21 165.64 1272.86 165.318C1276.18 170.464 1280.14 175.288 1281.21 182.043C1286.14 179.684 1291.07 177.861 1292.04 171.75C1292.36 169.928 1293.54 167.998 1294.82 166.497C1299.64 161.03 1299.32 154.919 1297.93 148.486C1296.96 144.09 1294.61 140.767 1290.54 138.623C1289.25 137.872 1288.18 136.693 1286.36 135.299C1293.96 133.798 1299.96 140.553 1304.04 151.917C1307.25 161.03 1303.93 168.32 1298.89 175.717C1311.43 174.752 1314.32 166.283 1314.75 155.669C1318.71 159.743 1318.5 164.353 1317.32 168.749C1314.96 177.325 1308.54 181.614 1300.29 183.758C1296.75 184.723 1293 185.473 1289.68 186.974C1277.79 192.227 1272.75 204.878 1277.14 217.1C1278.75 221.496 1279.5 226.106 1280.79 231.037C1284.32 230.608 1288.29 231.573 1291.61 228.357C1292.79 227.285 1294.93 227.392 1296.43 226.534C1300.82 224.069 1304.04 220.638 1305.96 215.814C1306.93 213.455 1308.86 211.311 1310.79 209.595C1318.5 202.734 1322.68 194.479 1321.93 183.972C1321.82 182.9 1322.04 181.828 1322.04 180.756C1322.04 180.542 1322.25 180.327 1322.36 180.113C1328.79 184.723 1329.86 197.802 1324.29 204.878C1322.46 207.237 1320 209.381 1318.61 211.954C1317.64 213.669 1318.07 216.028 1317.96 218.172C1320 218.172 1322.14 218.815 1323.86 218.172C1326.86 217.1 1329.64 215.385 1332.75 213.777C1333.07 220.316 1324.82 228.25 1319.68 228.035C1314.11 227.714 1309.61 229.536 1305.86 234.361C1303.93 236.827 1300.29 238.113 1297.18 239.185C1293.96 240.257 1290.32 240.15 1287 240.9C1275.96 243.045 1268.79 253.23 1270.29 264.594C1270.71 268.132 1270.93 271.777 1271.57 275.315C1271.89 276.816 1273.39 278.102 1273.93 279.71C1275.86 285.5 1279.29 287.215 1285.71 287.001C1291.29 286.786 1296 291.074 1299.43 295.684C1299.32 296.22 1299.11 296.649 1299 297.185C1293.96 296.542 1289.04 295.899 1284 295.256C1280.25 294.72 1276.39 294.076 1272.64 293.862C1270.82 293.755 1269 294.934 1266.54 295.792C1269.43 299.437 1271.89 302.546 1274.36 305.548C1274.14 305.977 1273.93 306.405 1273.71 306.727C1269.75 306.513 1265.68 306.62 1261.71 306.084C1258.18 305.655 1254.54 305.012 1251.21 303.832C1249.5 303.189 1247.68 301.474 1247.04 299.866C1246.07 297.293 1244.89 296.22 1242.32 297.4C1235.68 300.402 1228.82 301.688 1221.43 301.474C1217.25 301.367 1212.96 303.189 1208.14 304.261C1208.89 302.867 1209.21 301.795 1209.86 301.045C1212.54 297.936 1215.11 294.827 1218.21 292.039C1219.29 291.074 1221.64 290.753 1223.25 291.074C1229.79 292.147 1230.64 291.61 1232.89 285.5C1234.18 282.069 1235.89 278.745 1237.39 275.422C1237.61 274.886 1238.14 274.243 1238.04 273.599C1237.71 265.13 1241.46 257.947 1244.57 250.442C1247.36 243.795 1246.93 241.651 1241.36 237.041C1232.68 229.965 1223.14 229.858 1213.29 233.932C1211.25 234.79 1209.32 236.076 1207.29 236.934C1203.21 238.756 1199.36 238.435 1197.21 235.326C1194.64 231.573 1191.54 229.107 1187.04 228.571C1186.5 228.464 1185.96 227.928 1185.11 227.499C1186.82 224.712 1189.07 224.283 1191.54 225.462C1193.89 226.642 1196.25 227.928 1198.18 229.751C1200.43 232.002 1202.14 231.788 1204.18 229.643C1205.46 228.357 1206.75 227.178 1208.36 225.677C1207.29 224.819 1206.64 224.283 1205.89 223.747C1204.82 222.997 1203.54 222.353 1202.57 221.496C1197.21 216.457 1193.68 209.81 1187.14 205.521C1183.18 202.948 1183.93 195.122 1187.57 191.477C1188 193.407 1188.54 194.908 1188.75 196.516C1189.29 200.375 1191 203.056 1194.75 204.771C1196.36 205.414 1197.54 207.022 1198.82 208.202C1202.04 211.311 1205.04 214.849 1208.46 217.529C1211.68 220.102 1215.54 220.852 1220.04 219.995C1231.5 217.743 1242.21 219.03 1251.86 227.07Z"
        fill="#1B533A"/>
      <path
        d="M1397.68 258.482C1396.93 259.983 1395.64 261.162 1395.75 262.985C1395.54 264.593 1397.47 266.094 1398.97 265.343C1400.14 264.7 1401.22 264.164 1402.5 263.735C1405.07 262.877 1405.72 260.626 1406.14 258.375C1406.25 257.839 1405.93 257.088 1406.89 256.981C1407.54 258.267 1407.54 259.554 1407.86 260.948C1406.89 262.449 1405.72 263.842 1403.89 264.271C1403.47 264.378 1403.36 264.807 1403.36 265.343C1402.82 265.236 1402.61 265.558 1402.61 266.094C1401.75 266.094 1400.89 266.094 1400.79 267.166C1399.72 267.059 1398.86 267.595 1398.54 268.667C1394.89 271.132 1394.89 275.421 1393.5 278.959C1393.07 278.959 1392.97 279.28 1392.75 279.602C1392.11 280.245 1390.72 280.781 1390.5 280.352C1389.32 278.423 1387.07 277.351 1386.64 274.885C1386.54 274.134 1386.22 273.277 1385.25 272.955C1385.36 274.885 1384.93 276.815 1386.32 278.423C1386.54 278.744 1386.86 279.28 1386.43 279.709C1386 280.031 1385.68 279.602 1385.25 279.495C1383 278.423 1380.75 277.994 1378.29 278.316C1376.36 278.637 1374.54 278.208 1372.82 277.351C1372.07 276.922 1371.97 276.493 1372.07 275.85C1372.5 275.635 1373.04 276.064 1373.47 275.314C1372.93 275.528 1372.29 274.778 1372.07 275.85C1370.79 275.635 1369.72 274.992 1369.07 273.706C1368.32 272.419 1367.25 271.454 1365.54 271.883C1365.11 271.99 1364.57 271.883 1364.14 271.883C1363.61 270.918 1363.93 269.846 1363.82 268.881C1363.61 267.38 1365.43 267.166 1365.54 265.879C1364.68 265.665 1363.61 265.45 1363.5 264.164C1366.07 262.877 1367.47 260.84 1367.79 258.053C1367.89 257.302 1368.11 256.766 1368.75 256.552C1369.18 256.445 1369.72 256.338 1369.82 257.088C1369.72 258.696 1370.68 260.197 1370.04 261.912C1369.61 263.092 1369.93 264.593 1368.97 265.665C1367.47 267.487 1367.36 268.345 1368.64 270.704C1369.18 270.168 1370.04 269.953 1370.25 269.096C1371.43 268.559 1372.29 267.38 1373.79 267.595C1374.22 267.702 1374.54 267.916 1374.97 267.916C1377.86 268.345 1381.18 271.454 1381.5 274.456C1381.5 274.778 1381.39 275.099 1381.82 275.099C1382.14 275.099 1382.36 274.885 1382.47 274.563C1383.11 273.277 1382.57 272.097 1382.36 270.918C1381.93 268.238 1380 266.201 1377.32 265.879C1376.36 265.772 1376.14 265.558 1376.79 264.7C1377.11 264.271 1377.43 263.735 1377.75 263.413C1379.68 261.912 1380.22 259.876 1380.11 257.624C1380 254.515 1380.32 251.513 1380.75 248.404C1380.86 247.332 1380.86 246.367 1379.57 245.509C1377.97 244.437 1376.79 242.829 1376.79 240.578C1378.82 239.72 1380.43 240.363 1381.07 242.293C1381.72 244.545 1382.57 246.689 1383.11 248.94C1383.54 250.87 1383 253.121 1382.79 255.158C1382.68 256.016 1382.79 256.981 1382.25 257.731C1382.36 258.267 1382.04 258.803 1382.47 259.232C1383.22 258.482 1384.18 259.447 1385.04 258.589C1386.54 257.088 1386.86 255.051 1387.82 253.336C1388.36 252.264 1388.89 252.264 1389.97 252.478C1391.25 252.585 1390.5 253.872 1391.25 254.301C1390.39 255.909 1389.64 257.517 1388.79 259.125C1388.57 259.554 1388.25 259.876 1388.68 260.304C1390.29 260.948 1391.79 261.484 1393.5 262.127C1392.86 261.055 1392.86 260.948 1394.57 259.875C1395.75 259.232 1396.39 258.16 1397.68 258.482ZM1390.61 268.238C1387.93 267.166 1385.36 265.986 1382.68 264.914C1382.47 264.807 1382.04 264.807 1381.93 265.129C1381.72 265.558 1381.72 265.986 1381.93 266.522C1382.57 267.916 1384.07 268.023 1385.14 268.881C1385.89 269.417 1386.64 269.953 1387.72 270.06C1388.25 270.06 1388.68 270.06 1388.89 269.524C1389.22 268.131 1389.22 268.131 1390.61 268.238ZM1373.25 276.171V276.279C1373.36 276.279 1373.36 276.279 1373.47 276.279C1373.47 276.279 1373.47 276.279 1373.25 276.171C1373.36 276.171 1373.36 276.171 1373.25 276.171Z"
        fill="#1B533A"/>
      <path
        d="M1364.14 271.67C1364.57 271.67 1365.11 271.777 1365.54 271.67C1367.25 271.241 1368.32 272.206 1369.07 273.492C1369.72 274.779 1370.79 275.422 1372.07 275.636C1371.97 276.387 1372.07 276.816 1372.82 277.137C1374.54 278.102 1376.36 278.424 1378.29 278.102C1380.75 277.781 1383 278.209 1385.25 279.282C1385.57 279.496 1386 279.925 1386.43 279.496C1386.86 279.067 1386.54 278.424 1386.32 278.209C1384.93 276.601 1385.36 274.672 1385.25 272.742C1386.22 273.063 1386.54 274.028 1386.64 274.672C1387.07 277.137 1389.43 278.209 1390.5 280.139C1390.72 280.568 1392.11 280.032 1392.75 279.389C1392.97 279.174 1393.18 278.853 1393.5 278.745C1393.18 280.997 1391.25 282.712 1391.89 285.178C1391.57 285.071 1391.47 284.856 1391.36 284.535C1391.14 283.141 1390.5 282.927 1389.32 283.784C1388.57 284.32 1388.57 284.964 1388.47 285.714C1388.04 288.823 1388.36 292.039 1388.04 295.149C1387.61 298.794 1388.36 299.759 1392 299.866C1393.5 299.866 1394.25 299.437 1394.47 298.043C1394.36 299.651 1395.32 299.973 1396.61 299.759C1397.47 299.651 1398.43 299.651 1399.29 299.33C1402.93 298.043 1406.57 299.759 1410.22 299.115C1406.68 300.187 1402.93 299.973 1399.39 300.509C1403.14 301.903 1407.11 300.723 1410.97 301.796C1409.47 303.618 1407.64 304.261 1405.5 304.476C1405.5 304.261 1405.39 304.154 1405.39 304.154C1405.61 303.511 1407.11 303.725 1406.68 302.76C1406.36 302.117 1405.39 302.439 1404.75 302.546C1400.14 302.76 1395.75 302.01 1391.25 301.367C1390.39 301.259 1389.43 301.152 1388.57 301.259C1386.32 301.474 1384.07 301.796 1381.82 300.723C1379.04 299.544 1376.14 300.295 1373.36 300.402C1369.29 300.616 1365.43 301.796 1361.36 301.796C1360.29 301.796 1360.29 301.795 1360.29 302.653C1360.29 302.868 1360.07 303.082 1359.86 303.189C1358.68 303.832 1357.39 304.369 1356 304.261C1356 303.511 1356.86 303.404 1357.07 302.868C1356.11 302.546 1355.04 303.082 1353.64 302.332C1355.14 302.01 1356.32 301.903 1357.39 301.581C1360.72 300.509 1364.25 300.723 1367.68 300.295C1368.86 300.187 1370.14 300.187 1371.32 299.437C1371.75 299.115 1372.29 299.222 1372.82 299.544C1373.14 299.759 1373.89 299.759 1374.11 299.33C1374.32 298.901 1374 298.365 1373.68 297.936C1373.04 297.4 1372.5 296.649 1371.32 296.328C1372.93 295.47 1374 296.006 1374.75 296.971C1375.61 298.043 1376.36 298.043 1376.89 296.757C1377.75 296.757 1378.72 296.649 1379.14 297.722C1379.36 298.15 1378.93 298.901 1379.89 298.686C1380.64 298.579 1381.29 297.829 1381.07 297.4C1380.32 296.328 1381.29 295.363 1381.18 294.398C1380.97 292.576 1380.54 290.646 1380.64 288.823C1380.64 287.858 1380.32 287.322 1379.25 287.429C1379.47 285.071 1377.43 283.356 1377.54 280.997C1377.54 280.675 1377.22 280.568 1376.89 280.568C1373.68 280.997 1371.43 279.282 1369.5 277.137C1367.47 275.315 1365.32 273.921 1364.14 271.67Z"
        fill="#1B533A"/>
      <path
        d="M1377.11 240.363C1377 242.507 1378.18 244.223 1379.9 245.295C1381.18 246.153 1381.18 247.01 1381.07 248.19C1380.65 251.299 1380.32 254.301 1380.43 257.41C1380.54 259.768 1380 261.698 1378.07 263.199C1377.65 263.52 1377.43 264.057 1377.11 264.485C1376.36 265.236 1376.57 265.45 1377.65 265.665C1380.22 265.986 1382.25 268.023 1382.68 270.704C1382.9 271.883 1383.43 273.169 1382.79 274.349C1382.68 274.67 1382.47 274.885 1382.15 274.885C1381.72 274.885 1381.82 274.563 1381.82 274.241C1381.4 271.347 1378.18 268.13 1375.29 267.702C1374.86 267.702 1374.54 267.487 1374.11 267.38C1374.11 265.236 1375.4 263.628 1376.15 261.805C1377.86 257.302 1378.72 252.8 1377.75 247.975C1377.32 246.26 1376.25 244.759 1376.04 242.936C1375.5 241.543 1375.72 240.685 1377.11 240.363Z"
        fill="#1B533A"/>
      <path
        d="M1394.57 298.15C1394.36 299.543 1393.61 299.972 1392.11 299.972C1388.47 299.865 1387.72 298.9 1388.15 295.255C1388.47 292.146 1388.15 288.93 1388.57 285.821C1388.68 285.07 1388.68 284.32 1389.43 283.891C1390.61 283.033 1391.15 283.248 1391.47 284.641C1391.57 284.963 1391.68 285.177 1392 285.284C1392.54 289.037 1393.72 292.575 1394.04 296.327C1394.04 296.97 1394.36 297.506 1394.57 298.15Z"
        fill="#1B533A"/>
      <path
        d="M1391.47 254.086C1390.82 253.658 1391.57 252.371 1390.18 252.264C1389.22 252.157 1388.68 252.157 1388.04 253.121C1387.07 254.837 1386.64 256.874 1385.25 258.375C1384.39 259.232 1383.43 258.375 1382.68 259.018C1382.25 258.589 1382.57 258.053 1382.47 257.517C1383.86 257.303 1384.39 256.016 1384.82 255.158C1385.79 253.229 1386.86 251.299 1388.14 249.584C1389 248.511 1389.11 247.439 1388.68 246.153C1388.04 244.009 1387.39 241.972 1385.89 240.149C1383.86 237.576 1384.61 235.646 1387.82 235.218C1388.14 235.218 1388.57 234.574 1388.89 235.218C1387.72 235.968 1387.72 236.826 1388.14 238.112C1389.22 241.436 1390.61 244.652 1391.04 248.19C1391.25 250.441 1391.36 250.548 1393.61 250.334C1392.86 251.728 1392.43 253.014 1391.47 254.086Z"
        fill="#1B533A"/>
      <path
        d="M1397.68 258.482C1396.39 258.16 1395.75 259.232 1394.89 259.769C1393.07 260.841 1393.18 260.948 1393.82 262.02C1392.11 261.377 1390.5 260.733 1389 260.197C1389.86 260.305 1390.5 259.876 1391.14 259.34C1392.86 257.732 1394.25 255.802 1396.18 254.408C1396.93 253.872 1397.14 252.907 1397.25 251.942C1397.47 249.798 1397.57 247.654 1399.29 245.939C1400.04 245.081 1400.36 245.51 1400.89 245.939C1399.5 247.654 1399.93 249.584 1400.25 251.406C1400.47 252.586 1400.89 253.658 1400.04 254.73C1399.61 255.266 1400.14 255.587 1400.57 255.695C1399.82 256.874 1398.75 257.624 1397.68 258.482Z"
        fill="#1B533A"/>
      <path
        d="M1393.61 250.548C1391.47 250.763 1391.25 250.655 1391.04 248.404C1390.61 244.866 1389.22 241.65 1388.14 238.326C1387.72 237.04 1387.82 236.182 1388.89 235.432C1390.29 235.432 1391.25 235.968 1391.57 237.469C1392.32 241.328 1392.97 245.188 1394.14 248.94C1394.25 249.262 1393.93 249.476 1393.82 249.69C1393.72 249.905 1393.61 250.227 1393.61 250.548Z"
        fill="#1B533A"/>
      <path
        d="M1406.79 256.981C1405.93 257.088 1406.15 257.839 1406.04 258.375C1405.61 260.734 1404.97 262.878 1402.4 263.735C1401.22 264.164 1400.04 264.7 1398.86 265.344C1397.36 266.094 1395.54 264.7 1395.65 262.985C1397.57 263.414 1398.97 262.342 1400.57 261.698C1402.4 261.055 1403.25 260.197 1403.15 258.268C1403.15 256.552 1404.75 255.695 1406.25 255.802C1407.97 255.909 1407 256.445 1406.79 256.981Z"
        fill="#1B533A"/>
      <path
        d="M1378.93 287.428C1379.89 287.32 1380.32 287.856 1380.32 288.821C1380.22 290.751 1380.75 292.574 1380.86 294.396C1380.97 295.361 1380 296.219 1380.75 297.398C1380.96 297.72 1380.32 298.577 1379.57 298.685C1378.61 298.899 1378.93 298.041 1378.82 297.72C1378.39 296.648 1377.43 296.755 1376.57 296.755C1377.54 293.646 1377.86 290.429 1378.93 287.428Z"
        fill="#1B533A"/>
      <path
        d="M1370.25 268.775C1370.04 269.633 1369.18 269.847 1368.64 270.383C1367.36 268.025 1367.47 267.167 1368.97 265.344C1369.93 264.272 1369.5 262.771 1370.04 261.592C1370.68 259.877 1369.72 258.376 1369.82 256.768C1372.18 257.518 1373.89 261.27 1372.07 263.522C1371.64 263.951 1371.32 264.487 1370.79 264.808C1368.86 265.88 1369.5 267.381 1370.25 268.775Z"
        fill="#1B533A"/>
      <path
        d="M1400.47 255.586C1400.04 255.479 1399.5 255.158 1399.93 254.622C1400.79 253.549 1400.36 252.477 1400.15 251.298C1399.82 249.368 1399.4 247.546 1400.79 245.83C1402.07 245.616 1402.29 246.795 1402.4 247.439C1402.93 249.368 1404.43 251.405 1402.61 253.335C1402.5 253.335 1402.5 253.228 1402.4 253.228C1402.4 253.335 1402.5 253.335 1402.5 253.442L1402.4 253.549C1401.43 253.121 1401.22 253.657 1401.11 254.407C1401 254.514 1400.9 254.622 1400.79 254.729C1400.47 254.943 1400.36 255.265 1400.47 255.586Z"
        fill="#1B533A"/>
      <path
        d="M1363.5 263.842C1363.61 265.128 1364.68 265.343 1365.54 265.557C1365.43 266.844 1363.61 267.058 1363.82 268.559C1363.29 267.487 1363.07 266.415 1362.75 265.236C1362.64 264.699 1362.64 264.056 1363.5 263.842Z"
        fill="#1B533A"/>
      <path
        d="M1403.36 265.235C1403.25 264.807 1403.47 264.271 1403.9 264.163C1405.72 263.627 1406.89 262.341 1407.86 260.84C1408.18 262.126 1407.75 262.984 1406.68 263.627C1405.5 264.163 1404.65 265.235 1403.36 265.235Z"
        fill="#1B533A"/>
      <path
        d="M1398.54 268.452C1398.86 267.38 1399.61 266.951 1400.79 266.951C1400.36 267.916 1399.61 268.345 1398.54 268.452Z"
        fill="#1B533A"/>
      <path
        d="M1400.79 267.058C1400.89 265.986 1401.75 265.986 1402.61 265.986C1402.29 266.737 1401.54 266.844 1400.79 267.058Z"
        fill="#1B533A"/>
      <path
        d="M1401.11 254.516C1401.22 253.766 1401.43 253.23 1402.4 253.658C1402.07 254.087 1401.75 254.516 1401.11 254.516Z"
        fill="#1B533A"/>
      <path
        d="M1402.61 265.987C1402.61 265.451 1402.82 265.236 1403.36 265.236C1403.04 265.451 1402.82 265.772 1402.61 265.987Z"
        fill="#1B533A"/>
      <path
        d="M1393.61 250.549C1393.61 250.228 1393.72 250.013 1393.93 249.799C1394.15 250.12 1393.93 250.335 1393.61 250.549Z"
        fill="#1B533A"/>
      <path
        d="M1400.47 255.586C1400.36 255.265 1400.47 254.943 1400.9 254.836C1400.79 255.05 1400.9 255.479 1400.47 255.586Z"
        fill="#1B533A"/>
      <path
        d="M1402.5 253.443C1402.5 253.336 1402.39 253.336 1402.39 253.229C1402.5 253.229 1402.5 253.336 1402.61 253.336C1402.61 253.443 1402.5 253.443 1402.5 253.443Z"
        fill="#1B533A"/>
      <path
        d="M1390.61 268.237C1389.22 268.237 1389.22 268.237 1388.79 269.416C1388.57 269.952 1388.15 270.06 1387.61 269.952C1386.65 269.845 1385.79 269.309 1385.04 268.773C1383.97 267.915 1382.47 267.808 1381.82 266.414C1381.61 265.986 1381.5 265.45 1381.82 265.021C1382.04 264.699 1382.36 264.699 1382.57 264.806C1385.36 265.986 1388.04 267.058 1390.61 268.237Z"
        fill="#1B533A"/>
      <path
        d="M1372.07 275.528C1372.29 274.456 1372.93 275.206 1373.47 274.992C1373.04 275.849 1372.5 275.421 1372.07 275.528C1372.07 275.528 1372.07 275.635 1372.07 275.528Z"
        fill="#1B533A"/>
      <path
        d="M1373.25 276.172C1373.36 276.172 1373.36 276.172 1373.25 276.172C1373.36 276.172 1373.36 276.279 1373.36 276.279C1373.25 276.279 1373.25 276.279 1373.14 276.279C1373.25 276.279 1373.25 276.172 1373.25 276.172Z"
        fill="#1B533A"/>
    </g>
    <defs>
      <clipPath id="clip0_75_11512">
        <rect width="1521" height="403" fill="white"/>
      </clipPath>
    </defs>
  </g>
</svg>
