<?xml version="1.0" encoding="utf-8"?>
<!-- Generator: Adobe Illustrator 24.1.0, SVG Export Plug-In . SVG Version: 6.00 Build 0)  -->
<svg version="1.1" xmlns="http://www.w3.org/2000/svg" xmlns:xlink="http://www.w3.org/1999/xlink" x="0px" y="0px"
     viewBox="0 0 1500 1500" style="enable-background:new 0 0 1500 1500;" xml:space="preserve">
<style type="text/css">
	.st0{display:none;}
  .st1{display:inline;fill:#606060;}
  .st2{display:none;fill:url(#SVGID_1_);}
  .st3{fill:#AFFFAB;}
  .st4{fill:#FFFFFF;}
  .st5{fill:#783F6B;}
  .st6{fill:#90A2B0;}
  .st7{fill:#FFB3D4;}
  .st8{fill:#B860A5;}
  .st9{opacity:0.31;fill:#536CA3;}
  .st10{fill:#D4FFC7;}
  .st11{opacity:0.47;fill:#FFE2B9;}
</style>
  <g id="Capa_2" class="st0">
	<rect x="-70" y="-106" class="st1" width="1680" height="1680"/>
</g>
  <g id="Capa_1">
	<radialGradient id="SVGID_1_" cx="750" cy="750" r="750" gradientUnits="userSpaceOnUse">
		<stop  offset="0" style="stop-color:#AFFFAB"/>
    <stop  offset="1" style="stop-color:#AFFFAB;stop-opacity:0"/>
	</radialGradient>
    <circle class="st2" cx="750" cy="750" r="750"/>
    <path class="st3" d="M393.2,856.1c-9.8-16.7-24.9-30.8-42.6-41c0.4-0.2,0.7-0.3,1.1-0.4c23.2-10.2,17-50.1-7.1-54.7
		c-34.7-6.7-65.4,3.9-99.5,7.5c-28.1,3-62.3,1.7-76.8,30.9c-26.5,53.2,57,106.6,95.2,127c25.9,13.8,64.7,31.7,94.6,25.1
		C402.4,940.5,414.9,892.9,393.2,856.1z"/>
    <g>
		<path class="st3" d="M1223.2,929.5c-9.7-5.4-20.5-11.1-31.9-9.6c-8.3,1.1-14.1,8.2-22.1,9c-12.5,1.2-29.7-6.9-39.1-14.7
			c-29.2-24.2-24.8-72-17.8-104.9c9.1-42.8,21-84.4,26.5-128c5.9-46.2,6.7-92.8,1-139c-1-7.8-4.6-13.9-9.5-18.1c0-0.4,0-0.7,0-1.1
			c-0.6-21.8-5.8-41.8-14.3-61.8c-15.7-37-41-68.1-72.7-92.5C979.6,320,896.3,296,817.5,287.5c-44.4-4.8-93.3-0.8-137.1,7.2
			c-21.6,4-42.6,10-63,18c-22.1,8.6-41.4,16.3-65.5,15.7c-1.5,0-2.9,0-4.4,0c-22,15.8-46.2,28.4-68.3,44.1
			c-19.2,13.7-35.4,30.1-52,46.1c-8.4,13.5-20.3,35.7-35.4,41.1c-3.1,6.4-6.2,12.8-9.1,19.3c-36.9,83-53.2,174.1-45.8,264.6
			c-4,1.3-7.6,3.9-10.3,8.1c0,0.2,0.1,0.3,0.1,0.4c8.6,51.3,21.3,101.9,30.8,153c7.3,39.4,21.4,76.4,33.8,114.2
			c2.9-1.5,5.7-3.2,8.4-5c1.5,6.4,3.5,12.6,5.7,18.2c11.3,28.5,32,53,55.9,72c18.8,14.9,39.6,26.3,61,36.7
			c11.5,27,40.7,43.2,66.2,55.7c32.7,16,67,23.2,103.3,22.5c18.9-0.4,37.9-2.5,56.7-5.4c14.5,4.8,31.8,4.9,45.7,5.5
			c26.9,1.2,53.3-0.5,79.9-4.2c54-7.4,106.2-22.8,155.2-46.5c42.1-20.3,81.2-47.5,115.4-79.5c17.2-16.1,33.2-33.7,47.4-52.6
			c7-9.3,13.6-18.7,19.8-28.5c3.3-5.3,6.7-10.7,9.7-16.3c2.7-4.9,4.1-12.3,7.4-16.4C1240.7,961.5,1241.1,939.4,1223.2,929.5z"/>
      <path class="st3" d="M1331.3,813.7c-0.6-9.3-3.6-18.4-8.9-26c-7.3-10.4-17.4-13.9-29.4-15.4c-2-0.3-4-0.1-5.9,0.4
			c-26.8-8.2-56.3,17.1-53.5,47.1c3.3,35.7,41.7,56.3,73.2,38.8C1322.7,849.8,1332.6,831.8,1331.3,813.7z"/>
	</g>
    <path class="st4" d="M649.9,789.1c-0.3-0.8-0.7-1.6-1-2.4c-1.5-2.8-4.3-4.4-7.3-4.8c-3.6-0.5-7,1-9.1,3.6c-1.4,0.3-2.6,0.8-3.7,1.7
		c-3.4,2.7-4.2,7.2-2.2,11c0.2,0.4,0.4,0.8,0.6,1.2c0.1,0.2,0.1,0.5,0.1,0.7c0.6,2.8,3,5.1,5.5,6.2c3,1.2,5.6,0.8,8.4-0.5
		c4.3-2,8-6.8,8.6-11.5C650.4,792.7,650.4,790.9,649.9,789.1z"/>
    <path class="st4" d="M513.5,784.8c-1-2.5-2.2-4.6-4.6-6c-2.1-1.3-5.3-1.8-7.7-1c-0.8,0.3-1.6,0.7-2.4,1.1c-1.5-2.6-4.8-4-7.7-3.6
		c-3.4,0.5-7,3.7-6.6,7.5c0.4,3.8,0.1,7.5,1.7,11c1.9,4.4,5.4,7.9,10.2,9.1c4.9,1.2,10.4,0.1,14-3.7
		C513.8,795.6,515.5,789.5,513.5,784.8z"/>
    <g id="XMLID_1_">
		<g>
			<path class="st4" d="M442.9,696.1c-0.3-0.2-3.4-1.7-3.7-1.9c-1.6-0.9-3.1-1.8-4.5-2.8c-3.1-2.1-4.7-3.5-7.8-6.6
				c-11.8-12-17.9-30.1-18.7-47.5c-1-19.5,4-38.3,5.5-57.6c2.2-5.8,5-11.6,8.7-17.6c2.4-3.8,2.9-4.6,5.4-7.5c2.6-3,5.5-5.9,8.6-8.4
				c0.1-0.1,0.1-0.1,0.2-0.2c0.1-0.1,0.3-0.2,0.5-0.4c0.6-0.4,1.2-0.9,1.9-1.3c1.7-1.1,3.4-2,5.1-2.9c0.1-0.1,1-0.5,1.3-0.6
				c0.7-0.3,1.4-0.5,2.1-0.7c1.8-0.6,3.7-1.1,5.6-1.5c0.9-0.2,1.9-0.4,2.8-0.5c0.2,0,0.4,0,0.6,0c1.7-0.1,3.4-0.2,5.1-0.2
				c1,0,1.9,0.1,2.9,0.1c0.3,0,0.4,0,0.5,0c2.1,0.3,4.2,0.8,6.2,1.5c0.7,0.2,1.3,0.4,2,0.7c0,0,0.1,0,0.1,0c0.1,0.1,0.2,0.1,0.5,0.3
				c1.5,0.8,2.9,1.6,4.3,2.5c2.2,1.5,1.2,0.9,0.7,0.5c0.7,0.6,1.4,1.3,2.1,2c0.7,0.7,1.4,1.5,2,2.2c0.1,0.2,0.5,0.7,0.8,1
				c1.1,1.5,2.1,3.2,3,4.8c0.5,0.9,0.9,1.8,1.4,2.7c0,0.1,0.5,1.1,0.6,1.3c1.4,3.6,2.5,7.5,3.5,11.3c4.3,17.7,5.4,36.4,5.3,54.5
				c-0.1,17.8-0.9,37.2-6.8,54.2c-1.1,3.3-2.7,6.5-5.1,9.7c0.2-0.3-1.8,2-2.2,2.4c-1.9,1.9-2.1,2.1-3.3,2.9
				c-1.4,0.9-2.8,1.8-4.3,2.6c-0.8,0.5-1.7,0.9-2.6,1.3c-0.1,0-0.1,0-0.2,0.1c-0.1,0-0.3,0.1-0.6,0.2c-1.6,0.6-3.2,1.1-4.8,1.5
				c-0.9,0.2-1.9,0.4-2.8,0.6c-0.5,0.1-0.8,0.2-1,0.2c0,0,0,0-0.5,0c-1.7,0.2-3.4,0.2-5.1,0.2c-0.5,0-4.3-0.2-3.9-0.1
				C450.1,698.7,446.3,697.6,442.9,696.1C442.9,696.1,442.9,696.1,442.9,696.1z"/>
      <path class="st4" d="M810.7,588.5c5.1,20.5,5.3,41.8-1.4,62.1c-2.6,7.9-6.7,15.7-12.2,23.2c-0.2,0.3-1.1,1.4-1.3,1.7
				c-0.8,1-1.6,1.9-2.4,2.8c-1.3,1.5-2.7,2.9-4.1,4.3c-1.8,1.7-3.6,3.3-5.4,4.9c-0.3,0.3-0.5,0.4-0.7,0.6c-1.3,1-2.6,1.9-3.9,2.8
				c-3.8,2.6-7.9,4.8-12,6.8c-0.2,0.1-0.6,0.3-1,0.4c-0.7,0.3-1.5,0.6-2.2,0.8c-0.3,0.1-0.7,0.2-1,0.3c-3-5-8.6-6.5-14.1-5.6
				c-6.2,1.1-15,3.4-19.6,4c-3,0.4-5.9,0.5-8.8,0.5c-15.6-6.5-28.1-19.1-37.2-32.9c-6.8-10.3-11-19.2-14.3-30.3
				c-1.6-5.4-2.9-10.9-3.6-16.4c0-0.3-0.3-3.3-0.3-3.3c-0.1-1.7-0.3-3.3-0.3-5c-0.1-2.7-0.1-5.4-0.1-8.2c0.1-3,0.3-6,0.6-9
				c0-0.4,0.3-2.2,0.3-2.4c0.2-1.4,0.5-2.8,0.7-4.2c1.1-5.9,2.5-11.7,4.4-17.4c2.6-7.7,6.4-15,10.8-22.3c0,0,0.1-0.1,0.1-0.1
				c13.8-13.5,34.7-22.1,53.7-23.6c11.3-0.9,20.7,0,31.4,3.9c2.8,1,1.1,0.5,0.5,0.2c1.3,0.6,2.6,1.3,3.9,2c1.7,0.9,3.4,1.9,5,3
				c1.1,0.7,2.2,1.5,3.3,2.3c0.2,0.1,0.4,0.3,0.7,0.6c1.8,1.6,3.7,3.2,5.4,5c1.7,1.8,3.4,3.6,5,5.5c0.5,0.5,0.9,1.1,1.4,1.7
				c0,0.1,1.7,2.4,1.7,2.4c2.9,4.1,5.4,8.4,7.7,12.9c0.9,1.8,1.8,3.6,2.6,5.4c0.2,0.4,0.4,0.8,0.5,1c0.1,0.2,0.2,0.6,0.4,1
				c0.4,0.9,0.7,1.8,1.1,2.8C807.6,577.7,809.3,583.1,810.7,588.5z"/>
      <path class="st4" d="M842.8,599.9c-6.2-48-36.1-103.5-90.3-106.4c-15.7-0.8-31.1,3-45.4,9.1c-10.5,4.5-19.7,10.9-28.1,18.4
				c-4.1-1.4-8.8-0.9-12.5,2.7c-6,5.8-11.1,12.4-15.3,19.7c-4.7,17.6-9,35.6-10.8,53.7c-3.5,33.3,4.4,69.8,27.4,95
				c10,11,22.8,19.7,37.3,23.6c9.1,2.4,18.8,4,28.2,4.4c9.5,0.4,18.4-1.9,27.7-2.6c3.6-0.3,6,5.1,3.1,7.4
				c-5.6,4.4-12.4,6.3-19.5,6.9c12.3-0.2,24.5-2.9,36.3-8.1C828.2,702.7,849.2,649.2,842.8,599.9z M809.3,650.6
				c-2.6,7.9-6.7,15.7-12.2,23.2c-0.2,0.3-1.1,1.4-1.3,1.7c-0.8,1-1.6,1.9-2.4,2.8c-1.3,1.5-2.7,2.9-4.1,4.3
				c-1.8,1.7-3.6,3.3-5.4,4.9c-0.3,0.3-0.5,0.5-0.7,0.6c-1.3,1-2.6,1.9-3.9,2.8c-3.8,2.6-7.9,4.8-12,6.8c-0.2,0.1-0.6,0.3-1,0.4
				c-0.7,0.3-1.5,0.6-2.2,0.8c-0.3,0.1-0.7,0.2-1,0.3c-3-5-8.6-6.5-14.1-5.6c-6.2,1.1-15,3.4-19.6,4c-3,0.4-5.9,0.5-8.8,0.5
				c-15.6-6.5-28.1-19.1-37.2-32.9c-6.8-10.3-11-19.2-14.3-30.3c-1.6-5.4-2.9-10.9-3.6-16.4c0-0.3-0.3-3.3-0.3-3.3
				c-0.1-1.7-0.3-3.3-0.3-5c-0.1-2.7-0.1-5.5-0.1-8.2c0.1-3,0.3-6,0.6-9c0-0.3,0.3-2.2,0.3-2.4c0.2-1.4,0.5-2.8,0.7-4.2
				c1.1-5.9,2.5-11.7,4.4-17.4c2.6-7.7,6.4-15,10.8-22.3c0,0,0.1-0.1,0.1-0.1c13.8-13.5,34.7-22.1,53.7-23.6
				c11.3-0.9,20.7,0,31.4,3.9c2.8,1,1.1,0.5,0.5,0.2c1.3,0.6,2.6,1.3,3.9,2c1.7,0.9,3.4,1.9,5,3c1.1,0.7,2.2,1.5,3.3,2.3
				c0.2,0.2,0.4,0.4,0.7,0.6c1.8,1.6,3.7,3.2,5.4,5c1.7,1.8,3.4,3.6,5,5.5c0.5,0.6,0.9,1.1,1.4,1.7c0,0.1,1.7,2.4,1.7,2.4
				c2.9,4.1,5.4,8.4,7.7,12.9c0.9,1.8,1.8,3.6,2.6,5.4c0.2,0.4,0.4,0.8,0.5,1c0.1,0.2,0.2,0.6,0.4,1c0.4,0.9,0.7,1.9,1.1,2.8
				c2,5.3,3.6,10.6,5,16.1C815.8,609,816,630.3,809.3,650.6z"/>
      <path class="st4" d="M442.8,696.1c3.4,1.5,7.3,2.6,11,3.1c-0.3-0.1,3.4,0.1,3.9,0.1c1.7,0,3.4-0.1,5.1-0.2c0.5,0,0.5,0,0.5,0
				c0.1,0,0.4-0.1,1-0.2c0.9-0.2,1.9-0.4,2.8-0.6c1.6-0.4,3.2-0.9,4.8-1.5c0.3-0.1,0.5-0.1,0.6-0.2c0.1,0,0.1,0,0.2-0.1
				c0.9-0.4,1.7-0.8,2.6-1.3c1.5-0.8,2.9-1.7,4.3-2.6c1.1-0.8,1.4-1,3.3-2.9c0.4-0.4,2.4-2.7,2.2-2.4c2.4-3.2,3.9-6.3,5.1-9.7
				c5.9-17,6.7-36.3,6.8-54.2c0.1-18.1-1-36.8-5.3-54.5c-0.9-3.8-2-7.6-3.5-11.3c-0.1-0.3-0.5-1.2-0.6-1.3c-0.4-0.9-0.9-1.8-1.4-2.7
				c-0.9-1.6-1.9-3.3-3-4.8c-0.2-0.3-0.6-0.8-0.8-1c-0.7-0.8-1.3-1.5-2-2.2c-0.7-0.7-1.4-1.3-2.1-2c0.5,0.4,1.6,1-0.7-0.5
				c-1.4-0.9-2.8-1.7-4.3-2.5c-0.2-0.1-0.4-0.2-0.5-0.3c0,0,0,0-0.1,0c-0.7-0.3-1.3-0.5-2-0.7c-2-0.7-4.1-1.2-6.2-1.5
				c-0.1,0-0.3,0-0.5,0c-1,0-1.9-0.1-2.9-0.1c-1.7,0-3.4,0.1-5.1,0.2c-0.3,0-0.4,0-0.6,0c-0.9,0.1-1.9,0.3-2.8,0.5
				c-1.9,0.4-3.8,0.9-5.6,1.5c-0.7,0.2-1.4,0.5-2.1,0.7c-0.2,0.1-1.1,0.5-1.3,0.6c-1.7,0.9-3.4,1.8-5.1,2.9
				c-0.6,0.4-1.3,0.8-1.9,1.3c-0.3,0.2-0.4,0.3-0.5,0.4c-0.1,0-0.1,0.1-0.2,0.2c-3.1,2.5-6,5.4-8.6,8.4c-2.5,2.8-3,3.6-5.4,7.5
				c-3.7,6-6.5,11.8-8.7,17.6c-1.4,19.2-6.4,38.1-5.5,57.6c0.9,17.4,6.9,35.5,18.7,47.5c3.1,3.1,4.6,4.5,7.8,6.6
				c1.5,1,3,1.9,4.5,2.8C439.5,694.4,442.6,695.9,442.8,696.1C442.9,696.1,442.9,696.1,442.8,696.1z M520.6,571.4
				c3.9,23.3,5,46.9,3.1,70.4c-1.8,22-4.2,46.3-18.8,63.9c-12.2,14.8-33.1,22.6-52.1,20.6c-21.7-2.2-40-14-52.9-31.3
				c-12.9-17.2-18.4-39-18.8-60.3c-0.3-12.2,1-24.9,4.1-37.1c0.1-11.5,1.8-23.2,5.6-34c7.7-21.6,23.4-40.4,45-49.1
				c17.7-7.1,40.1-6.4,56.2,4.5C509.4,531.1,517.2,551.1,520.6,571.4z"/>
		</g>
	</g>
    <path class="st5" d="M687.6,834.2c-1.5-3.2-3.1-6.4-4.6-9.5c3.2-13.8,0.3-28.2-7.5-40.2c-5.9-9.1-21-8.2-23.9,3.1
		c-1.4,5.6-2.8,11.2-5.5,15.9c-1.5,2.6-1.4,2.3-3.4,4.3c-0.3,0.3-0.5,0.5-0.6,0.6c-0.1,0-0.5,0.2-1.2,0.7c-0.4,0.2-0.8,0.5-1.2,0.7
		c0,0,0,0,0,0c-0.4,0.1-3.2,0.6-1.5,0.4c-1.7,0.2-1,0.1-2-0.2c-2.4-0.6-4-1.5-6.3-3.3c-0.6-0.4-1.2-0.9-1.8-1.5
		c-3.1-4.1-6.4-8.1-9.9-12c-2.1-2.3-5-3.5-8-3.7c-2-1.4-4.4-2.2-6.6-2c-4,0.4-8,0.8-12,1.1c-2.3,0.2-4.3,0.9-5.8,1.9
		c-3.5-1.8-7.2-3.3-11-4.4c-5.4-1.6-11.7,1.1-14.5,5.9c-2.7,4.6-2.4,12.1,2,15.6c8.6,7,15.9,19.6,20.1,29.2
		c1.9,4.4,4.2,11.3,5.6,16.9c0.6,2.4,1.5,6.8,1.6,8.1c0.1,0.7,0.2,1.8,0.4,2.9c-1.9,18.8-5.2,37.5-2,55.5c-2.2,1.1-4.2,2.9-5.6,5.1
		c-4,6.4-7.7,12.9-11.4,19.4c-5.7,10.1,3.8,23.6,15.4,20.1c5.4-1.6,9.7-0.7,15.1,1.1c10.4,3.5,19.9-7.4,17.3-17.3
		c-0.7-2.8-0.8-4.8,0.2-7.9c1.8-5.9,1.7-9.8-1-15.3c-2.6-5.3-3.9-11-4.2-16.9c-0.2-4.4-0.1-8.8,0.2-13.1c0.6-0.3,1.1-0.6,1.6-1
		c3.7-2.5,6.3-3.9,9.8-4.8c3.4-0.9,6.2-1.1,10.8-0.8c6.6,0.5,11.6-4.8,13.7-10.4c0.3-0.8,2.7-4.8,3.4-5.5c1-1,1.9-2,3-2.9
		c0.2-0.2,0.3-0.3,0.5-0.4c0.7-0.5,1.5-1,2.3-1.5c5-3,8.5-3.8,15.4-3c5.4,0.6,11-4,12.9-8.7c1.1-2.7,1.3-5.5,0.8-8.1
		C690.1,844.3,689.9,838.9,687.6,834.2z"/>
    <path class="st6" d="M1274.3,455.5c-9.7-10.7-21.9-18.6-35-24.2c-13.7-5.9-28.4-12-43.1-14.6c-16.5-3-33-0.5-49.2,3.3
		c-0.2,0-0.3,0.1-0.5,0.1c-2.9-5.9-9.7-8.6-16.2-7.2c-26.7,5.9-51.3,24-68,45.4c-19.1,24.5-29.3,54.7-28.6,85.8
		c0.1,5.8,0.7,11.5,1.5,17.1c-1.1-0.8-2.3-1.4-3.6-2c-31.8-13-74.5,1.3-79.8,38.5c-1.2,8.6-0.7,17.9,4.1,25.4
		c2.8,4.3,6.9,7.4,11.5,9.1c3.1,5.8,9.8,9.2,16.4,7.3c21.2-6.1,42.4-12.2,63.6-18.3c1.8,3,3.8,5.9,5.9,8.7
		c8.1,10.7,18.1,19.5,29,27.3c21.1,15.1,46.8,23.7,72.7,25.1c54.1,3,107.9-26.8,133-75C1312.9,559.4,1311.5,496.5,1274.3,455.5z
		 M1038,580.2c0.4-0.5,0.8-1,1.2-1.6c0.2,0.8,0.5,1.6,0.7,2.4C1039.3,580.6,1038.7,580.4,1038,580.2z"/>
    <path class="st7" d="M752.3,261.7c-2.7-6.2-10-10.5-16.9-8.3c-6.6,2.2-14.3,4.2-17.9,10.1c-3-4.1-6-8.2-9.3-12.1
		c-5-5.9-10.6-11.3-16.3-16.5c-11.6-10.6-24.4-20.6-38.7-27.2c-1.1-0.5-2.3-1-3.4-1.5c-0.4-2.1-1.3-4.2-2.9-5.9
		c-10-11.5-27.9-13.7-42.4-13.4c-14.4,0.4-28.6,4.2-41.2,11.1c-11.9,6.5-22.6,15.9-30.2,27.2c-3.7,5.6-5.8,11.8-6.1,17.8
		c-6.3-2.4-12.7-4.2-19.9-4.8c-9.6-0.8-19.7,0.4-28.9,2.8c-16.7,4.3-32.4,14-43.8,27c-11.8,13.3-19.8,29.8-22.9,47.3
		c-3.2,17.9-1.8,35.6,0.6,53.4c-28.9,2.3-49.4,34.5-47.8,62.1c0.5,8.1,2.6,16.3,8.2,22.5c6.2,6.8,15.7,9.4,24.4,6.3
		c9-3.2,14.1-11.1,19.5-18.5c0.4-0.5,0.7-1,1.1-1.5c6.1,8.1,16.4,13.1,26,15.7c13.6,3.6,28.2,2.5,41.1-2.8
		c18.7-7.7,30.1-22.6,38.8-39.4c2.5-3.8,4.6-7.8,6.4-12c18.1,5.8,37.5,1.1,54.2-7.9c8.3-4.5,16.1-10.3,22.8-17
		c2.6-2.6,5.3-5.4,7.8-8.5c0.4,0.1,0.7,0.2,1.1,0.3c31.1,6.4,65.5,4.8,94.5-9.2c13.3-6.4,24.3-17.8,28-32.3
		c3.4-13.1,1.2-26.2-2.8-38.8c3.6-2.8,7.4-5.4,11-8.2C752.1,275.3,755.4,268.7,752.3,261.7z"/>
    <path class="st8" d="M734.3,292.1c-1.4-5.9-10.9-4.7-10.7,1.4c0.6,15.4-10.1,28.5-24.4,33.3c-13.2,4.5-30.1,3.3-39.1-8.8
		c-6.7-9-5.4-26.5,8-28.6c4.6-0.8,10.7,1.3,12.2,6.2c1.6,5.1-1.1,9.1-5,12c-3.7,2.7-2.5,8.3,2.3,8.6c7.5,0.5,13.4-6,15.8-12.5
		c2.7-7.3,0.6-15.4-4.7-21c-12.3-12.8-32.5-8.5-42,5.1c-9.9,14.2-5.8,33.3,6.4,44.6c13.6,12.7,34.4,14.3,51.3,7.8
		C724.4,332.8,739.7,314.1,734.3,292.1z"/>
    <path class="st8" d="M575.3,322.9c-13,0.6-25.9,8.1-31.8,19.8c-5.9,11.6-4.1,27.1,8.4,33.4c6.2,3.2,13.4,2.6,18.8-1.7
		c5.4-4.2,8.4-11.6,5.2-18c-2.4-4.9-9.2-2.1-9.5,2.6c-0.3,4.1-2,8.5-7.1,7.8c-4.4-0.6-7.5-5.2-8-9.3c-1.2-10.9,9.1-20,18.7-22.6
		c9.6-2.6,19.9,0.9,26.7,8c8,8.4,9,20.8,6.2,31.5c-0.6,2.4,2.5,3.5,3.9,1.6C623.8,353.1,601.7,321.8,575.3,322.9z"/>
    <path class="st8" d="M551.4,300.9c-17.6-2.4-35.7,4-46.7,18.3c-5.4,7-8.7,15.3-9.8,24c-0.9,7.2-1.7,20.6,5,25.2
		c2,1.4,4.8-0.1,5.4-2.2c1-3.4-0.6-6.3-1.2-9.7c-0.7-3.7-0.8-7.5-0.4-11.2c0.7-7.4,3.5-14.8,8-20.8c9-11.9,24.1-17.5,38.7-15.8
		C554.8,309.2,555.9,301.5,551.4,300.9z"/>
    <path class="st8" d="M502.1,424.7c-1.9-8.7-7.4-17-15.2-21.4c-7.6-4.3-17.7-5-25.1,0.1c-6.7,4.7-11.5,15.2-6.4,22.6
		c0.4,0.6,1.5,0.8,1.8,0c2.6-6,4.8-11.4,11.1-14.4c5.8-2.7,11.8-1.1,16.7,2.8c9.2,7.4,11.5,22.4,7.5,33.1c-1,2.5,2.7,3.6,4.1,1.7
		C501.8,441.9,504.1,433.7,502.1,424.7z"/>
    <path class="st8" d="M401.9,443.1c-5.9-3.5-9.2-10-8.5-17c0.4-3.2,1.7-6.3,3.7-8.7c1.6-2,3.9-3.3,5.2-5.6c0.3-0.6,0.4-1.5,0-2.1
		c-2.7-3.6-7.2-2.9-10.5-0.5c-4.6,3.2-6.9,8.7-7.6,14.1c-1.4,10.9,4.8,20.6,14.7,24.8C402.3,449.6,405.2,445.1,401.9,443.1z"/>
    <path class="st8" d="M517.8,259.1c-16.6-1.4-31.4,8-41.9,20c-5.6-4.4-16.9-3-22.8-1.2c-9.8,3-18,10.2-22.5,19.4
		c-9.1,18.8-1.5,41.4,17.9,49.8c4.7,2,8.6-4.2,4.1-7c-12.6-7.7-18.7-24.3-12.1-37.9c3.3-6.8,9-11.7,16.2-14.1
		c3.4-1.1,6.8-1.8,10.4-1.7c3.4,0.1,7.1,1,10.1-0.9c0.2-0.1,0.4-0.3,0.6-0.5c13.5-9.8,31.4-22.7,48.5-14.2c3.6,1.8,6.6,4.4,8.8,7.8
		c2.3,3.6,2.3,6.9,3,10.9c0.4,2.2,1.6,4.2,4.1,3.9c2.8-0.3,3.6-3.3,3.8-5.7C547.3,271.9,532.3,260.3,517.8,259.1z"/>
    <path class="st8" d="M602.5,211.4c-8.2-2.3-17.2,2.6-22.7,8.5c-6.1,6.5-7.9,14.6-7,23.2c0.2,2.2,3.2,2.2,3.4,0
		c0.6-6.6,4.2-13.2,9.2-17.6c5-4.5,11.1-4.9,17.1-7.1C605.8,217.3,606.2,212.5,602.5,211.4z"/>
    <path class="st7" d="M685,867.7c-11-6.2-24.7-2.3-32.1,7.3c-2.2,2.9-3.7,5.9-4.8,9.1c-2.6-0.1-5.3,0.1-8,0.9
		c-12.4,3.4-20.4,15.7-17.2,28.4c1.6,6.2,5.4,12.4,10.7,16.6c-8.8,2.4-14.2,12.5-10.5,21.4c2.3,5.4,6.8,9.5,13,9.7
		c5.1,0.2,9.8-2,12.5-6.3c1.6-1.5,2.9-3.4,3.7-5.6c0.6-1.8,0.9-3.5,0.8-5.2c4.2,0.7,8.6-0.4,11.4-3.4c1-1.1,2-2.3,3-3.6
		c3.1-1.1,5.9-3.3,8-6.3c6.1-9,12.2-18.6,17.1-28.2C698.6,890.2,697.9,875,685,867.7z"/>
    <path class="st7" d="M493.8,888.8c-2.7-2-6.1-2.7-9.4-2.6c0.2-0.9,0.4-1.8,0.4-2.7c0-4.7-2.2-8.1-5.3-11.4
		c-2.3-2.5-6.5-2.9-9.4-1.2c-2.3,1.3-5,4.3-6.3,7.4c-2.7-0.6-5.6-0.6-8.4,0.1c-10.8,2.8-16.1,15.6-10.4,25.2c3.5,6,10.7,9,17.4,7.2
		c0.9-0.2,1.7-0.6,2.5-0.9c0.5-0.1,1-0.2,1.6-0.3c0.5-0.1,1-0.3,1.5-0.5c1.8,1.6,4,2.8,6.4,3.4c3,0.7,5.8,0.6,8.9,0.1
		c0.1,0,0.2,0,0.3-0.1c5.6,1.5,11.7-0.3,14.8-5.7C502.2,900,499.4,893,493.8,888.8z"/>
    <path class="st7" d="M351.3,877.8c-1.5-8.8-6.6-17.2-14.3-21.8c-4.7-2.8-9.7-3.8-15-4.4c-0.5-0.1-1.1-0.1-1.6-0.2
		c0.2-2.3-0.1-4.7-0.5-6.9c-0.7-3.7-2.2-7.2-4.3-10.3c-11.8-16.8-34.5-17.4-49.4-4.4c-5.2,4.6-8.8,10.1-11.2,16.2
		c-11-8.8-28.4-10.1-42.3-6.5c-6,0.9-11.7,3-16.9,6.4c-3,2-5.7,4.3-8.1,6.9c-9.3,7.7-16.5,18-17.8,29.6c-2,0.1-4.1,0.3-6.1,0.6
		c-10.6,1.7-21.2,8.8-26.3,18.4c-6,11.5-4.2,24,3.5,34.2c3.2,4.2,7,7.9,10.6,11.6c0.6,0.6,1.2,1.2,1.8,1.9c-0.3,0.5-0.5,1.1-0.7,1.6
		c-14.4,9.4-22.5,27.1-17.9,44.6c2.7,10.3,9.6,19.2,18.5,24.9c4.2,2.7,9.2,4.5,14.2,5.3c2.2,0.4,4.5,0.6,6.7,1
		c1.1,0.2,2.3,0.4,3.4,0.6c0.1,0,1.1,0.3,1.8,0.6c-0.1,0.3-0.2,0.7-0.3,1c0,0.1-0.2,0.4-0.3,0.8c-0.3,0.6-0.8,1.7-0.9,1.9
		c-4.1,8.8-8.5,18.3-5.7,28.3c6.2,22.2,33.3,24.4,51.5,17.4c10.3-3.9,19.8-10.1,26.8-18.6c3.6-4.4,6.7-8.9,8.9-14.1
		c2,0.3,4.1,0.3,6.2-0.3c0.1,0,0.3-0.1,0.4-0.1c7.2,4,15,7,23,8.5c16.3,3,39.6,3.4,49.3-13c5.5-9.4,4.3-20.5-2.8-28.7
		c-5.1-5.9-9.6-7.3-13.3-11.2c0-0.1-1.1-1.7-1.4-2.1c-0.3-0.5-0.5-1-0.8-1.6c-0.1-0.2-0.1-0.4-0.2-0.7c-0.3-1.2-0.7-2.5-1-3.7
		c0-0.1,0-0.2,0-0.2c0-0.7-0.1-1.4-0.1-2.1c0-0.9,0-1.8,0.1-2.7c0,1.1,0.7-2.7,0.8-3.3c0.1-0.3,0.1-0.5,0.1-0.7
		c0.1-0.1,0.2-0.3,0.3-0.5c0.3-0.6,3.3-4.8,1.2-2.3c5.5-6.7,5.6-14.2,0.1-20.9c1.6,1.8-1.1-3.3-0.7-1.6c-0.2-0.8-0.5-1.5-0.6-2.3
		c0,0.2,0,0.3,0,0.5c0-0.2,0-0.5-0.1-0.9c0-1.3,0-2.5,0-3.8c0.1,0.6,0.8-3.5,0.9-4c1.7-6.4,8-14.4,12.6-20.5
		c1.5-1.9,2.1-4.3,2.1-6.6c0.5-0.1,1-0.2,1.6-0.3c6.8-1.9,9.9-7.2,10.3-13.3C350.8,896.7,353,887.6,351.3,877.8z M207.5,874.6
		L207.5,874.6C207.5,874.7,207.5,874.7,207.5,874.6L207.5,874.6z"/>
    <g>
		<g>
			<path class="st8" d="M332.2,867.9c-13-1.4-26.8,2-35.7,12.1c-8.2,9.3-11.8,23.4-5.1,34.5c6.1,9.9,20.4,14.5,29.4,5.5
				c6.9-6.9,5.2-22.9-6.6-23.2c-1,0-2.1,0.6-2.6,1.5c-0.9,1.7-0.2,2.9,1.1,4.1c1.6,1.6,3.6,2.1,4.4,4.6c0.7,2.2,0.1,4.3-1.3,6
				c-6.4,7.5-15.5-1.1-16.5-8.2c-2.6-18.4,17.6-27.7,32.9-27C338.8,878.2,338.5,868.6,332.2,867.9L332.2,867.9z"/>
		</g>
	</g>
    <g>
		<g>
			<path class="st8" d="M251.5,859.2c-6.4,10.4-9.7,22.9-8,35.1c0.8,6,2.8,12.4,6,17.6c2.6,4.2,7.6,9.7,13.2,9.2
				c3.8-0.3,6.9-4,4.1-7.3c-1.7-2.1-4.6-2.7-6.5-4.5c-2.3-2.2-3.9-5.3-5.1-8.3c-5-12.4-4.9-27.1,0.9-39.2
				C257.5,858.9,253.3,856.3,251.5,859.2L251.5,859.2z"/>
		</g>
	</g>
    <g>
		<g>
			<path class="st8" d="M258.8,918.5c-8.2,13-12.6,28.9-3.3,42.7c7.4,10.9,26,18.3,36.8,7.3c4.1-4.2,0-12.3-6-10.3
				c-4,1.3-7,2.9-11.3,1.9c-4.4-1-7.8-4.1-9.9-8c-5-8.9-3.5-20.9,0.3-29.9C267.2,918,261.5,914.4,258.8,918.5L258.8,918.5z"/>
		</g>
	</g>
    <g>
		<g>
			<path class="st8" d="M322.7,1014.8c-8.8,6-20.6,8.2-30.5,3.7c-5.1-2.3-9.6-6.2-10.1-12.2c-0.6-7.5,5.2-8.6,10.9-9.7
				c0.8-0.2,1.2-1.2,0.8-1.9c-4.2-5.8-13-2.1-16.5,2.5c-5.3,7-3.2,16.5,2.3,22.6c12.2,13.4,34.4,11.3,47,0.1
				C329.4,1017.5,325.8,1012.7,322.7,1014.8L322.7,1014.8z"/>
		</g>
	</g>
    <g>
		<g>
			<path class="st8" d="M217.5,877.7c-14.4,4.5-26,11.4-34.6,24.2c-8,11.8-12.8,27.2-10,41.4c1.4,7,5.3,13.6,11.9,16.8
				c5.8,2.8,13,2.9,18.3-1.2c5.1-4,7.3-11.7,3-17c-1.9-2.3-5.1-4.1-8.1-3.9c-3.3,0.2-4.8,2.3-6.3,4.9c-1.4,2.4,1.5,5.7,4,4
				c0.9-0.6,2.5,0.6,2.6,1.4c0.3,1.8-2.2,3.1-3.5,3.4c-3.6,0.7-7.2-1.6-9.1-4.5c-4.9-7.5-2.6-18.6-0.1-26.6
				c4.8-15.3,18.2-31.7,33.6-37.3C222.5,882,221.1,876.5,217.5,877.7L217.5,877.7z"/>
		</g>
	</g>
    <g>
		<g>
			<path class="st8" d="M141,970.6c-0.5,20.2,12,38.7,31.8,44.5c9.3,2.7,19.8,2.4,28.9-1.1c7.6-2.9,20.4-9.2,20.4-18.8
				c0-2.3-2.2-3.9-4.4-3.3c-3.5,0.8-6,3.4-8.6,5.7c-3,2.6-6.5,4.7-10.2,6.1c-7.1,2.9-15.2,4-22.8,2.3c-16.1-3.5-29.3-19.1-30.8-35.4
				C145,968,141.1,967.9,141,970.6L141,970.6z"/>
		</g>
	</g>
    <g>
		<g>
			<path class="st8" d="M208.7,1056c11.4,1.2,24.1-6.2,25.9-18c0.7-4.9-6.4-9.3-8.9-3.7c-3.1,7.1-8.8,13-17,12.7
				C202.7,1046.8,203,1055.4,208.7,1056L208.7,1056z"/>
		</g>
	</g>
    <g>
		<path d="M1136.7,924.5c0.3,0,0.3-0.5,0-0.5C1136.4,924,1136.4,924.5,1136.7,924.5L1136.7,924.5z"/>
	</g>
    <path class="st6" d="M329.5,649.3c-1.4-2.1-3.1-3.7-5.4-4.7c-5.6-2.4-10.7,0.1-14.2,4.7c-1.2,1.6-2,3.2-2.6,5.1c0,0,0,0-0.1,0.1
		c-0.3,0.4-0.7,0.7-1,1c-0.1,0.1-0.1,0.1-0.2,0.2c-0.2,0.1-0.4,0.2-0.6,0.3c-3.9,2.1-6.2,7.5-4.8,11.7c1.3,4.1,5.4,8.1,10,7.6
		c2.9-0.3,5.7-0.6,8.6-1c0,0,0-0.1-0.1-0.1c4.3,0,8.3-2.6,9.6-7.1c0.5-1.7,0.4-3.4,0-4.9c0.2-0.5,0.5-0.9,0.7-1.4c0,0,0,0,0,0
		c0,0,0,0,0,0c0.4-0.9,0.8-1.8,1.2-2.7C331.6,655.6,330.9,651.5,329.5,649.3z"/>
    <g>
		<path d="M1036.3,371.4c25.4,18.5,44.2,41.4,57.9,67.1c1.8-1.3,3.6-2.6,5.5-3.8c4.1-2.7,8.5-5.3,13.2-7.3
			c-20.8-33.5-51.2-61.9-84.2-82.2c-45.8-28.1-99-45.6-151.2-57c-40.3-8.8-81.3-14.6-122.5-15.2c-7.8,3.8-15.6,7-22.6,12.3
			c-0.1,0.2-0.1,0.4-0.2,0.6c-1.2,2.3-2.3,4.6-3.1,7c0.3,0,0.6,0,0.8-0.1C833.2,287.5,951.1,309.3,1036.3,371.4z"/>
      <path d="M1213.9,907c-12.4-3.9-22.7-3.3-35,0.8c-7.3,2.4-17.3,7.8-27.1,10c-12.9-0.1-26.2-5.2-31.8-17.5c-5.6-12.2-3.6-29-3.1-42
			c1.1-32.3,7.7-64.2,13.5-95.9c5.1-27.5,10.6-55.7,14.9-84c-7.9-1.6-15.7-3.3-23.6-4.4c-0.6,4.8-1.2,9.6-1.9,14.4
			c-8.2,59.2-17,117.9-20.9,177.6c-1.3,19.2-2.6,42.9,13.7,56.8c9,7.6,21.2,10.6,33.2,10.3c2.5,0.3,5,0.4,7.6,0.3
			c8.6-0.3,16.2-3.3,24.4-5.6c10.2-2.7,23.5-8.7,30.8,5.5c2.1,4.1,2.4,14.6,2.1,19c-2.9,42.1-38.1,89.6-65.4,119.7
			c-63.9,70.5-165.6,108.1-256.2,128.5c-104.4,23.5-211.7,16.5-307.7-32.7c-88.6-45.4-153-115.2-186.3-209.5
			c-32.3-91.4-39.9-188.7-37.7-285c1.2-52.7,5.9-107.6,26.1-156.7c10.4-25.3,23.9-49.6,39.9-72c-1.3-1.7-2.6-3.5-3.7-5.4
			c-3.1,4-6.7,7.7-10.4,10.9c-5.2,4.6-11.7,8.8-18.7,9.3c-39.1,58.6-60.8,126.9-67,199.4c-8.6,101.8,1.9,212.8,39.5,308.3
			c35.9,91.4,97.1,172,185.1,218.3c93,48.9,206.8,54.1,308.8,39.9c112.6-15.7,222.3-58,309.2-132.2c37.2-31.7,79.5-82.4,81.7-134.1
			C1248.9,934.6,1237.3,914.4,1213.9,907z"/>
	</g>
    <g>
		<path d="M1253.4,775.4c-28.3,5.7-35.5,44.9-22.9,67.2c15.6,27.6,51.8,36.8,77.3,16.9c23.6-18.4,28.9-53.2,12-78.3
			c-20.1-29.7-57.6-23.8-79.9-0.8c-4.4,4.5,2,10.5,6.8,6.8c19.3-15.2,44.6-17.3,62.2,1.3c19.9,21.1,12.2,54.8-15.7,64.8
			c-21,7.5-47.7-3.1-54.9-25.2c-6.5-20.1,4.3-36.6,15.4-52.3C1253.8,775.6,1253.6,775.4,1253.4,775.4L1253.4,775.4z"/>
	</g>
    <path class="st9" d="M1221,934.8c-4.9-16-26.5-23.5-38.7-10.2c-35.4,38.4-56.5,83.4-98.5,116.9c-150.2,120-370.1,116.7-531.4,21.2
		c-78.6-46.6-133.7-118.4-166.8-202.7c-6.6-17-11.7-34.6-18.5-51.4c-6.4-15.8-17.7-36.4-16.3-54.1c0,0.5-0.1,1.1-0.1,1.6
		c-2.4,60.6,1,121.4,10,181.3c1.8,2.5,3.2,5.5,4.1,9.1c1.2,5.1,2.5,10.3,3.8,15.4c9.6,17.5,19.1,35,28.7,52.5
		c6.9,12.6,18.5,27.2,26.2,42.2c5.6,8.8,11.5,17.4,18.2,25.6c29.6,36.3,66.6,66.5,109.2,86.1c40.2,18.5,82.1,31,124.9,41.9
		c43.2,10.9,87.6,21.1,132.4,19.8c81.3-2.3,158.5-39.1,227.7-80c13.8-4.7,27.1-11.9,36.9-18c11.9-7.3,23.1-16.1,33.4-25.8
		c21.6-14.5,42.3-30.1,60.9-48C1196.6,1029.6,1234.3,977.8,1221,934.8z"/>
    <path class="st9" d="M1329.8,812.3c-3.9-16.4-15.8-30.8-32-35.6c5.9,9.9,8.5,22.9,6.8,31.3c-0.1,0.5-0.3,1-0.4,1.5
		c-0.7,10.7-7.4,21.3-18.6,25.6c-1.6,0.6-3.2,1-4.7,1.3c-7.2,2.5-15.2,2.3-23.1-1.6c-1.6-0.8-2.9-1.8-3.8-3
		c-5.2-2.2-9-6.2-12.3-10.7c-4.4-5.9-7.9-13.3-7.1-20.1c-0.7,0.1-1.3,0.5-1.7,1.1c-7.2,14.6,1.4,37.7,11.8,49.1
		c14.1,15.6,40.4,16.6,58.4,8.6C1322.1,851.2,1334.8,833.7,1329.8,812.3z"/>
    <path class="st9" d="M1078.5,443.9c5.9-5.5,12.7-10.3,20-13.8c-4.5-6.2-9.2-12.2-14-18c-11.6-14.3-19.4-40.1-38-43.9
		c-2.3-0.5-12-1.8-11,0.3c10.1,21.3,24.7,40.1,36,60.8C1074.2,434,1076.5,438.9,1078.5,443.9z"/>
    <path class="st10" d="M454.6,490c-13.2-1.7-27.5-5.2-39.1-12.3c-14.3,24.5-24.3,51.3-22.3,76c0.5,5.6,6.4,7.9,10.6,4.4
		c17.1-14,29.2-33.2,44.2-49.5c5.6-6.1,11.6-12,17.8-17.7C462.1,490.7,458.3,490.4,454.6,490z"/>
    <path class="st10" d="M939.1,345c-11.9-29-47.9-33.3-75.6-38.2c-27.4-4.8-55.1-7.1-82.9-7.6c1.4,5,1.9,10.3,1.8,15
		c-0.2,13.7-4.6,27.2-10.5,39.3c-3.1,6.4-6.7,12.6-10.9,18.4c3.6-0.2,7.3-0.4,10.9-0.5c27.6-1,55.1,0.5,82.6,1.8
		c25,1.2,60.5,9.9,79.9-10.4C938.5,358.5,941.5,351,939.1,345z"/>
    <path class="st10" d="M603.7,740.5c-2.6-10.2-19.8-10.4-28.1-9.6c-10.5,1.1-25.1,8-25.5,20.1c-0.1,3.8,3.1,6.2,6.5,6.5
		c7.9,0.8,16.6-5.5,24-7.9c6.9-2.3,16.3,0.1,21.9-4.9C603.7,743.7,604,741.9,603.7,740.5z"/>
    <path class="st10" d="M431.3,731.4c-2.9-0.9-5.7-1.2-8.4-1.1c-15.3-6.8-40-3-48.5,11c-5.4,8.9-3.7,20.4,3.9,27.4
		c6.7,6.2,16.2,7.6,25,8.1c17.7,1,44.2-2.6,43.8-25.8C446.9,741.7,440,734.1,431.3,731.4z"/>
    <path class="st10" d="M768.4,748.5c-6,1.7-12.9,5.1-17.6,9.8c-9.6,5.6-15.3,14.4-9.3,25c7.5,13.3,30.5,14.5,43.8,15.3
		c14.5,0.8,36-1.2,44.2-15.3C849,749.5,787.4,743.2,768.4,748.5z"/>
    <path class="st10" d="M1266.4,780.2c-25.5,0-25.6,39.7,0,39.7C1291.9,819.9,1291.9,780.2,1266.4,780.2z"/>
    <g>
		<path d="M329.7,742.3c-25.3,2.4-50.8,4.3-76.1,7.1c-23,2.5-49.8,5-71.5,13.2c-36.7,13.9-49.5,56-37,91.3
			c5.5,15.6,14.6,28.7,25.8,40c1.9-0.4,3.8-0.4,5.7-0.4c0-0.1-0.1-0.2-0.1-0.4c-2.1-5.8-2-11.7-1.1-17.7c1-7,3.5-15.7,8.5-21.5
			c-0.5-0.7-1-1.4-1.5-2.1c-9.2-13.2-14.3-30.8-6.8-46.1c9-18.5,29.7-19.7,47.6-21.3c37-3.3,73.4-9.6,110.1-15.4
			C348.4,766.6,345,740.8,329.7,742.3z"/>
      <path d="M374.9,941.1c-16.8-1.1-34.1-4.5-50.9-9.5c-4.3,4.7-3.5,12.3-1.8,18.1c2.3,7.8,6.4,13.1,12.4,18.4
			c1.3,1.2,1.9,2.5,1.9,3.7c13.6,1.1,27.7,0.7,42.4-1.6C396.2,967.4,390.6,942.1,374.9,941.1z"/>
	</g>
    <g>
		<path d="M966.8,779c-27.9,2.8-55.8,6.7-83.3,12.1c-26.9,5.3-55.4,8.5-81.6,16.5c-39.8,12.2-56.3,49.3-43.3,88.5
			c13.7,41.5,58.8,68,96.7,83.9c39.2,16.4,95,34.3,135.7,13.3c6.5-3.4,4.4-12.8-1.9-14.8c-17.1-5.4-35.7-6.3-53.3-9.8
			c-18.4-3.7-36.3-8.3-53.8-15.3c-30.8-12.2-71.9-28.5-91.9-56.3c-11-15.3-14.5-36.3,0.5-50.6c12.8-12.2,36.5-14.1,53-17.7
			c42.4-9.4,84.6-18.5,125.9-31.9C978.4,793.8,977.5,777.9,966.8,779L966.8,779z"/>
	</g>
    <path class="st7" d="M866.9,716.8c-7.3,13.2-14.5,26.2-20.7,39.9c-4.7,10.3-10.7,20-8.4,31.5c0.5,2.2,3.1,3,4.9,2
		c11.1-6.1,14.8-19.1,20-30c5.9-12.6,10.6-25.6,15.6-38.7C880.7,714.9,870.2,710.7,866.9,716.8z"/>
    <path class="st7" d="M887.7,729.1c-4.3,7.2-8.6,14.4-12.8,21.7c-3.8,6.4-7.7,12.1-8.6,19.7c-0.4,3.8,4.6,5,6.9,2.9
		c5.6-5,7.9-12.1,10.9-18.8c3.2-7.3,6.5-14.5,9.7-21.8C895.8,728.6,890.1,725.1,887.7,729.1z"/>
    <path class="st7" d="M908.1,734.2c-2.4,4.5-4.8,8.9-7.3,13.4c-2.2,4.1-5,7.9-5.2,12.7c-0.2,3.8,4.8,5.5,7.3,3
		c3.4-3.2,4.4-8.1,6-12.3c1.8-4.7,3.5-9.5,5.3-14.2C915.5,733.2,909.8,730.9,908.1,734.2z"/>
    <g>
		<path class="st7" d="M368.1,738c-3.6,7-7.3,13.9-10.9,20.9c-3.3,6.3-7.3,12.4-8.6,19.5c-0.5,2.8,2.9,5.5,5.2,3
			c4.8-5.3,7.3-12,10.4-18.5c3.4-7.1,6.8-14.2,10.1-21.3C376.3,737.5,370.3,733.9,368.1,738L368.1,738z"/>
	</g>
    <g>
		<path class="st7" d="M376.6,759.2c-9.2,17.8-21.6,36.6-26.4,56.2c-1.1,4.3,4.5,6.4,7,2.9c11.5-16.5,17.4-38.3,24.7-56.9
			C383,758.4,378.1,756.4,376.6,759.2L376.6,759.2z"/>
	</g>
    <path class="st10" d="M288.7,784.8c-24.6-3.9-51.6,5.2-75.4,10.4c-6,1.3-4.8,11.2,1.5,10.8c24.3-1.4,52.8,0.1,75.4-10.3
		C294.6,793.7,293.6,785.6,288.7,784.8z"/>
    <path class="st10" d="M909.5,842.3c-27.3-28.2-81.7-4.4-109.1,12.8c-15.8,9.9-2.1,32.6,14.5,24.8c16.1-7.6,32.7-11.5,50.2-14.2
		c15.3-2.4,29.4-1,42.6-9.8C912.4,852.7,913.5,846.4,909.5,842.3z"/>
    <path class="st9" d="M1000.6,934.7c-12.3-11.6-29.4-13-45.3-10.6c-20,3-38.6,6.4-58.9,3.4c-38.4-5.7-78.3-25-109.3-48
		c-3.9-2.9-9,2.7-6.5,6.5c18,28.5,42.1,47.7,70.4,59.7c-1.1,0.1-2.1,0.2-3.2,0.4c-8.1,1.1-7.9,12.5-2.1,16.2
		c18.1,11.5,39.9,15.4,60.2,22c19.9,6.5,42.1,15.6,63.3,16C1004.4,1001,1029.1,961.8,1000.6,934.7z"/>
    <g>
		<g>
			<path class="st7" d="M395.2,773.4c-2.3,6.6-4.7,13.1-7,19.7c-2.2,6.4-5.3,13.2-6.3,19.9c-0.3,2.1,2.5,3.7,3.6,1.5
				c3.1-5.9,4.6-13,6.6-19.3c2.1-7,4.2-14,6.3-20.9C398.9,772.2,395.9,771.4,395.2,773.4L395.2,773.4z"/>
		</g>
	</g>
    <g>
		<g>
			<path d="M458.9,773c17.6,5.6,35.1,11.2,53.1,15.1c18.4,3.9,37.1,6.1,55.9,6.8c18.4,0.7,36.9,0.1,55.2-1.9
				c9.6-1.1,19.2-2.5,28.7-4.2c8.9-1.6,19.8-2.5,27.4-7.7c9.1-6.3,5.1-18.6-5.4-19.8c-9-1-19.5,3-28.4,4.6c-8,1.4-16.1,2.6-24.2,3.5
				c-17.7,1.9-35.6,2.8-53.4,2.5c-34.9-0.6-71.3-3.8-104.8-14.1C453.4,754.7,449.3,769.9,458.9,773L458.9,773z"/>
		</g>
	</g>
    <g>
		<g>
			<path d="M664.3,780.3c4.5,10.1,7.4,21.6,10.2,32.3c2.8,10.5,5.2,21.2,6.4,32.1c2.2,20.6,0.5,40-7.3,59.1
				c-6.1,15-17.1,30.2-30.4,39.5c-14.3,9.9-28.7,14.1-45.8,13c-4.5-0.3-7.7-0.9-13-2.1c-4.4-1-8.8-2.2-12.9-3.9
				c-7.9-3.1-16.2-9.1-24-13.6c-4.4-2.5-10,1.7-8.6,6.6c5.5,19.6,27.3,32.3,46.4,35.7c21.2,3.8,43.2,0.9,62.3-9.4
				c40.3-21.8,60.8-70.1,58.2-114.4c-0.9-14.7-3.6-29.5-8.8-43.3c-2.6-6.9-5.5-14-9-20.6c-3.4-6.3-7.9-12-11.7-18.1
				C671.3,765.8,660.8,772.4,664.3,780.3L664.3,780.3z"/>
		</g>
	</g>
    <g>
		<g>
			<path d="M550.3,798c2.8,6,4.7,12.4,7,18.6c2.5,6.8,5.7,13.4,8.3,20.1c4.8,12.2,8.9,25.1,10.4,38.2c1.5,12.5,0.8,25.3-3.2,37.4
				c-3.9,12-13.2,21.8-15.5,34.3c-1,5.3-0.8,10.8,1.2,15.8c2.2,5.6,7,12.2,13.8,11.9c6.9-0.3,8.5-6.8,6-12.2
				c-1.8-3.8-3.2-6.8-2.5-11.1c0.9-5.8,4.9-11,7.8-15.9c3.7-6.1,6.7-12.4,8.9-19.2c4-12.3,5.2-25.7,4.2-38.5
				c-1.2-15.5-5.3-30-11.2-44.3c-3.1-7.5-6.6-14.9-10.7-21.9c-4.1-6.8-9.2-12.9-13.3-19.7C557.1,784.2,546.8,790.6,550.3,798
				L550.3,798z"/>
		</g>
	</g>
    <g>
		<g>
			<path d="M691.6,865.5c-9.7-8-23.9-10.1-34.9-3.1c-10.3,6.5-16.9,20.6-9.9,31.8c1.6,2.6,6.5,2.5,7.1-0.9
				c1.2-6.8,3.1-14.8,8.8-19.2c5.7-4.4,14.6-4.1,20.1,0.3C689,879.2,697.8,870.6,691.6,865.5L691.6,865.5z"/>
		</g>
	</g>
    <g>
		<g>
			<path d="M651.2,884.6c-15.8-7.6-35.4-0.9-40.9,16.4c-2.6,8-0.9,17.4,3.6,24.4c4.8,7.4,13.2,14.3,22.5,11.6
				c3.7-1.1,5.8-6.5,2.5-9.3c-6.9-5.7-17.2-11.1-14.2-22c2.4-8.7,14-13.4,22-10.2C652.8,897.8,657.2,887.5,651.2,884.6L651.2,884.6z
				"/>
		</g>
	</g>
    <g>
		<g>
			<path d="M623.3,928.5c-9.8,7.5-12.9,22.3-4.2,32c3.9,4.4,9.9,6.9,15.8,7.1c5.9,0.1,12.7-3.4,13.3-9.7c0.2-1.8-1.4-3.3-2.9-3.8
				c-5-1.6-11,1.3-15.5-2.4c-4.6-3.7-3.1-10.3,0.8-13.7C635.6,933.5,628.7,924.3,623.3,928.5L623.3,928.5z"/>
		</g>
	</g>
    <g>
		<g>
			<path d="M464.1,870.7c-19,3.1-32.7,24.5-20.6,41.7c5.3,7.6,14.4,11.2,23.4,8.6c8.4-2.4,16.5-10.1,12.9-19.1
				c-1.1-2.8-4.4-3.3-6.2-0.8c-2,2.7-5.5,7.1-9.2,8.5c-5,1.8-9.7-0.8-12.1-5.4c-5.8-11.1,4.3-21,14.7-23
				C474,880,471,869.6,464.1,870.7L464.1,870.7z"/>
		</g>
	</g>
    <g>
		<g>
			<path d="M473.6,914.8c6.3,3.4,14.3,5.2,21.1,2.2c6.1-2.7,10.5-8.7,11.1-15.4c0.6-6.3-2.5-12.2-8.1-15.2c-5.2-2.7-12-2.6-16.2,1.7
				c-2.8,2.8,0,8.7,4.2,7.1c4.5-1.7,9.8,0.4,8.4,6.1c-1.7,7-10.3,8.5-16.1,6C473,905.3,468.6,912.1,473.6,914.8L473.6,914.8z"/>
		</g>
	</g>
    <g>
		<g>
			<path d="M486.4,888.3c3.6-5.6,3.1-13.2-1.2-18.3c-4.5-5.3-12.3-6.7-18.3-3.3c-2.5,1.5-5.3,4.4-3.5,7.5c2,3.3,5.3,0.9,8,0.4
				c2.5-0.5,5.6-0.4,7.4,1.8c1.9,2.2,1.9,5.4,0.6,7.9C476.9,888.8,483.6,892.7,486.4,888.3L486.4,888.3z"/>
		</g>
	</g>
    <g>
		<g>
			<path d="M254.7,843.3c-6.9-6.7-13.8-12.2-22.9-15.6c-8.9-3.3-19.3-3.2-28.5-1.4c-19.5,3.7-38.2,18.8-41.5,39.2
				c-1.6,10.1,0.6,21.2,7.5,29.1c3,3.5,8.9,6.9,13.7,5.7c1.4-0.4,3.4-1.3,4.4-2.4c0.6-0.6,0.8-1.2,1.1-1.9c0.4-1,0.3-1,0.3-2.5
				c0-4.6-3.1-8.5-5.3-12.3c-1.9-3.3-2.8-7.1-2.6-10.9c0.4-8.3,6.2-15.5,12.6-20.3c7.7-5.9,17.5-8.4,27.1-8.5
				c10.1-0.1,21.5,1.4,29.8,7.4C253.7,851.2,257.5,846.1,254.7,843.3L254.7,843.3z"/>
		</g>
	</g>
    <g>
		<g>
			<path d="M177.1,880.3c-21-6.5-44.4,5.3-51.9,25.9c-7.3,20,3.9,46.9,24.7,53.5c-0.7-5-1.3-10.1-2-15.1c-1.8,1.2-3.9,2.5-5,4.4
				c-0.9,1.6-0.9,3.2-1.4,4.8c0.8-1,1.5-2,2.3-3c-9,6.2-15.2,13.6-18.8,24c-3.3,9.7-3.4,20.8,0.3,30.4c8.2,20.9,31.2,33.3,53.2,29.2
				c-2-4.7-4-9.5-6-14.2c-17.9,13.4-14.5,37.4,0,52.1c14.4,14.6,37.2,20.5,56.9,14.6c9.4-2.8,18.1-8,25-15
				c5.2-5.2,14.3-19.7,2.6-23.3c-5.7-1.7-9.4,3.1-12.8,6.7c-3,3.3-6,6.6-9.7,9.2c-7.7,5.2-16.4,7.6-25.7,7
				c-10.1-0.7-20.2-5.5-27-13.1c-5.6-6.3-10.2-18.8-1.5-24.9c7.4-5.2,2.7-15.6-6-14.2c-14.7,2.3-30.5-6.6-36.2-20.3
				c-5.7-13.7,0.3-31.4,11.6-40.4c-1.2,0.5-2.4,1-3.5,1.5c1.2,0,2,0.7,3.4,0.7c1.6,0,3.1-0.6,4.6-1.1c6.7-2.1,8.2-11.4,2-15.1
				c-6.1-3.6-11-7.5-14.1-14c-2.9-6.1-3.6-13.1-1.5-19.5c4.2-12.9,20-20.7,32.9-17.8C182.1,895.3,185.5,882.9,177.1,880.3
				L177.1,880.3z"/>
		</g>
	</g>
    <g>
		<g>
			<path d="M248.6,847.6c-13.2,4.6-23.3,14.4-28.3,27.4c-4.4,11.4-5.1,33.9,11.6,35.1c4.4,0.3,12.8-2.2,9.7-8.3
				c-1.1-2.2-3.6-2.5-5.1-4.1c-2.1-2.1-2.6-5.3-2.6-8.2c0.1-11.6,8.1-22.6,18.9-26.5C262.4,859.5,258.4,844.2,248.6,847.6
				L248.6,847.6z"/>
		</g>
	</g>
    <g>
		<g>
			<path d="M227.5,900c-13.1,9.6-20.2,25-17.1,41.2c2.9,15.1,16.1,28.1,31,31.2c-0.7-5.1-1.3-10.2-2-15.4
				c-13.5,8.5-21.3,25.3-16.1,41c5.6,16.9,23,26.1,40.1,23c-2.3-5.5-4.7-11-7-16.5c-10.6,7.2-15.1,22-7.7,33.2
				c7,10.5,22.4,13.7,32.8,6.4c-3.3-4.3-6.6-8.6-9.9-12.9c-3.7,4.2-7.5,7.9-7.6,13.8c-0.1,4.5,4.1,6.7,8,6.1c5-0.7,8.1-4.8,11.2-8.3
				c6-6.6-1.9-18.4-9.9-12.9c-3,2-7.5,2.5-10-0.7c-2.2-2.9-0.5-7.4,2.3-9c7-4.3,4.8-18.1-4.6-16.9c-8.2,1.1-17.5-2.4-20.7-10.6
				c-3-7.7,0.5-17.1,7.7-21.1c6.4-3.5,4.9-13.5-2-15.4c-20.9-5.6-27.6-32-10.7-46.3C240.6,905.3,233.3,895.7,227.5,900L227.5,900z"
      />
		</g>
	</g>
    <g>
		<g>
			<path d="M255.7,853.9c3.5-15.2,19.6-27.5,35.3-26.4c7.1,0.5,14.3,3.9,19.5,8.7c3.1,2.9,5.3,6,7.4,9.6c2.2,3.7,3.9,8.6,7.2,11.4
				c3.5,2.9,9.1,3,11.5-1.5c6.1-11.3-3.9-26.1-12-33.7c-9-8.4-20.5-13.6-32.9-14.1c-24.7-0.9-45.9,18.3-49.4,42.3
				C241.2,858.8,253.7,862.8,255.7,853.9L255.7,853.9z"/>
		</g>
	</g>
    <g>
		<g>
			<path d="M356.1,915.2c-17.9-5.1-38.3,4.8-44.2,22.6c-2.9,8.8-1.7,18.5,2.2,26.7c2,4.3,5.3,8.6,9.3,11.3c1.8,1.2,3.9,2.3,6,3
				c2.1,0.8,4.4,0.5,6.4,1.1c0.5-3.9,1.1-7.9,1.6-11.8c-17.5,1.9-30.1,21-25.1,38c2.6,8.8,9.1,15.9,17.3,19.6
				c9.3,4.2,21.4,5.5,29.2-2.3c6.6-6.6,1.3-16.8-7.2-17.4c-5.1-0.4-8.8,0.8-12.7-0.6c-2.5-0.9-5.9-3.3-7.3-6.7
				c-3.1-7.4,1.7-15.6,8.8-19.4c3.9-2.1,3.9-8.3,0-10.4c0.7,1.2,0.5,0.9-0.7-0.7c-0.4-0.4-0.7-0.8-1-1.2c-0.9-1-1.8-2-2.6-3.1
				c-1.7-2.1-3.2-4.3-4.5-6.6c-2.3-4.1-3.5-8.7-2.4-13.4c2.3-9.8,13.2-16.2,22.8-14C361.7,932.2,365.7,917.9,356.1,915.2
				L356.1,915.2z"/>
		</g>
	</g>
    <g>
		<g>
			<path d="M340.8,1021.1c-2.4,5.9-8.9,11.7-13.9,15.5c-5,3.8-11,6.5-17.5,7.7c-5.9,1-12.9,0.1-19.2-2.4c-2.6-1-6.2-2.9-9-4.9
				c-3.3-2.3-6.6-5.7-11.2-6.7c-6-1.3-14.5,3-13.6,10.3c1.7,12.9,14.4,20.5,25.7,24.9c10.6,4.1,22.1,4.9,33.2,2.9
				c10.5-1.9,20.2-7.1,28.1-14.3c8.4-7.6,12.5-17.4,15.7-28c1.4-4.9-1.7-10.3-6.6-11.7C347.1,1013,342.7,1016.4,340.8,1021.1
				L340.8,1021.1z"/>
		</g>
	</g>
    <g>
		<g>
			<path d="M654.3,569.9c6.9-28.5,28.4-52.2,55.5-63.2c28.3-11.5,59.6-5,84.4,11.3c12,7.9,22.5,18.5,30.2,30.3
				c8.1,12.5,13.6,27.7,15,41.3c3.3,31.5-5.9,62.8-26.4,86.2c-12,13.7-25.6,23-41.8,31.5c-7.6,4-15.8,8.4-24.2,10.5
				c-8.8,2.2-17.7,4.1-26.6,6.2c-5.4,1.3-5.5,9.7,0,11c17.8,4.1,36.9,1,54.2-3.9c18.4-5.2,35.1-15.4,49.2-28.2
				c28.5-25.8,44.2-64,43.3-102.4c-0.5-19.5-5.1-38.7-14-56.1c-8.5-16.6-21.4-30.4-36.4-41.5c-29-21.4-67.4-27.3-101.5-16.3
				c-36.4,11.7-66.7,41.6-74.9,79.5C638.4,575.1,652.1,579,654.3,569.9L654.3,569.9z"/>
		</g>
	</g>
    <g>
		<g>
			<path d="M524.8,559.8c0.7-35.3-25.8-64.4-61.2-66.7c-34.2-2.3-60.3,21.5-75.1,50.1c-13.4,26-21.2,56.1-20.2,85.5
				c1,28.9,9.2,64.1,33.3,82.8c14.2,11,30.3,18.3,48.4,20.6c8.7,1.1,17.5,0.8,26.1-1.1c8.7-1.9,18.4-5.6,21.1-14.9
				c0.6-2-0.7-4.9-3-5.3c-6.9-1.1-12.4,1.2-19,3c-6.3,1.7-12.7,2.1-19.3,1.7c-12.8-0.9-24.4-6.4-33.7-15.1
				c-8-7.5-14.7-18.2-19.6-29.1c-1.5-3.3-3.9-10.2-5.3-15.3c-0.8-2.9-1.5-5.9-2.1-8.9c-0.3-1.6-0.6-3.2-0.9-4.8
				c-0.1-0.7-0.2-1.4-0.3-2.1c-0.3-2.3,0.2,1.4-0.1-0.9c-1.4-12.3-1.4-24.9-0.1-37.2c0.1-0.6,0.1-1.3,0.2-1.9
				c-0.1,0.6-0.3,1.9,0.1-0.6c0.2-1.3,0.4-2.6,0.6-3.9c0.5-3.1,1.2-6.2,1.9-9.3c1.5-6.2,3.2-12.4,5.5-18.4
				c8.1-21.6,22.1-44.7,45.5-50.4c27.5-6.8,57.3,14,60.7,42.3C509.7,569.9,524.5,570.6,524.8,559.8L524.8,559.8z"/>
		</g>
	</g>
    <g>
		<g>
			<path d="M838.2,483.4c9.7,1.7,17.9,6.2,24.6,13.4c3.1,3.4,5.7,7.2,7.7,11.4c2.8,5.6,3.5,11.8,10.4,13.9c2.9,0.9,6.4-0.1,8.5-2.2
				c6.2-6.4,2.1-15.2-1.3-21.9c-3-5.8-7.1-11.1-11.9-15.5c-10-9.2-22.2-14.7-35.6-16.5C830.7,464.6,828.3,481.6,838.2,483.4
				L838.2,483.4z"/>
		</g>
	</g>
    <g>
		<g>
			<path d="M309.3,526c3.1-10.4,8.7-20.1,14.9-28.9c6.2-8.9,14.6-15.8,21.4-24.2c2.2-2.8,3.1-6.3,1.2-9.6c-1.6-2.8-5.7-4.9-8.9-3.6
				c-24.5,10-38.4,37.7-43.7,62.1C292,531.6,306.4,535.7,309.3,526L309.3,526z"/>
		</g>
	</g>
    <g>
		<g>
			<g>
				<path d="M1211.1,406.1c-14.1-4.2-27.6-6.4-42.3-4.4c-13.7,1.9-27,6.2-39.2,12.6c-24.5,13-42.2,33.7-54.2,58.4
					c-24,49.4-25.1,110.1,10.5,154.3c18.9,23.4,46.7,37.5,76.6,39.6c7,0.5,12.9-6.3,12.9-12.9c0-7.5-6-12.3-12.9-12.9
					c-8.8-0.8-21.2-4.4-29.1-8.4c-10.2-5.2-16.4-10-24.1-18.2c-4.2-4.5-5.6-6.3-8.9-11.2c-3-4.6-5.7-9.4-8-14.3
					c-3.5-7.7-6.6-19.9-8.1-30.3c-1.3-9.2-1.5-23.3-0.8-34.6c0.6-11.4,2.4-22.9,5.8-33.9c6.9-21.8,20.6-40.9,39.6-53.7
					c11.2-7.6,23.7-13.1,36.9-16.1c13.2-3,28.5-4.3,41.8-1.7C1215.6,419.9,1219,408.5,1211.1,406.1L1211.1,406.1z"/>
			</g>
		</g>
      <g>
			<g>
				<path d="M1205.7,412.7c-7.6,38.5-14.8,77.1-22.4,115.6c-7.9,40.2-17.9,79.9-25.9,120.1c-2.5,12.4,15.4,17.6,19.1,5.3
					c11.9-39.4,19.6-80.3,26.8-120.8c7-39.3,12-78.7,14-118.5C1217.8,407.6,1207,406,1205.7,412.7L1205.7,412.7z"/>
			</g>
		</g>
      <g>
			<g>
				<path d="M1240.2,426.2c-9,37.3-18.2,74.4-25.8,112c-7.9,39.3-15.3,78.6-22.2,118.1c-1.7,9.6,12.8,13.8,14.8,4.1
					c8-39.2,15.6-78.5,22.6-118c6.8-38,11.9-76.2,17.2-114.4C1247.5,423.8,1241.3,421.8,1240.2,426.2L1240.2,426.2z"/>
			</g>
		</g>
      <g>
			<g>
				<path d="M1198.9,668.6c46.7,19.5,91.2-29,108.4-67.3c19.1-42.7,20.8-92.7-2.7-134.1c-5.9-10.4-13.3-20.5-22-28.8
					c-4.3-4.1-8.9-7.8-13.7-11.2c-5.1-3.6-10.3-5.9-16-8.4c-9.5-4.3-17.3,8.4-8.3,14.2c7.3,4.7,14.4,11.3,20.4,17.6
					c6.2,6.5,11.8,13.5,16.5,21.2c9.1,15,15.5,32.2,17.3,49.7c4,39.4-11,81.3-37.3,110.7c-14.9,16.7-36.3,26.7-58.8,22.6
					C1193.5,653.2,1190.6,665.1,1198.9,668.6L1198.9,668.6z"/>
			</g>
		</g>
      <g>
			<g>
				<path d="M1215.5,432.4c10.2,0.6,20.5,2.4,30.6,1.2c3.9-0.4,7.3-2.7,7.8-6.9c0.4-3.6-1.7-8-5.7-8.7c-10.9-1.8-21.8-0.9-32.7-0.8
					C1205.7,417.3,1205.8,431.8,1215.5,432.4L1215.5,432.4z"/>
			</g>
		</g>
      <g>
			<g>
				<path d="M1142.9,408.7c-32.6,2.2-61.8,18.8-82.6,43.7c-11.4,13.7-20.4,27.9-26.2,44.8c-6,17.5-8.2,36.6-7.7,55
					c0.9,36.6,11.3,75.6,34.4,104.6c23.9,30,64.8,43,102.1,44.1c22.1,0.6,43.6-4,62.9-15c15.4-8.8,32.4-23.9,35.1-42.5
					c0.5-3.1-3.1-6.1-5.8-3.4c-4.9,5.1-9.8,10.5-15.6,14.7c-6,4.2-12.6,8-19.1,11.3c-14,7.2-29.7,10.6-45.4,11.4
					c-31.6,1.5-68.7-4.9-92.2-27.7c-22.5-21.8-33.7-55.8-36.6-86.3c-3.1-32,2.5-65.6,19.2-93.4c16.6-27.6,47.7-46,79.2-50.2
					C1150.8,419,1149.3,408.3,1142.9,408.7L1142.9,408.7z"/>
			</g>
		</g>
      <g>
			<g>
				<path d="M1164.2,658c3.1,6.1,5.2,12.8,8,19c1.3,2.8,5.6,3.7,8,2.1c4.8-3.2,9.7-6.3,14.3-9.7c4.5-3.3,9.1-6,9-12.2
					c0-2.2-1.6-4.4-3.7-4.9c-6.1-1.5-9.7,2.1-14,5.8c-4.4,3.8-8.5,7.8-12.7,11.8c3.1,0.4,6.1,0.8,9.2,1.2c-3.8-5.7-8.4-10.9-12-16.7
					C1168,650.4,1162.1,653.9,1164.2,658L1164.2,658z"/>
			</g>
		</g>
	</g>
    <g>
		<g>
			<path d="M1027.2,544.3c-11.2,3.1-22.5,6.1-33.7,9.4c-5.4,1.6-10.9,3.2-16.3,4.9c-5.6,1.7-11.7,3.1-16.8,6
				c-5.9,3.3-3.7,14.2,3.6,13.4c11.2-1.1,22.7-6.5,33.4-10.1c11.1-3.7,22-7.8,33-11.8C1037.9,553.6,1035,542.2,1027.2,544.3
				L1027.2,544.3z"/>
		</g>
	</g>
    <g>
		<g>
			<path d="M956.1,568.5c-9.2,13.4-18.3,29.4-16.6,46.3c0.8,7.6,3.4,14.9,7.9,21c4.6,6.3,13.8,16.6,22.4,13.3
				c3.6-1.4,6.7-4.5,6.6-8.6c-0.3-7.9-7.3-10.6-11.7-16.2c-2.8-3.5-5.1-7.8-5.6-12.4c-1.4-12.3,4.1-25.5,10.1-35.8
				C974.1,567.6,961.6,560.6,956.1,568.5L956.1,568.5z"/>
		</g>
	</g>
    <g>
		<g>
			<path d="M969.6,650.6c12.7-2.5,25.9-3.1,38.7-5.5c12.7-2.3,25.5-4.8,38-7.9c5.3-1.3,8.4-7.2,7-12.3c-1.5-5.6-7-8-12.3-7
				c-12.7,2.4-25.3,5.4-37.8,8.6c-12.5,3.2-24.6,8.1-37.2,11.1C957.5,639.6,961.2,652.2,969.6,650.6L969.6,650.6z"/>
		</g>
	</g>
    <g>
		<g>
			<path d="M987.3,566.5c-10.2,9.4-13.3,22.3-11.9,35.8c0.7,6.8,2.8,13.2,5.9,19.3c2.8,5.4,7.5,14.3,13.9,15.9
				c3.8,0.9,7.4-2.5,6.3-6.3c-1.4-5-6.7-8.9-9.4-13.5c-2.9-4.8-4.8-10-6.2-15.4c-2.7-10.3-0.5-22.2,7.3-29.8
				C997,568.6,991.2,562.9,987.3,566.5L987.3,566.5z"/>
		</g>
	</g>
    <g>
		<g>
			<path d="M1008.9,553.4c-9.9,14.9-11.5,33.3-7.6,50.5c2.9,12.6,12.6,33.4,28.9,29.6c6.2-1.5,5.7-10.4,0-12.1
				c-3.7-1.1-6.8-2.4-9.8-6.3c-3.8-4.9-5.9-11-7.4-16.9c-3.3-12.6-3.9-29.2,3.2-40.6C1019,553,1011.8,548.9,1008.9,553.4
				L1008.9,553.4z"/>
		</g>
	</g>
    <g>
		<g>
			<path d="M415.3,443.4c5.2,13,14.4,22.3,28.1,26c14.7,4,31.6,2,45.6-3.7c14.9-6.1,27.5-15.9,36.9-29c4.3-6,7.5-13.1,8.7-20.3
				c1.1-6.4,1.6-14.4-2.8-18.8c-1.3-1.3-3.1-1.3-4.6-0.6c-4,1.8-6.6,6.5-9.3,10.7c-3.1,4.8-6.2,9.7-9.5,14.3
				c-6.7,9.3-14.8,16.5-25.2,21.5c-10.1,4.9-21.1,6.7-32.2,6.2c-8.4-0.4-20.3-2.9-24.6-11C423.3,432.8,412.7,436.9,415.3,443.4
				L415.3,443.4z"/>
		</g>
	</g>
    <g>
		<g>
			<path d="M530.8,409.5c17.1,4.9,34.7,4.6,51.4-1.8c16.9-6.4,31.2-17.7,41.1-32.9c-3.5,1.4-7,2.9-10.6,4.3
				c35.3,7.3,74.6,11.5,106.6-8.9c14.1-9,24.6-22.2,31.4-37.5c3.2-7.2,5.6-15,5-23c-0.8-9.6-5.4-16.9-11.4-24.1
				c-8-9.6-23.2,5.1-13.8,13.8c9.7,9.1,5.8,20.7,0,31c-6.4,11.4-14.4,20.2-26,26.5c-26.6,14.4-58.4,10-86.8,4.2
				c-4.3-0.9-8.2,0.6-10.6,4.3c-14.8,22.8-45.7,35.4-72.3,29.1C525.2,392.1,521.2,406.7,530.8,409.5L530.8,409.5z"/>
		</g>
	</g>
    <g>
		<g>
			<path d="M411.3,434c-5.4,12.8-16.1,17.9-29.7,17.4c-1.7-0.1-3.1-0.1-3.5-0.5c-1.4-1.1-2.2-3.2-2.9-5.1
				c-2.4-6.4-1.9-13.7-1.2-20.4c1.2-12.3,4.8-25.7,13.1-35.1c3.7-4.2,8.3-8,13.6-10.1c6-2.5,13.2-1.5,17.7-7c2-2.5,3.3-6.3,1.2-9.3
				c-9.6-13.6-30.5-2.2-40.3,5.7c-11.5,9.3-18.7,23.1-22.2,37.3c-3.5,14-5.5,31.1-0.2,44.9c2.4,6.2,5.9,12.3,11.9,15.7
				c6.3,3.6,14.2,3.1,21.1,2.2c17.1-2.3,30.3-13.4,36.4-29.4C429.6,431.7,414.9,425.5,411.3,434L411.3,434z"/>
		</g>
	</g>
    <g>
		<g>
			<path d="M417.8,363.6c-7.3-22.9-4.2-50.6,7.4-71.5c12-21.7,32.9-36.2,57-41.3c13.3-2.8,27-2,40,1.8c5.5,1.6,12.2-1.9,13.4-7.6
				c5.6-25,28.8-42.9,53.9-45.7c31.3-3.4,61.3,11.7,84,32.1c13.7,12.3,25.6,26.5,36.7,41.1c2.7,3.6,6.3,6,11.1,5.3
				c4.2-0.6,8.2-3.6,9.2-8c1.1-4.9,5.7-9,10.4-7.9c2.3,0.5,4.1,2,5.5,3.9c1.4,1.8,2.3,3.9,3.6,5.7c1.1,1.6,2.6,2.7,3.9,4.2
				c2.2,2.6,7.5,2.8,9.7,0c5.4-6.9,5.5-14.5,0.6-21.9c-4.3-6.5-11.2-11.5-18.8-13.2c-16-3.5-32.7,7.4-36.3,23.3
				c6.8-0.9,13.6-1.8,20.3-2.7c-22.6-29.6-48.3-58.9-83.2-74c-32.8-14.2-72-15.5-101.7,6.8c-14.8,11.2-26.3,26.6-30,45.1
				c4.5-2.5,9-5.1,13.4-7.6c-28.6-7.7-60.4-2.9-85.5,12.9c-26,16.3-43,43.6-47.1,73.9c-2.3,17.2,0.2,33.6,6.6,49.6
				c1.6,4.1,5.5,7,10.1,5.7C416.3,372.5,419.2,367.8,417.8,363.6L417.8,363.6z"/>
		</g>
	</g>
    <g>
		<g>
			<path d="M472.7,775.6c4.8,14,12.8,33.1,27.2,39.6c8.6,3.9,17.1,0,21.3-8.1c3.9-7.7,7.9-17.8,8.2-26.6c0.2-7.6-11.6-11.5-15-4.1
				c-2.6,5.8-3.8,12.1-6,18.1c-0.3,0.8-1.9,5.7-2.6,5.9c-0.3,0.1-3.1-1.9-3.9-2.5c-9.1-7-16.5-15.1-21-25.7
				C478.9,767.6,471.1,770.8,472.7,775.6L472.7,775.6z"/>
		</g>
	</g>
    <g>
		<g>
			<path d="M614.1,796.3c4.7,3.4,6,10.9,9.7,15.2c4.5,5.2,11.3,9,18.3,7.1c6.7-1.8,11.2-8.1,14.3-14c3.2-6.1,6.6-13.9,4.5-20.9
				c-1.7-5.5-8.9-6.3-11.9-1.6c-2.6,4-3,9-5,13.3c-1.2,2.5-4,8.7-6.4,8.2c-3.3-0.8-5.5-6.8-7-9.4c-2.5-4.1-5.4-7.6-9.5-10.1
				C613.3,779.5,606.9,791.2,614.1,796.3L614.1,796.3z"/>
		</g>
	</g>
    <path d="M499.5,620.2c-7.1,1.4-14.6,0.6-20.6-3.7c-9.6-7-10.6-19-6.2-28.9c-4.3,0.2-8.5,1.4-12.1,3.7c-8.9,5.7-11.7,16.4-13.4,26.2
		c-3.8,20.7-5.4,70.5,28.3,66.5c12.3-1.5,20.5-12.2,24.5-23.1c4.7-12.7,6.2-27.9,3.4-41.6C502,619.6,500.7,619.9,499.5,620.2z"/>
    <path d="M809,607.7c-8.5,2.1-17.8,1.2-25.3-3.4c-10.3-6.3-13-16.8-10.3-27.1c-12.1-0.4-24.2,5.3-30.6,16.9
		c-6.5,11.6-9.7,25.7-9.7,38.9c-0.8,12,1.6,25.8,8.3,35.9c10.5,15.8,29,17.9,44.4,7.9c16.8-10.9,24.3-30.3,25.2-49.7
		c0.2-4.3,0-8.6-0.6-12.5C810.1,612.2,809.6,610,809,607.7z"/>
    <g>
		<g>
			<path d="M424.9,438.4c-1-13.4,5.7-29.5,14.5-39.4c4.5-5.1,9.5-8.8,15.1-12.5c3-2,6.2-3.8,9.5-5.3c3.2-1.4,6.3-2.4,8.9-4.9
				c2.1-2,1.7-6-0.9-7.4c-7.5-3.8-17.6-0.3-24.8,2.7c-8.3,3.5-15.6,10-21,17.1c-5.4,7-9.2,14.9-10.7,23.6c-1.7,9.5-0.4,17.7,1.5,27
				C417.9,443.9,425.3,442.9,424.9,438.4L424.9,438.4z"/>
		</g>
	</g>
    <g>
		<g>
			<path d="M471.3,370.5c-4.5-23.6-0.5-50.8,21.1-64.9c10.2-6.7,22.8-9.3,34.9-7.7c6.1,0.8,12.2,2.7,17.6,5.6
				c5.5,2.9,10.7,7.7,16.9,8.5c2.2,0.3,4.9-2.3,4.6-4.6c-1.5-11.7-17-18.3-26.9-21.4c-11.7-3.6-24.4-4-36.3-1.3
				c-24.2,5.6-42.3,25.9-47.2,50c-2.8,13.5-1.4,28,6.9,39.3C465.8,378.5,472.3,375.9,471.3,370.5L471.3,370.5z"/>
		</g>
	</g>
    <g>
		<g>
			<path d="M568.3,306.3c-3.6-32.1,17.5-63.7,49.5-70.1c16.4-3.2,33.3,2.2,48,9c7.9,3.7,15.6,7.9,23.1,12.2
				c3.8,2.1,7.6,4.4,11.1,6.9c3.5,2.6,6.3,5.8,9.7,8.5c5.2,4.1,11.5-0.8,8.9-6.9c-2.9-6.8-9.8-12-15.7-16.3
				c-6.1-4.5-12.6-8.6-19.2-12.4c-14.4-8.3-29.5-15-46.1-17.1c-29.6-3.6-60,11.6-73.5,38.5c-7.6,15.2-8.4,32.5-3.8,48.7
				C561.7,311.5,568.9,310.9,568.3,306.3L568.3,306.3z"/>
		</g>
	</g>
    <g>
		<g>
			<path class="st8" d="M647.4,912.7c2.1,0.6,3.3,2.2,4.3,4.1c1,1.9,0.7,4.6,1.9,6.2c0.6,0.8,1.5,1.3,2.5,1c4-1.3,3.9-7.4,2.9-10.7
				c-1.3-4.2-5.3-7.4-9.4-8.7C644.4,903.1,642.2,911.2,647.4,912.7L647.4,912.7z"/>
		</g>
	</g>
    <path class="st9" d="M1310.7,521.9c-2.1-20-8.3-43.4-25.4-55.7c-2.7-2-6,1.3-5.3,4.1c1.8,8,4.4,15.6,6.4,23.6
		c2,7.7,2.7,16,2.8,23.9c0.3,16.5-3.1,32.4-8.7,47.9c-5.6,15.5-13.8,30.2-23.1,43.7c-8,11.7-18.1,22.8-30.8,28.5
		c-7.4,3.3-15.3,4.9-23.2,5.2c0.4-3.1,0.9-6.2,1.3-9.2c1.4-9.9,2.6-19.8,3.8-29.8c2.2-17.8,4.8-35.6,7.6-53.3
		c2.9-18.2,6-36.3,9.4-54.4c2.8-14.8,6-29.4,8.5-44.2c6.1-1.2,10.9-6.2,10.9-12.7c0-7.1-6-12.9-13-13c-3.1,0-6.3-0.1-9.4-0.2
		c-5.7-0.2-11.6,4.3-12.9,9.8c-4.9,20.1-7.6,40.6-11.1,61c-3.4,20.5-6.5,41-9.3,61.5c-2.8,20.5-5.7,41-8.7,61.5
		c-1,6.8-1.8,13.6-2.6,20.5c-6-1.3-11.9-3.1-17.6-5.3c-0.2-0.1-1.3-0.5-1.8-0.7c-0.4-0.2-0.9-0.4-0.9-0.4c-1.8-0.8-3.6-1.6-5.3-2.5
		c-3.3-1.6-6.5-3.4-9.6-5.3c-23.2-14.1-41.7-36.7-49.6-63.7c-4.8-16.7-6-32.5-4.5-50.2c1.5-17.4,5.9-34.3,10.8-51
		c1.1-3.8-3.5-5.8-6.2-3.6c-11.5,9.8-20.3,23.7-25.3,38.1c0-2.9,0.1-5.7,0.2-8.6c0.2-5.4-7.4-7.2-10-2.7c-10.3,17.4-15.5,38-17.7,58
		c-2.2,20.2,0.8,41,5.7,60.6c-2-6.2-5.2-11.8-10.9-15.8c-8.5-6-18.3-5.5-28-3.1c-9.8,2.5-19.5,7.1-28.7,11.2c-4.4,2-8.9,4-13.2,6.1
		c-4.4,2.2-8.6,5.2-13.1,7.1c-4.9,2-8.4,6.5-6.8,12c0.8,2.8,3,5.2,5.6,6.4c-0.2,1.7-0.1,3.4,0.4,5.1c2.2,7.8,9.7,10.9,17.1,9.7
		c11.9-2,23.7-5.1,35.6-7.6c0.3-0.1,0.7-0.2,1-0.2c-12,4.3-23.7,9.3-35.8,12.6c-5.7,1.6-7.5,6.5-6.5,10.8c-0.7,2.2-1.4,4.3-1.6,6.6
		c-0.5,4.9,0.7,10.2,3.2,14.4c6.9,11.6,20.2,13,32,9.3c1.7-0.5,3.4-1.1,5.1-1.7c9.4-0.8,18.8-1.8,28.2-3.4c4.3-0.7,8.8-1.5,13.4-2.3
		c0.9,1.9,2,3.8,3.5,5.8c4.3,5.8,9.7,10.4,15.4,14.7c5.4,4,11.3,7.3,17.5,9.8c-6.9,39.7-13,79.6-13.6,119.8
		c-0.5,34.8,10.9,99.9,58.5,94.1c8.1-1,10.9-10.2,4.1-15.1c-23.5-17.1-20.7-41.6-18.6-67.1c2.3-28.1,4.5-55.8,9.2-83.6
		c4.2-25.1,8.8-50.3,12.7-75.6c9.2,0.8,18.4,1.2,27.5,1.7c5.9,0.3,11.9,0.8,17.8,0.6c2-0.1,3.9-0.2,5.9-0.4c3.6,2,8.2,2.4,12.6,0.3
		c1.6-0.7,3.1-1.6,4.7-2.2c5.4-2.2,9.4-6.4,9.2-12.3c4.9-0.5,9.8-1.4,14.5-2.7c18.8-5,34.5-17.6,46.5-32.5
		c12.5-15.6,22.4-32.8,29.9-51.3C1308.7,565.1,1312.9,543.1,1310.7,521.9z M1051.3,638.7c-0.2,0-0.4,0-0.5,0c0-0.1,0-0.3,0-0.4
		c-0.8-5.2-5-10.6-10.4-11.8c6.5-1.8,9.1-8.8,8-15c-0.2-1.1-0.4-2.2-0.6-3.2c3.2,11.8,7.3,23.8,13.1,34.7
		C1058.3,640.5,1055,638.8,1051.3,638.7z M1086.7,672.1c-0.5-0.3-1.1-0.7-1.6-1c-0.8-0.6-1.5-1.1-2.2-1.7c1.3,0.9,2.6,1.7,3.9,2.5
		C1086.7,671.9,1086.7,672,1086.7,672.1z M1112.6,650.9c-4.2-1.1-5.8-1.6-8.8-3.2c-1.8-1-3.6-2-5.3-3.3c0.3,0.2-2.5-2.5-3-3
		c-3.1-3.2-3.2-3.4-5.6-7.4c-2.2-3.6-4.1-7.3-5.8-11.1c-0.1-0.2-0.2-0.4-0.2-0.5c0-0.1-0.1-0.2-0.1-0.3c-0.3-0.7-0.6-1.4-0.9-2.2
		c-0.9-2.2-1.7-4.4-2.5-6.7c-1.6-4.5-3-9-4.2-13.6c-1.1-4-2-7.9-2.8-11.8c10.2,22.9,26.8,42.6,47.2,57.6c4.2,3,8.6,5.9,13.1,8.5
		C1125.9,653.3,1120.3,652.9,1112.6,650.9z"/>
    <path class="st11" d="M1187,421.5c-23.2,1.2-45.3,10.2-62,26.5c-7.8,7.7-14.5,16.9-19.2,26.8c-2.3,4.9-4.2,10-5.7,15.3
		c-1.6,5.8-2.8,11.3,1,16.3c1.1,1.4,3.2,2.6,5,1.3c1.8-1.3,3.2-1.9,4.3-3.9c1.2-2.1,1.8-4.5,2.5-6.8c1.4-4.5,2.8-9,4.8-13.3
		c4.2-8.9,9.6-17.1,16.5-24.1c13.9-14,33.1-23,52.7-24.7C1195.4,434.1,1195.6,421,1187,421.5z"/>
    <path class="st11" d="M1251,457.2c-2,9.6-4.6,19.1-6.1,28.9c-1.6,9.8-3.1,19.5-4.5,29.3c-1.4,9.7-2.6,19.4-3.8,29.1
		c-0.5,4.6-1.1,9.1-1.6,13.7c-0.6,4.9-1.9,10.1-0.7,14.9c0.9,3.7,6.2,4.3,8,1c2.5-4.2,2.7-9.7,3.5-14.5c0.8-4.5,1.6-9.1,2.3-13.6
		c1.7-9.7,3.2-19.5,4.7-29.3c1.4-9.7,2.7-19.4,3.9-29.1c1.2-9.8,1.5-19.6,2.3-29.4C1259.4,453.7,1251.9,452.7,1251,457.2z"/>
    <path class="st11" d="M1011.5,568.3c-6.5-0.4-13.7,3.1-19.8,5.1c-6.7,2.3-13.4,4.7-20,7.1c-6.1,2.2-3.6,11.8,2.7,9.8
		c7.1-2.2,14.2-4.2,21.2-6.5c6.3-2.1,13.9-3.7,19-8C1017.8,573.2,1015,568.5,1011.5,568.3z"/>
    <path class="st10" d="M721.9,463.6c-6.1-4.6-17.7-0.2-23.9,2.6c-8,3.5-14.7,8.6-20.3,15.3c-2.8,3.3,1,9.6,5,6.5
		c6-4.6,12.7-8.5,19.8-11.1c3.6-1.3,7.2-2.3,10.9-3.2c3.3-0.8,6.8-1.3,9.3-3.9C724.6,467.8,723.8,465.1,721.9,463.6z"/>
    <path class="st10" d="M512.9,496.1c-3.2-2.6-7.7,1.7-4.6,4.6c3.7,3.6,6.9,7.5,9.2,12.1c2,3.9,3.3,9,6.4,12.2
		c1.5,1.5,4.4,0.9,4.9-1.3C531,513.5,520,501.9,512.9,496.1z"/>
    <path class="st11" d="M536.8,313c-5.4-8.2-16.7-7.4-25.3-5.7c-7.6,1.5-14.9,5.2-20.9,10.1c-13,10.7-18.3,28.5-15.1,44.7
		c0.9,4.4,2.6,8.6,3.2,13.1c0.3,2.5,0.4,5.1-0.9,6.1c-2,1.6-5.4,1.8-7.8,2.5c-3.8,1.1-7.6,2.7-11.1,4.6c-6.6,3.7-12.5,9.6-16.6,16
		c-1.9,3-3.5,6.7-4.5,10.1c-1.2,4.3-0.3,7.9-0.7,12.1c-0.6,7.8,11.1,8.8,13.2,1.8c-0.8,1.1-0.8,1,0.2-0.2c0.6-0.7,1.2-1.4,1.7-2.2
		c0.9-1.4,1.8-2.8,2.6-4.2c1.3-2.1,2.7-4.2,4.3-6.1c3.7-4.4,8.3-8.2,13.6-10.6c6.5-3,13.9-3.7,18.3-10.2c3.6-5.3,5.3-13.2,5.1-19.5
		c-0.3-7.5-3.3-14.7-3.4-22.1c0-6,1.9-12,5.4-16.8c3.6-4.9,8.8-8.3,14.7-9.8c6.9-1.7,14.6,1.6,20.9-2.1
		C537.6,322.4,539.3,316.8,536.8,313z"/>
    <path class="st11" d="M709.2,291.7c-0.1-0.3-0.2-0.5-0.3-0.8c-0.5-7.7-5.8-14.5-10.6-20.4c-5.2-6.4-11.2-12-17.9-16.8
		c-13.9-10.1-31.6-15.6-48.8-14.5c-16.9,1-33.8,7.8-45.2,20.7c-5.5,6.2-9.6,13.3-12.3,21.1c-1.3,3.8-2.1,7.9-2.2,11.9
		c-0.1,4.4,1.5,8,2.3,12.1c1.7,8.5,13.5,5.7,14.2-1.9c0.2-2.5,2.2-5.9,2.9-8.3c0.8-2.6,1.6-5.2,2.7-7.7c2.2-5.1,5.5-9.6,9.4-13.5
		c8.4-8.4,19.8-12.4,31.5-12.4c12.5,0,24.2,4.5,34.2,11.8c4.6,3.4,8.8,7.6,12.4,12c3.8,4.7,7,11.8,12.3,14.9
		c2.6,2.7,6.3,3.9,10.1,2.3C707.8,300.6,710.6,296,709.2,291.7z"/>
    <path class="st11" d="M408.5,385.2c-10.1,1.2-17.7,10-22.6,18.5c-2.3,3.9-4,8.1-5,12.5c-1.1,5-0.9,9.6-0.7,14.7
		c0.3,9,13,8.8,13.8,0c0.5-6,4.5-12.9,7.7-17.9c3.8-5.8,10.4-9.1,14.1-14.8C419.2,393.1,415,384.5,408.5,385.2z"/>
    <path class="st11" d="M491.6,257.4c-9.8-3.9-23.6,3.3-32,8.3c-9.5,5.6-17.6,13.2-24.2,22.1c-13.9,18.9-17.6,43.7-9.6,65.7
		c3.2,8.9,15.2,5.3,13.9-3.8c-2.6-17.6,1.9-37.8,12.8-51.9c4.8-6.2,11-11.4,17.8-15.3c7.9-4.5,17.9-5.3,24.9-11.2
		C500.6,266.8,496.9,259.5,491.6,257.4z"/>
    <path class="st11" d="M604.3,206.6c-8.6-8.6-23.5-3.8-32.5,1.9c-9.7,6.1-16,15.7-18.6,26.7c-1.6,6.8,8.8,12,11.9,5
		c3.2-7.2,8.3-13.4,15.1-17.5c7.2-4.4,16.3-3.7,23.1-8.4C605.9,212.6,606.7,209,604.3,206.6z"/>
    <path class="st9" d="M773.1,303.6c-0.7-3.6-2-7-3.4-10.4c-0.9-2.2-1.9-4-3-5.7c0.8-0.9,1.7-1.8,2.7-2.7c5.9-5.3-1.8-15.5-8.5-11
		c-1.6,1-3.1,1.9-4.7,2.7c0.6-6.1-0.6-12.3-3.9-17.7c-5.9-9.8-24-6.4-22.8,6.2c0.4,4.1,0.6,8.6-1.7,10.7c0.4-0.3-1.1,0.8-1.4,1
		c-0.3,0.1-1.3,0.4-2.1,0.6c-0.2-0.1-2.8-0.1-2.9-0.2c-9.2-0.9-16.9,10.1-14.1,18.5c0.5,1.5,0.9,3,1.3,4.5c0.2,0.6,0.3,1,0.4,1.2
		c0,0.2,0,0.6,0,1c0,1.3,0,2.6,0,3.9c0,0.2,0,0.3,0,0.5c-0.1,0.6-0.2,1.2-0.4,1.8c-1.1,4.5-3.5,8.9-5.7,11.4c-1.9,2.2-4,4.2-6.2,6
		c-1.2,1-3.3,2.4-6,4c-5.6,3.3-8.2,4.5-13.9,6.3c-11.5,3.7-20,4.6-32.5,3.4c-4-0.4-9.2-1.5-14.9-3.2c-6.5-1.9-10.7-3.1-15.9-6.1
		c-9-5.2-21.1,1.3-21,12c0.1,4.1-1.5,8.7-4.9,12c-4.1,3.9-9.4,7.3-15.1,9.4c-7,2.5-14.3,4.5-21.5,6.2c-1.6,0.4-3.3,0.8-4.9,0.9
		c-0.5,0-5.2-0.4-3.1,0c-2.1-0.3-2.2-0.4-3.1-2.2c-5.2-10-21.2-7.5-23.9,3.1c-5.3,20.9-15.3,42.3-33.2,54.2
		c-17.7,11.8-38.4,12.4-58.7,4.6c-8.6-3.3-13.1,8.1-8.5,14c-3.8,0.8-7.3,3-9.5,6.7c-3.9,6.6-1.7,16,5.2,19.8
		c26.8,14.8,59.7,17.6,88.7,7.6c22.7-7.9,46.9-25.1,53.3-48.6c13.2,2.2,26.7,1.4,39.9-2.8c16.1-5.1,30.5-14.4,41.3-27.1
		c28.3,8.3,58.7,8,86.1-4c26.9-11.8,48.6-36.2,53.1-65.8C774.8,321.5,774.9,312.6,773.1,303.6z M537.2,396.7c-0.7,0.1-1.3,0.2-2,0.3
		c0.1-0.2,0.2-0.5,0.3-0.7C536.1,396.5,536.6,396.6,537.2,396.7z M523.7,424.8c0,0.1-0.1,0.2-0.1,0.3c-2.8,5.7-4.8,8-9.2,12.1
		c-0.9,0.8-1.7,1.6-2.6,2.3c0-0.1-2.2,1.6-2.5,1.8c-2.6,1.8-5.3,3.4-8.1,4.8c-2.1,1.1-3.7,1.9-5.3,2.6c12.1-8,21.7-18.8,29.2-31
		c-0.1,0.9-0.2,2.9,0,2.3c-0.2,1-0.5,2-0.8,2.9C524.1,423.6,523.9,424.2,523.7,424.8z M743.8,331.4c-1.2,3.9-1.5,4.5-3.4,8.2
		c-1,1.9-2,3.7-3.2,5.4c-0.3,0.4-2.8,3.9-2.4,3.5c-2.2,2.7-4.5,5.3-7,7.6c-1.1,1.1-2.2,2.1-3.4,3.1c-0.6,0.5-1.2,1-1.8,1.5
		c-0.1,0.1-0.5,0.4-1.2,0.9c-5.3,3.5-13.2,8-16.8,9.3c-7.3,2.5-15.2,4.7-22,5.2c-17.7,1.5-33.3-1.4-49.9-7.5
		c-6.2-2.3-13.5,1.6-16.8,6.8c-0.5,0.8-1,1.5-1.5,2.3c-0.1,0.2-0.9,1.3-1.3,1.9c-0.3,0.4-0.8,1-0.9,1.1c-0.6,0.7-1.2,1.4-1.8,2
		c-1.4,1.5-2.8,2.9-4.3,4.3c-0.5,0.5-3,2.5-2.8,2.4c-2.9,2.1-6,4-9.2,5.7c-0.6,0.3-4.3,2-3.9,1.9c-1.7,0.7-3.4,1.3-5.1,1.8
		c-3.4,1.1-6.9,1.9-10.4,2.5c0.4-0.1-2.9,0.3-3.7,0.4c-2,0.1-4.1,0.2-6.1,0.1c-1.8,0-3.6-0.1-5.4-0.3c-0.5,0-1-0.1-1.4-0.2
		c-0.7-0.1-1.4-0.2-2.1-0.4c-1.8-0.4-3.5-0.8-5.3-1.3c-1.1-0.3-2.2-0.7-3.2-1c-0.5-0.2-3.4-1.3-0.9-0.2c-1-0.4-2-0.8-3-1.1
		c12.2,0.5,25.7-3.4,36-7c14.5-5.1,28.3-14.3,35.5-27.4c2,0.9,4.1,1.7,6.3,2.4c7.4,2.3,15.1,3.5,22.8,4.2
		c15.2,1.4,31.4-0.8,45.7-6.4c15.5-6.1,29.3-15.1,39.1-28.9c6.7-9.5,9.9-20.8,9.3-32.1c2.5-1.3,4.8-2.9,7-4.8
		c0.4,1.8,0.9,3.6,1.1,5.5c0.2,1.5,0.4,6.3,0.4,9C746.8,319.5,746.2,323.9,743.8,331.4z"/>
    <path class="st11" d="M291.1,834.8c-8.7-0.6-17.5,2.1-23,9.1c-3.7,4.7-6.9,12.4-5.5,18.7c-6.4,2.7-11.8,7.3-15.5,13.2
		c-4.8,7.8-7.5,20.5-0.9,27.9c4.5,5.1,11.8,1.8,13.9-3.7c1.9-5-0.1-10.1,2.5-15.1c2.1-3.9,5.8-6.4,10-7.6c4.8-1.4,6.5-5.4,6-9.2
		c3.4-3.7,1.9-8.6,4.4-12.7c1.8-3,4.7-5.1,8.2-5C301.2,850.6,301,835.5,291.1,834.8z"/>
    <path class="st11" d="M276.6,988.4c-2.5-2.3-5.9-2.9-7.7-5.9c-1.8-2.9-1.8-6.3-1.1-9.6c1.6-7.7,7.7-13.3,8.4-21.3
		c0.7-8.7-6-14.2-14-15.7c-2.6-0.5-4.6-0.5-6.6-2.3c-1.8-1.6-4.3-4.5-4.1-6.9c0.4-6.9-10-8.1-11.9-1.6c-2.4,8.5-1.9,16.6,5.1,23
		c3.4,3.2,7.8,5,12.4,5.6c0.1,0,1,0.2,2,0.3c-0.5,0.9-1,2.1-1.4,2.8c-4.7,8.5-8,18.2-5.4,27.9c1.2,4.3,3.5,8.5,6.6,11.7
		c4,4.2,8.4,6.1,14.1,5.3C279.1,1000.9,280.6,992.1,276.6,988.4z"/>
    <path class="st11" d="M217,847.1c-8.5,1.7-16.3,6.5-21.2,13.7c-4.9,7.1-8.1,21.2-0.8,27.7c4.5,4,10.6,2.1,12.6-3.3
		c1.1-2.9,0.5-5.5,0.4-8.5c-0.1-2.8,0.4-5.6,1.4-8.3c1.8-5,5.6-8.5,10.6-10.1C227.1,855.9,224.2,845.7,217,847.1z"/>
    <path class="st11" d="M176.7,928.5c-2-1.5-6-3.1-6.9-5.6c-0.4-1.1,0.2-4.4,1.6-4.8c8.5-2.9,4.9-16.5-3.7-13.6
		c-9.1,3.1-16.2,9.2-16.4,19.6c-0.2,9.6,8.4,21.3,18.9,20.3c3.7-0.4,7-2,8.5-5.7C179.9,935.6,179.6,930.8,176.7,928.5z"/>
    <path class="st11" d="M188.3,995.7c-5.2-2.9-11.1-2.9-15.9-6.8c-2.3-1.9-3.8-4-5.3-6.5c-1.3-2.1-3.5-6.4-3.2-9
		c1-7.2-9.7-10.6-11.2-3.1c-1,5.2-2.6,9.6-2.3,15c0.4,5.6,2.2,10.9,5.2,15.6c6.1,9.4,18.5,17.7,30,15.1
		C195,1013.9,196.5,1000.3,188.3,995.7z"/>
    <path class="st11" d="M202,1042.7c-1.6-4.2-2.2-8.7-0.6-12.9c2.7-7.4-9.1-12.3-12.7-5.4c-5.3,9.9-6.7,22.2,1,31.3
		c2,2.4,5.5,2.8,8.3,2.2c2.6-0.6,4.5-2.6,5.5-5C205.2,1049,203.3,1046.2,202,1042.7z"/>
    <path class="st9" d="M358.9,929.9c-0.9-6.6-6.7-10.7-13.2-9.8c-3.7,0.5-7.3,2.7-9.1,6.1c-2.6,1.3-4.7,3.7-5.3,6.3
		c-1,4.2,0.6,9.2,4.6,11.3c0.8,0.4,1.6,0.8,2.4,1c0,0,0,0,0,0c0,0,0.1,0,0.1,0c1.1,0.3,2.3,0.5,3.6,0.7c0.7,0.1,1.4,0,2.1-0.1
		c2.7,0,5.3-0.4,7.9-1.9C357,940.8,359.7,935.4,358.9,929.9z"/>
    <path class="st9" d="M333.3,924.4c1.8-2,3.5-4.1,5.1-6.3c0.5,0,1-0.1,1.5-0.3c3.6-1.2,7.8-2.1,10.5-4.9c2-2.1,2.6-5.1,1.5-7.8
		c-0.9-2.2-2.7-3.5-4.8-4.1c0.1-0.2,0.1-0.4,0.2-0.6c2.8-9.2,3.4-19.7,0.3-28.8c-1.5-4.4-3-8.9-5.5-12.9c-2.4-3.8-5.9-6.6-8.7-10.1
		c-5.9-7.4-16.9,2-12.7,9.8c1.5,2.8,1.4,6.3,1.9,9.4c0.3,2.2,0.7,5.3,0.7,6.9c-0.2,6.8-0.7,11.4-2.9,18.3c-0.9,2.8-4.6,9-6.9,11.5
		c-2.4,2.7-4.9,5.4-7.3,8.1c1-1.1-1.8,1.8-2.2,2.1c-0.5,0.5-1,1-1.5,1.5c-0.4,0.5-0.8,1-1,1.3c-7.2,3.9-5.8,12.4-0.7,16.8
		c0.2,0.5,0.4,1,0.6,1.5c-0.3-0.6-0.3,1.9,0,0.3c-0.4,2.3-0.8,4.4-1.9,6.6c-3.1,6.6-6.1,13.6-9.9,19.9c-4.5,7.5,0.9,17.9,9,19.3
		c-5.6,7.9-7.5,16.8-2.2,26c2.4,4.3,6,7.1,9.6,10.3c0.9,0.7,1.7,1.5,2.5,2.4c0.1,0.1,0.1,0.2,0.2,0.3c0.3,0.6,0.5,0.9,0.6,1.1
		c0.1,0.3,0.2,0.6,0.3,0.9c0.6,1.5,0.7,3.7,0.4,4.8c-0.2,0.7-0.3,1.3-0.5,1.9c-0.1,0.2-0.2,0.4-0.4,0.8c-0.3,0.4-0.5,0.7-0.6,0.9
		c-0.4,0.5-0.8,0.9-1.3,1.3c-10.5,10.3,3.4,29.6,16.1,20.8c6.6-4.6,13.4-8.9,20.1-13.5c5.7-3.9,8.3-11.3,4.6-17.6
		c-2.5-4.3-7.5-6.7-12.3-6.3c-1.1-4-2.9-7.7-5.5-11.1c-2-2.6-4.2-4.6-6.7-6.7c-0.7-0.6-1.5-1.2-2.2-1.8c1.7-1.7,3.4-3.5,4.8-5.6
		c3.6-5.5,5-13,3.1-19.4c-1.7-5.5-5.1-9.9-9.4-12.8c2.6-5.2,5.1-10.5,6-16.3c0.6-3.9,0.5-7.7-0.5-11.3
		C328.1,929.4,330.8,927.1,333.3,924.4z"/>
    <path class="st9" d="M246.4,1017.1c-5.5-4.7-11.7-7.6-18.4-9c0.1-2.4,0-4.8-0.5-7.2c-0.8-4-2.4-7.1-4.6-9.8c1-1.5,1.9-3.1,2.7-4.7
		c3.1-6.6,4.7-13.8,4.2-21.1c-0.5-7.5-3-14.5-7.5-20.5c-3.3-4.3-8.1-8-11.2-12.3c1.1-5.3,7.1-10.2,10.2-14
		c4.9-6.1,7.4-11.9,6.5-19.7c-0.5-4.9-7.8-6.7-9.2-1.2c-1,4-5.3,7.4-8.2,10c-3.8,3.4-7.9,6.3-11.1,10.3c-7.1,8.9-10.1,20.9-5,31.4
		c2,4.2,5.1,7.8,7.4,11c0.2,0.3,0.5,0.8,0.6,0.9c0.3,0.8,0.5,1.7,0.7,2.5c0.2,0.9,0.5,1.9,0.6,2.8c0,0.2,0,0.4,0,0.7
		c0,1.1,0,2.2,0,3.2c0,0.2,0,0.4,0,0.5c0,0.2-0.1,0.3-0.1,0.5c-0.2,0.8-0.5,1.7-0.7,2.5c-0.1,0.4-0.3,0.8-0.4,1.2
		c-1.6,3.4-3.7,6.3-5.1,9.7c-3.7,5.7-1.8,14.7,5.7,16.3c0.3,0.1,0.5,0.1,0.7,0.2c0.5,0.3,0.7,0.6,0.5,1c0.5,1.6,1.4,2.3,1.5,3.9
		c0.1,1.4-1,3-2.5,4.4c-6.6,6.2-2,20.8,8.1,19.5c6.9-0.9,12.5,0.9,17.1,6c4.3,4.8,4.3,10.5,5.6,17.4c2.6,12.9,22.8,12.4,25.7,0
		C262.8,1040.5,256.4,1025.7,246.4,1017.1z"/>
    <path class="st9" d="M685.1,825c-2.2-6.9-6-16-12-21.4c3-6.1,4.4-12.7,3.1-19.1c-1.4-6.9-10.9-8.9-15.5-4.1
		c-4.7,4.9-6.7,11.3-9.9,17.1c-2.5,4.6-5.4,10.8-9.7,14c-7.1,5.3-15.3-4.1-20.6-11.3c0.9-1.4,1.5-3.1,1.5-5.1c0-4.8-4.4-10-9.6-9.6
		c-13.2,1.2-26.4,1.5-39.7,1.1c-6.4-0.2-12.9-0.7-19.3-1c-3.2-0.1-6.4-0.4-9.6-0.3c-0.3,0-0.6,0-1,0.1c-2.1-6.3-9.6-10.3-15.2-4.5
		c-4.7,4.9-6.5,11.9-9,18.1c-2.3,5.9-3.7,10.1-11.3,9.3c-5.2-0.5-6.3,8.1-1.2,9.1c7.9,1.6,16.3-1.1,23.4-4.6
		c4.2-2.1,8.1-6.4,10.6-11.3c3.2,1.1,6.4,1.8,9.8,2.3c6.9,1.2,13.8,1.8,20.8,2.2c13,0.7,26,0.2,38.9-1.1c1.8,6.6,4.4,12.7,9.8,17.4
		c6.9,6,16.3,9.1,25.3,6.1c4-1.3,8-3.5,11.9-6.2c0.8,3.6,1.7,7.2,2.5,10.8c1.1,4.7,2,9.4,3.7,13.9c2,5.2,3.8,11.5,8.9,14.4
		c3.8,2.2,7.9,1.2,11.1-1.4c4.4-3.6,5.1-11.8,5.2-17.3C688.4,836.6,686.9,830.7,685.1,825z"/>
    <path class="st9" d="M614.1,1006.9c-3.2-2.1-5.7-0.8-9.1-0.4c-3.2,0.4-6.6,0.6-9.8,0.6c-6.7-0.1-12.7-2.2-18.2-6
		c-7.1-4.8-13.3,6.4-6.6,11.3c7,5.2,15.4,8.1,24.1,8.8c6.5,0.5,20.2-1,21.9-8.9C616.8,1010.2,616,1008.1,614.1,1006.9z"/>
    <g>
		<g>
			<path d="M329.6,625.7c-15.5,10.6-30.9,21.4-46.7,31.4c1.6-0.4,3.2-0.9,4.8-1.3c-8.1-0.8-14.6,6.9-13.6,14.7
				c1,7.7,7.6,11.6,14.1,14.2c11.3,4.5,22.9,7.8,34.8,10.2c7.1,1.4,14.5-2,16.5-9.4c1.8-6.6-2.2-15.1-9.4-16.5
				c-6.9-1.4-13.6-3.1-20.4-4.9c-3.1-0.8-6.1-1.7-9.2-2.6c-1.8-0.6-3.6-1.2-5.4-1.7c-0.6-0.2-1.2-0.3-1.8-0.5
				c-2.8-0.7-2.6-0.3,0.6,1.4c1,1.7,2,3.4,3,5.2c0.4,0.9,0.5,0.7,0.4-0.5c-0.9,2.3-1.9,4.5-2.8,6.8c14.2-12.2,29-23.8,43.5-35.5
				C344.1,631.7,336.1,621.2,329.6,625.7L329.6,625.7z"/>
		</g>
	</g>
</g>
</svg>
