<svg width="23" height="30" viewBox="0 0 23 30" fill="none" xmlns="http://www.w3.org/2000/svg">
<path d="M13.5354 26.7807L13.5386 26.7802C16.9811 26.3104 19.2039 23.8605 20.1279 20.9477C21.0478 18.0477 20.7071 14.6217 18.975 12.0728L18.1587 10.8715L18.0626 12.3207C17.9814 13.545 17.8523 14.6668 17.5088 15.7154C17.294 15.1317 17.0195 14.5628 16.725 14.0097C16.4739 13.5383 16.2031 13.0693 15.9376 12.6094C15.9213 12.5812 15.905 12.553 15.8888 12.5248C15.606 12.0348 15.3304 11.5547 15.0806 11.0754C14.0781 9.15174 13.5726 7.39387 14.7376 5.53505L15.4319 4.42716L14.1755 4.78907C10.6258 5.81154 7.32958 8.68751 6.80928 12.4366C6.75769 12.2073 6.70458 11.9829 6.64924 11.8331C6.62682 11.7724 6.59261 11.6904 6.5403 11.614C6.49988 11.555 6.37075 11.3833 6.12738 11.3562C5.85964 11.3264 5.69007 11.4921 5.62848 11.5653C5.58143 11.6213 5.54516 11.6827 5.51696 11.7392C3.07485 14.6723 3.15157 18.6789 4.75313 21.7959C6.36651 24.936 9.59072 27.2934 13.5354 26.7807Z" fill="#38DB93" stroke="white"/>
<path d="M6.83019 13.8277L6.96835 13.7974C6.97345 13.9001 6.98074 14.0038 6.99032 14.1085C6.94066 14.0427 6.88871 13.9549 6.83503 13.8383C6.83341 13.8348 6.8318 13.8312 6.83019 13.8277Z" fill="white" stroke="white"/>
<path d="M15.9444 22.2346C16.7464 21.3889 16.8731 20.408 17.101 19.3087C19.8786 24.67 11.5459 28.6699 8.70075 23.6383C7.67076 22.0062 7.32462 19.6554 8.75984 18.2178C9.1482 18.8858 9.46901 19.6385 10.1613 20.1374C9.53655 17.7273 9.46901 14.5815 11.8414 13.0679C12.0018 12.9664 12.1791 12.8818 12.1875 13.1693C12.2719 16.7126 16.6282 18.4884 15.9444 22.2346L15.9275 22.2515L15.9444 22.2346Z" fill="white"/>
</svg>
