<svg width="602" height="601" viewBox="0 0 602 601" fill="none" xmlns="http://www.w3.org/2000/svg">
  <g clip-path="url(#clip0_114_5516)">
    <path d="M71.9335 205.297C78.7679 184.044 68.487 161.729 48.9704 155.454C29.4538 149.18 8.09204 161.322 1.25762 182.575C-5.5768 203.828 4.70414 226.143 24.2207 232.417C43.7373 238.692 65.099 226.549 71.9335 205.297Z"
          fill="black"/>
    <path d="M600.767 375.265C607.602 354.013 597.321 331.697 577.804 325.423C558.288 319.149 536.926 331.291 530.092 352.544C523.257 373.797 533.538 396.112 553.055 402.386C572.571 408.661 593.933 396.518 600.767 375.265Z"
          fill="black"/>
    <path d="M417.408 48.9483C423.684 29.4343 411.539 8.07552 390.284 1.24203C369.028 -5.59147 346.71 4.68807 340.435 24.202C334.159 43.716 346.303 65.0748 367.559 71.9083C388.815 78.7418 411.133 68.4622 417.408 48.9483Z"
          fill="black"/>
    <path d="M247.652 576.827C253.928 557.313 241.784 535.954 220.528 529.121C199.272 522.287 176.954 532.567 170.679 552.081C164.403 571.595 176.548 592.954 197.803 599.787C219.059 606.621 241.377 596.341 247.652 576.827Z"
          fill="black"/>
    <path d="M297.049 577.482C451.565 577.482 576.825 452.239 576.825 297.744C576.825 143.249 451.565 18.0059 297.049 18.0059C142.533 18.0059 17.2734 143.249 17.2734 297.744C17.2734 452.239 142.533 577.482 297.049 577.482Z"
          fill="black"/>
    <path d="M296.131 576.471C450.342 576.471 575.355 451.475 575.355 297.284C575.355 143.094 450.342 18.0977 296.131 18.0977C141.919 18.0977 16.9062 143.094 16.9062 297.284C16.9062 451.475 141.919 576.471 296.131 576.471Z"
          fill="url(#paint0_radial_114_5516)"/>
    <path d="M298.061 521.35C419.543 521.35 518.023 422.883 518.023 301.418C518.023 179.953 419.543 81.4863 298.061 81.4863C176.58 81.4863 78.0996 179.953 78.0996 301.418C78.0996 422.883 176.58 521.35 298.061 521.35Z"
          fill="#40B86D"/>
    <path d="M507.548 368.666C498.727 396.135 484.578 421.766 466.018 443.814C456.738 454.838 446.355 464.944 435.146 473.947C423.937 482.95 411.717 490.85 398.945 497.557C386.082 504.171 372.667 509.683 358.793 513.726C344.919 517.768 330.678 520.524 316.253 521.81C287.402 524.474 258.001 521.351 230.253 512.715C202.505 504.079 176.411 490.024 153.992 471.283C131.573 452.542 112.922 429.391 99.3233 403.484C85.8169 377.485 77.3639 348.915 74.975 319.701C72.4943 290.487 75.8938 260.813 84.8981 232.885C93.9024 204.958 108.419 178.867 127.439 156.543C146.458 134.219 169.979 115.846 196.073 102.617C222.167 89.3876 250.926 81.487 279.96 79.2822C309.086 77.0773 338.488 80.9358 366.144 90.0307C393.708 99.2175 419.434 113.733 441.394 132.749C463.353 151.674 481.362 174.917 494.409 200.732C500.932 213.593 506.17 227.098 510.12 240.97C514.071 254.842 516.46 269.081 517.655 283.505C519.86 312.167 516.368 341.289 507.548 368.666ZM507.548 368.666C516.276 341.198 519.676 312.076 517.195 283.413C514.806 254.75 506.537 226.638 493.214 201.099C479.984 175.652 461.608 152.868 439.556 134.495C417.597 116.121 391.962 102.341 364.674 93.7973C337.385 85.3454 308.535 82.2219 280.236 84.8861C266.086 86.1723 252.028 88.8364 238.43 92.8786C224.832 96.9208 211.601 102.249 199.014 108.772C186.426 115.294 174.573 123.103 163.456 131.922C152.43 140.742 142.231 150.755 133.135 161.504C114.851 183.093 100.977 208.265 92.3404 235.182C83.6118 262.099 80.2122 290.67 82.5092 318.874C84.7144 347.077 92.4323 374.821 105.296 400.085C118.067 425.349 135.8 448.224 157.3 466.781C178.8 485.43 203.975 499.67 231.08 508.673C258.184 517.676 287.035 521.351 315.61 519.238C344.184 517.125 372.392 509.316 398.026 496.363C423.661 483.409 446.723 465.311 465.467 443.447C484.394 421.766 498.635 396.135 507.548 368.666Z"
          fill="#297042"/>
    <g opacity="0.34">
      <g opacity="0.33">
        <path opacity="0.33"
              d="M146.366 250.431C177.054 155.256 265.902 96.9198 352.821 110.424C345.287 106.658 337.477 103.351 329.208 100.778C235.03 70.5537 131.481 130.543 97.945 234.905C64.4087 339.267 113.565 448.315 207.742 478.631C215.919 481.295 224.28 483.224 232.55 484.511C154.084 444.915 115.77 345.698 146.366 250.431Z"
              fill="#315F45"/>
      </g>
      <g opacity="0.33">
        <path opacity="0.33"
              d="M446.723 356.999C414.657 456.767 324.522 518.87 237.42 505.916C244.954 509.775 252.764 513.082 261.033 515.654C355.211 545.879 460.046 481.847 495.144 372.524C530.335 263.201 482.465 150.02 388.287 119.704C380.11 117.04 371.749 115.11 363.48 113.916C441.762 154.246 478.882 257.23 446.723 356.999Z"
              fill="#315F45"/>
      </g>
      <g opacity="0.34">
        <path opacity="0.34"
              d="M497.716 388.968C490.365 404.585 480.258 418.365 468.314 431.227C464.639 434.902 461.882 437.658 458.207 441.332C454.532 445.007 449.938 447.763 446.263 451.438C413.186 476.242 376.434 490.941 336.925 490.941C310.28 490.022 283.635 485.429 258.827 472.567C244.126 465.218 232.182 456.031 220.237 444.088C193.592 415.609 178.891 377.025 186.241 337.522C192.673 300.774 220.237 268.621 257.908 264.027C282.716 261.271 310.28 274.133 314.874 300.774C316.711 312.717 311.199 323.741 307.523 334.766C302.929 345.79 313.036 354.977 324.062 357.733C344.276 362.326 363.57 353.139 376.434 337.522C399.404 309.961 401.241 273.214 389.297 241.06C371.84 196.964 332.331 166.647 284.553 157.46C234.938 149.192 188.079 160.217 147.652 190.533C131.113 202.476 119.169 215.337 106.305 230.955C101.711 238.304 97.1175 245.654 92.5234 252.084C105.387 227.28 122.844 207.069 144.895 189.614C180.729 162.054 221.156 148.274 265.258 151.03C304.767 152.867 342.438 167.566 370.002 196.964C393.891 223.605 408.592 256.678 405.835 292.506C402.16 332.01 375.515 372.431 333.25 377.025C313.036 378.862 290.985 371.513 279.959 353.139C274.447 343.952 273.528 332.928 276.284 322.823C278.122 317.311 281.797 311.799 283.635 306.286C285.472 298.937 281.797 291.588 275.365 286.994C256.07 275.97 234.019 284.238 219.318 298.018C186.241 330.172 187.16 381.618 210.13 419.284C223.912 441.332 242.288 457.869 265.258 469.811C284.553 479.917 306.605 484.51 327.737 486.348C394.81 490.022 458.207 453.275 494.041 394.48C494.959 393.561 495.878 392.642 496.797 391.724C496.797 390.805 496.797 389.886 497.716 388.968Z"
              fill="#61C08B"/>
      </g>
      <g opacity="0.71">
        <path opacity="0.71"
              d="M433.4 201.557C448.1 227.28 455.451 257.596 453.613 287.913C451.776 320.066 439.831 349.464 418.699 374.268C400.323 395.398 376.434 410.097 347.951 414.69C324.062 418.365 300.173 415.609 279.041 403.666C243.207 384.374 221.156 335.684 248.72 299.855C259.746 286.075 278.122 278.726 295.579 285.156C299.254 286.994 302.011 289.75 305.686 291.587C311.199 296.181 313.955 304.449 320.387 306.286C331.412 309.961 339.682 300.774 343.357 291.587C345.194 283.319 346.113 274.132 344.276 264.946C340.6 247.491 329.575 234.629 314.874 224.524C302.929 216.256 290.985 212.581 278.122 211.662C268.015 209.825 257.908 209.825 246.882 211.662C217.481 218.093 193.592 232.792 175.216 256.677C156.84 281.482 147.652 309.042 146.733 338.44C145.814 366 153.165 392.642 164.19 417.446C132.951 364.163 136.626 293.425 178.891 244.735C200.024 219.93 229.425 205.231 261.583 202.475C295.579 200.638 331.412 214.418 349.788 245.653C365.408 270.458 365.408 303.53 343.357 324.66C334.169 332.928 322.224 337.521 308.442 334.765C293.741 332.009 288.229 318.229 277.203 312.717C270.771 309.042 264.34 312.717 259.746 318.229C238.613 348.545 262.502 385.293 290.985 399.073C319.468 412.853 352.545 411.016 381.028 396.317C413.186 379.78 435.237 350.383 445.344 316.392C456.37 277.807 449.938 237.385 433.4 201.557Z"
              fill="#2C8460"/>
      </g>
      <g opacity="0.57">
        <path opacity="0.57"
              d="M287.034 268.897C293.479 268.897 298.703 263.673 298.703 257.23C298.703 250.786 293.479 245.562 287.034 245.562C280.59 245.562 275.365 250.786 275.365 257.23C275.365 263.673 280.59 268.897 287.034 268.897Z"
              fill="url(#paint1_radial_114_5516)"/>
        <path opacity="0.57"
              d="M291.995 246.665C294.752 247.951 296.957 250.339 298.06 253.187C299.162 256.035 299.162 259.434 297.876 262.374C296.59 265.314 294.201 267.702 291.077 268.897C289.515 269.448 287.953 269.723 286.299 269.723C284.645 269.632 282.991 269.264 281.521 268.529C280.051 267.794 278.673 266.784 277.57 265.589C276.468 264.395 275.641 262.925 275.181 261.363C274.171 258.24 274.446 254.841 275.916 251.993C277.386 249.145 279.959 247.032 282.899 246.113C286.023 245.103 289.239 245.378 291.995 246.665ZM291.995 246.665C290.617 246.022 289.147 245.654 287.585 245.562C286.023 245.47 284.553 245.746 283.175 246.297C280.327 247.4 278.122 249.696 276.927 252.36C275.733 255.025 275.733 258.148 276.835 260.812C277.846 263.476 279.867 265.681 282.44 266.876C285.013 268.07 287.953 268.254 290.709 267.427C293.466 266.6 295.854 264.579 297.141 262.007C298.519 259.434 298.795 256.219 297.876 253.371C297.416 251.901 296.681 250.615 295.671 249.421C294.66 248.226 293.374 247.308 291.995 246.665Z"
              fill="#C0DFA9"/>
      </g>
      <g opacity="0.57">
        <path opacity="0.57"
              d="M251.569 147.63C261.769 147.63 270.037 139.363 270.037 129.165C270.037 118.966 261.769 110.699 251.569 110.699C241.37 110.699 233.102 118.966 233.102 129.165C233.102 139.363 241.37 147.63 251.569 147.63Z"
              fill="url(#paint2_radial_114_5516)"/>
        <path opacity="0.57"
              d="M269.118 134.861C267.648 139.455 264.432 143.497 260.114 145.885C255.887 148.274 250.558 149.009 245.597 147.723C243.116 147.08 240.819 145.885 238.798 144.324C236.776 142.762 235.03 140.741 233.744 138.444C232.458 136.147 231.631 133.575 231.447 130.911C231.171 128.247 231.447 125.583 232.274 123.01C233.101 120.53 234.387 118.141 236.133 116.12C237.879 114.099 240.084 112.537 242.381 111.343C244.77 110.241 247.342 109.598 249.915 109.506C252.488 109.414 255.06 109.873 257.449 110.7C262.227 112.446 266.086 116.12 268.199 120.622C270.312 125.031 270.588 130.268 269.118 134.861ZM269.118 134.861C269.853 132.565 270.129 130.084 269.853 127.696C269.577 125.307 268.842 123.01 267.74 120.897C266.545 118.784 264.983 117.039 263.146 115.569C261.308 114.099 259.195 113.089 256.898 112.537C252.396 111.343 247.71 112.078 243.851 114.191C239.992 116.304 237.052 119.979 235.765 124.113C234.479 128.247 234.663 132.932 236.592 136.882C238.43 140.925 241.921 144.232 246.24 145.885C248.353 146.712 250.742 147.08 253.039 146.988C255.336 146.896 257.725 146.345 259.93 145.334C262.043 144.324 264.065 142.854 265.627 141.016C267.189 139.271 268.383 137.158 269.118 134.861Z"
              fill="#C0DFA9"/>
      </g>
      <g opacity="0.57">
        <path opacity="0.57"
              d="M329.757 176.845C337.724 176.845 344.182 170.387 344.182 162.421C344.182 154.456 337.724 147.998 329.757 147.998C321.79 147.998 315.332 154.456 315.332 162.421C315.332 170.387 321.79 176.845 329.757 176.845Z"
              fill="url(#paint3_radial_114_5516)"/>
        <path opacity="0.57"
              d="M335.363 175.742C331.871 177.212 327.828 177.303 324.153 176.017C320.57 174.731 317.354 171.975 315.517 168.3C314.598 166.463 314.046 164.442 313.955 162.421C313.863 160.4 314.138 158.287 314.873 156.266C315.608 154.336 316.711 152.499 318.181 150.937C319.651 149.376 321.489 148.181 323.418 147.354C325.348 146.528 327.553 146.16 329.666 146.16C331.779 146.16 333.893 146.711 335.822 147.538C337.752 148.365 339.405 149.651 340.876 151.213C342.254 152.775 343.264 154.52 343.999 156.449C345.286 160.308 345.01 164.442 343.448 167.933C341.794 171.516 338.854 174.272 335.363 175.742ZM335.363 175.742C337.108 175.007 338.67 173.904 339.957 172.526C341.243 171.148 342.254 169.495 342.897 167.749C343.54 166.004 343.724 164.166 343.632 162.329C343.54 160.492 342.989 158.746 342.254 157.184C340.692 153.969 337.843 151.58 334.628 150.478C331.412 149.284 327.92 149.467 324.888 150.754C321.856 152.04 319.284 154.428 317.814 157.552C316.343 160.583 316.068 164.258 317.262 167.657C318.365 171.056 320.937 173.996 324.337 175.558C325.991 176.293 327.92 176.752 329.758 176.844C331.687 176.844 333.617 176.477 335.363 175.742Z"
              fill="#C0DFA9"/>
      </g>
      <g opacity="0.57">
        <path opacity="0.57"
              d="M386.818 261.27C394.785 261.27 401.243 254.813 401.243 246.847C401.243 238.881 394.785 232.424 386.818 232.424C378.851 232.424 372.393 238.881 372.393 246.847C372.393 254.813 378.851 261.27 386.818 261.27Z"
              fill="url(#paint4_radial_114_5516)"/>
        <path opacity="0.57"
              d="M391.227 260.628C387.644 261.822 383.601 261.546 380.11 259.984C376.618 258.423 373.678 255.391 372.208 251.624C371.473 249.787 371.106 247.674 371.197 245.653C371.289 243.632 371.749 241.519 372.576 239.59C373.494 237.661 374.781 235.915 376.343 234.537C377.905 233.159 379.834 232.057 381.856 231.414C383.877 230.77 386.082 230.495 388.195 230.77C390.309 230.954 392.33 231.689 394.168 232.7C396.005 233.71 397.567 235.18 398.853 236.742C400.14 238.396 400.967 240.233 401.518 242.254C402.529 246.204 401.886 250.338 399.956 253.646C398.027 256.953 394.811 259.433 391.227 260.628ZM391.227 260.628C393.065 260.076 394.719 259.066 396.097 257.872C397.475 256.585 398.67 255.024 399.405 253.37C400.232 251.716 400.599 249.879 400.599 248.042C400.599 246.204 400.324 244.459 399.589 242.805C398.302 239.498 395.638 236.834 392.606 235.456C389.482 234.078 385.99 233.894 382.866 234.905C379.742 235.915 376.986 238.12 375.24 241.06C373.494 243.999 372.943 247.582 373.77 251.073C374.597 254.564 376.894 257.688 380.202 259.525C381.856 260.444 383.601 261.087 385.531 261.271C387.552 261.362 389.39 261.179 391.227 260.628Z"
              fill="#C0DFA9"/>
      </g>
    </g>
  </g>
  <defs>
    <filter id="filter0_d_114_5516" x="98.4492" y="102.434" width="404.469" height="404.406"
            filterUnits="userSpaceOnUse" color-interpolation-filters="sRGB">
      <feFlood flood-opacity="0" result="BackgroundImageFix"/>
      <feColorMatrix in="SourceAlpha" type="matrix" values="0 0 0 0 0 0 0 0 0 0 0 0 0 0 0 0 0 0 127 0"
                     result="hardAlpha"/>
      <feOffset dy="4"/>
      <feGaussianBlur stdDeviation="2"/>
      <feComposite in2="hardAlpha" operator="out"/>
      <feColorMatrix type="matrix" values="0 0 0 0 0 0 0 0 0 0 0 0 0 0 0 0 0 0 0.5 0"/>
      <feBlend mode="normal" in2="BackgroundImageFix" result="effect1_dropShadow_114_5516"/>
      <feBlend mode="normal" in="SourceGraphic" in2="effect1_dropShadow_114_5516" result="shape"/>
    </filter>
    <radialGradient id="paint0_radial_114_5516" cx="0" cy="0" r="1" gradientUnits="userSpaceOnUse"
                    gradientTransform="translate(296.146 297.28) rotate(17.8221) scale(279.248 279.217)">
      <stop offset="0.8104" stop-color="#289672"/>
      <stop offset="1"/>
    </radialGradient>
    <radialGradient id="paint1_radial_114_5516" cx="0" cy="0" r="1" gradientUnits="userSpaceOnUse"
                    gradientTransform="translate(287.025 257.142) rotate(-64.6696) scale(11.6471 11.6481)">
      <stop offset="0.00080548" stop-color="#99CCA1"/>
      <stop offset="1" stop-color="#26976B"/>
    </radialGradient>
    <radialGradient id="paint2_radial_114_5516" cx="0" cy="0" r="1" gradientUnits="userSpaceOnUse"
                    gradientTransform="translate(251.571 129.177) rotate(17.8221) scale(18.4515 18.4494)">
      <stop offset="0.00080548" stop-color="#99CCA1"/>
      <stop offset="1" stop-color="#26976B"/>
    </radialGradient>
    <radialGradient id="paint3_radial_114_5516" cx="0" cy="0" r="1" gradientUnits="userSpaceOnUse"
                    gradientTransform="translate(329.757 162.427) rotate(67.317) scale(14.4599 14.4613)">
      <stop offset="0.00080548" stop-color="#99CCA1"/>
      <stop offset="1" stop-color="#26976B"/>
    </radialGradient>
    <radialGradient id="paint4_radial_114_5516" cx="0" cy="0" r="1" gradientUnits="userSpaceOnUse"
                    gradientTransform="translate(386.818 246.834) rotate(72.1915) scale(14.4594 14.461)">
      <stop offset="0.00080548" stop-color="#99CCA1"/>
      <stop offset="1" stop-color="#26976B"/>
    </radialGradient>
    <clipPath id="clip0_114_5516">
      <rect width="602" height="601" fill="white"/>
    </clipPath>
    <clipPath id="clip1_114_5516">
      <rect width="396.468" height="396.406" fill="white" transform="translate(102.449 102.434)"/>
    </clipPath>
  </defs>
</svg>
