<svg width="243" height="252" viewBox="0 0 243 252" fill="none" xmlns="http://www.w3.org/2000/svg">
<g clip-path="url(#clip0_114_4802)">
<path d="M38.3671 238.19C46.6083 237.261 53.2665 233.355 58.5279 227.078C61.9268 222.987 65.1395 218.663 68.4919 214.478C69.1437 213.641 69.8887 212.897 70.7733 211.921C73.0082 214.478 75.15 216.85 77.2452 219.221C86.7436 230.193 99.1753 228.52 108.394 221.266C110.629 219.5 112.724 217.314 114.214 214.897C117.939 208.852 115.984 201.134 110.117 197.554C104.25 193.928 96.7076 195.695 92.7034 201.646C91.3531 203.645 90.3754 203.971 88.2801 202.855C86.9764 202.157 85.7658 201.227 84.2759 200.251C87.0695 198.205 89.6304 196.438 92.0515 194.486C99.8737 188.348 107.696 182.211 115.378 175.888C126.925 166.357 137.634 155.942 147.831 145.016C169.296 122.001 187.734 96.8938 199.793 67.6023C208.36 46.7728 212.923 25.2458 211.666 2.64954C211.619 1.85914 211.34 0.74327 210.781 0.371314C209.524 -0.51208 208.639 0.32482 207.941 1.53368C202.307 11.437 195.37 20.3639 187.128 28.268C174.278 40.589 159.518 49.4695 141.778 52.7241C140.428 52.9565 139.031 53.189 137.681 53.3285C136.47 53.468 135.772 54.0259 135.586 55.3278C131.954 78.296 123.014 99.358 111.421 119.351C99.2219 140.413 83.95 159.057 66.5363 175.981C66.0241 176.446 65.512 176.911 64.7204 177.608C63.3702 175.516 62.0199 173.656 60.949 171.657C60.2041 170.262 61.1818 169.193 62.2527 168.263C63.7427 166.914 65.3723 165.659 66.6294 164.078C70.4008 159.196 70.4474 152.687 66.8622 148.363C62.858 143.481 56.6189 142.04 50.8454 144.783C43.9544 148.038 37.2962 156.918 40.183 167.658C41.766 173.517 44.7459 178.631 48.0983 183.606C49.8676 186.256 51.8231 188.813 53.7321 191.464C50.6591 194.253 47.1671 196.02 43.1629 196.624C41.1608 196.95 39.1586 197.089 37.1565 197.461C28.0307 198.996 22.6296 204.761 21.8381 213.967C21.6518 215.827 21.6984 217.733 21.5122 219.639C21.3725 220.941 21.1397 222.243 20.8603 223.498C20.4878 225.033 19.6963 225.497 17.9736 224.94C11.3154 222.708 4.84345 225.033 1.67733 230.519C-1.62848 236.284 0.280506 243.77 6.24027 248.001C7.86989 249.163 9.59264 250.233 11.4551 251.023C19.7429 254.417 28.4031 249.163 29.3809 240.236C29.474 239.539 29.474 238.841 29.5672 238.19C29.5672 238.423 29.6137 238.609 29.6137 238.841C32.5005 238.609 35.4338 238.516 38.3671 238.19Z" fill="white"/>
<path d="M29.4734 238.144C29.4268 238.841 29.3803 239.538 29.2872 240.189C28.2628 249.116 19.6491 254.37 11.3613 250.976C9.49889 250.232 7.77614 249.116 6.14652 247.954C0.186756 243.723 -1.72223 236.237 1.58358 230.472C4.7497 224.986 11.2216 222.707 17.8798 224.893C19.6025 225.451 20.3941 224.986 20.7666 223.451C21.0925 222.196 21.3253 220.894 21.4184 219.592C21.6047 217.733 21.5581 215.826 21.7443 213.92C22.5359 204.761 27.9369 198.949 37.0628 197.414C39.0649 197.089 41.067 196.903 43.0691 196.578C47.0733 195.927 50.5654 194.206 53.6384 191.417C51.7294 188.72 49.8204 186.163 48.0045 183.559C44.6522 178.584 41.6723 173.47 40.0892 167.612C37.2025 156.871 43.8606 147.991 50.7516 144.736C56.5251 141.993 62.7177 143.434 66.7685 148.316C70.3536 152.687 70.3536 159.15 66.5357 164.031C65.3251 165.612 63.6955 166.868 62.159 168.216C61.0881 169.146 60.1103 170.215 60.8553 171.61C61.9262 173.609 63.323 175.469 64.6267 177.561C65.4182 176.817 65.9304 176.399 66.4426 175.934C83.9028 159.01 99.1747 140.366 111.327 119.304C122.921 99.3112 131.814 78.2957 135.492 55.2809C135.678 53.9791 136.377 53.4211 137.587 53.2816C138.984 53.1422 140.334 52.9097 141.685 52.6772C159.471 49.4226 174.184 40.5422 187.035 28.2211C195.276 20.3171 202.213 11.3901 207.847 1.4868C208.546 0.277945 209.384 -0.558955 210.687 0.324439C211.246 0.696395 211.526 1.81226 211.572 2.60267C212.829 25.199 208.266 46.7724 199.699 67.5554C187.593 96.847 169.155 121.954 147.737 144.969C137.541 155.895 126.832 166.31 115.285 175.841C107.602 182.164 99.78 188.255 91.9578 194.439C89.5366 196.345 86.9758 198.158 84.1822 200.204C85.6721 201.181 86.8827 202.11 88.1864 202.808C90.2816 203.924 91.2594 203.598 92.6096 201.599C96.6138 195.648 104.11 193.881 110.023 197.507C115.89 201.134 117.846 208.806 114.121 214.85C112.631 217.268 110.535 219.453 108.301 221.22C99.0816 228.473 86.6499 230.1 77.1515 219.174C75.0563 216.756 72.961 214.385 70.6796 211.874C69.7949 212.851 69.0499 213.641 68.3981 214.431C65.0923 218.616 61.8796 222.893 58.4341 227.031C53.1728 233.355 46.5146 237.214 38.2734 238.144C35.34 238.469 32.4067 238.562 29.4734 238.748C29.52 238.562 29.52 238.376 29.4734 238.144ZM28.9147 207.736C29.2872 209.457 29.5665 211.177 29.9856 212.897C30.684 215.594 30.7305 215.594 33.5707 215.315C34.0363 215.268 34.5485 215.268 35.2935 215.268C34.4554 216.291 33.757 217.035 33.1983 217.919C32.9655 218.29 32.9189 218.988 33.1051 219.406C34.176 221.778 34.921 221.917 36.7369 220.057C37.3422 219.453 37.8543 218.755 38.413 218.105C38.5993 218.151 38.7855 218.244 38.9252 218.29C38.413 219.778 38.1802 221.406 37.3887 222.707C36.6903 223.916 36.9231 224.614 37.8078 225.404C43.5813 230.379 41.812 230.333 48.5633 226.055C48.7029 225.962 48.7961 225.823 49.0754 225.544C42.5569 222.243 38.1802 217.175 35.5263 210.014C34.2226 211.688 33.1983 213.083 32.1739 214.431C32.0342 214.385 31.8946 214.338 31.7549 214.245C32.3602 212.99 32.7326 211.502 33.6639 210.572C35.6194 208.48 35.1072 206.248 34.6416 203.924C34.5485 203.319 34.2691 202.808 33.9898 202.11C31.5221 203.459 28.9147 204.528 27.8438 207.411C27.2851 208.294 26.447 209.131 26.2607 210.061C25.7486 212.944 25.1433 215.919 25.3295 218.802C25.5157 221.778 27.5179 224.288 29.2406 226.706C30.0321 227.822 30.9168 228.891 31.8946 229.868C34.7348 232.75 35.7125 232.843 39.4374 230.751C38.0406 229.682 36.5506 228.705 35.2469 227.589C30.1718 223.358 28.0766 217.593 27.7507 211.084C27.7041 209.875 27.8438 208.666 27.8903 207.457C28.6819 206.806 28.7284 206.76 28.9147 207.736ZM166.874 116.886C176.652 103.961 185.312 90.3377 192.249 75.692C200.863 57.5126 206.637 38.4964 207.94 18.3178C208.127 15.2027 208.173 12.041 207.894 8.78643C206.869 10.2743 205.845 11.8086 204.774 13.2499C191.877 30.9643 176.186 45.2846 155.187 52.8167C150.391 54.537 145.363 55.4669 140.381 56.6292C139.357 56.8617 138.937 57.1872 138.751 58.21C135.771 75.0875 129.905 90.9422 122.455 106.285C115.517 120.559 107.137 133.857 97.5916 146.503C89.4901 157.243 80.5504 167.24 70.9124 176.631C69.7018 177.794 68.5378 179.003 67.1875 180.305C68.6309 182.071 69.9346 183.745 71.3314 185.372C71.5177 185.605 71.8901 185.837 72.1229 185.791C74.6372 185.047 77.4774 185.419 79.6658 183.327C83.0647 180.072 86.6964 177.05 90.4678 174.074C87.8139 177.05 85.3462 180.212 82.506 183.001C79.9451 185.512 78.5483 188.488 77.8034 191.835C77.7102 192.254 77.7568 192.858 77.9896 193.183C79.107 194.578 80.3176 195.927 81.8076 197.647C90.4678 191.091 98.9419 184.628 106.997 178.538C106.392 172.726 105.833 167.519 105.274 162.311C107.835 166.542 105.833 172.028 109.511 176.12C123.2 164.682 136.097 152.547 148.017 139.389C146.341 135.391 144.664 131.439 143.035 127.44C143.221 127.347 143.407 127.301 143.594 127.208C144.432 128.975 145.13 130.834 146.108 132.508C147.086 134.136 148.389 135.577 149.786 137.344C151.136 135.902 152.3 134.693 153.371 133.392C153.604 133.113 153.604 132.462 153.511 132.09C152.719 129.068 151.788 126.092 150.997 123.07C150.764 122.14 150.298 120.931 152.068 120.327C152.58 124.046 153.045 127.626 155.839 130.741C159.61 126.045 163.335 121.536 166.874 116.886ZM84.5546 205.365C79.7123 201.088 75.4753 196.159 71.2383 191.231C66.9547 186.302 63.0436 181.048 58.9928 175.934C56.9907 173.423 55.0352 170.913 53.0796 168.402C52.5675 167.751 52.0553 167.054 51.7759 166.124C52.2416 166.31 52.6606 166.496 53.1262 166.682C55.268 167.519 57.3632 167.472 59.1791 165.891C60.9018 164.357 62.7643 162.869 64.1145 161.009C66.6754 157.429 66.1166 152.873 63.0436 149.804C59.9241 146.689 55.2214 146.317 51.2172 148.828C44.2331 153.245 41.6723 160.591 44.3728 168.541C46.6077 175.097 50.3791 180.909 54.6627 186.209C63.1367 196.717 71.7505 207.178 80.6435 217.361C84.9737 222.336 91.0731 224.986 98.9884 222.196C103.598 220.569 107.556 217.965 110.442 213.92C113.515 209.596 112.631 203.784 108.533 201.088C103.97 198.112 98.6625 199.414 95.6361 204.156C93.5408 207.504 92.7028 210.898 94.0065 214.896C92.0975 210.247 87.8605 208.294 84.5546 205.365ZM54.2437 201.041C51.8691 202.25 49.5876 203.412 47.1664 204.668C48.6564 208.992 51.3103 212.758 54.9421 215.733C58.2479 218.43 58.341 218.383 61.3209 215.268C62.3452 214.199 63.323 213.037 64.487 211.688C59.505 209.364 56.3389 205.783 54.2437 201.041ZM39.2046 207.783C38.8321 208.015 38.5062 209.131 38.739 209.596C41.4395 215.361 45.5834 219.871 50.9844 223.265C51.3103 223.498 52.0553 223.544 52.3347 223.358C53.6384 222.428 54.849 221.359 56.2923 220.15C50.1929 216.756 46.049 212.246 44.6987 205.272C42.7897 206.062 40.9273 206.806 39.2046 207.783ZM68.1187 209.131C65.3717 205.83 62.6711 202.622 60.0172 199.414C58.9928 198.158 57.8754 196.95 56.8976 195.648C56.1526 194.718 55.5474 194.671 54.7093 195.741C55.2214 196.252 55.7336 196.764 56.2458 197.275C56.6183 198.251 56.8976 199.507 57.5029 200.53C59.8309 204.435 62.7643 207.829 66.7685 210.386C67.141 210.014 67.56 209.643 68.1187 209.131ZM27.2851 228.566C26.3538 227.124 25.7951 225.404 25.0967 223.916C24.0724 225.311 23.048 226.706 22.1634 228.147C21.9771 228.426 22.1168 229.17 22.3496 229.403C23.6533 230.612 24.957 232.099 26.5401 232.797C27.7972 233.355 29.4734 232.936 31.0565 232.936C29.6596 231.402 28.3094 230.1 27.2851 228.566ZM43.9538 203.226C44.6056 202.808 44.6522 201.413 45.0712 200.204C41.6723 200.669 38.739 201.088 35.4797 201.552C35.9453 203.366 36.3644 204.947 36.83 206.76C39.4839 205.458 41.812 204.528 43.9538 203.226ZM5.96028 238.051C5.26187 240.375 6.23964 243.351 8.61423 245.025C13.3169 248.326 18.6248 249.302 21.9771 246.001C14.3412 247.721 9.45232 244.374 5.96028 238.051ZM46.1887 202.668C48.7029 201.459 51.031 200.437 53.2193 199.181C53.5918 198.995 53.359 197.786 53.4056 196.903C50.7516 198.065 48.4236 199.088 46.0024 200.158C46.049 200.669 46.0956 201.367 46.1887 202.668ZM25.8882 237.4C25.6089 236.749 25.5623 236.191 25.2829 236.051C22.0237 234.564 19.7888 232.192 18.4851 228.845C18.4385 228.705 18.1592 228.659 17.8332 228.473C17.8332 231.913 21.2787 235.772 25.8882 237.4ZM46.1887 231.402C46.2818 231.541 46.3749 231.681 46.468 231.82C49.0289 230.89 51.0775 229.17 52.9865 227.31C52.8934 227.171 52.8003 227.031 52.6606 226.938C50.5188 228.426 48.377 229.914 46.1887 231.402ZM44.0003 233.122C43.9538 232.936 43.9072 232.75 43.8606 232.564C42.1379 233.076 40.4152 233.541 38.6924 234.052C38.739 234.192 38.739 234.331 38.7855 234.471C40.5083 234.006 42.231 233.541 44.0003 233.122Z" fill="black"/>
<path d="M152.068 120.374C150.298 120.979 150.764 122.234 150.997 123.117C151.742 126.14 152.673 129.115 153.511 132.137C153.604 132.556 153.604 133.16 153.371 133.439C152.3 134.741 151.136 135.903 149.786 137.391C148.436 135.624 147.086 134.183 146.108 132.556C145.083 130.882 144.385 129.022 143.594 127.255C143.407 127.348 143.221 127.395 143.035 127.488C144.711 131.44 146.341 135.392 148.017 139.437C136.144 152.595 123.2 164.73 109.511 176.168C105.833 172.03 107.835 166.543 105.274 162.359C105.833 167.566 106.392 172.773 106.997 178.585C98.9419 184.676 90.4678 191.139 81.8075 197.695C80.3176 195.974 79.107 194.626 77.9896 193.231C77.7568 192.906 77.7102 192.301 77.8033 191.883C78.5949 188.535 79.9451 185.559 82.5059 183.049C85.3461 180.259 87.8139 177.097 90.4678 174.122C86.743 177.051 83.0647 180.073 79.6658 183.374C77.4774 185.513 74.6372 185.094 72.1229 185.838C71.9367 185.885 71.5176 185.652 71.3314 185.42C69.9811 183.793 68.6309 182.119 67.1875 180.352C68.4912 179.05 69.6552 177.841 70.9124 176.679C80.5504 167.287 89.49 157.291 97.5916 146.551C107.137 133.904 115.517 120.607 122.455 106.333C129.905 90.9897 135.818 75.0886 138.751 58.2576C138.937 57.1882 139.356 56.9093 140.381 56.6768C145.363 55.5144 150.391 54.5845 155.187 52.8642C176.186 45.3321 191.877 31.0118 204.774 13.2975C205.845 11.8096 206.869 10.3218 207.894 8.83398C208.173 12.1351 208.173 15.2502 207.94 18.3653C206.637 38.5439 200.863 57.5137 192.249 75.7395C185.312 90.3853 176.652 104.008 166.874 116.934C163.335 121.583 159.61 126.093 155.886 130.835C153.045 127.674 152.58 124.047 152.068 120.374ZM117.054 141.436C116.588 142.273 116.169 142.831 115.983 143.435C115.936 143.528 116.728 144.086 117.147 144.086C117.426 144.086 117.706 143.528 117.985 143.249C119.149 142.134 120.639 141.25 121.338 139.902C122.176 138.275 123.572 137.205 124.643 135.81C125.062 135.252 125.528 134.648 126.133 133.811C125.295 133.625 124.783 133.532 124.271 133.439C124.271 133.346 124.271 133.3 124.224 133.207C125.016 133.16 125.947 133.3 126.599 132.974C127.251 132.649 127.623 131.812 127.856 131.486C127.251 130.649 126.832 130.092 126.32 129.394C125.947 129.766 125.481 130.092 125.155 130.556C123.2 133.346 121.524 136.368 119.242 138.833C117.892 140.32 117.706 141.622 117.939 143.296C117.752 142.831 117.52 142.32 117.054 141.436ZM157.562 68.9978C166.641 68.1609 175.394 64.2554 184.707 65.2783C175.162 62.7211 166.455 66.5801 157.562 68.9978ZM132.559 124.977C134.049 122.745 135.585 120.7 136.796 118.514C137.168 117.863 136.609 116.701 136.516 115.818C136.283 115.771 136.097 115.725 135.864 115.725C134.049 118.282 132.233 120.839 130.324 123.536C131.115 124.001 131.721 124.419 132.559 124.977ZM146.201 102.892C148.017 99.5912 149.74 96.1971 151.09 92.6635C148.808 96.1971 146.527 99.7772 144.245 103.311C144.385 103.45 144.571 103.59 144.711 103.776C145.223 103.45 145.968 103.311 146.201 102.892ZM131.162 126.418C131.395 125.954 130.929 125.163 130.789 124.512C130.184 124.884 129.253 125.117 129.067 125.582C128.787 126.372 128.601 126.93 127.67 127.348C126.832 127.72 126.18 128.697 127.763 129.348C128.089 129.487 128.368 129.813 128.834 130.231C129.672 128.976 130.557 127.767 131.162 126.418ZM114.586 144.691C113.562 145.807 114.26 146.458 115.238 147.062C115.89 146.411 116.542 145.76 117.24 145.063C116.309 144.133 115.564 143.668 114.586 144.691ZM114.028 147.016C113.608 147.016 112.91 146.923 112.817 147.109C112.444 147.759 112.305 148.55 112.025 149.247C112.584 149.201 113.143 149.201 114.028 149.154C114.028 148.271 114.028 147.666 114.028 147.016ZM106.438 155.663C106.578 155.756 106.671 155.849 106.811 155.989C107.695 154.594 109.884 154.362 110.023 152.269C109.837 152.13 109.651 151.99 109.465 151.804C108.44 153.106 107.462 154.362 106.438 155.663Z" fill="#ECF5E3"/>
<path d="M95.544 204.109C98.5705 199.367 103.878 198.065 108.441 201.04C112.585 203.737 113.47 209.595 110.35 213.873C107.464 217.918 103.506 220.522 98.8964 222.149C90.9811 224.939 84.8816 222.288 80.5515 217.314C71.705 207.131 63.0913 196.67 54.5707 186.162C50.2871 180.815 46.5157 175.05 44.2808 168.494C41.5802 160.59 44.1411 153.198 51.1252 148.781C55.0828 146.27 59.7855 146.642 62.9516 149.757C66.0246 152.826 66.6299 157.382 64.0225 160.962C62.6722 162.822 60.8098 164.31 59.087 165.844C57.3177 167.425 55.2225 167.425 53.0342 166.635C52.5686 166.449 52.1495 166.263 51.6839 166.077C51.9633 167.007 52.4754 167.704 52.9876 168.355C54.9432 170.866 56.8987 173.376 58.9008 175.887C62.9516 181.001 66.8627 186.255 71.1463 191.184C75.3833 196.066 79.6203 201.04 84.4626 205.318C87.7684 208.247 92.0054 210.2 93.8679 214.803C92.6573 210.851 93.4488 207.457 95.544 204.109ZM75.4764 207.503C72.1706 203.83 69.0976 199.878 65.978 196.019C65.5124 195.415 65.2331 194.624 65.0003 193.834C64.6743 192.625 64.4881 191.416 64.2553 190.207C64.069 190.207 63.8828 190.207 63.7431 190.207C63.6966 191.044 63.6966 191.928 63.65 192.811C61.2288 191.323 62.3463 188.626 61.4151 186.069C61.1357 187.325 60.9495 188.068 60.6701 189.091C57.2246 185.558 58.8077 180.862 56.8056 177.003C56.8056 179.281 56.8056 181.513 56.8056 183.884C51.9167 176.956 47.4469 169.75 44.4204 161.753C44.1876 161.846 43.9548 161.892 43.722 161.985C44.3739 164.496 44.8395 167.053 45.6776 169.471C47.7262 175.283 50.9389 180.49 54.8035 185.232C62.6722 194.903 70.5875 204.481 78.596 214.012C81.1102 217.035 84.1832 219.499 88.0012 220.754C89.7705 221.359 91.7261 221.498 93.5419 221.87C93.5885 221.591 93.635 221.359 93.6816 221.08C85.3938 219.545 80.6446 213.222 75.4764 207.503ZM61.741 162.078C63.7897 159.195 63.5569 156.173 61.9738 153.198C60.3908 150.268 57.8765 148.641 54.4775 148.688C53.9654 148.688 53.4066 148.874 52.8479 149.199C57.504 150.361 60.2976 153.151 60.6701 157.847C60.9029 161.148 58.7611 162.961 55.6416 163.845C57.8765 164.728 60.3908 163.984 61.741 162.078ZM97.6858 203.133C94.5197 205.55 93.4022 212.013 97.5461 215.826C97.3133 214.849 97.1271 214.245 97.0805 213.594C97.034 211.688 96.7081 209.642 97.1271 207.829C98.1049 203.83 100.899 202.575 105.136 204.109C103.599 201.552 100.247 201.18 97.6858 203.133Z" fill="#61C08B"/>
<path d="M27.9375 207.458C28.6825 206.761 28.729 206.761 28.9618 207.737C29.3343 209.457 29.6137 211.178 30.0327 212.898C30.7311 215.595 30.7777 215.595 33.6179 215.316C34.0835 215.269 34.5957 215.269 35.3406 215.269C34.5026 216.292 33.8041 217.036 33.2454 217.919C33.0126 218.291 32.966 218.989 33.1523 219.407C34.2232 221.778 34.9682 221.918 36.784 220.058C37.3893 219.454 37.9015 218.756 38.4602 218.105C38.6464 218.152 38.8327 218.245 38.9724 218.291C38.4602 219.779 38.2274 221.407 37.4359 222.708C36.7375 223.917 36.9703 224.615 37.8549 225.405C43.6284 230.38 41.8591 230.333 48.6104 226.056C48.7501 225.963 48.8432 225.823 49.1226 225.545C42.6041 222.243 38.2274 217.176 35.5734 210.015C34.2697 211.689 33.2454 213.084 32.2211 214.432C32.0814 214.386 31.9417 214.339 31.802 214.246C32.4073 212.991 32.7798 211.503 33.711 210.573C35.6666 208.481 35.1544 206.249 34.6888 203.925C34.5957 203.32 34.3163 202.809 34.0369 202.111C31.5692 203.506 29.0084 204.576 27.9375 207.458Z" fill="#2C8460"/>
<path d="M64.5331 211.688C59.5046 209.41 56.3385 205.783 54.2432 201.041C51.8686 202.25 49.5872 203.412 47.166 204.668C48.656 208.992 51.3099 212.758 54.9416 215.733C58.2475 218.43 58.3406 218.383 61.3205 215.268C62.3914 214.199 63.3226 213.037 64.5331 211.688Z" fill="#2C8460"/>
<path d="M44.6984 205.227C42.836 206.11 40.9736 206.854 39.2508 207.83C38.8784 208.063 38.5524 209.179 38.7852 209.644C41.4858 215.409 45.6297 219.919 51.0307 223.313C51.3566 223.545 52.1016 223.592 52.3809 223.406C53.6846 222.476 54.8952 221.407 56.3386 220.198C50.146 216.711 46.0487 212.154 44.6984 205.227Z" fill="#2C8460"/>
<path d="M27.9374 207.457C27.3787 208.34 26.5406 209.177 26.3544 210.107C25.8422 212.99 25.2369 215.966 25.4231 218.848C25.6094 221.824 27.6115 224.335 29.3342 226.752C30.1258 227.868 31.0104 228.937 31.9882 229.914C34.8284 232.797 35.8062 232.89 39.531 230.797C38.1342 229.728 36.6443 228.751 35.3406 227.636C30.1723 223.358 28.0771 217.593 27.7512 211.084C27.6581 209.875 27.8443 208.666 27.9374 207.457Z" fill="#2C8460"/>
<path d="M66.7216 210.434C67.1407 210.062 67.5597 209.69 68.1185 209.179C65.3714 205.878 62.6709 202.67 60.0169 199.462C58.9926 198.206 57.8751 196.997 56.8973 195.696C56.1524 194.766 55.5471 194.719 54.709 195.789C55.2212 196.3 55.7333 196.811 56.2455 197.323C56.618 198.299 56.8973 199.555 57.5026 200.577C59.7841 204.436 62.7174 207.831 66.7216 210.434Z" fill="#2C8460"/>
<path d="M31.0109 232.936C29.6607 231.402 28.2639 230.1 27.2861 228.565C26.3549 227.124 25.7962 225.404 25.0977 223.916C24.0734 225.311 23.0491 226.706 22.1644 228.147C21.9782 228.426 22.1179 229.17 22.3507 229.402C23.6544 230.611 24.9581 232.099 26.5411 232.796C27.7983 233.401 29.4744 232.936 31.0109 232.936Z" fill="#2C8460"/>
<path d="M36.8307 206.761C39.4847 205.459 41.8127 204.529 43.9545 203.227C44.6064 202.809 44.6529 201.414 45.072 200.205C41.673 200.67 38.7397 201.088 35.4805 201.553C35.9461 203.32 36.3651 204.948 36.8307 206.761Z" fill="#2C8460"/>
<path d="M21.9779 245.954C14.342 247.721 9.40657 244.374 5.96108 238.004C5.26267 240.329 6.24045 243.304 8.61504 244.978C13.3177 248.326 18.579 249.302 21.9779 245.954Z" fill="#2C8460"/>
<path d="M46.002 200.159C46.0485 200.717 46.0951 201.368 46.1882 202.67C48.7025 201.461 51.0305 200.438 53.2189 199.183C53.5913 198.997 53.3585 197.788 53.4051 196.904C50.7511 198.067 48.4231 199.09 46.002 200.159Z" fill="#2C8460"/>
<path d="M17.834 228.52C17.834 231.914 21.2795 235.773 25.889 237.446C25.6096 236.796 25.5631 236.238 25.2837 236.098C22.0244 234.61 19.7895 232.239 18.4858 228.891C18.3927 228.752 18.1599 228.706 17.834 228.52Z" fill="#2C8460"/>
<path d="M52.7079 226.939C50.5196 228.427 48.3778 229.915 46.1895 231.403C46.2826 231.542 46.3757 231.682 46.4688 231.821C49.0297 230.891 51.0783 229.171 52.9873 227.311C52.9407 227.172 52.8011 227.079 52.7079 226.939Z" fill="#2C8460"/>
<path d="M38.7865 234.424C40.5092 233.959 42.2785 233.54 44.0013 233.076C43.9547 232.89 43.9082 232.704 43.8616 232.518C42.1388 233.029 40.4161 233.494 38.6934 234.005C38.6934 234.145 38.7399 234.284 38.7865 234.424Z" fill="#2C8460"/>
<path d="M117.985 143.248C119.149 142.132 120.639 141.249 121.337 139.9C122.176 138.273 123.572 137.204 124.643 135.809C125.062 135.251 125.528 134.646 126.133 133.81C125.295 133.624 124.783 133.531 124.271 133.438C124.271 133.345 124.271 133.298 124.224 133.205C125.016 133.159 125.947 133.298 126.599 132.973C127.251 132.647 127.623 131.81 127.856 131.485C127.251 130.648 126.832 130.09 126.319 129.393C125.947 129.765 125.481 130.09 125.155 130.555C123.2 133.345 121.524 136.367 119.242 138.831C117.892 140.319 117.706 141.621 117.939 143.294L117.985 143.248Z" fill="black"/>
<path d="M184.707 65.2774C175.162 62.7202 166.456 66.5793 157.562 68.997C166.688 68.1601 175.395 64.301 184.707 65.2774Z" fill="black"/>
<path d="M130.324 123.442C131.116 124 131.721 124.372 132.513 124.93C134.003 122.698 135.539 120.653 136.75 118.467C137.122 117.816 136.563 116.654 136.47 115.771C136.237 115.724 136.051 115.678 135.818 115.678C134.049 118.235 132.233 120.792 130.324 123.442Z" fill="black"/>
<path d="M144.712 103.728C145.224 103.449 145.969 103.309 146.202 102.891C148.017 99.5898 149.74 96.1957 151.09 92.6621C148.809 96.1957 146.528 99.7758 144.246 103.309C144.386 103.449 144.525 103.588 144.712 103.728Z" fill="black"/>
<path d="M128.881 130.231C129.672 128.929 130.557 127.72 131.162 126.418C131.395 125.953 130.929 125.163 130.79 124.512C130.184 124.884 129.253 125.116 129.067 125.581C128.787 126.372 128.601 126.929 127.67 127.348C126.832 127.72 126.18 128.696 127.763 129.347C128.136 129.487 128.368 129.812 128.881 130.231Z" fill="black"/>
<path d="M117.194 145.063C116.309 144.179 115.518 143.668 114.586 144.691C113.562 145.806 114.26 146.457 115.238 147.062C115.89 146.364 116.495 145.76 117.194 145.063Z" fill="black"/>
<path d="M114.074 149.154C114.074 148.271 114.074 147.666 114.028 147.015C113.608 147.015 112.91 146.922 112.817 147.108C112.444 147.759 112.305 148.55 112.025 149.247C112.584 149.201 113.143 149.201 114.074 149.154Z" fill="black"/>
<path d="M109.417 151.805C108.44 153.107 107.415 154.362 106.438 155.664C106.577 155.757 106.67 155.85 106.81 155.989C107.695 154.594 109.883 154.362 110.023 152.27C109.79 152.13 109.604 151.944 109.417 151.805Z" fill="black"/>
<path d="M117.986 143.295C117.754 142.784 117.521 142.319 117.055 141.389C116.59 142.226 116.171 142.784 115.984 143.388C115.938 143.481 116.729 144.039 117.148 144.039C117.428 144.039 117.707 143.481 117.986 143.202C117.986 143.248 117.986 143.295 117.986 143.295Z" fill="black"/>
<path d="M93.6803 221.174C85.3925 219.547 80.6433 213.223 75.4751 207.504C72.1693 203.831 69.0963 199.879 65.9767 196.02C65.5111 195.416 65.2317 194.625 64.9989 193.835C64.673 192.626 64.4868 191.417 64.254 190.209C64.0677 190.209 63.8815 190.209 63.7418 190.209C63.6952 191.045 63.6952 191.929 63.6487 192.812C61.2275 191.324 62.345 188.628 61.4137 186.071C61.1344 187.326 60.9481 188.07 60.6688 189.093C57.2233 185.559 58.8064 180.863 56.8042 177.004C56.8042 179.282 56.8042 181.514 56.8042 183.885C51.9154 176.958 47.4456 169.751 44.4191 161.754C44.1863 161.847 43.9535 161.893 43.7207 161.986C44.3726 164.497 44.8382 167.054 45.6762 169.472C47.7249 175.284 50.9376 180.491 54.8021 185.234C62.6709 194.904 70.5862 204.482 78.5946 214.014C81.1089 217.036 84.1819 219.5 87.9999 220.755C89.7692 221.36 91.7247 221.499 93.5406 221.871C93.5872 221.685 93.6337 221.406 93.6803 221.174Z" fill="black"/>
<path d="M55.5947 163.846C57.8762 164.729 60.3905 163.985 61.7407 162.079C63.7894 159.196 63.5566 156.174 61.9735 153.198C60.3905 150.269 57.8762 148.642 54.4773 148.688C53.9651 148.688 53.4064 148.874 52.8477 149.2C57.5037 150.362 60.2974 153.152 60.6698 157.848C60.9026 161.149 58.7609 162.962 55.5947 163.846Z" fill="black"/>
<path d="M105.181 204.111C103.645 201.554 100.246 201.182 97.7315 203.088C94.5654 205.506 93.4479 211.968 97.5918 215.781C97.359 214.805 97.1728 214.2 97.1262 213.549C97.0797 211.643 96.7537 209.597 97.1728 207.784C98.104 203.832 100.944 202.577 105.181 204.111Z" fill="black"/>
<path d="M213.434 238.796C213.434 238.564 213.48 238.378 213.48 238.146C213.527 238.843 213.573 239.54 213.666 240.191C214.691 249.118 223.304 254.372 231.592 250.978C233.455 250.234 235.177 249.118 236.807 247.956C242.767 243.725 244.676 236.239 241.37 230.474C238.204 224.988 231.732 222.709 225.074 224.895C223.351 225.453 222.559 224.988 222.187 223.453C221.861 222.198 221.628 220.896 221.535 219.594C221.349 217.735 221.395 215.828 221.209 213.922C220.418 204.763 215.017 198.951 205.891 197.416C203.889 197.091 201.887 196.905 199.884 196.58C195.88 195.929 192.388 194.208 189.315 191.419C191.224 188.722 193.133 186.165 194.949 183.561C198.301 178.586 201.281 173.472 202.864 167.613C205.751 156.873 199.093 147.993 192.202 144.738C186.428 141.995 180.236 143.436 176.185 148.318C172.6 152.689 172.6 159.151 176.418 164.033C177.628 165.614 179.258 166.87 180.795 168.218C181.865 169.148 182.843 170.217 182.098 171.612C181.027 173.611 179.631 175.471 178.327 177.563C177.535 176.819 177.023 176.401 176.511 175.936C159.051 159.012 143.779 140.368 131.627 119.306C120.033 99.3131 111.14 78.2976 107.462 55.2829C107.275 53.981 106.577 53.4231 105.366 53.2836C103.97 53.1441 102.619 52.9116 101.269 52.6792C83.4828 49.4245 68.7697 40.5441 55.9189 28.2231C47.6777 20.319 40.7402 11.3921 35.1063 1.48875C34.4079 0.279898 33.5698 -0.557002 32.2661 0.326393C31.6608 0.744843 31.3815 1.86071 31.3349 2.65112C30.0778 25.2474 34.6407 46.8209 43.2079 67.6039C55.3136 96.8954 73.7517 122.002 95.1695 145.017C105.366 155.943 116.075 166.358 127.622 175.889C135.305 182.213 143.127 188.304 150.949 194.487C153.37 196.394 155.931 198.207 158.725 200.253C157.235 201.229 156.024 202.159 154.721 202.856C152.625 203.972 151.648 203.647 150.297 201.647C146.293 195.696 138.797 193.929 132.884 197.556C127.017 201.182 125.061 208.854 128.786 214.898C130.276 217.316 132.372 219.501 134.606 221.268C143.825 228.521 156.257 230.149 165.755 219.222C167.851 216.805 169.946 214.433 172.227 211.923C173.112 212.899 173.857 213.689 174.509 214.48C177.815 218.664 181.027 222.942 184.473 227.08C189.734 233.403 196.392 237.262 204.634 238.192C207.567 238.518 210.5 238.611 213.434 238.796Z" fill="white"/>
<path d="M213.434 238.797C210.5 238.611 207.52 238.518 204.634 238.192C196.392 237.263 189.734 233.357 184.473 227.08C181.074 222.989 177.861 218.665 174.509 214.48C173.857 213.643 173.112 212.899 172.227 211.923C169.993 214.48 167.851 216.852 165.755 219.223C156.257 230.195 143.825 228.522 134.606 221.268C132.372 219.502 130.276 217.316 128.786 214.899C125.061 208.854 127.017 201.136 132.884 197.556C138.75 193.93 146.293 195.697 150.297 201.648C151.648 203.647 152.625 203.973 154.721 202.857C156.024 202.159 157.235 201.229 158.725 200.253C155.931 198.207 153.37 196.44 150.949 194.488C143.127 188.35 135.305 182.213 127.622 175.89C116.075 166.359 105.366 155.944 95.1695 145.018C73.7051 122.003 55.2671 96.8958 43.2079 67.6043C34.6407 46.8212 30.0778 25.2478 31.3349 2.6515C31.3815 1.86109 31.6608 0.745223 32.2196 0.373268C33.4767 -0.510127 34.3614 0.326773 35.0598 1.53563C40.6936 11.439 47.6311 20.3659 55.8724 28.2699C68.7231 40.591 83.4828 49.4714 101.222 52.726C102.573 52.9585 103.97 53.191 105.32 53.3305C106.53 53.4699 107.229 54.0279 107.415 55.3297C111.047 78.298 119.986 99.36 131.58 119.353C143.779 140.415 159.051 159.059 176.464 175.983C176.977 176.448 177.489 176.913 178.28 177.61C179.631 175.518 180.981 173.658 182.052 171.659C182.797 170.264 181.819 169.195 180.748 168.265C179.258 166.916 177.628 165.661 176.371 164.08C172.6 159.198 172.553 152.689 176.139 148.365C180.143 143.483 186.382 142.042 192.155 144.785C199.046 148.04 205.705 156.92 202.818 167.66C201.235 173.519 198.255 178.633 194.902 183.608C193.133 186.258 191.178 188.815 189.269 191.466C192.342 194.255 195.834 196.022 199.838 196.626C201.84 196.952 203.842 197.091 205.844 197.463C214.97 198.998 220.371 204.763 221.163 213.969C221.349 215.829 221.302 217.735 221.489 219.641C221.628 220.943 221.861 222.245 222.14 223.5C222.513 225.035 223.304 225.499 225.027 224.942C231.685 222.71 238.157 225.035 241.323 230.521C244.629 236.286 242.72 243.772 236.76 248.003C235.131 249.165 233.408 250.235 231.546 251.025C223.258 254.419 214.598 249.165 213.62 240.238C213.527 239.541 213.527 238.843 213.434 238.192C213.48 238.378 213.48 238.564 213.434 238.797ZM215.063 207.46C215.11 208.668 215.296 209.877 215.203 211.086C214.877 217.595 212.735 223.314 207.613 227.638C206.263 228.754 204.82 229.73 203.423 230.8C207.148 232.892 208.126 232.799 210.966 229.916C211.944 228.94 212.828 227.871 213.62 226.755C215.343 224.337 217.345 221.826 217.531 218.851C217.717 215.968 217.065 212.992 216.6 210.11C216.46 209.18 215.575 208.343 215.063 207.46C213.946 204.577 211.385 203.508 208.917 202.159C208.684 202.857 208.405 203.415 208.265 203.973C207.8 206.297 207.288 208.529 209.243 210.621C210.174 211.598 210.5 213.085 211.152 214.294C211.012 214.341 210.873 214.387 210.733 214.48C209.709 213.132 208.638 211.737 207.381 210.063C204.727 217.223 200.35 222.291 193.832 225.592C194.111 225.871 194.204 226.011 194.344 226.104C201.095 230.381 199.326 230.428 205.099 225.453C206.03 224.663 206.263 223.965 205.518 222.756C204.727 221.408 204.494 219.827 203.982 218.339C204.168 218.293 204.354 218.2 204.494 218.153C205.053 218.804 205.565 219.502 206.17 220.106C207.986 221.966 208.731 221.826 209.802 219.455C209.988 219.037 209.942 218.386 209.709 217.967C209.15 217.084 208.452 216.34 207.613 215.317C208.358 215.364 208.871 215.317 209.336 215.364C212.176 215.643 212.223 215.643 212.921 212.946C213.387 211.226 213.62 209.505 213.992 207.785C214.272 206.762 214.318 206.809 215.063 207.46ZM87.1146 130.744C89.9082 127.675 90.3738 124.049 90.886 120.329C92.6553 120.933 92.1897 122.189 91.9569 123.072C91.2119 126.094 90.2807 129.07 89.4426 132.092C89.3495 132.511 89.3495 133.115 89.5823 133.394C90.6532 134.696 91.8172 135.858 93.1674 137.346C94.5177 135.579 95.868 134.138 96.8457 132.511C97.8701 130.837 98.5685 128.977 99.36 127.21C99.5462 127.303 99.7325 127.35 99.9187 127.443C98.2426 131.395 96.6129 135.347 94.9367 139.392C106.81 152.55 119.754 164.685 133.442 176.122C137.121 171.984 135.119 166.498 137.679 162.314C137.121 167.521 136.562 172.728 135.957 178.54C144.012 184.631 152.486 191.094 161.146 197.649C162.636 195.929 163.846 194.581 164.964 193.186C165.197 192.86 165.243 192.256 165.15 191.837C164.359 188.49 163.008 185.514 160.448 183.004C157.607 180.214 155.14 177.052 152.486 174.077C156.211 177.006 159.889 180.028 163.288 183.329C165.476 185.468 168.316 185.049 170.831 185.793C171.017 185.84 171.436 185.607 171.622 185.375C172.972 183.747 174.323 182.074 175.766 180.307C174.462 179.005 173.298 177.796 172.041 176.634C162.403 167.242 153.463 157.246 145.362 146.505C135.817 133.859 127.436 120.561 120.499 106.288C113.049 90.9445 107.136 75.0434 104.202 58.2124C104.016 57.143 103.597 56.864 102.573 56.6316C97.5907 55.4692 92.5622 54.5393 87.7664 52.819C66.7676 45.2869 51.0766 30.9666 38.1793 13.2522C37.1084 11.7644 36.0841 10.2766 35.0598 8.78877C34.7804 12.0899 34.7804 15.205 35.0132 18.3201C36.3169 38.4987 42.0904 57.4685 50.7041 75.6943C57.6417 90.3401 66.302 103.963 76.0797 116.888C79.6183 121.538 83.3432 126.048 87.1146 130.744ZM149.04 214.852C150.344 210.854 149.552 207.46 147.411 204.112C144.384 199.37 139.076 198.068 134.513 201.043C130.369 203.74 129.485 209.598 132.604 213.876C135.491 217.921 139.449 220.525 144.058 222.152C151.974 224.942 158.073 222.291 162.403 217.316C171.25 207.134 179.863 196.673 188.384 186.165C192.668 180.818 196.439 175.053 198.674 168.497C201.374 160.593 198.814 153.201 191.829 148.784C187.872 146.273 183.169 146.645 180.003 149.76C176.93 152.829 176.325 157.385 178.932 160.965C180.282 162.825 182.145 164.313 183.868 165.847C185.637 167.428 187.732 167.428 189.92 166.637C190.386 166.452 190.805 166.266 191.271 166.08C190.991 167.009 190.479 167.707 189.967 168.358C188.011 170.868 186.056 173.379 184.054 175.89C180.003 181.004 176.092 186.258 171.808 191.187C167.571 196.068 163.334 201.043 158.492 205.321C155.14 208.297 150.903 210.249 149.04 214.852ZM178.467 211.691C179.677 213.039 180.608 214.201 181.633 215.271C184.659 218.386 184.706 218.479 188.011 215.736C191.69 212.76 194.344 208.994 195.787 204.67C193.366 203.415 191.084 202.252 188.71 201.043C186.661 205.786 183.495 209.366 178.467 211.691ZM198.301 205.228C196.951 212.202 192.807 216.712 186.708 220.106C188.151 221.315 189.362 222.384 190.665 223.314C190.945 223.5 191.643 223.454 192.016 223.221C197.417 219.827 201.561 215.317 204.261 209.552C204.494 209.087 204.168 207.971 203.796 207.739C202.026 206.809 200.164 206.065 198.301 205.228ZM176.278 210.435C180.282 207.878 183.216 204.484 185.544 200.578C186.149 199.556 186.428 198.347 186.801 197.324C187.313 196.812 187.825 196.301 188.337 195.79C187.546 194.72 186.894 194.767 186.149 195.697C185.125 196.998 184.054 198.207 183.029 199.463C180.329 202.671 177.675 205.879 174.928 209.18C175.44 209.645 175.813 210.017 176.278 210.435ZM211.944 232.939C213.527 232.939 215.203 233.357 216.46 232.799C218.043 232.102 219.3 230.614 220.65 229.405C220.93 229.173 221.023 228.429 220.837 228.15C219.906 226.708 218.881 225.314 217.903 223.919C217.252 225.406 216.693 227.127 215.715 228.568C214.691 230.102 213.294 231.404 211.944 232.939ZM206.17 206.762C206.636 204.949 207.055 203.368 207.52 201.555C204.261 201.09 201.374 200.671 197.929 200.206C198.348 201.462 198.395 202.857 199.046 203.229C201.142 204.53 203.47 205.46 206.17 206.762ZM220.976 245.957C224.375 249.258 229.637 248.328 234.339 244.981C236.714 243.307 237.692 240.331 236.993 238.006C233.548 244.376 228.612 247.724 220.976 245.957ZM196.998 200.16C194.577 199.091 192.249 198.068 189.595 196.905C189.641 197.789 189.455 198.998 189.781 199.184C191.969 200.439 194.251 201.462 196.811 202.671C196.905 201.369 196.951 200.671 196.998 200.16ZM225.167 228.522C224.841 228.708 224.562 228.754 224.515 228.894C223.258 232.241 220.976 234.612 217.717 236.1C217.438 236.24 217.391 236.798 217.112 237.449C221.721 235.775 225.167 231.916 225.167 228.522ZM190.246 226.941C190.153 227.08 190.06 227.22 189.92 227.313C191.876 229.173 193.925 230.846 196.439 231.823C196.532 231.683 196.625 231.544 196.718 231.404C194.623 229.916 192.435 228.429 190.246 226.941ZM204.215 234.426C204.261 234.287 204.261 234.147 204.308 234.008C202.585 233.497 200.862 233.032 199.139 232.52C199.093 232.706 199.046 232.892 199 233.078C200.723 233.543 202.492 234.008 204.215 234.426Z" fill="black"/>
<path d="M87.114 130.744C83.3426 126.002 79.6177 121.538 76.1257 116.842C66.348 103.917 57.6877 90.2939 50.7501 75.6481C42.0899 57.4688 36.3163 38.499 35.0126 18.3204C34.8264 15.2053 34.7798 12.0437 35.0592 8.78906C36.0835 10.2769 37.1079 11.8112 38.1788 13.2525C51.0761 30.9669 66.767 45.2872 87.7659 52.8193C92.5616 54.5396 97.5902 55.4695 102.572 56.6319C103.596 56.8643 104.016 57.1898 104.202 58.2127C107.182 75.0902 113.048 90.9448 120.498 106.288C127.436 120.562 135.816 133.859 145.361 146.506C153.463 157.246 162.403 167.242 172.041 176.634C173.251 177.796 174.415 179.005 175.765 180.307C174.322 182.074 173.018 183.748 171.622 185.375C171.435 185.608 171.063 185.84 170.83 185.794C168.316 185.05 165.476 185.422 163.287 183.329C159.888 180.075 156.257 177.053 152.485 174.077C155.139 177.053 157.607 180.214 160.447 183.004C163.008 185.515 164.405 188.49 165.15 191.838C165.243 192.256 165.196 192.861 164.963 193.186C163.846 194.581 162.635 195.929 161.145 197.65C152.485 191.094 144.011 184.631 135.956 178.54C136.561 172.729 137.12 167.521 137.679 162.314C135.118 166.545 137.12 172.031 133.442 176.123C119.753 164.685 106.856 152.55 94.9362 139.392C96.6124 135.394 98.2886 131.441 99.9182 127.443C99.7319 127.35 99.5457 127.303 99.3595 127.21C98.5214 128.977 97.823 130.837 96.8452 132.511C95.8674 134.138 94.5637 135.579 93.1669 137.346C91.8166 135.905 90.6526 134.696 89.5817 133.394C89.3489 133.115 89.3489 132.464 89.442 132.092C90.2336 129.07 91.1648 126.095 91.9563 123.072C92.1891 122.143 92.6547 120.934 90.8854 120.329C90.3733 124.049 89.9076 127.675 87.114 130.744ZM125.014 143.298C125.247 141.624 125.061 140.322 123.711 138.834C121.429 136.37 119.753 133.348 117.797 130.558C117.472 130.093 117.006 129.721 116.633 129.396C116.121 130.093 115.702 130.651 115.097 131.488C115.33 131.813 115.702 132.65 116.354 132.976C117.006 133.301 117.937 133.162 118.729 133.208C118.729 133.301 118.729 133.348 118.682 133.441C118.17 133.534 117.658 133.627 116.82 133.813C117.425 134.65 117.891 135.208 118.31 135.812C119.381 137.207 120.731 138.276 121.615 139.903C122.314 141.252 123.804 142.135 124.968 143.251C125.247 143.577 125.573 144.134 125.806 144.088C126.225 144.041 126.97 143.53 126.97 143.437C126.784 142.833 126.365 142.275 125.899 141.438C125.48 142.321 125.247 142.833 125.014 143.298ZM58.2464 65.2798C67.6051 64.3035 76.3119 68.1625 85.3913 68.9994C76.4982 66.5817 67.8379 62.7226 58.2464 65.2798ZM112.629 123.444C110.72 120.794 108.904 118.237 107.089 115.633C106.856 115.68 106.669 115.726 106.437 115.726C106.297 116.656 105.785 117.772 106.157 118.423C107.368 120.655 108.904 122.701 110.394 124.886C111.232 124.421 111.838 124.002 112.629 123.444ZM98.2886 103.731C98.4282 103.591 98.6145 103.452 98.7542 103.266C96.4727 99.7322 94.1912 96.1522 91.9098 92.6186C93.26 96.1987 94.9828 99.5463 96.7986 102.847C97.0314 103.312 97.7764 103.452 98.2886 103.731ZM114.119 130.233C114.631 129.814 114.864 129.489 115.19 129.349C116.773 128.745 116.121 127.722 115.283 127.35C114.352 126.932 114.212 126.42 113.886 125.583C113.7 125.072 112.769 124.839 112.164 124.514C112.024 125.165 111.558 125.909 111.791 126.42C112.443 127.768 113.328 128.977 114.119 130.233ZM125.759 145.064C126.458 145.762 127.11 146.413 127.761 147.064C128.739 146.459 129.438 145.808 128.413 144.692C127.436 143.67 126.644 144.134 125.759 145.064ZM128.925 149.156C129.81 149.202 130.369 149.202 130.928 149.249C130.695 148.505 130.509 147.761 130.136 147.11C130.043 146.924 129.345 147.064 128.925 147.017C128.925 147.668 128.925 148.272 128.925 149.156ZM133.535 151.806C133.349 151.946 133.162 152.085 132.976 152.271C133.116 154.317 135.304 154.596 136.189 155.991C136.329 155.898 136.422 155.805 136.561 155.665C135.537 154.363 134.559 153.108 133.535 151.806Z" fill="#ECF5E3"/>
<path d="M149.041 214.852C150.903 210.249 155.14 208.342 158.446 205.367C163.288 201.089 167.525 196.161 171.762 191.232C176.046 186.304 179.957 181.05 184.008 175.936C186.01 173.425 187.966 170.914 189.921 168.404C190.433 167.753 190.945 167.055 191.225 166.125C190.759 166.311 190.34 166.497 189.875 166.683C187.733 167.52 185.638 167.474 183.822 165.893C182.099 164.359 180.237 162.871 178.886 161.011C176.325 157.431 176.884 152.875 179.957 149.806C183.077 146.691 187.779 146.319 191.784 148.829C198.768 153.246 201.328 160.593 198.628 168.543C196.393 175.099 192.622 180.911 188.338 186.211C179.864 196.719 171.25 207.18 162.357 217.362C158.027 222.337 151.928 224.987 144.012 222.198C139.403 220.57 135.445 217.967 132.558 213.922C129.485 209.598 130.37 203.786 134.467 201.089C139.03 198.114 144.338 199.415 147.365 204.158C149.553 207.459 150.345 210.853 149.041 214.852ZM149.32 221.175C149.367 221.454 149.413 221.686 149.46 221.965C151.322 221.593 153.231 221.454 155.001 220.849C158.819 219.594 161.845 217.13 164.406 214.108C172.414 204.576 180.33 194.952 188.198 185.328C192.063 180.585 195.276 175.378 197.324 169.566C198.162 167.148 198.628 164.591 199.28 162.08C199.047 161.987 198.814 161.941 198.581 161.848C195.555 169.891 191.085 177.052 186.196 183.979C186.196 181.608 186.196 179.33 186.196 177.098C184.241 180.957 185.777 185.653 182.332 189.187C182.099 188.164 181.913 187.42 181.587 186.165C180.656 188.722 181.773 191.418 179.352 192.906C179.305 192.023 179.305 191.186 179.259 190.303C179.072 190.303 178.886 190.303 178.747 190.303C178.514 191.511 178.328 192.72 178.002 193.929C177.815 194.673 177.536 195.51 177.024 196.114C173.904 199.973 170.831 203.879 167.525 207.598C162.357 213.224 157.608 219.548 149.32 221.175ZM187.407 163.847C184.241 162.964 182.099 161.151 182.378 157.849C182.751 153.153 185.544 150.317 190.2 149.201C189.595 148.922 189.083 148.736 188.571 148.69C185.172 148.644 182.658 150.271 181.075 153.2C179.492 156.176 179.259 159.198 181.307 162.08C182.611 163.987 185.125 164.731 187.407 163.847ZM137.82 204.111C142.057 202.577 144.85 203.832 145.828 207.831C146.247 209.644 145.921 211.644 145.875 213.596C145.875 214.201 145.642 214.805 145.409 215.828C149.553 212.015 148.436 205.553 145.269 203.135C142.755 201.182 139.356 201.554 137.82 204.111Z" fill="#61C08B"/>
<path d="M215.064 207.46C214.319 206.763 214.272 206.763 214.04 207.739C213.667 209.459 213.388 211.18 212.969 212.9C212.27 215.597 212.224 215.597 209.384 215.318C208.918 215.271 208.406 215.271 207.661 215.271C208.499 216.294 209.197 217.038 209.756 217.921C209.989 218.293 210.035 218.991 209.849 219.409C208.778 221.78 208.033 221.92 206.217 220.06C205.612 219.456 205.1 218.758 204.541 218.107C204.355 218.154 204.169 218.247 204.029 218.293C204.541 219.781 204.774 221.408 205.566 222.71C206.264 223.919 206.031 224.617 205.147 225.407C199.373 230.382 201.142 230.335 194.391 226.058C194.251 225.965 194.158 225.825 193.879 225.546C200.397 222.245 204.774 217.177 207.428 210.017C208.732 211.691 209.756 213.086 210.78 214.434C210.92 214.388 211.06 214.341 211.199 214.248C210.594 212.993 210.222 211.505 209.29 210.575C207.335 208.483 207.847 206.251 208.313 203.927C208.406 203.322 208.685 202.811 208.965 202.113C211.386 203.508 213.993 204.577 215.064 207.46Z" fill="#2C8460"/>
<path d="M178.467 211.69C183.495 209.412 186.661 205.785 188.757 201.043C191.131 202.252 193.413 203.414 195.834 204.67C194.344 208.994 191.69 212.76 188.058 215.735C184.752 218.432 184.659 218.385 181.679 215.27C180.609 214.201 179.677 213.039 178.467 211.69Z" fill="#2C8460"/>
<path d="M198.302 205.227C200.165 206.11 202.027 206.854 203.75 207.83C204.122 208.063 204.448 209.179 204.215 209.644C201.515 215.409 197.371 219.919 191.97 223.313C191.644 223.545 190.899 223.592 190.62 223.406C189.316 222.476 188.105 221.407 186.662 220.198C192.808 216.711 196.952 212.154 198.302 205.227Z" fill="#2C8460"/>
<path d="M215.062 207.459C215.621 208.342 216.459 209.179 216.645 210.109C217.158 212.992 217.763 215.967 217.577 218.85C217.39 221.826 215.388 224.336 213.666 226.754C212.874 227.87 211.989 228.939 211.012 229.916C208.171 232.798 207.194 232.891 203.469 230.799C204.866 229.73 206.356 228.753 207.659 227.638C212.827 223.314 214.923 217.595 215.249 211.086C215.295 209.877 215.155 208.668 215.062 207.459Z" fill="#2C8460"/>
<path d="M176.278 210.434C175.859 210.062 175.44 209.69 174.881 209.179C177.628 205.878 180.328 202.67 182.982 199.462C184.007 198.206 185.124 196.997 186.102 195.696C186.847 194.766 187.452 194.719 188.29 195.789C187.778 196.3 187.266 196.811 186.754 197.323C186.381 198.299 186.102 199.555 185.497 200.577C183.169 204.436 180.235 207.831 176.278 210.434Z" fill="#2C8460"/>
<path d="M211.943 232.938C213.294 231.404 214.69 230.102 215.668 228.567C216.599 227.126 217.158 225.406 217.857 223.918C218.881 225.313 219.905 226.708 220.79 228.149C220.976 228.428 220.836 229.172 220.604 229.404C219.3 230.613 217.996 232.101 216.413 232.798C215.203 233.403 213.526 232.938 211.943 232.938Z" fill="#2C8460"/>
<path d="M206.171 206.761C203.517 205.459 201.189 204.529 199.047 203.227C198.395 202.809 198.349 201.414 197.93 200.205C201.329 200.67 204.262 201.088 207.521 201.553C207.056 203.32 206.637 204.948 206.171 206.761Z" fill="#2C8460"/>
<path d="M220.977 245.956C228.613 247.723 233.548 244.376 236.993 238.006C237.692 240.331 236.714 243.306 234.339 244.98C229.637 248.328 224.375 249.304 220.977 245.956Z" fill="#2C8460"/>
<path d="M196.997 200.159C196.951 200.717 196.904 201.368 196.811 202.67C194.297 201.461 191.969 200.438 189.78 199.183C189.408 198.997 189.641 197.788 189.594 196.904C192.248 198.067 194.576 199.09 196.997 200.159Z" fill="#2C8460"/>
<path d="M225.166 228.521C225.166 231.916 221.721 235.775 217.111 237.448C217.391 236.798 217.437 236.24 217.717 236.1C220.976 234.612 223.211 232.241 224.514 228.893C224.561 228.754 224.84 228.707 225.166 228.521Z" fill="#2C8460"/>
<path d="M190.246 226.939C192.435 228.427 194.576 229.915 196.765 231.403C196.672 231.542 196.578 231.682 196.485 231.821C193.924 230.891 191.876 229.171 189.967 227.311C190.06 227.172 190.153 227.079 190.246 226.939Z" fill="#2C8460"/>
<path d="M204.215 234.426C202.492 233.961 200.723 233.542 199 233.077C199.047 232.891 199.093 232.706 199.14 232.52C200.862 233.031 202.585 233.496 204.308 234.007C204.261 234.147 204.261 234.286 204.215 234.426Z" fill="#2C8460"/>
<path d="M125.015 143.25C123.851 142.134 122.361 141.251 121.663 139.902C120.825 138.275 119.428 137.206 118.357 135.811C117.938 135.253 117.473 134.648 116.867 133.812C117.705 133.626 118.218 133.533 118.73 133.44C118.73 133.347 118.73 133.3 118.776 133.207C117.985 133.161 117.054 133.3 116.402 132.975C115.75 132.649 115.377 131.812 115.145 131.487C115.75 130.65 116.169 130.092 116.681 129.395C117.054 129.766 117.519 130.092 117.845 130.557C119.801 133.347 121.477 136.369 123.758 138.833C125.108 140.321 125.295 141.623 125.062 143.296L125.015 143.25Z" fill="black"/>
<path d="M58.248 65.2794C67.793 62.7222 76.4998 66.5812 85.3929 68.9989C76.3136 68.162 67.6067 64.303 58.248 65.2794Z" fill="black"/>
<path d="M112.63 123.444C111.839 124.002 111.233 124.374 110.442 124.932C108.952 122.7 107.415 120.655 106.205 118.469C105.832 117.818 106.391 116.656 106.484 115.773C106.717 115.726 106.903 115.68 107.136 115.68C108.952 118.237 110.768 120.794 112.63 123.444Z" fill="black"/>
<path d="M98.289 103.73C97.7768 103.451 97.0318 103.311 96.799 102.893C94.9832 99.5917 93.2604 96.1976 91.9102 92.6641C94.1916 96.1976 96.4731 99.7777 98.7546 103.311C98.6149 103.451 98.4287 103.59 98.289 103.73Z" fill="black"/>
<path d="M114.119 130.233C113.328 128.931 112.443 127.722 111.838 126.42C111.605 125.955 112.07 125.165 112.21 124.514C112.815 124.886 113.747 125.118 113.933 125.583C114.212 126.373 114.398 126.931 115.33 127.35C116.168 127.722 116.82 128.698 115.236 129.349C114.864 129.489 114.631 129.814 114.119 130.233Z" fill="black"/>
<path d="M125.76 145.065C126.644 144.181 127.436 143.67 128.367 144.693C129.392 145.808 128.693 146.459 127.715 147.064C127.11 146.366 126.458 145.762 125.76 145.065Z" fill="black"/>
<path d="M128.926 149.154C128.926 148.271 128.926 147.666 128.972 147.015C129.391 147.015 130.09 146.922 130.183 147.108C130.555 147.759 130.695 148.55 130.974 149.247C130.369 149.201 129.857 149.201 128.926 149.154Z" fill="black"/>
<path d="M133.535 151.805C134.513 153.107 135.537 154.362 136.515 155.664C136.375 155.757 136.282 155.85 136.142 155.989C135.258 154.594 133.069 154.362 132.93 152.27C133.162 152.13 133.349 151.944 133.535 151.805Z" fill="black"/>
<path d="M125.016 143.297C125.248 142.785 125.481 142.321 125.947 141.391C126.412 142.228 126.831 142.785 127.018 143.39C127.064 143.483 126.273 144.041 125.854 144.041C125.574 144.041 125.295 143.483 125.016 143.204C125.016 143.25 125.016 143.297 125.016 143.297Z" fill="black"/>
<path d="M149.32 221.176C157.608 219.548 162.357 213.225 167.526 207.506C170.831 203.833 173.904 199.881 177.024 196.022C177.49 195.418 177.769 194.627 178.002 193.837C178.328 192.628 178.514 191.419 178.747 190.21C178.933 190.21 179.119 190.21 179.259 190.21C179.305 191.047 179.305 191.931 179.352 192.814C181.773 191.326 180.656 188.63 181.587 186.072C181.866 187.328 182.052 188.072 182.332 189.095C185.777 185.561 184.194 180.865 186.196 177.006C186.196 179.284 186.196 181.516 186.196 183.887C191.085 176.96 195.555 169.753 198.581 161.756C198.814 161.849 199.047 161.895 199.28 161.988C198.628 164.499 198.162 167.056 197.324 169.474C195.276 175.286 192.063 180.493 188.198 185.236C180.33 194.906 172.414 204.484 164.406 214.016C161.892 217.038 158.819 219.502 155.001 220.757C153.231 221.362 151.276 221.501 149.46 221.873C149.413 221.687 149.367 221.408 149.32 221.176Z" fill="black"/>
<path d="M187.406 163.848C185.124 164.731 182.61 163.987 181.26 162.081C179.211 159.198 179.444 156.176 181.027 153.2C182.61 150.271 185.124 148.644 188.523 148.69C189.035 148.69 189.594 148.876 190.153 149.202C185.497 150.364 182.703 153.154 182.33 157.85C182.098 161.151 184.239 162.964 187.406 163.848Z" fill="black"/>
<path d="M137.818 204.111C139.355 201.554 142.754 201.182 145.268 203.088C148.434 205.506 149.552 211.968 145.408 215.781C145.641 214.805 145.827 214.2 145.873 213.549C145.92 211.643 146.246 209.597 145.827 207.784C144.849 203.832 142.055 202.577 137.818 204.111Z" fill="black"/>
</g>
<defs>
<clipPath id="clip0_114_4802">
<rect width="243" height="252" fill="white"/>
</clipPath>
</defs>
</svg>
