<svg width="280" height="280" viewBox="0 0 280 280" fill="none" xmlns="http://www.w3.org/2000/svg">
  <!-- Background  -->
  <rect width="273" height="273" rx="49" fill="#32966A"/>
  <!-- Drop -->
  <path d="M5.65184 47.8248C5.65184 47.8248 -3.13991 65.3115 1.25597 68.8931C5.65184 72.4747 11.9317 70.9999 12.5597 68.8931C12.9783 66.7863 5.65184 47.8248 5.65184 47.8248Z" fill="#61C08B"/>
  <!-- Text -->
  <g transform="translate(96,46)">
    <path d="M0.519531 27H7.62749V16.7727H17.8036V11.0455H7.62749V6.54545H18.9286V0.818181H0.519531V27ZM25.695 27.3068C28.2518 27.3068 30.1822 26.4375 31.3711 24.2386H31.5245V27H38.1211V13.5511C38.1211 9.92045 34.6822 7.10795 29.07 7.10795C23.2021 7.10795 20.3129 10.1761 20.07 13.7557H26.5643C26.7305 12.5412 27.6254 11.9659 28.9677 11.9659C30.195 11.9659 31.0643 12.5284 31.0643 13.5511V13.6023C31.0643 14.7401 29.8114 15.098 26.5131 15.3409C22.4606 15.6349 19.3029 17.2713 19.3029 21.5795C19.3029 25.4915 21.9364 27.3068 25.695 27.3068ZM27.9961 22.858C26.7944 22.858 25.9506 22.2699 25.9506 21.1705C25.9506 20.1605 26.6665 19.3807 28.3029 19.125C29.4279 18.946 30.3739 18.7159 31.1154 18.4091V20.0455C31.1154 21.8352 29.5941 22.858 27.9961 22.858ZM40.4929 27H47.5497V16.7727C47.5497 14.5227 49.0966 13.0398 51.1804 13.0398C51.9091 13.0398 53.0852 13.1548 53.7884 13.3977V7.37642C53.2259 7.21023 52.6122 7.10795 51.9986 7.10795C49.902 7.10795 48.2656 8.33523 47.5497 11.0966H47.3452V7.36364H40.4929V27ZM55.1023 27H62.1591V15.5455C62.1591 13.8324 63.054 12.7841 64.5114 12.7841C65.9688 12.7841 66.9148 13.8324 66.9148 15.5455V27H73.6648V15.5455C73.6648 13.8324 74.5597 12.7841 76.017 12.7841C77.4744 12.7841 78.4205 13.8324 78.4205 15.5455V27H85.4773V13.7557C85.4773 9.72869 82.8949 7.10795 79.1364 7.10795C76.2216 7.10795 73.8693 8.69318 73.2045 11.0966H73C72.5909 8.69318 70.392 7.10795 67.6307 7.10795C64.9077 7.10795 62.8239 8.64205 62.0057 11.0966H61.8011V7.36364H55.1023V27Z" fill="white"/>
  </g>
  <!-- Icon -->
  <g transform="translate(62,102)">
    <path d="M112.7 0.200001L112.6 0H37.5L0 64.5L37.1 128.5L37.3 129H112.4L149.9 64.7L150 64.5L112.7 0.200001ZM75 63.4L65.3 46.6L75 24.7L84.8 46.4L75 63.4ZM85.7 47.2L109.7 44.6L95.4 64H76L85.7 47.2ZM64.6 45.5L39.8 2.7L74.2 23.7L64.6 45.5ZM74.1 63.9H54.6L40.4 44.7L64.4 47.3L74.1 63.9ZM53.1 63.9H2.9L39.1 44.8L53.1 63.9ZM53.1 65.2L38.9 84.5L2.9 65.2H53.1ZM54.5 65.2H74L64.4 81.7L40.2 84.4L54.5 65.2ZM75 65.6L84.7 82.2L75 104.2L65.3 82.2L75 65.6ZM76 65.1H95.4L109.6 84.4L85.7 81.8L76 65.1ZM96.8 65.1L147.3 65L111 84.3L96.8 65.1ZM96.9 63.9L111.1 44.5L147.2 63.9H96.9ZM110.3 43.6L86.4 46.2L111.6 2.8L110.3 43.6ZM85.4 45.5L75.7 23.4L110.7 2.1L85.4 45.5ZM110.2 1.1L75 22.6L39.5 1.1H110.2ZM63.7 46L39.8 43.4L38.6 2.6L63.7 46ZM37.4 2.3L38.4 43.4L2.2 63L37.4 2.3ZM37.2 126.3L2 65.6L38.6 85.5L37.2 126.3ZM39.8 85.5L63.7 82.9L38.5 126.2L39.8 85.5ZM64.6 83.5L74.3 105.4L39.4 126.7L64.6 83.5ZM39.7 127.9L74.9 106.3L110.1 127.9H39.7ZM75.7 105.4L85.4 83.4L110.7 126.9L75.7 105.4ZM86.4 83L110.3 85.6L111.5 126.3L86.4 83ZM112.7 126.5L111.6 85.6L147.7 66.2L112.7 126.5ZM111.6 43.7L112.8 2.6L148 63.4L111.6 43.7Z" fill="white"/>
  </g>
</svg>
