<svg viewBox="0 0 280 280" fill="none" xmlns="http://www.w3.org/2000/svg">
  <g clip-path="url(#clip0_9_195)">
    <!-- Left Eye -->
    <path d="M94.6161 55.1988C109.761 55.1988 122.038 42.8421 122.038 27.5994C122.038 12.3567 109.761 0 94.6161 0C79.4714 0 67.1941 12.3567 67.1941 27.5994C67.1941 42.8421 79.4714 55.1988 94.6161 55.1988Z" fill="#2D986C"/>
    <path d="M96.7093 54.9881C108.848 54.9881 118.689 44.1406 118.689 30.7596C118.689 17.3786 108.848 6.53113 96.7093 6.53113C84.5704 6.53113 74.7299 17.3786 74.7299 30.7596C74.7299 44.1406 84.5704 54.9881 96.7093 54.9881Z" fill="#61C08B"/>
    <path d="M100.896 46.5609C106.329 46.5609 110.734 41.7503 110.734 35.8161C110.734 29.8819 106.329 25.0713 100.896 25.0713C95.4623 25.0713 91.0575 29.8819 91.0575 35.8161C91.0575 41.7503 95.4623 46.5609 100.896 46.5609Z" fill="#080707"/>
    <!-- Right Eye -->
    <path d="M165.578 55.1988C180.723 55.1988 193 42.8421 193 27.5994C193 12.3567 180.723 0 165.578 0C150.433 0 138.156 12.3567 138.156 27.5994C138.156 42.8421 150.433 55.1988 165.578 55.1988Z" fill="#2D986C"/>
    <path d="M161.182 54.9881C173.321 54.9881 183.162 44.1406 183.162 30.7596C183.162 17.3786 173.321 6.53113 161.182 6.53113C149.043 6.53113 139.203 17.3786 139.203 30.7596C139.203 44.1406 149.043 54.9881 161.182 54.9881Z" fill="#61C08B"/>
    <path d="M157.205 48.6677C162.639 48.6677 167.043 43.8571 167.043 37.9229C167.043 31.9887 162.639 27.1781 157.205 27.1781C151.771 27.1781 147.367 31.9887 147.367 37.9229C147.367 43.8571 151.771 48.6677 157.205 48.6677Z" fill="#080707"/>
  </g>
  <defs>
    <clipPath id="clip0_9_195">
      <rect width="193" height="71" fill="white"/>
    </clipPath>
  </defs>
</svg>
