<svg width="181" height="312" viewBox="0 0 181 312" fill="none" xmlns="http://www.w3.org/2000/svg">
<g clip-path="url(#clip0_114_4643)">
<g opacity="0.9">
<path d="M99.9095 165.996C73.7895 167.124 53.1309 157.803 39.9521 134.47C34.6688 138.566 29.0886 137.438 25.7642 131.739C24.2207 129.126 23.6271 126.217 23.5084 123.248C23.0928 112.621 23.9833 102.231 28.8511 92.5531C29.5041 91.3063 29.326 90.0594 29.326 88.8126C29.326 78.0069 30.3352 67.32 34.9062 57.4048C44.1076 37.5746 59.8983 25.5814 81.2099 21.2473C87.7399 19.9411 94.8042 21.1285 101.631 20.891C113.504 20.5348 124.427 23.8596 134.815 29.1437C149.063 36.3278 155.889 48.3803 156.839 63.9951C157.492 75.2164 154.94 86.0815 152.981 97.006C151.912 102.943 151.081 108.88 151.497 114.877C150.428 113.927 150.309 112.68 150.309 111.374C150.369 108.049 150.606 104.724 150.784 101.4C151.437 91.7219 153.99 82.4005 154.702 72.7228C155.296 65.1232 155.236 57.6423 152.328 50.5177C151.259 47.8459 150.309 44.7586 147.341 43.2743C145.382 40.7213 143.601 37.9902 140.752 36.2684C139.861 35.5559 138.971 34.7841 137.962 34.131C127.692 27.3626 116.175 24.2159 103.887 23.1472C89.224 21.841 75.3923 24.2752 62.451 31.103C52.1217 36.6246 44.4638 44.7586 40.0115 55.683C39.4179 55.9205 39.4772 56.4549 39.4772 56.9299L39.3585 56.9892V57.1673C38.5274 58.5329 37.9931 60.0766 37.7557 61.6796C37.6369 62.0358 37.5182 62.3921 37.3995 62.8077C36.9839 63.1639 37.0433 63.6389 37.162 64.0545C37.1027 64.4107 37.0433 64.7076 36.9839 65.0638C36.8652 65.3013 36.7465 65.5388 36.6278 65.7763C36.509 66.7262 36.3903 67.7356 36.2716 68.6855C35.6186 72.6041 35.1437 76.5226 35.3218 80.5005C35.3218 81.0349 35.203 81.8067 36.0341 81.8661C36.9839 81.9848 37.162 81.3318 37.1027 80.5599C37.0433 79.9662 37.0433 79.3725 36.9839 78.7788C36.9839 78.185 36.9839 77.5913 36.9839 77.057C36.9839 74.1477 38.0525 71.476 38.8836 68.8043C39.0023 68.6261 39.1804 68.3887 39.2991 68.2105C40.4864 66.2513 41.8518 64.5295 43.6327 63.1045C49.391 58.5329 58.3549 56.9299 62.6291 65.2419C62.5697 65.6575 62.6291 66.0138 63.0446 66.1919C63.104 67.2606 63.1633 68.2699 63.2821 69.3386C63.0446 69.873 63.4602 70.5261 62.8665 70.9417C61.5605 62.3921 51.8249 59.5422 46.0072 65.1232C41.1394 69.8136 40.0709 75.5133 40.902 82.0442C41.3175 85.2503 43.692 87.7439 43.5733 91.0094C41.9111 91.6625 41.3769 90.2376 40.5458 89.4063C40.427 89.2282 40.2489 89.0501 40.1302 88.8126C39.8928 88.397 39.6553 88.0408 39.4179 87.6252C39.4772 87.269 39.2991 87.0908 38.9429 86.9721C38.9429 86.794 38.9429 86.6159 38.8242 86.4378C38.8836 86.0815 38.7055 85.844 38.4087 85.7253C38.468 85.5472 38.4087 85.3691 38.2899 85.2503C38.0525 84.3004 37.8744 83.4098 37.6369 82.4598C37.4589 81.8067 37.1027 81.4505 36.3903 81.5099C35.6779 81.5692 35.3811 81.9848 35.3811 82.6379C35.3811 83.291 35.4405 84.0035 35.4405 84.6566C35.4405 85.6659 35.4405 86.6159 35.4405 87.6252C35.4405 89.2282 35.4405 90.7719 35.4405 92.375C35.4405 92.5531 35.4405 92.7312 35.4405 92.9687C35.3218 94.1561 35.3218 95.4029 35.856 96.531C35.7967 97.1247 35.7967 97.7184 35.7373 98.3122C34.1345 98.3122 35.203 96.4716 34.1345 95.9373C33.9564 102.824 34.3126 109.652 35.1437 116.421C35.4999 119.449 36.6871 122.417 35.9748 125.505C32.2348 116.421 30.4539 106.862 29.6822 96.2341C27.0108 104.19 25.8236 111.493 25.5861 118.974C24.9925 120.814 24.5176 122.714 24.5769 124.673C24.8144 132.689 30.4539 136.37 37.5776 133.164C39.5959 132.273 40.9613 132.392 42.2673 134.41C44.4638 137.913 46.5415 141.416 49.3316 144.563C56.1584 152.222 64.7068 156.912 74.4425 159.822C75.9859 160.297 77.47 161.484 79.1916 160.356C83.2877 161.306 87.3838 162.434 91.5986 162.85C91.0049 163.681 89.877 162.968 89.0459 163.799C90.4707 164.096 91.836 164.096 93.0233 164.571C95.2791 165.521 97.8911 164.215 99.9095 165.996Z" fill="#191819"/>
<path d="M153.99 117.607C156.305 118.32 158.442 117.785 160.579 116.836C163.547 115.529 166.337 115.648 168.831 117.845C171.264 119.982 171.977 122.773 171.264 125.86C169.899 131.975 166.693 137.141 162.36 141.534C150.19 153.884 135.053 160.533 118.253 163.918C117.481 164.096 116.709 164.155 115.938 164.333C116.116 163.443 116.828 163.502 117.481 163.264C120.271 162.315 123.002 161.246 125.792 160.236C126.801 159.88 127.039 159.405 126.029 158.752C126.267 158.693 126.445 158.693 126.682 158.633C126.86 158.515 127.039 158.396 127.217 158.337C127.395 158.277 127.573 158.158 127.751 158.099C139.149 154.359 149.537 149.075 157.433 139.694C158.383 139.813 159.154 139.575 159.807 138.863C163.013 135.181 165.981 131.263 167.287 126.454C167.881 124.316 167.999 122.001 166.753 119.923C165.684 118.142 164.081 117.785 162.775 118.973C161.766 119.389 160.757 119.745 159.748 120.16C156.958 120.576 154.168 121.17 151.556 119.389C152.446 118.914 153.693 118.914 153.99 117.607Z" fill="#191819"/>
<path d="M153.991 117.609C153.753 118.974 152.447 118.915 151.557 119.39C150.726 119.152 150.191 118.499 149.657 117.906C147.639 113.69 148.173 109.059 148.767 104.903C150.251 94.7505 151.735 84.5386 152.625 74.3266C153.575 63.6396 152.269 53.1901 147.342 43.4531C150.369 44.9374 151.26 47.9654 152.328 50.6965C155.237 57.8212 155.237 65.2427 154.703 72.9016C153.991 82.5793 151.438 91.9007 150.785 101.578C150.547 104.903 150.369 108.228 150.31 111.553C150.31 112.859 150.429 114.106 151.497 115.056C152.15 115.946 152.744 117.074 153.991 117.609Z" fill="#1E2536"/>
<path d="M126.029 158.752C127.038 159.405 126.8 159.88 125.791 160.236C123.001 161.246 120.27 162.314 117.48 163.264C116.827 163.502 116.115 163.442 115.937 164.333C110.653 165.402 105.311 165.936 99.9085 165.995C97.8901 164.214 95.2781 165.52 93.0223 164.63C91.835 164.155 90.4697 164.095 89.0449 163.858C89.876 163.027 91.0039 163.739 91.5976 162.908C92.7848 162.908 94.0315 162.671 95.1 163.383C94.3877 163.62 93.4972 163.086 92.6067 163.977C96.5248 163.977 100.146 163.977 103.767 163.977C104.598 163.977 105.607 164.155 105.845 162.908C106.26 162.908 106.676 162.908 107.032 162.908C108.338 163.383 109.703 164.214 110.594 162.314C111.01 162.314 111.366 162.314 111.781 162.314C112.316 162.849 112.909 163.027 113.562 162.492C113.325 162.374 113.087 162.314 112.85 162.196C117.243 161.008 121.636 159.88 126.029 158.752Z" fill="#1E2536"/>
<path d="M149.657 117.905C150.191 118.498 150.726 119.151 151.557 119.389C154.169 121.17 156.959 120.576 159.749 120.161C157.196 124.792 153.991 129.067 150.31 132.866C138.437 145.334 123.122 150.084 106.44 150.915C95.9924 151.45 85.9006 149.312 76.1649 145.572C68.4476 142.663 61.4427 138.625 55.3876 132.926C47.1954 125.326 41.734 116.005 38.1721 105.496C37.8753 104.605 37.994 103.18 36.4506 103.062C36.035 102.112 35.9163 101.162 36.035 100.152C36.3912 100.093 36.8661 100.034 36.8661 99.5587C36.8661 99.0837 36.3912 99.0243 36.035 98.9649C35.9757 98.7868 35.857 98.5493 35.7976 98.3712C35.857 97.7775 35.857 97.1838 35.9163 96.5901C37.2223 94.512 36.2725 92.2559 36.51 90.0591C36.6287 89.1686 36.8661 87.9811 35.4414 87.7436C35.4414 86.7343 35.4414 85.7843 35.4414 84.775C36.3912 84.9531 37.2817 85.1906 38.2315 85.3687C38.3502 85.4875 38.4096 85.6656 38.3502 85.8437C38.469 86.0812 38.647 86.3187 38.7658 86.5562C38.8845 86.7343 38.9439 86.853 38.8845 87.0905C39.0626 87.328 39.1813 87.5061 39.3594 87.7436C39.5969 88.1592 39.8343 88.5155 40.0718 88.9311C40.1905 89.1092 40.3686 89.2873 40.4873 89.5248C41.3184 90.356 41.8527 91.8403 43.5149 91.1278C47.1954 95.9963 55.5657 96.1151 59.6024 91.6622C63.6392 87.2093 66.0731 74.8599 63.5204 69.5164C63.5204 69.457 63.3424 69.457 63.2236 69.457C63.1643 68.3883 63.1049 67.379 62.9862 66.3103C62.8674 66.0135 62.6894 65.6572 62.5706 65.3604C58.2371 57.0483 49.3325 58.6513 43.5742 63.223C41.7933 64.6479 40.428 66.4291 39.2407 68.329C39.122 68.5071 38.9439 68.7446 38.8251 68.9227C37.9347 69.8726 37.0442 70.407 36.2131 68.8633C36.3319 67.9134 36.4506 66.904 36.5693 65.9541C36.688 65.7166 36.8068 65.4791 36.9255 65.2416C36.9849 64.8854 37.0442 64.5885 37.1036 64.2323C38.1128 63.9948 38.469 63.6386 37.341 62.9855C37.4598 62.6293 37.5785 62.273 37.6972 61.8574C39.5969 60.8481 39.4188 59.0669 39.3 57.3451V57.167L39.4188 57.1077C39.8937 56.8108 39.953 56.3358 39.953 55.8608C44.4053 44.9364 52.0632 36.7431 62.3925 31.2808C75.3932 24.2156 89.2843 21.8407 103.888 23.1469C116.176 24.2156 127.693 27.3623 138.022 34.2494C138.972 34.9025 139.862 35.6744 140.812 36.3868C140.753 37.5149 141.109 38.4055 141.762 39.4148C144.018 42.9771 146.095 46.6582 146.867 50.8736C148.351 58.7701 148.351 66.6072 147.461 74.563C146.392 83.8844 144.077 93.0277 143.543 102.409C143.305 106.98 143.721 111.433 145.739 115.53C146.392 116.777 147.164 119.033 149.657 117.905ZM117.838 129.067C117.779 128.71 117.72 128.295 117.66 127.938C117.66 127.701 117.601 127.523 117.601 127.285C116.117 119.686 116.117 111.789 113.98 104.308C113.327 104.546 113.445 104.962 113.445 105.318C113.92 114.639 114.276 123.961 114.929 133.282C115.108 135.894 115.879 138.566 118.907 139.575C119.085 139.635 119.322 139.754 119.5 139.813C121.281 143.256 122.944 144.088 126.03 142.9C130.78 141.06 134.282 137.854 136.953 133.46C140.753 127.167 140.515 120.161 141.406 113.274C141.524 112.442 141.049 112.027 140.218 111.908C140.218 108.88 140.753 105.852 139.684 102.883C139.565 102.527 139.328 102.112 139.031 102.052C138.378 101.874 138.2 102.527 138.141 102.943C137.784 104.546 137.547 106.208 137.25 107.811C136.716 108.643 136.004 109.355 135.647 110.246C133.273 115.767 129.948 120.695 126.505 125.623C124.19 128.829 121.756 130.491 117.838 129.067ZM86.2567 71.7725C85.4257 71.9507 84.832 72.1288 85.7818 72.96C85.7818 73.5537 85.7818 74.0881 85.7225 74.6818C84.7726 75.3942 84.6539 76.4629 84.4165 77.5316C83.4073 82.2814 84.4758 86.6156 86.8504 90.7122C90.7684 97.54 98.7825 102.29 106.797 96.4119C108.637 96.4119 109.527 95.0464 110.418 93.8589C115.286 87.5655 115.286 77.9472 110.477 71.4757C104.897 63.9354 92.0744 62.4511 86.8504 70.5851C86.6723 70.882 86.5536 71.1788 86.3755 71.4163C86.4348 71.5944 86.4348 71.7132 86.2567 71.7725ZM69.3974 98.1931C69.0413 101.459 68.7444 104.783 69.6943 108.049C70.2285 109.83 70.5254 111.73 72.9593 112.027C75.3338 112.324 76.8773 111.255 78.0646 109.296C79.8455 106.327 80.5578 103.18 80.3797 99.7961C80.3204 99.1431 80.6172 98.3118 79.608 98.1931C78.6582 98.0744 78.6582 98.9056 78.4801 99.5587C77.649 102.112 77.1741 104.843 75.6306 107.158C74.9776 108.168 74.1465 109.118 72.7812 108.821C71.5939 108.583 71.1784 107.574 70.8222 106.505C69.8724 103.833 70.466 100.924 69.3974 98.1931ZM106.618 53.5453C112.021 56.2765 112.021 56.2765 115.345 61.9168C115.582 62.3324 115.879 62.9261 116.354 62.6293C116.948 62.273 117.126 61.5606 117.126 60.8481C117.185 56.3952 111.486 52.1798 106.618 53.5453ZM47.6703 54.4359C49.9855 50.8736 52.6569 49.1518 56.1593 48.7362C56.8717 48.6768 57.7622 48.4393 57.7028 47.6675C57.6434 46.7769 56.6936 46.955 56.0406 46.8957C52.3007 46.7176 48.6202 49.7455 47.6703 54.4359Z" fill="#F2F9FD"/>
<path d="M36.4492 103.062C37.9927 103.181 37.8739 104.547 38.1708 105.497C41.7326 116.006 47.1941 125.268 55.3863 132.927C61.4414 138.567 68.5056 142.604 76.1636 145.573C85.8992 149.254 96.0504 151.391 106.439 150.916C123.12 150.085 138.436 145.335 150.309 132.867C153.93 129.067 157.136 124.793 159.748 120.162C160.757 119.746 161.766 119.39 162.775 118.974C165.506 119.984 166.218 121.29 165.447 124.615C164.141 130.374 160.638 135.005 157.373 139.695C149.478 149.076 139.089 154.36 127.691 158.1C127.513 158.16 127.335 158.278 127.157 158.338C126.979 158.457 126.801 158.575 126.623 158.635C126.385 158.694 126.207 158.694 125.97 158.753C121.577 159.882 117.184 161.01 112.791 162.138C112.435 162.197 112.079 162.197 111.722 162.256C111.307 162.256 110.951 162.256 110.535 162.256C109.348 162.435 108.161 162.672 106.973 162.85C106.558 162.85 106.142 162.85 105.786 162.85C102.224 163.503 98.6624 163.384 95.0412 163.325C93.9727 162.553 92.726 162.85 91.5388 162.85C87.3239 162.494 83.2278 161.306 79.1317 160.357C78.7162 160.178 78.3007 159.882 77.8257 159.763C51.1121 150.204 39.18 131.145 36.4492 103.062Z" fill="#C1CEE1"/>
<path d="M63.2821 69.3979C63.4008 69.3979 63.5196 69.3979 63.5789 69.4573C66.0722 74.8008 63.6977 87.2095 59.6609 91.603C55.5648 96.0559 47.2539 95.9372 43.5734 91.0687C43.6921 87.8032 41.3175 85.3096 40.902 82.1035C40.0709 75.632 41.1394 69.8729 46.0073 65.1825C51.8249 59.5421 61.5606 62.4514 62.8666 71.0009C63.4602 70.5853 63.0447 69.9322 63.2821 69.3979ZM60.1952 81.8067C60.1952 81.0348 60.3139 80.263 60.1952 79.4911C59.6016 75.632 55.268 73.3165 52.2998 75.2757C48.4412 77.7694 48.1444 85.7252 51.8249 88.5157C53.6652 89.8813 55.5648 89.7625 57.4051 88.397C59.6609 86.7345 60.492 84.4784 60.1952 81.8067Z" fill="#FEFFFF"/>
<path d="M149.656 117.905C147.162 119.092 146.331 116.776 145.738 115.53C143.719 111.433 143.244 107.039 143.541 102.408C144.075 93.0276 146.391 83.8843 147.459 74.5629C148.35 66.6071 148.29 58.77 146.865 50.8735C146.094 46.5987 144.016 42.977 141.76 39.4147C141.167 38.4647 140.751 37.5148 140.81 36.3867C143.66 38.1085 145.381 40.8396 147.4 43.3926C152.327 53.1296 153.633 63.5791 152.683 74.2661C151.793 84.4781 150.309 94.69 148.824 104.843C148.171 109.058 147.637 113.689 149.656 117.905Z" fill="#C1CEE1"/>
<path d="M36.4493 103.061C39.18 131.144 51.1715 150.202 77.9445 159.761C78.4194 159.939 78.835 160.177 79.2505 160.355C77.529 161.483 76.0449 160.296 74.5014 159.821C64.7658 156.911 56.2174 152.221 49.3906 144.562C46.6005 141.475 44.5227 137.912 42.3263 134.409C41.0203 132.331 39.6549 132.213 37.6365 133.163C30.5129 136.369 24.8733 132.688 24.6359 124.672C24.5765 122.713 25.0514 120.813 25.6451 118.973C25.7044 119.566 25.7638 120.16 25.8232 120.754C25.5263 123.841 26.0012 126.81 27.6041 129.482C29.0288 131.916 31.1659 133.4 34.1341 133.222C37.0429 133.044 38.2895 131.025 37.1023 128.353C36.6867 127.344 36.2118 126.394 35.7963 125.385L35.9744 125.444C36.6867 122.357 35.4994 119.329 35.1433 116.36C34.3122 109.592 33.956 102.764 34.1341 95.877C35.2026 96.4113 34.1341 98.1925 35.7369 98.2518C35.7963 98.4299 35.915 98.6674 35.9744 98.8456C35.9744 99.2612 35.9744 99.6174 35.9744 100.033C35.915 101.102 36.0337 102.111 36.4493 103.061Z" fill="#1E2536"/>
<path d="M25.8246 120.755C25.7652 120.161 25.7058 119.568 25.6465 118.974C25.8246 111.493 27.0712 104.131 29.7426 96.2344C30.5143 106.862 32.2359 116.421 36.0351 125.505L35.857 125.445C35.5009 125.564 35.0853 125.683 34.7885 125.861C30.9892 127.939 28.8521 127.167 27.368 123.13C26.9525 122.299 26.8338 121.23 25.8246 120.755Z" fill="#F2F9FD"/>
<path d="M36.2727 68.7441C37.1038 70.2878 37.9943 69.7535 38.8847 68.8035C38.0536 71.5346 36.9851 74.147 36.9851 77.0562C36.3321 77.6499 36.3321 78.2437 36.9851 78.778C37.0444 79.3717 37.0444 79.9654 37.1038 80.5592C37.1632 81.331 36.9851 81.9841 36.0353 81.8654C35.2042 81.7466 35.3823 81.0341 35.3229 80.4998C35.1448 76.5812 35.6197 72.6627 36.2727 68.7441Z" fill="#FEFFFF"/>
<path d="M35.3815 87.6836C36.8062 87.9805 36.5094 89.1679 36.45 89.9991C36.2126 92.1959 37.1624 94.452 35.8564 96.53C35.3221 95.402 35.3221 94.2145 35.4408 92.9677C35.5002 92.9083 35.6189 92.849 35.6189 92.7896C35.5596 92.6708 35.5002 92.4927 35.4408 92.374C35.3815 90.8897 35.3815 89.2866 35.3815 87.6836Z" fill="#FEFFFF"/>
<path d="M38.1717 85.3691C37.2219 85.191 36.3314 84.9535 35.3816 84.7754C35.3816 84.1223 35.3223 83.4099 35.3223 82.7568C35.3223 82.1037 35.5597 81.6287 36.3314 81.6287C37.0438 81.5693 37.4 81.9849 37.5781 82.5786C37.7562 83.4692 37.9936 84.4192 38.1717 85.3691Z" fill="#FEFFFF"/>
<path d="M39.3587 57.168C39.4774 58.8898 39.6555 60.6709 37.7559 61.6802C37.934 60.0772 38.4682 58.5929 39.3587 57.168Z" fill="#FEFFFF"/>
<path d="M37.4003 62.8086C38.5282 63.4617 38.172 63.8179 37.1628 64.0554C37.0441 63.6398 37.0441 63.1648 37.4003 62.8086Z" fill="#FEFFFF"/>
<path d="M36.9839 78.839C36.3309 78.2453 36.3309 77.6515 36.9839 77.1172C36.9839 77.6515 36.9839 78.2453 36.9839 78.839Z" fill="#F2F9FD"/>
<path d="M40.0105 55.7422C40.0105 56.2172 39.9512 56.6921 39.4763 56.989C39.4763 56.4546 39.4169 55.9797 40.0105 55.7422Z" fill="#FEFFFF"/>
<path d="M40.4859 89.4648C40.3671 89.2867 40.189 89.1086 40.0703 88.8711C40.189 89.0492 40.3078 89.2867 40.4859 89.4648Z" fill="#FEFFFF"/>
<path d="M39.3577 87.6843C39.1796 87.4469 39.0609 87.2687 38.8828 87.0312C39.1796 87.15 39.4171 87.3281 39.3577 87.6843Z" fill="#FEFFFF"/>
<path d="M38.7652 86.4976C38.6464 86.2601 38.4683 86.0226 38.3496 85.7852C38.6464 85.9039 38.8245 86.1414 38.7652 86.4976Z" fill="#FEFFFF"/>
<path d="M38.8828 68.8047C39.0015 68.6265 39.1796 68.3891 39.2984 68.2109C39.1203 68.4484 39.0015 68.6265 38.8828 68.8047Z" fill="#FEFFFF"/>
<path d="M62.6298 65.2422C62.7485 65.539 62.9266 65.8953 63.0454 66.1921C62.6892 66.014 62.5704 65.6578 62.6298 65.2422Z" fill="#FEFFFF"/>
<path d="M36.9831 65.0645C36.8644 65.3019 36.7457 65.5394 36.627 65.7769C36.7457 65.5394 36.8644 65.3019 36.9831 65.0645Z" fill="#FEFFFF"/>
<path d="M35.3809 92.4336C35.4402 92.5523 35.559 92.6711 35.559 92.8492C35.559 92.9086 35.4402 92.9679 35.3809 93.0273C35.4402 92.8492 35.3809 92.6117 35.3809 92.4336Z" fill="#F2F9FD"/>
<path d="M157.434 139.694C160.699 134.944 164.201 130.373 165.507 124.614C166.279 121.289 165.566 119.983 162.836 118.973C164.142 117.786 165.685 118.142 166.813 119.923C168.06 122.001 167.882 124.317 167.347 126.454C166.101 131.263 163.132 135.182 159.867 138.863C159.155 139.575 158.324 139.813 157.434 139.694Z" fill="#1E2536"/>
<path d="M126.684 158.635C126.862 158.516 127.04 158.397 127.218 158.338C127.04 158.457 126.862 158.516 126.684 158.635Z" fill="#1E2536"/>
<path d="M95.1612 163.383C98.7231 163.383 102.344 163.502 105.906 162.908C105.669 164.155 104.719 163.977 103.828 163.977C100.207 163.977 96.586 163.977 92.668 163.977C93.5584 163.027 94.4489 163.561 95.1612 163.383Z" fill="#191819"/>
<path d="M107.092 162.85C108.279 162.671 109.466 162.434 110.654 162.256C109.704 164.156 108.338 163.325 107.092 162.85Z" fill="#191819"/>
<path d="M111.781 162.255C112.137 162.196 112.494 162.196 112.85 162.137C113.087 162.255 113.325 162.315 113.562 162.434C112.969 162.968 112.375 162.79 111.781 162.255Z" fill="#191819"/>
<path d="M106.855 96.4128C98.8406 102.231 90.8265 97.5408 86.9084 90.7131C84.5933 86.6164 83.4654 82.2822 84.4745 77.5325C84.712 76.4638 84.8307 75.3951 85.7805 74.6826C85.9586 74.5045 86.1367 74.267 86.3148 74.0889C89.4611 69.2204 93.9727 66.608 99.6717 67.2611C105.667 67.9736 109.229 71.8921 110.891 77.5325C112.732 83.7072 110.298 88.9913 107.27 94.1566C106.855 94.8691 106.083 95.4034 106.855 96.4128ZM93.4385 85.5477C93.4385 86.1414 93.4385 86.7351 93.5572 87.3289C94.0321 90.1193 95.5756 92.1974 98.3657 92.9098C100.8 93.5035 102.462 91.9005 103.649 90.06C105.489 87.2695 105.074 82.3416 102.937 79.9073C100.8 77.4137 97.0597 77.77 95.0413 80.5011C93.854 82.0447 93.4385 83.7072 93.4385 85.5477Z" fill="#FEFFFF"/>
<path d="M117.599 127.287C117.599 127.524 117.659 127.702 117.659 127.94C116.768 128.949 117.184 130.077 117.243 131.205C117.243 131.74 117.599 131.324 117.718 131.146C117.837 130.968 117.837 130.79 117.896 130.611C118.074 131.383 118.193 132.155 118.371 132.868C118.846 135.717 120.093 136.43 122.289 134.53C130.362 127.405 136.24 118.915 137.308 107.813C137.605 106.21 137.842 104.547 138.199 102.944C138.258 102.529 138.495 101.875 139.089 102.054C139.386 102.113 139.623 102.588 139.742 102.885C140.81 105.853 140.217 108.881 140.276 111.909C140.098 112.444 139.861 112.978 139.801 113.572C137.961 123.19 133.806 131.443 125.791 137.499C123.951 138.924 121.992 139.874 119.618 139.814C119.44 139.755 119.202 139.636 119.024 139.577C118.312 137.558 116.115 136.311 116.115 133.996C116.115 131.858 115.878 129.721 115.581 127.584C115.284 125.624 115.522 123.546 115.522 121.528C116.471 123.427 115.581 125.802 117.599 127.287Z" fill="#1E2536"/>
<path d="M119.5 139.813C121.875 139.872 123.834 138.863 125.674 137.498C133.688 131.442 137.843 123.189 139.684 113.571C139.802 113.036 140.04 112.502 140.159 111.908C140.99 112.027 141.465 112.443 141.346 113.274C140.455 120.102 140.693 127.167 136.894 133.46C134.282 137.854 130.779 141.06 125.971 142.9C122.943 144.088 121.281 143.257 119.5 139.813Z" fill="#C1CEE1"/>
<path d="M106.855 96.4121C106.083 95.4621 106.855 94.8684 107.33 94.0965C110.357 88.9906 112.791 83.6471 110.951 77.4724C109.289 71.832 105.667 67.9135 99.731 67.201C93.9727 66.5479 89.461 69.1603 86.3741 74.0288C86.2554 74.2663 86.0179 74.4444 85.8398 74.6225C85.8398 74.0288 85.8398 73.4945 85.8992 72.9007C86.4928 72.6632 86.3741 72.1289 86.3741 71.7133C86.5522 71.6539 86.6116 71.5352 86.4928 71.4164C86.6709 71.1196 86.7897 70.8227 86.9678 70.5852C92.2511 62.4513 105.014 63.9356 110.595 71.4758C115.403 77.9474 115.403 87.5063 110.535 93.8591C109.526 94.9871 108.636 96.4121 106.855 96.4121Z" fill="#191819"/>
<path d="M137.249 107.812C136.18 118.915 130.303 127.405 122.23 134.53C120.033 136.43 118.787 135.777 118.312 132.868C118.193 132.096 118.015 131.324 117.837 130.611C117.837 130.077 117.837 129.602 117.777 129.068C121.695 130.493 124.189 128.83 126.385 125.624C129.828 120.696 133.153 115.768 135.527 110.247C136.002 109.356 136.655 108.584 137.249 107.812Z" fill="#C1CEE1"/>
<path d="M69.396 98.1934C70.4646 100.924 69.8709 103.834 70.8208 106.565C71.1769 107.634 71.5925 108.702 72.7798 108.88C74.1451 109.118 74.9169 108.227 75.6292 107.218C77.1727 104.902 77.5882 102.171 78.4787 99.6183C78.7161 98.9652 78.6568 98.134 79.6066 98.2527C80.6158 98.3715 80.3783 99.2027 80.3783 99.8558C80.5564 103.24 79.844 106.387 78.0631 109.355C76.8759 111.315 75.3324 112.324 72.9579 112.086C70.5239 111.79 70.2271 109.89 69.6928 108.108C68.743 104.784 69.0398 101.459 69.396 98.1934Z" fill="#191819"/>
<path d="M117.599 127.286C115.64 125.801 116.472 123.426 115.403 121.526C115.403 123.545 115.166 125.623 115.462 127.582C115.759 129.72 115.997 131.857 115.997 133.995C115.997 136.31 118.193 137.557 118.905 139.576C115.878 138.566 115.106 135.954 114.928 133.282C114.334 123.961 113.919 114.639 113.444 105.318C113.444 104.962 113.325 104.546 113.978 104.309C116.115 111.789 116.056 119.686 117.599 127.286Z" fill="#191819"/>
<path d="M106.617 53.5453C111.485 52.1797 117.184 56.3358 117.125 60.848C117.125 61.6199 116.946 62.3323 116.353 62.6292C115.819 62.926 115.581 62.2729 115.344 61.9167C112.019 56.2764 112.019 56.2764 106.617 53.5453Z" fill="#191819"/>
<path d="M47.6699 54.4353C48.6791 49.7449 52.3003 46.717 56.0402 46.9544C56.6932 47.0138 57.643 46.8357 57.7024 47.7263C57.7618 48.4981 56.9307 48.6762 56.1589 48.795C52.6565 49.1512 49.9851 50.873 47.6699 54.4353Z" fill="#191819"/>
<path d="M117.838 129.068C117.838 129.602 117.838 130.077 117.897 130.611C117.838 130.789 117.838 130.967 117.719 131.146C117.6 131.324 117.303 131.739 117.244 131.205C117.185 130.136 116.769 128.949 117.66 127.939C117.719 128.296 117.778 128.652 117.838 129.068Z" fill="#191819"/>
<path d="M35.9746 100.094C35.9746 99.6781 35.9746 99.3219 35.9746 98.9062C36.3308 98.9656 36.8057 99.025 36.8057 99.5C36.8057 99.975 36.3902 100.034 35.9746 100.094Z" fill="#FEFFFF"/>
<path d="M86.2554 71.7734C86.2554 72.2484 86.3741 72.7234 85.7805 72.9609C84.7713 72.1297 85.4243 71.8922 86.2554 71.7734Z" fill="#FEFFFF"/>
<path d="M86.8499 70.5859C86.6718 70.8828 86.5531 71.1797 86.375 71.4172C86.5531 71.1203 86.7312 70.8828 86.8499 70.5859Z" fill="#FEFFFF"/>
<path d="M60.1959 81.8065C60.4928 84.4783 59.6617 86.7344 57.4058 88.3968C55.5656 89.7624 53.6659 89.8811 51.8257 88.5156C48.1451 85.7251 48.4419 77.7692 52.3006 75.2756C55.2687 73.3163 59.6023 75.5725 60.1959 79.491C60.3147 80.2629 60.1959 81.0347 60.1959 81.8065Z" fill="#191819"/>
<path d="M25.8242 120.754C26.8928 121.229 26.9521 122.298 27.3083 123.188C28.7924 127.225 30.9295 127.997 34.7288 125.919C35.085 125.741 35.4411 125.622 35.7973 125.504C36.2129 126.513 36.6878 127.463 37.1033 128.472C38.2906 131.144 37.1033 133.103 34.1351 133.341C31.167 133.519 29.0299 131.975 27.6051 129.6C26.0023 126.869 25.468 123.901 25.8242 120.754Z" fill="#C1CEE1"/>
<path d="M93.4385 85.5463C93.3792 83.7057 93.8541 81.9839 94.982 80.4403C97.0004 77.7091 100.74 77.3529 102.877 79.8465C105.014 82.2808 105.43 87.268 103.59 89.9992C102.343 91.8397 100.74 93.4427 98.3064 92.849C95.5756 92.1366 94.0322 90.0585 93.4979 87.268C93.4385 86.7337 93.4979 86.14 93.4385 85.5463Z" fill="#191819"/>
</g>
<path d="M142.77 172.536C143.304 165.767 143.897 161.433 144.55 160.839C148.409 157.336 87.027 152.824 87.027 152.824L49.0343 154.902L31.9375 158.405L32.5905 171.526C51.4088 178.71 95.8129 191.357 142.77 172.536Z" fill="#2D614B"/>
<path d="M147.222 177.464C147.4 175.089 147.578 172.714 147.934 170.339C148.112 169.033 148.231 167.608 148.706 166.361C148.587 166.717 148.468 167.074 148.35 167.37C148.409 167.192 148.528 166.955 148.647 166.777C148.409 167.014 148.172 167.192 147.994 167.43C148.765 166.717 148.943 166.658 149.181 165.53C149.537 163.927 149.062 162.146 148.528 160.661C147.637 157.99 145.916 155.377 143.482 153.834C142.117 152.943 140.573 152.587 139.03 152.171C135.112 151.162 131.016 150.687 127.038 150.153C121.636 149.44 116.175 148.846 110.773 148.312C105.667 147.778 100.503 147.303 95.3973 146.887C92.1917 146.59 88.986 146.353 85.7804 146.115C84.3557 145.997 82.9903 146.115 81.6249 146.175C76.7571 146.471 71.8893 146.709 66.9621 147.006C61.7381 147.303 56.5734 147.6 51.3494 147.837C49.9841 147.896 48.5593 148.015 47.194 148.075C46.2441 148.134 45.2943 148.371 44.3445 148.55C39.536 149.559 34.7276 150.509 29.9191 151.518C29.5036 151.577 29.1474 151.696 28.7318 151.756C27.7227 151.993 27.5446 154.13 27.6039 154.784C27.782 158.583 28.0195 162.443 28.1976 166.242C28.1976 166.777 28.2569 167.37 28.2569 167.905C28.3757 170.042 29.2068 172.061 30.2753 173.901C31.1658 175.445 32.4124 177.345 34.1933 177.998C39.0018 179.839 43.929 181.442 48.9155 182.867C55.03 184.588 61.2038 186.013 67.4964 187.023C74.9168 188.269 82.456 188.982 89.9952 189.16C98.4249 189.338 106.855 188.804 115.165 187.557C124.604 186.132 133.865 183.817 142.829 180.492C143.957 180.076 145.144 179.601 146.272 179.185C147.281 178.77 147.4 176.989 147.4 176.158C147.341 174.495 146.688 172.476 145.916 171.052C145.085 169.508 144.076 167.845 142.651 166.836C141.76 166.183 140.692 165.53 139.564 166.005C131.253 169.33 122.645 171.823 113.859 173.486C114.156 173.426 114.453 173.367 114.75 173.308C104.421 175.208 93.9132 175.979 83.4058 175.623C74.3232 175.326 65.2999 174.258 56.4547 172.417C52.2399 171.586 48.0251 170.517 43.929 169.33C44.2851 169.448 44.6413 169.508 44.9975 169.627C40.4265 168.32 35.8555 166.836 31.4032 165.114C33.3622 168.499 35.3212 171.823 37.3396 175.208C37.1615 171.408 36.924 167.549 36.7459 163.749C36.7459 163.214 36.6866 162.621 36.6866 162.086C36.3304 163.096 35.9149 164.105 35.5587 165.114C40.5452 164.105 45.5318 163.096 50.5183 162.086C51.2307 161.968 51.9431 161.789 52.6554 161.671C52.3586 161.73 52.0618 161.789 51.765 161.849C57.4045 161.552 63.0441 161.255 68.6836 160.899C75.5105 160.543 82.3373 160.127 89.1641 159.771C89.9359 159.711 90.6482 159.83 91.3606 159.89C93.7945 160.068 96.2284 160.246 98.6623 160.483C106.558 161.136 114.453 161.849 122.348 162.739C129.353 163.511 136.477 164.164 143.423 165.767C143.957 165.886 144.432 166.005 144.966 166.183C144.61 166.064 144.254 166.005 143.897 165.886C144.61 166.064 145.322 166.302 145.916 166.658C145.56 166.421 145.144 166.183 144.788 165.946C145.619 166.48 143.66 164.817 143.897 165.055C142.888 163.986 142.117 162.561 141.464 161.196C140.929 159.949 140.336 158.465 140.395 157.158C140.395 156.683 140.454 156.268 140.454 155.793C140.454 155.852 140.454 155.852 140.454 155.912C140.573 155.555 140.692 155.199 140.811 154.902C140.751 154.962 140.751 155.021 140.692 155.08C140.929 154.843 141.167 154.665 141.345 154.427C140.454 155.259 140.217 155.734 139.861 157.04C139.623 157.812 139.505 158.643 139.386 159.415C138.97 162.205 138.733 164.996 138.495 167.845C138.377 169.508 138.555 170.933 139.148 172.476C139.742 174.198 140.811 176.098 142.057 177.404C142.888 178.236 144.135 179.601 145.382 179.542C146.272 179.245 147.103 178.592 147.222 177.464Z" fill="#060A09"/>
<path d="M32.6504 171.527L38.9429 294.665C38.9429 294.665 119.44 301.611 139.327 295.021C139.327 295.021 140.277 205.251 142.77 172.537C95.8134 191.358 51.4093 178.711 32.6504 171.527Z" fill="#2C8460"/>
<path d="M26.3579 168.024C26.4173 169.152 26.4767 170.22 26.536 171.348C26.7141 174.317 26.8328 177.286 27.0109 180.314C27.2484 184.707 27.4858 189.101 27.6639 193.554C27.9608 198.956 28.1982 204.359 28.495 209.762C28.7918 215.699 29.0887 221.577 29.3855 227.514C29.6823 233.452 29.9791 239.389 30.2759 245.385C30.5728 250.907 30.8696 256.488 31.107 262.009C31.3445 266.7 31.5819 271.45 31.8194 276.14C31.9975 279.524 32.1756 282.908 32.3537 286.233C32.413 287.836 32.4724 289.439 32.5911 291.042C32.5911 291.102 32.5911 291.161 32.5911 291.28C32.7099 293.477 34.7876 295.377 36.331 296.623C38.29 298.226 40.6052 299.533 43.1579 299.77C45.8886 300.008 48.6193 300.186 51.3501 300.423C58.1175 300.898 64.885 301.373 71.6525 301.729C80.3196 302.204 89.046 302.62 97.7131 302.798C106.262 302.976 114.81 303.095 123.358 302.679C126.861 302.501 130.423 302.323 133.925 301.907C136.953 301.551 140.039 301.136 142.948 300.364C143.483 300.245 144.017 300.067 144.492 299.889C145.085 299.651 145.382 299.236 145.442 298.583C145.501 295.495 145.501 292.467 145.56 289.38C145.679 281.662 145.798 273.884 145.916 266.166C146.095 256.013 146.273 245.801 146.569 235.648C146.807 225.199 147.104 214.749 147.519 204.24C147.816 195.691 148.172 187.082 148.766 178.532C148.825 177.701 148.885 176.87 148.944 176.039C149.003 175.029 148.291 173.961 147.697 173.189C146.807 172.001 145.679 170.873 144.432 170.042C143.423 169.33 142.295 168.677 141.167 168.202C140.158 167.786 138.437 167.252 137.309 167.667C127.514 171.586 117.303 174.317 106.855 175.92C107.211 175.861 107.568 175.801 107.864 175.742C96.7039 177.404 85.3061 177.761 74.0864 176.87C71.1775 176.632 68.3281 176.336 65.4193 175.92C65.8348 175.979 66.3097 176.039 66.7253 176.098C60.9076 175.326 55.1493 174.258 49.4504 172.833C47.0165 172.239 44.5232 171.586 42.1487 170.873C41.0208 170.577 39.9522 170.22 38.8243 169.864C38.29 169.686 37.8151 169.567 37.2809 169.389C39.8335 170.22 37.7558 169.567 37.1028 169.33C35.0844 168.617 33.066 167.905 31.0477 167.133C30.0385 166.777 28.3169 166.124 27.189 166.599C26.2392 167.014 26.1205 168.024 26.4173 168.914C26.9516 170.339 28.0795 171.645 29.2074 172.655C30.6321 173.901 32.2349 175.029 34.0159 175.742C39.0024 177.642 44.0483 179.304 49.213 180.789C55.3274 182.51 61.62 183.935 67.9125 184.945C75.6892 186.251 83.5846 187.023 91.4799 187.201C100.206 187.379 108.933 186.785 117.541 185.479C126.742 184.054 135.825 181.798 144.551 178.532C145.679 178.117 146.866 177.642 147.994 177.226C144.136 174.436 140.218 171.645 136.359 168.914C135.706 177.107 135.409 185.36 135.053 193.554C134.637 203.944 134.341 214.334 134.103 224.664C133.866 234.995 133.628 245.326 133.45 255.657C133.331 263.791 133.153 271.925 133.035 279.999C132.975 282.552 132.975 285.105 132.916 287.718C132.916 288.905 132.797 290.092 132.856 291.28C132.856 291.339 132.856 291.399 132.856 291.458C133.153 291.042 133.509 290.567 133.806 290.152C131.729 290.864 129.532 291.28 127.336 291.577C127.692 291.517 128.048 291.458 128.345 291.399C121.874 292.349 115.285 292.645 108.814 292.764C100.859 292.942 92.9047 292.824 85.0093 292.586C77.1139 292.349 69.2779 291.992 61.3825 291.517C55.2681 291.161 49.1536 290.746 43.0391 290.33C40.249 290.092 37.3996 289.855 34.6095 289.677C34.5501 289.677 34.5501 289.677 34.4908 289.677C38.0526 292.527 41.555 295.317 45.1169 298.167C45.0575 297.039 44.9981 295.97 44.9388 294.842C44.7607 291.874 44.642 288.905 44.4639 285.877C44.2264 281.484 43.989 277.09 43.8109 272.637C43.5141 267.234 43.2766 261.831 42.9798 256.429C42.683 250.491 42.3861 244.613 42.0893 238.676C41.7925 232.739 41.4957 226.802 41.1989 220.805C40.902 215.284 40.6052 209.703 40.3678 204.181C40.1303 199.491 39.8929 194.741 39.6554 190.051C39.4773 186.666 39.2992 183.282 39.1211 179.957C39.0618 178.354 39.0024 176.751 38.8837 175.148C38.8837 175.089 38.8837 175.029 38.8837 174.911C38.8243 173.605 37.9932 172.417 37.1621 171.467C35.9749 170.102 34.3127 168.736 32.7099 167.905C31.4039 167.192 29.801 166.361 28.3169 166.48C27.4858 166.599 26.2986 166.895 26.3579 168.024Z" fill="#060A09"/>
<path d="M10.3889 158.76L9.32031 139.227L169.602 140.295L168.89 160.185C168.949 160.126 68.9215 185.24 10.3889 158.76Z" fill="#2D986C"/>
<path d="M15.8504 162.382C15.5536 156.682 15.2568 150.983 14.96 145.283C14.9006 144.452 14.9006 143.68 14.8413 142.849C14.4257 143.561 14.0102 144.274 13.5946 144.986C15.0193 144.986 16.4441 144.986 17.9282 144.986C21.7868 144.986 25.7048 145.045 29.5635 145.045C35.3217 145.105 41.08 145.105 46.8977 145.164C53.9026 145.223 60.9075 145.283 67.8531 145.283C75.5703 145.342 83.2876 145.402 91.0049 145.461C98.7222 145.52 106.439 145.58 114.216 145.639C121.459 145.698 128.701 145.758 136.003 145.758C142.117 145.817 148.172 145.817 154.287 145.877C158.68 145.877 163.132 145.936 167.525 145.936C169.603 145.936 171.68 145.995 173.758 145.995C173.877 145.995 173.936 145.995 174.055 145.995C170.79 142.492 167.584 138.989 164.319 135.486C164.141 141.305 163.904 147.064 163.725 152.882C163.725 153.714 163.666 154.545 163.666 155.376C164.082 155.02 164.438 154.604 164.853 154.248C163.072 154.723 161.232 155.079 159.392 155.495C154.465 156.564 149.538 157.513 144.61 158.404C137.368 159.71 130.126 160.838 122.824 161.788C113.979 162.916 105.133 163.807 96.2289 164.341C86.612 164.935 76.9357 165.172 67.2594 164.876C66.0128 164.816 64.7661 164.816 63.5195 164.757C63.8757 164.757 64.2319 164.816 64.5881 164.816C51.8249 164.223 39.0023 162.738 26.5953 159.591C23.2709 158.76 19.9465 157.751 16.6815 156.682C17.0971 156.801 17.5126 156.979 17.9282 157.098C14.7225 156.029 11.6356 154.782 8.5487 153.417C7.77697 153.061 6.29287 152.586 5.46178 153.298C4.69005 154.011 5.04624 155.554 5.34305 156.385C5.99606 158.048 7.00524 159.591 8.25188 160.838C9.49852 162.085 10.8639 163.332 12.4667 164.044C24.8737 169.625 38.2306 172.831 51.6468 174.672C65.5379 176.513 79.6071 176.987 93.6169 176.572C106.38 176.216 119.143 175.088 131.788 173.425C141.345 172.178 150.844 170.635 160.342 168.794C164.616 167.963 168.95 167.191 173.164 166.004C173.224 166.004 173.283 166.004 173.342 165.944C173.995 165.826 174.411 165.469 174.53 164.816C174.708 158.998 174.945 153.239 175.123 147.42C175.123 146.589 175.183 145.758 175.183 144.927C175.242 143.799 175.005 142.908 174.53 141.899C173.877 140.533 172.986 139.227 171.977 138.158C170.256 136.377 168.059 134.477 165.447 134.477C164.022 134.477 162.598 134.477 161.113 134.477C157.255 134.477 153.337 134.418 149.478 134.418C143.72 134.358 137.962 134.358 132.144 134.299C125.139 134.24 118.134 134.18 111.189 134.18C103.471 134.121 95.754 134.062 88.0367 134.002C80.3194 133.943 72.6022 133.883 64.8255 133.824C57.5831 133.765 50.3408 133.705 43.039 133.705C36.9839 133.646 30.8695 133.587 24.755 133.587C20.3621 133.587 15.9098 133.527 11.5169 133.527C9.43915 133.527 7.36142 133.408 5.28369 133.468C5.16496 133.468 5.1056 133.468 4.98687 133.468C3.85896 133.468 3.74023 134.893 3.74023 135.605C4.03705 141.305 4.33387 147.005 4.63069 152.704C4.69005 153.536 4.69005 154.307 4.74942 155.139C4.80878 156.564 5.93669 158.285 6.70842 159.354C7.77697 160.838 9.26106 162.382 10.8045 163.332C11.7543 163.926 13.2978 164.935 14.4851 164.579C15.6723 164.223 15.9098 163.451 15.8504 162.382Z" fill="#060A09"/>
<path d="M50.7536 126.283C50.7536 126.283 53.0094 127.827 53.8998 126.283C54.7903 124.74 61.9139 105.206 61.9139 105.206C61.9139 101.822 58.827 99.1504 55.0278 99.1504C51.644 99.1504 48.8539 101.288 48.2603 104.138L44.5204 118.803C44.2829 119.218 42.8582 125.274 42.7988 125.69L44.5797 126.64C44.5204 126.64 47.9635 123.018 50.7536 126.283Z" fill="white"/>
<path d="M48.9142 127.471C50.8138 128.718 53.6039 128.718 55.3255 127.234C56.1566 126.521 56.4534 125.452 56.8689 124.443C58.0562 121.475 59.1841 118.447 60.312 115.478C61.4399 112.45 62.5678 109.481 63.6364 106.453C63.8145 105.919 64.1113 105.385 64.1707 104.85C64.4675 102.535 62.5678 100.279 60.7869 99.1507C55.8004 96.004 47.3114 98.3788 45.8273 104.435C47.0739 103.9 48.3205 103.366 49.5672 102.832C48.3799 102.654 46.1835 103.01 45.8273 104.435C44.8775 108.294 43.9276 112.153 42.9185 116.012C42.7404 116.844 42.5029 117.675 42.3248 118.506C42.2655 118.684 42.2654 118.862 42.2061 119.04C42.3842 118.447 42.1467 119.218 42.028 119.515C41.375 121.653 40.9001 123.849 40.4252 125.987C40.3658 126.402 40.6033 126.699 40.9001 126.877C41.4937 127.174 42.0874 127.531 42.681 127.827C43.7495 128.421 45.5898 127.946 46.4209 127.115C46.8365 126.699 46.7771 126.699 47.3707 126.402C47.3114 126.402 47.6675 126.402 47.4301 126.343C47.905 126.402 48.3206 126.937 48.6174 127.234C49.8046 128.48 54.1976 126.759 52.8916 125.334C50.1015 122.306 45.293 123.434 42.6216 126.165C43.8683 125.927 45.1149 125.69 46.3615 125.452C45.7679 125.156 45.1743 124.799 44.5806 124.503C44.7587 124.799 44.9368 125.096 45.0555 125.393C45.5305 123.256 46.1241 121.118 46.6584 118.981C46.8365 118.268 46.599 119.218 46.8365 118.387C46.8958 118.209 46.8958 118.031 46.9552 117.853C47.1333 117.022 47.3707 116.19 47.5488 115.359C48.4986 111.5 49.4485 107.641 50.4576 103.782C49.211 104.316 47.9644 104.85 46.7177 105.385C47.905 105.563 50.1015 105.207 50.4576 103.782C51.4075 99.9225 55.8597 99.6257 58.2937 102.416C59.006 103.247 59.659 104.494 59.4216 105.622C59.3028 106.216 59.006 106.81 58.7686 107.344C56.9283 112.391 55.0287 117.437 53.129 122.425C52.7135 123.493 52.2979 124.503 51.8824 125.571C52.0011 125.274 51.6449 125.987 51.6449 126.046C51.6449 126.343 48.9736 126.996 52.5354 125.809C54.1976 125.215 53.4852 125.69 53.129 125.393C52.9509 125.274 52.7135 125.156 52.5354 125.037C51.2294 124.206 47.0145 126.165 48.9142 127.471Z" fill="black"/>
<path d="M61.8557 105.207C61.8557 105.207 54.7321 124.681 53.8416 126.284C52.9512 127.828 50.6953 126.284 50.6953 126.284C47.9052 123.019 44.4621 126.64 44.4621 126.64L42.6812 125.69C42.6219 126.047 42.5625 126.462 42.5625 126.818C42.5625 130.203 45.6494 132.874 49.4487 132.874C53.248 132.874 53.9603 132.637 56.3349 126.818C56.3943 126.7 57.8784 122.128 57.819 121.95L61.4995 107.938C61.9151 106.929 61.8557 106.157 61.8557 105.207Z" fill="white"/>
<path d="M59.6596 105.029C58.2942 108.77 56.9289 112.451 55.5041 116.191C54.6137 118.625 53.7232 121 52.7734 123.435C52.4766 124.147 52.061 124.919 51.8829 125.691C51.7049 126.284 51.1706 126.284 52.5953 125.809C54.4949 125.156 53.367 125.691 53.0109 125.275C52.8921 125.156 52.5953 124.978 52.4766 124.859C49.5084 122.306 45.2342 123.435 42.6222 126.106C43.8688 125.869 45.1155 125.631 46.3621 125.394C45.7685 125.097 45.1748 124.741 44.5812 124.444C43.3346 123.791 40.7226 124.325 40.4257 125.928C39.3572 131.272 44.5812 134.478 49.2709 134.478C51.1112 134.478 53.0109 134.3 54.673 133.29C56.2165 132.281 57.0476 130.678 57.8193 129.075C60.0158 124.325 61.0843 119.041 62.3903 113.994C63.1621 111.085 64.29 108.057 64.29 105.029C64.29 102.773 59.6002 103.604 59.6002 105.445C59.6002 107.701 58.8879 109.838 58.3536 111.976C57.6412 114.707 56.9289 117.438 56.2165 120.169C55.8009 121.713 55.3854 123.256 54.9105 124.741C54.7324 125.334 54.4949 125.928 54.3169 126.581C54.3169 126.641 54.1388 127.175 54.2575 126.819C54.4356 126.284 54.0794 127.234 54.02 127.353C53.9013 127.709 53.7232 128.006 53.6045 128.362C53.2483 129.134 52.8921 129.965 52.4172 130.737C52.2985 130.915 52.1204 131.094 52.0017 131.272C51.7642 131.568 51.8829 131.39 51.9423 131.331C51.7642 131.509 52.061 131.45 51.8236 131.39C52.0017 131.39 52.1798 131.331 51.8829 131.331C51.4674 131.39 51.1112 131.39 50.6957 131.39C49.9239 131.39 48.8554 131.272 48.0243 130.915C45.8872 129.965 44.6999 127.769 45.1748 125.513C43.8095 125.988 42.3847 126.522 41.0194 126.997C41.613 127.294 42.2067 127.65 42.8003 127.947C43.9282 128.541 45.6498 128.184 46.5402 127.234C46.8964 126.878 46.6589 127.116 46.9558 126.878C47.2526 126.7 47.1338 126.7 47.4307 126.581C48.0243 126.344 47.49 126.462 47.6088 126.522C48.2618 126.581 48.6773 127.353 49.1522 127.65C49.6865 128.006 50.3395 128.244 50.9925 128.422C52.8921 128.897 55.2667 128.244 56.2165 126.403C56.5133 125.869 56.6914 125.275 56.9289 124.681C58.8879 119.813 60.6688 114.826 62.5091 109.898C63.0433 108.413 63.637 106.87 64.1712 105.385C64.943 103.07 60.3126 103.307 59.6596 105.029Z" fill="black"/>
<path d="M54.3182 106.037C54.437 105.799 54.8525 103.662 54.8525 103.424C54.8525 102.474 54.0214 101.762 52.9529 101.762C52.003 101.762 51.2907 102.355 51.1126 103.127H51.0532L50.1628 106.571C50.044 106.749 49.5098 109.183 49.5098 109.421C49.5098 110.371 49.9253 111.024 50.9939 111.142C51.9437 111.261 52.5967 111.38 53.1309 109.955L53.6652 108.233L54.3182 106.037Z" fill="white"/>
<path d="M56.5144 106.275C56.8112 105.622 56.9299 104.85 57.0486 104.137C57.2267 103.247 57.2861 102.416 56.7518 101.584C55.9801 100.338 54.1398 99.8626 52.7744 100.1C50.9342 100.397 49.272 101.406 48.7971 103.247C49.8656 102.653 50.9342 102 51.9434 101.406C51.9434 101.406 51.9434 101.406 51.884 101.406C50.6374 101.228 49.0345 101.941 48.7377 103.247C48.5003 104.197 48.2034 105.206 47.966 106.156C47.9066 106.334 47.8473 106.453 47.8473 106.631C47.8473 106.69 47.7285 106.987 47.9066 106.453C47.9066 106.394 47.966 106.334 47.966 106.275V106.334C47.9066 106.334 47.7879 106.869 47.7285 107.047C47.5504 107.7 47.4317 108.353 47.313 109.006C47.1349 109.837 47.2536 110.668 47.7285 111.381C48.3815 112.39 49.6875 112.687 50.8154 112.746C52.4776 112.865 54.0804 112.271 55.0303 110.787C55.4458 110.134 55.6239 109.422 55.802 108.709C56.0988 107.759 56.3956 106.75 56.6924 105.8C56.8112 105.384 56.455 104.909 56.1582 104.672C55.7426 104.375 55.0896 104.256 54.5554 104.316C53.4274 104.434 52.3589 105.028 52.0027 106.156C51.7653 106.869 51.5278 107.581 51.3497 108.353C51.231 108.828 51.0529 109.303 50.9342 109.837C50.8748 110.075 50.7561 110.075 50.9935 109.6C50.9342 109.659 50.6967 110.193 50.6967 110.253C50.6967 110.253 50.9935 109.897 50.7561 110.075C51.1123 109.718 51.1123 109.778 50.9342 109.897C51.0529 109.837 51.1716 109.778 51.2904 109.659C51.7653 109.481 51.884 109.481 51.6465 109.54C51.7059 109.54 52.3589 109.422 51.9434 109.481C52.7151 109.422 52.2995 109.481 52.0621 109.481C52.0027 109.481 51.884 109.481 51.8246 109.481C51.4684 109.422 51.9434 109.481 52.0027 109.54C51.9434 109.54 51.9434 109.54 51.884 109.481C51.7059 109.422 51.7653 109.422 52.0621 109.54C51.884 109.422 52.1214 109.481 52.1808 109.659C52.1808 109.659 52.0621 109.54 52.0621 109.481C51.9434 109.362 52.0027 109.362 52.1214 109.6C52.1214 109.54 52.0621 109.481 52.0621 109.481C52.0621 109.362 51.9434 109.125 51.9434 109.006C51.8246 109.303 51.9434 109.243 51.9434 109.125V109.065C52.0027 108.828 52.0621 108.59 52.0621 108.353C52.1808 107.759 52.2995 107.165 52.4776 106.631C52.537 106.275 52.2995 107.047 52.4183 106.869C52.4776 106.69 52.537 106.572 52.537 106.394C52.5964 106.275 52.5964 106.097 52.6557 105.919C52.8932 104.909 53.19 103.959 53.4274 102.95C52.3589 103.544 51.2903 104.197 50.2812 104.791C50.2812 104.791 50.2812 104.791 50.3405 104.791C51.5872 104.969 53.19 104.256 53.4868 102.95C53.4868 103.009 53.4274 103.069 53.4274 103.128C53.4274 103.069 53.4868 103.069 53.4868 103.009C53.4868 102.95 53.5462 102.95 53.5462 102.891C53.4868 102.95 53.4274 103.009 53.3681 103.128L53.5462 102.95C53.5462 103.009 53.19 103.247 53.4274 103.069C53.3681 103.128 52.9525 103.306 53.2494 103.187C53.0713 103.306 52.8932 103.366 52.7151 103.366C52.4776 103.366 52.4776 103.425 52.5964 103.366C52.8932 103.366 52.1214 103.306 52.4183 103.366C52.6557 103.425 52.0027 103.247 52.2995 103.306C52.3589 103.306 52.3589 103.306 52.4183 103.366C52.537 103.425 52.4776 103.366 52.3589 103.306C52.2402 103.247 52.2402 103.247 52.2995 103.306C52.3589 103.306 52.3589 103.366 52.4183 103.366C52.4776 103.425 52.5964 103.544 52.4776 103.425C52.3589 103.247 52.4776 103.425 52.537 103.484C52.537 103.544 52.7151 103.722 52.5964 103.544C52.4776 103.366 52.5964 103.544 52.5964 103.603C52.5964 103.662 52.6557 103.9 52.6557 103.662C52.5964 103.484 52.6557 103.544 52.6557 103.603C52.537 104.019 52.537 104.434 52.4183 104.85C52.3589 105.087 52.2995 105.384 52.2402 105.622C52.2402 105.74 52.1808 105.8 52.1808 105.919C52.1214 106.215 52.3589 105.503 52.2402 105.681C51.7653 106.69 52.6557 107.462 53.6649 107.581C54.5554 107.759 56.0394 107.344 56.5144 106.275Z" fill="black"/>
<path d="M49.5674 130.439H46.7773V152.288H49.5674V130.439Z" fill="white"/>
<path d="M51.0523 151.399C50.1024 151.399 49.212 151.399 48.2622 151.399C48.4996 151.517 48.7964 151.577 49.0339 151.695C49.0339 145.343 49.0339 138.93 49.0339 132.578C49.0339 131.687 49.0339 130.796 49.0339 129.846C47.7279 130.321 46.4813 130.856 45.1753 131.331C46.1251 131.331 47.0155 131.331 47.9654 131.331C47.7279 131.212 47.4311 131.153 47.1936 131.034C47.1936 137.387 47.1936 143.799 47.1936 150.152C47.1936 151.042 47.1936 151.933 47.1936 152.883C47.1936 153.477 51.824 152.883 51.824 151.636C51.824 145.283 51.824 138.871 51.824 132.518C51.824 131.628 51.824 130.737 51.824 129.787C51.824 129.55 51.1116 129.49 51.0523 129.49C50.1024 129.49 49.212 129.49 48.2622 129.49C47.3717 129.49 46.4813 129.728 45.7095 130.025C45.3533 130.203 44.4629 130.5 44.4629 130.975C44.4629 137.327 44.4629 143.74 44.4629 150.092C44.4629 150.983 44.4629 151.873 44.4629 152.823C44.4629 153.061 45.1753 153.12 45.2346 153.12C46.1844 153.12 47.0749 153.12 48.0247 153.12C49.0933 153.12 50.3993 152.823 51.2897 152.23C52.0021 151.873 52.0021 151.399 51.0523 151.399Z" fill="black"/>
<path d="M127.336 126.283C127.336 126.283 125.08 127.827 124.19 126.283C123.299 124.74 116.176 105.206 116.176 105.206C116.176 101.822 119.263 99.1504 123.062 99.1504C126.446 99.1504 129.236 101.288 129.829 104.138L133.51 118.803C133.747 119.218 135.172 125.274 135.232 125.69L133.451 126.64C133.569 126.64 130.126 123.018 127.336 126.283Z" fill="white"/>
<path d="M125.554 126.225C125.436 126.284 125.317 126.403 125.376 126.344C125.614 126.284 125.851 126.225 126.089 126.165C126.86 126.165 127.039 126.047 126.504 125.69L126.445 125.631C126.386 125.394 126.207 125.156 126.148 124.919C125.792 124.087 125.495 123.256 125.139 122.425C124.13 119.813 123.18 117.26 122.171 114.647C121.28 112.213 120.33 109.779 119.44 107.285C118.787 105.563 118.134 104.495 118.906 102.713C119.737 100.754 121.102 99.8636 123.12 100.398C125.317 100.992 127.038 102.654 127.573 104.851C127.691 105.385 129.176 105.148 129.472 105.088C128.819 105.029 128.226 104.91 127.573 104.851C129.354 112.035 131.313 119.219 132.975 126.403C133.331 126.106 133.628 125.809 133.984 125.453C133.39 125.75 132.797 126.106 132.203 126.403C133.39 126.225 134.578 126.106 135.706 125.928C132.916 123.019 127.81 123.731 125.198 126.522C124.486 127.293 125.792 127.293 126.267 127.293C127.217 127.234 128.701 126.937 129.354 126.165C129.829 125.69 130.422 125.453 129.235 125.75C127.81 126.106 128.641 125.809 128.998 125.987C129.413 126.165 129.829 126.284 130.185 126.581C130.6 126.819 130.957 127.115 131.313 127.472C131.966 128.125 134.281 127.293 134.815 126.997C135.409 126.7 136.002 126.344 136.596 126.047C136.834 125.928 137.665 125.572 137.605 125.097C135.943 117.853 133.984 110.729 132.203 103.545C132.084 103.01 130.6 103.248 130.304 103.307C130.957 103.367 131.55 103.485 132.203 103.545C130.778 97.7856 123.773 97.4887 119.262 99.2699C116.472 100.398 112.91 103.307 114.157 106.691C116.353 112.629 118.49 118.566 120.805 124.503C121.161 125.394 121.399 126.522 122.052 127.234C123.536 129.075 127.513 127.472 129.057 126.403C129.769 125.928 129.651 125.453 128.76 125.394C127.81 125.275 126.445 125.631 125.554 126.225Z" fill="black"/>
<path d="M116.233 105.207C116.233 105.207 123.357 124.681 124.248 126.284C125.138 127.828 127.394 126.284 127.394 126.284C130.184 123.019 133.627 126.64 133.627 126.64L135.408 125.69C135.467 126.047 135.527 126.462 135.527 126.818C135.527 130.203 132.44 132.874 128.64 132.874C124.841 132.874 124.129 132.637 121.754 126.818C121.695 126.7 120.211 122.128 120.27 121.95L116.59 107.938C116.174 106.929 116.233 106.157 116.233 105.207Z" fill="white"/>
<path d="M113.918 105.859C115.284 109.6 116.649 113.281 118.074 117.021C119.024 119.515 119.914 121.949 120.923 124.443C121.636 126.283 122.17 128.243 124.544 128.302C125.791 128.302 127.097 127.886 128.225 127.352C128.522 127.174 130.006 126.283 129.828 126.105C129.828 126.105 129.234 126.224 129.234 126.283L129.59 126.343C129.947 126.521 130.303 126.639 130.659 126.877C130.956 127.055 131.253 127.352 131.49 127.589C132.321 128.48 134.221 127.827 135.052 127.352C135.645 127.055 136.239 126.699 136.833 126.402C135.586 126.402 134.339 126.402 133.093 126.343C133.449 128.243 132.796 130.261 131.074 131.271C130.065 131.864 128.344 131.805 127.394 131.567C126.503 131.33 125.732 130.083 125.257 129.133C124.604 127.827 124.07 126.402 123.595 125.036C122.229 120.821 121.22 116.546 120.092 112.212C119.439 109.718 118.549 107.225 118.608 104.672C118.549 103.247 113.918 104.078 113.918 105.859C113.918 108.531 114.809 111.084 115.521 113.637C116.234 116.427 116.946 119.218 117.718 122.008C118.252 123.968 118.786 126.046 119.558 127.946C120.27 129.667 120.983 131.805 122.467 132.992C123.654 134.002 125.257 134.18 126.741 134.239C131.846 134.417 138.97 131.389 137.723 125.096C137.426 123.73 134.636 124.74 133.983 125.036C133.39 125.333 132.796 125.69 132.202 125.986C133.39 125.927 134.577 125.808 135.764 125.749C133.568 123.493 130.184 123.077 127.394 124.502C126.919 124.74 126.503 125.036 126.088 125.333C126.029 125.393 125.554 125.808 125.494 125.927C125.494 125.927 126.088 125.511 125.791 125.69C125.494 125.868 125.435 125.749 125.791 125.749C126.147 125.749 126.444 125.749 126.444 125.511C126.503 125.096 125.85 124.086 125.672 123.671C123.713 118.802 121.932 113.874 120.092 108.947C119.558 107.462 119.024 106.037 118.489 104.553C117.955 103.009 113.384 104.375 113.918 105.859Z" fill="black"/>
<path d="M123.773 106.038C123.654 105.801 123.238 103.664 123.238 103.426C123.238 102.476 124.069 101.764 125.138 101.764C126.088 101.764 126.8 102.357 126.978 103.129H127.038L127.928 106.573C128.047 106.751 128.581 109.185 128.581 109.423C128.581 110.373 128.165 111.026 127.097 111.144C126.147 111.263 125.494 111.382 124.96 109.957L124.426 108.235L123.773 106.038Z" fill="white"/>
<path d="M126.088 105.445C125.91 105.089 125.91 104.673 125.792 104.317C125.673 103.842 125.554 103.367 125.554 102.951C125.554 102.833 125.554 102.951 125.554 102.833C125.554 102.773 125.613 102.655 125.613 102.595C125.613 102.595 125.732 102.358 125.673 102.476C125.613 102.595 125.732 102.358 125.732 102.358C125.792 102.298 125.792 102.298 125.673 102.358C125.613 102.417 125.554 102.417 125.673 102.358C125.792 102.298 125.732 102.298 125.495 102.476C125.376 102.536 125.317 102.595 125.198 102.595C124.842 102.714 124.426 102.773 124.011 102.833C124.248 102.833 124.011 102.833 123.892 102.833C123.773 102.833 123.714 102.773 123.833 102.833C123.892 102.892 124.011 102.892 124.07 102.951C123.951 102.892 124.011 102.951 124.07 103.011C124.367 103.308 124.426 103.367 124.545 103.783C124.723 104.436 126.088 104.258 126.504 104.198C126.504 104.198 126.504 104.198 126.563 104.198C125.91 104.08 125.257 103.901 124.604 103.783C125.02 105.445 125.495 107.048 125.851 108.711C125.97 109.126 126.088 109.66 126.088 110.076C126.088 110.254 126.148 109.898 126.088 110.195C126.088 110.254 126.088 110.314 126.029 110.373C125.97 110.492 125.97 110.551 125.91 110.67C125.91 110.61 126.029 110.432 125.91 110.61C125.792 110.789 125.91 110.551 126.029 110.551C126.385 110.254 126.979 110.017 127.513 110.017C127.454 110.017 127.335 110.017 127.276 110.076C126.86 110.135 127.394 110.135 127.454 110.076C127.394 110.135 127.276 110.076 127.216 110.076C126.979 110.076 127.751 110.135 127.454 110.076C127.869 110.135 127.751 110.135 127.632 110.076C127.454 110.017 127.751 110.254 127.632 110.076C127.572 109.957 127.454 109.898 127.394 109.779C127.454 109.898 127.276 109.542 127.276 109.542C127.216 109.423 127.216 109.364 127.157 109.245C126.979 108.77 126.86 108.354 126.741 107.879C126.623 107.048 126.385 106.217 126.088 105.445C125.97 105.089 125.495 105.029 125.257 104.97C124.723 104.911 124.07 104.97 123.536 105.148C123.001 105.326 122.408 105.504 121.992 105.861C121.755 106.039 121.399 106.336 121.458 106.692C121.695 107.523 121.933 108.295 122.17 109.126C122.348 109.66 122.467 110.195 122.645 110.67C122.823 111.085 123.061 111.56 123.417 111.798C123.951 112.154 124.604 112.273 125.257 112.273C127.394 112.273 131.134 111.442 130.837 108.651C130.719 107.701 130.422 106.751 130.184 105.801C129.888 104.733 129.591 103.605 129.353 102.536C129.175 101.883 127.81 102.061 127.394 102.12C127.394 102.12 127.394 102.12 127.335 102.12C127.988 102.239 128.641 102.417 129.294 102.536C128.938 101.17 127.513 100.695 126.207 100.695C124.545 100.695 122.348 101.289 121.339 102.714C120.805 103.426 120.864 104.139 121.042 104.911C121.161 105.504 121.221 106.158 121.458 106.692C121.814 107.523 123.358 107.167 124.011 106.989C124.545 106.811 125.139 106.633 125.554 106.276C125.792 106.098 126.266 105.742 126.088 105.445Z" fill="black"/>
<path d="M128.56 152.291L131.35 152.291L131.35 130.442L128.56 130.442L128.56 152.291Z" fill="white"/>
<path d="M127.691 153.834C128.641 153.834 129.531 153.834 130.481 153.834C131.372 153.834 133.687 153.418 133.687 152.052C133.687 145.7 133.687 139.287 133.687 132.935C133.687 132.044 133.687 131.153 133.687 130.203C133.687 129.372 132.974 128.838 132.203 128.838C131.253 128.838 130.362 128.838 129.413 128.838C128.522 128.838 126.207 129.253 126.207 130.619C126.207 136.972 126.207 143.384 126.207 149.737C126.207 150.627 126.207 151.518 126.207 152.468C126.207 153.596 127.335 153.893 128.285 153.774C129.116 153.715 130.897 153.121 130.897 151.993C130.897 145.64 130.897 139.228 130.897 132.875C130.897 131.985 130.897 131.094 130.897 130.144C129.828 130.738 128.76 131.332 127.691 131.925C128.641 131.925 129.531 131.925 130.481 131.925C130.006 131.45 129.472 131.035 128.997 130.56C128.997 136.912 128.997 143.325 128.997 149.677C128.997 150.568 128.997 151.459 128.997 152.409C130.066 151.815 131.134 151.221 132.203 150.627C131.253 150.627 130.362 150.627 129.413 150.627C128.344 150.627 126.919 150.924 126.385 151.993C125.851 153.062 126.741 153.834 127.691 153.834Z" fill="black"/>
<path d="M90.4698 130.32H87.6797V152.169H90.4698V130.32Z" fill="white"/>
<path d="M91.4199 151.101C90.4701 151.101 89.5796 151.101 88.6298 151.101C89.1047 151.22 89.5203 151.398 89.9952 151.517C89.9952 145.164 89.9952 138.752 89.9952 132.399C89.9952 131.509 89.9952 130.618 89.9952 129.668C88.8673 130.202 87.7987 130.796 86.6708 131.33C87.6206 131.33 88.5111 131.33 89.4609 131.33C88.986 131.212 88.5705 131.034 88.0955 130.915C88.0955 137.268 88.0955 143.68 88.0955 150.033C88.0955 150.923 88.0955 151.814 88.0955 152.764C88.0955 153.714 92.7259 153.001 92.7259 151.517C92.7259 145.164 92.7259 138.752 92.7259 132.399C92.7259 131.509 92.7259 130.618 92.7259 129.668C92.7259 129.193 91.598 129.252 91.3606 129.252C90.4107 129.252 89.5203 129.252 88.5705 129.252C87.7394 129.252 85.2461 129.727 85.2461 130.915C85.2461 137.268 85.2461 143.68 85.2461 150.033C85.2461 150.923 85.2461 151.814 85.2461 152.764C85.2461 153.239 86.374 153.179 86.6115 153.179C87.5613 153.179 88.4517 153.179 89.4016 153.179C90.3514 153.179 91.8948 152.823 92.4885 151.992C93.2008 151.22 92.0136 151.101 91.4199 151.101Z" fill="black"/>
<path d="M88.6885 120.287C91.9535 120.287 94.7436 123.731 94.7436 123.731L96.5838 121.712V106.275C96.5838 102.06 93.1407 98.6758 88.9853 98.6758C84.7704 98.6758 81.3867 102.119 81.3867 106.275V122.543L83.0489 124.146C82.9895 124.087 84.533 120.287 88.6885 120.287Z" fill="white"/>
<path d="M87.7983 121.535C89.6386 121.594 91.4789 123.257 92.6068 124.622C93.0224 125.157 94.2096 124.978 94.7439 124.86C95.575 124.682 96.3467 124.385 96.9404 123.732C97.534 123.138 98.3057 122.485 98.7213 121.772C98.9587 121.357 98.8994 120.941 98.8994 120.466C98.8994 118.507 98.8994 116.607 98.8994 114.648C98.8994 112.332 98.8994 110.076 98.8994 107.761C98.8994 106.098 99.0181 104.495 98.3651 102.892C95.5156 95.4705 84.474 96.0049 80.4373 102.001C79.1906 103.842 78.9532 105.801 78.9532 107.939C78.9532 110.017 78.9532 112.035 78.9532 114.113C78.9532 116.607 78.9532 119.101 78.9532 121.535C78.9532 121.95 78.8344 122.663 78.9532 123.078C79.1906 123.791 80.2592 124.444 80.7341 124.919C81.8026 125.928 84.7114 124.978 85.1863 123.732C85.3051 123.375 85.1863 123.672 85.3051 123.494C85.4832 123.138 85.7206 122.841 85.9581 122.544C86.5517 122.01 87.086 121.535 87.7983 121.535C88.7482 121.535 90.2916 121.238 90.8853 120.288C91.4195 119.397 90.4104 119.041 89.6386 119.041C86.0174 119.16 82.1588 120.882 80.6747 124.385C82.1588 123.969 83.6429 123.613 85.127 123.197C84.6521 122.722 83.9397 122.247 83.5242 121.654C83.5835 121.713 83.5835 121.95 83.6429 121.713C83.6429 121.535 83.6429 121.357 83.6429 121.179C83.6429 119.576 83.6429 117.973 83.6429 116.369C83.6429 112.867 83.5835 109.423 83.6429 105.92C83.6429 103.901 84.4146 101.883 86.0174 100.577C88.0952 98.9735 90.8259 100.22 92.3694 101.942C94.8033 104.614 94.2096 108.532 94.2096 111.857C94.2096 115.36 94.2096 118.863 94.2096 122.307C94.269 122.069 94.3284 121.891 94.3877 121.654C93.7941 122.307 93.2004 122.96 92.5474 123.672C93.9722 123.375 95.3969 123.078 96.881 122.782C95.1001 120.585 92.4287 119.041 89.5793 118.982C88.6294 118.922 87.0266 119.338 86.4923 120.229C86.0174 121.238 87.0266 121.535 87.7983 121.535Z" fill="black"/>
<path d="M94.8029 123.789C94.8029 123.789 92.0128 120.346 88.7478 120.346C84.5924 120.346 83.0489 124.146 83.0489 124.146L81.3867 122.542V124.442C81.3867 128.658 84.8298 132.042 88.9853 132.042C93.2001 132.042 96.5838 128.598 96.5838 124.442V121.771L94.8029 123.789Z" fill="white"/>
<path d="M96.9396 122.959C96.2272 122.068 95.3368 121.296 94.3869 120.703C92.4873 119.456 90.2909 119.159 88.035 119.515C85.1262 120.05 81.8612 121.593 80.6739 124.502C82.158 124.087 83.6421 123.731 85.1262 123.315C84.5919 122.781 84.0577 122.246 83.464 121.712C82.9298 121.178 81.3269 121.712 80.7927 121.89C80.2584 122.068 78.9524 122.424 78.9524 123.137C78.9524 124.859 78.893 126.521 79.6054 128.184C80.5552 130.38 82.4548 131.924 84.7107 132.636C87.5601 133.527 90.9439 132.874 93.5559 131.568C95.7523 130.499 97.652 128.658 98.4237 126.284C98.958 124.621 98.7799 122.84 98.7799 121.118C98.7799 120.584 97.0583 120.881 96.8802 120.881C96.0491 121.059 94.9212 121.296 94.3276 121.89C93.7339 122.543 93.1403 123.196 92.4873 123.909C91.8343 124.681 93.0809 124.681 93.5559 124.681C94.5057 124.621 95.9898 124.324 96.6428 123.553C97.2364 122.899 97.83 122.246 98.483 121.534C96.9989 121.831 95.5149 122.068 94.0308 122.365C94.0308 123.434 94.0901 124.502 94.0308 125.571C93.912 127.471 92.9029 129.43 91.3594 130.558C91.0032 130.796 90.7658 130.974 90.5283 131.093C90.2909 131.212 90.5877 131.093 90.5877 131.093C90.5283 131.152 90.1128 131.212 90.647 131.093C90.5877 131.093 90.2909 131.212 90.5877 131.093C90.9439 131.033 90.2315 131.152 90.647 131.093C90.2315 131.152 90.1128 131.152 89.6379 131.093C89.1629 131.033 88.6287 130.915 88.1538 130.737C86.3135 130.024 84.8294 128.54 84.0577 126.759C83.4047 125.215 83.464 123.553 83.464 121.949C81.9799 122.424 80.4365 122.899 78.9524 123.374C79.4867 123.909 80.0209 124.443 80.6146 124.977C81.0895 125.393 82.5142 125.037 82.9891 124.918C83.5828 124.74 84.8294 124.443 85.0668 123.79C85.2449 123.315 85.6011 122.781 85.8979 122.424C86.0167 122.306 86.2541 122.068 86.4322 121.89C86.6697 121.653 86.7884 121.593 86.9071 121.474C87.0258 121.356 87.2039 121.296 87.3227 121.237C86.9071 121.474 87.7382 121.118 87.1446 121.296C87.6195 121.178 86.8478 121.356 86.8478 121.356C87.3227 121.237 86.5509 121.296 87.0852 121.296C87.4414 121.296 88.2131 121.474 88.7474 121.712C89.4004 122.009 89.994 122.424 90.5877 122.84C91.2407 123.374 91.8937 123.909 92.3686 124.562C92.5467 124.799 93.3778 124.74 93.5559 124.681C94.1495 124.621 94.8025 124.502 95.3368 124.265C95.9898 124.146 97.4739 123.612 96.9396 122.959Z" fill="black"/>
<path d="M90.4101 110.255H86.9076C86.314 110.255 85.8984 109.78 85.8984 109.245V103.011C85.8984 102.418 86.3733 102.002 86.9076 102.002H90.4101C91.0037 102.002 91.4193 102.477 91.4193 103.011V109.245C91.4193 109.78 90.9444 110.255 90.4101 110.255Z" fill="white"/>
<path d="M89.5199 108.771C89.4606 108.771 89.3418 108.771 89.2825 108.771C88.8669 108.771 89.698 108.889 89.3419 108.771C89.2825 108.771 89.2231 108.711 89.1044 108.711C89.1638 108.771 89.2825 108.771 89.3419 108.83C89.3419 108.771 89.045 108.711 88.9857 108.652C88.9263 108.593 88.6889 108.355 88.8076 108.533C88.9857 108.711 88.7482 108.414 88.6888 108.414C88.5108 108.236 88.392 108.058 88.2733 107.821C88.3327 107.939 88.392 108.058 88.4514 108.177C88.2733 107.821 88.1546 107.405 88.1546 106.99C88.1546 107.108 88.1546 107.227 88.1546 107.346C88.1546 106.811 88.1546 106.336 88.1546 105.802C88.1546 105.268 88.0952 104.733 88.1546 104.14C88.1546 104.021 88.2139 103.902 88.2139 103.724C88.2139 103.665 88.2139 103.605 88.2733 103.546C88.3327 103.427 88.2733 103.487 88.2139 103.665C88.2139 103.605 88.3327 103.368 88.392 103.308C88.392 103.249 88.4514 103.19 88.5108 103.19C88.6295 103.012 88.5701 103.071 88.4514 103.308C88.4514 103.308 88.6888 103.13 88.6888 103.071C88.392 103.308 88.3327 103.308 88.5108 103.19C88.5701 103.13 88.6295 103.13 88.6888 103.071C88.5108 103.071 88.2139 103.368 88.5701 103.19C88.1546 103.308 88.0358 103.368 88.2733 103.308C88.4514 103.249 88.392 103.249 88.1546 103.308C87.9171 103.368 87.8578 103.368 88.0952 103.308C87.739 103.308 87.6203 103.308 87.739 103.308C87.8578 103.308 87.9765 103.308 88.0952 103.308C87.739 103.249 87.6797 103.249 87.9171 103.308C87.9765 103.308 88.0358 103.368 88.1546 103.368C88.0952 103.427 87.739 103.19 88.0952 103.368C88.2139 103.427 88.2733 103.487 88.392 103.546C88.5108 103.665 88.5108 103.605 88.3327 103.487C88.392 103.546 88.4514 103.605 88.5108 103.665C88.6889 103.843 88.8076 104.08 88.9857 104.258C88.9263 104.14 88.8669 104.021 88.8076 103.902C88.9857 104.258 89.1044 104.674 89.1044 105.09C89.1044 104.971 89.1044 104.852 89.1044 104.733C89.1044 105.624 89.1044 106.455 89.1044 107.346C89.1044 107.465 89.1044 107.524 89.1044 107.643C89.1044 107.88 89.1044 108.058 89.045 108.296C89.045 108.355 89.045 108.533 88.9857 108.593C89.045 108.414 89.1044 108.355 89.045 108.474C89.045 108.533 88.9857 108.533 88.9857 108.593C88.9263 108.652 88.9263 108.771 88.8669 108.83C88.8669 108.889 88.8076 108.949 88.7482 108.949C88.6888 109.068 88.6888 109.008 88.8669 108.771C88.8076 108.771 88.6888 108.949 88.6888 108.949C88.5108 109.127 89.1044 108.652 88.8076 108.83C88.7482 108.889 88.6888 108.889 88.6888 108.949C88.5108 109.068 88.6295 109.008 88.9857 108.771C88.9263 108.771 88.8076 108.83 88.8076 108.83C89.2231 108.711 89.3418 108.652 89.1638 108.711C89.1044 108.711 89.045 108.711 88.9857 108.771C89.1044 108.771 89.2825 108.711 89.4012 108.711C89.045 108.83 89.1044 108.83 89.5199 108.771C88.8669 108.771 88.2733 108.83 87.6797 109.127C87.2641 109.305 86.6705 109.661 86.433 110.136C86.2549 110.492 86.1956 110.908 86.4924 111.205C86.7892 111.561 87.3235 111.739 87.7984 111.739C89.8168 111.68 91.7164 111.027 92.963 109.364C93.4973 108.652 93.7348 107.821 93.7348 106.99C93.7348 106.336 93.7348 105.624 93.7348 104.971C93.7348 104.793 93.7348 104.615 93.7348 104.437C93.7348 103.665 93.616 103.071 93.2005 102.418C92.4881 101.171 91.1228 100.577 89.7574 100.459C87.9765 100.28 86.0768 100.934 84.7708 102.18C83.9991 102.893 83.4648 103.962 83.4648 105.03C83.4648 105.683 83.4648 106.277 83.4648 106.93C83.4648 107.821 83.4648 108.711 83.8804 109.543C84.5928 110.908 86.1362 111.68 87.6797 111.68C88.3327 111.68 88.9263 111.621 89.5199 111.324C89.9355 111.146 90.5291 110.789 90.7666 110.314C91.3009 109.424 90.4104 108.771 89.5199 108.771Z" fill="black"/>
<path d="M50.5184 126.283C50.5184 126.283 52.7742 127.827 53.6647 126.283C54.5552 124.74 61.6788 105.206 61.6788 105.206C61.6788 101.822 58.5919 99.1504 54.7926 99.1504C51.4089 99.1504 48.6188 101.288 48.0251 104.138L44.3446 118.803C44.1071 119.218 42.6824 125.274 42.623 125.69L44.404 126.64C44.2852 126.64 47.7283 123.018 50.5184 126.283Z" fill="#2F9F6F"/>
<path d="M61.6194 105.207C61.6194 105.207 54.4957 124.681 53.6053 126.284C52.7148 127.828 50.459 126.284 50.459 126.284C47.6689 123.019 44.2258 126.64 44.2258 126.64L42.4449 125.69C42.3855 126.047 42.3262 126.462 42.3262 126.818C42.3262 130.203 45.4131 132.874 49.2124 132.874C53.0116 132.874 53.724 132.637 56.0986 126.818C56.1579 126.7 57.642 122.128 57.5826 121.95L61.2632 107.938C61.6787 106.929 61.6194 106.157 61.6194 105.207Z" fill="#247D58"/>
<path d="M54.0214 106.038C54.1401 105.801 54.5556 103.664 54.5556 103.426C54.5556 102.476 53.7245 101.764 52.656 101.764C51.7062 101.764 50.9938 102.357 50.8157 103.129H50.7563L49.8659 106.573C49.7472 106.751 49.2129 109.185 49.2129 109.423C49.2129 110.373 49.6284 111.026 50.697 111.144C51.6468 111.263 52.2998 111.382 52.8341 109.957L53.3684 108.235L54.0214 106.038Z" fill="#8ACEB0"/>
<path d="M49.3311 130.439H46.541V152.288H49.3311V130.439Z" fill="#247D58"/>
<path d="M127.096 126.283C127.096 126.283 124.84 127.827 123.95 126.283C123.059 124.74 115.936 105.206 115.936 105.206C115.936 101.822 119.022 99.1504 122.822 99.1504C126.205 99.1504 128.996 101.288 129.589 104.138L133.27 118.803C133.507 119.218 134.932 125.274 134.991 125.69L133.21 126.64C133.329 126.64 129.827 123.018 127.096 126.283Z" fill="#2F9F6F"/>
<path d="M115.937 105.207C115.937 105.207 123.06 124.681 123.951 126.284C124.841 127.828 127.097 126.284 127.097 126.284C129.887 123.019 133.33 126.64 133.33 126.64L135.111 125.69C135.17 126.047 135.23 126.462 135.23 126.818C135.23 130.203 132.143 132.874 128.344 132.874C124.544 132.874 123.832 132.637 121.457 126.818C121.398 126.7 119.914 122.128 119.973 121.95L116.293 107.938C115.877 106.929 115.937 106.157 115.937 105.207Z" fill="#247D58"/>
<path d="M123.534 106.038C123.416 105.801 123 103.664 123 103.426C123 102.476 123.831 101.764 124.9 101.764C125.849 101.764 126.562 102.357 126.74 103.129H126.799L127.69 106.573C127.808 106.751 128.343 109.185 128.343 109.423C128.343 110.373 127.927 111.026 126.859 111.144C125.909 111.263 125.256 111.382 124.722 109.957L124.187 108.235L123.534 106.038Z" fill="#8ACEB0"/>
<path d="M128.263 152.289L131.053 152.289L131.053 130.44L128.263 130.44L128.263 152.289Z" fill="#247D58"/>
<path d="M90.1749 130.32H87.3848V152.169H90.1749V130.32Z" fill="#247D58"/>
<path d="M88.4521 120.287C91.7171 120.287 94.5072 123.731 94.5072 123.731L96.3475 121.712V106.275C96.3475 102.06 92.9044 98.6758 88.749 98.6758C84.5341 98.6758 81.1504 102.119 81.1504 106.275V122.543L82.8126 124.146C82.7532 124.087 84.2967 120.287 88.4521 120.287Z" fill="#2F9F6F"/>
<path d="M94.508 123.789C94.508 123.789 91.7179 120.346 88.4529 120.346C84.2974 120.346 82.754 124.146 82.754 124.146L81.0918 122.542V124.442C81.0918 128.658 84.5349 132.042 88.6903 132.042C92.9052 132.042 96.2889 128.598 96.2889 124.442V121.771L94.508 123.789Z" fill="#247D58"/>
<path d="M90.1152 110.253H86.6127C86.0191 110.253 85.6035 109.778 85.6035 109.243V103.009C85.6035 102.416 86.0784 102 86.6127 102H90.1152C90.7088 102 91.1243 102.475 91.1243 103.009V109.243C91.1243 109.778 90.7088 110.253 90.1152 110.253Z" fill="#8ACEB0"/>
<path d="M180.05 299.888L146.925 287.004L31.5817 287.716L0.890625 297.81C0.949989 297.81 91.4797 327.555 180.05 299.888Z" fill="black" stroke="black" stroke-miterlimit="10"/>
<path d="M142.77 172.536C143.304 165.767 143.897 161.433 144.55 160.839C148.409 157.336 87.027 152.824 87.027 152.824L49.0343 154.902L31.9375 158.405L32.5905 171.526C51.4088 178.71 95.8129 191.357 142.77 172.536Z" fill="#2D614B"/>
<path d="M32.6504 171.527L38.9429 294.665C38.9429 294.665 119.44 301.611 139.327 295.021C139.327 295.021 140.277 205.251 142.77 172.537C95.8134 191.358 51.4093 178.711 32.6504 171.527Z" fill="#2C8460"/>
<path d="M10.3889 158.76L9.32031 139.227L169.602 140.295L168.89 160.185C168.949 160.126 68.9215 185.24 10.3889 158.76Z" fill="#2D986C"/>
<path d="M89.5207 259.218C106.7 259.218 120.627 245.289 120.627 228.107C120.627 210.925 106.7 196.996 89.5207 196.996C72.341 196.996 58.4141 210.925 58.4141 228.107C58.4141 245.289 72.341 259.218 89.5207 259.218Z" fill="#61C08B"/>
<path d="M89.5803 255.893C104.891 255.893 117.303 243.479 117.303 228.166C117.303 212.853 104.891 200.439 89.5803 200.439C74.2694 200.439 61.8574 212.853 61.8574 228.166C61.8574 243.479 74.2694 255.893 89.5803 255.893Z" fill="#2F9F6F"/>
<path d="M100.681 203.467C110.714 208.632 116.769 219.498 115.701 230.778C114.632 242.059 106.499 251.796 95.5762 254.765C90.4709 256.13 85.2469 255.774 80.3791 253.755C75.1551 251.618 70.5841 247.818 67.5565 243.009C61.5608 233.509 61.9763 221.041 68.5657 211.957C71.8307 207.504 76.4611 204.001 81.6851 202.22C86.6123 200.499 91.8363 200.32 96.8229 201.923C98.1882 202.339 99.4349 202.873 100.681 203.467C101.216 203.764 101.928 203.764 102.522 203.705C102.64 203.705 103.828 203.526 103.59 203.408C92.9642 198.064 79.1325 199.192 70.0498 207.029C61.0265 214.807 57.9396 227.928 62.57 238.912C64.8258 244.256 68.7438 248.827 73.671 251.855C78.9544 255.061 85.1282 256.427 91.2427 256.13C97.0603 255.893 102.7 254.052 107.39 250.609C112.198 247.106 115.76 242 117.541 236.3C120.984 225.079 116.769 212.551 107.33 205.664C106.143 204.773 104.837 204.001 103.531 203.348C102.997 203.052 102.284 203.111 101.691 203.111C101.631 203.17 100.444 203.348 100.681 203.467Z" fill="#28895E"/>
<path d="M79.3095 228.879C81.506 230.007 82.3964 231.373 82.2183 233.392C81.9809 235.945 80.3781 237.607 77.6473 237.666C74.3823 237.785 71.1173 237.666 67.793 237.666C67.793 231.967 67.793 226.267 67.793 220.567C67.793 220.567 67.8523 220.508 67.9117 220.508C71.2954 220.567 74.7385 220.448 78.1223 220.686C80.7936 220.923 82.159 223.061 81.8028 225.792C81.6247 227.336 80.6749 228.286 79.3095 228.879ZM73.1357 233.392C74.0855 233.392 74.976 233.451 75.8071 233.392C76.4601 233.332 76.8162 232.976 76.8162 232.263C76.8162 231.551 76.4601 231.076 75.8071 231.076C74.9166 231.017 74.0262 231.076 73.0763 231.076C73.1357 231.848 73.1357 232.56 73.1357 233.392ZM73.1357 227.217C73.9074 227.217 74.6198 227.276 75.3322 227.217C75.9852 227.157 76.4601 226.92 76.5194 226.089C76.5194 225.258 76.1632 224.842 75.3915 224.783C74.6792 224.723 73.9074 224.783 73.1357 224.783C73.1357 225.554 73.1357 226.326 73.1357 227.217Z" fill="#2D614B"/>
<path d="M77.944 229.711C79.1906 230.364 80.3185 231.254 80.4966 232.739C80.6747 233.926 80.2592 235.47 79.3687 236.182C79.1313 236.36 79.1906 236.36 78.8938 236.479C79.1906 236.36 78.6563 236.539 78.6563 236.539C78.8938 236.479 78.3595 236.598 78.3595 236.598C77.3503 236.717 76.3412 236.657 75.332 236.657C73.0762 236.657 70.761 236.657 68.5051 236.657C68.8613 236.954 69.2175 237.192 69.5737 237.489C69.5737 231.789 69.5737 226.089 69.5737 220.389C69.455 220.568 69.3362 220.746 69.2175 220.924C69.1581 220.983 69.0988 221.042 69.0394 221.102C68.4458 221.28 67.8521 221.399 67.3179 221.577C69.3956 221.577 71.4733 221.577 73.6104 221.577C74.6196 221.577 75.6288 221.636 76.638 221.696C77.3504 221.755 78.0033 221.755 78.597 222.111C80.6747 223.299 80.7341 227.158 78.597 228.108C78.0627 228.345 77.2316 228.939 77.7065 229.592C78.1814 230.186 79.4281 229.948 80.0217 229.651C81.209 229.117 82.3369 228.345 82.9899 227.217C83.5835 226.208 83.7023 225.02 83.5835 223.833C83.3461 221.577 81.6245 220.033 79.4281 219.736C76.2818 219.261 73.0168 219.499 69.8111 219.499C68.802 219.499 67.7928 219.38 66.9023 219.974C66.6649 220.093 66.4274 220.33 66.2493 220.568C66.0712 220.924 66.1306 221.458 66.1306 221.874C66.1306 223.477 66.1306 225.139 66.1306 226.742C66.1306 230.483 66.1306 234.223 66.1306 237.964C66.1306 238.557 66.6649 238.795 67.1991 238.795C69.9299 238.795 72.6012 238.854 75.332 238.795C77.7659 238.735 80.1998 238.676 82.0995 237.014C83.4648 235.826 84.1178 233.926 83.9991 232.145C83.821 230.186 82.3369 228.88 80.6747 228.048C79.9623 227.692 78.8938 227.93 78.2408 228.345C77.7659 228.583 77.2316 229.355 77.944 229.711Z" fill="#2D614B"/>
<path d="M72.483 234.401C73.2547 234.401 74.0264 234.461 74.7982 234.401C75.3918 234.401 75.9261 234.401 76.4604 234.223C77.1727 233.986 77.7664 233.689 78.2413 233.095C78.4194 232.858 78.5381 232.501 78.5974 232.204C78.6568 231.908 78.5975 231.492 78.5381 231.195C78.2413 230.304 77.3508 230.008 76.5197 229.948C75.6293 229.889 74.7388 229.948 73.8484 229.948C73.3141 229.948 72.7798 230.067 72.3049 230.304C72.1268 230.364 71.9487 230.483 71.83 230.661C71.6519 230.779 71.5332 230.958 71.4738 231.195C71.4738 231.967 71.4738 232.798 71.4738 233.57C71.4144 233.689 71.4738 233.867 71.5332 233.926C71.5925 234.045 71.7113 234.164 71.83 234.223C72.1268 234.401 72.6017 234.401 72.9579 234.401C73.4328 234.342 73.9077 234.223 74.2639 233.926C74.3826 233.867 74.442 233.748 74.5607 233.689C74.7388 233.57 74.8575 233.392 74.9169 233.154C74.9169 232.383 74.9169 231.551 74.9169 230.779C74.1452 231.195 73.3141 231.611 72.5424 232.026C73.4922 232.026 74.442 231.908 75.3918 232.026C75.2731 232.026 75.1544 231.967 74.9763 231.967C75.0356 231.967 75.1544 232.026 75.2137 232.026C75.095 231.967 74.9763 231.967 74.9169 231.908C75.0356 231.967 75.095 231.967 75.1544 232.026C75.095 231.967 74.9763 231.908 74.9169 231.848C75.0356 231.908 75.095 232.026 75.1544 232.145C75.095 232.086 75.095 231.967 75.0356 231.908C75.1544 232.086 75.1544 232.323 75.2137 232.561C75.2137 232.501 75.2137 232.383 75.2137 232.323C75.2137 232.561 75.2137 232.739 75.095 232.917C75.1544 232.798 75.1544 232.739 75.2137 232.62C75.1544 232.679 75.1544 232.798 75.095 232.858C75.1544 232.798 75.2137 232.679 75.3324 232.62C75.2731 232.679 75.2137 232.739 75.2137 232.739C75.3324 232.679 75.3918 232.561 75.5105 232.501C75.4512 232.501 75.4512 232.561 75.3918 232.561C75.748 232.383 75.8074 232.323 75.6886 232.383C76.0448 232.264 76.1635 232.204 76.0448 232.264C75.9855 232.264 75.748 232.323 76.1042 232.264C76.4604 232.204 76.2823 232.204 76.1635 232.264C76.1042 232.264 75.9855 232.264 75.9261 232.264C75.6293 232.264 76.3416 232.264 76.1042 232.264C75.9854 232.264 75.8074 232.264 75.6886 232.264C75.095 232.264 74.5014 232.264 73.9077 232.264C73.4328 232.264 72.9579 232.323 72.5424 232.501C72.2455 232.62 71.7706 232.917 71.6519 233.214C71.5332 233.451 71.4738 233.748 71.6519 233.986C71.7706 234.342 72.1268 234.401 72.483 234.401Z" fill="#2D614B"/>
<path d="M72.4833 228.226C74.3236 228.226 76.6982 228.523 77.8854 226.861C78.0635 226.623 78.1823 226.267 78.1823 225.97C78.1823 225.673 78.1823 225.258 78.0635 224.961C77.8261 224.308 77.1731 223.892 76.4607 223.773C75.5703 223.655 74.6204 223.714 73.6706 223.714C73.1363 223.714 72.6021 223.833 72.1272 224.07C71.9491 224.13 71.771 224.248 71.6523 224.427C71.4742 224.545 71.3554 224.723 71.2961 224.961C71.2961 225.792 71.2961 226.564 71.2961 227.395C71.2367 227.514 71.2961 227.692 71.3554 227.751C71.4148 227.87 71.5335 227.989 71.6523 228.048C71.9491 228.226 72.424 228.226 72.7802 228.226C73.2551 228.167 73.73 228.048 74.0862 227.751C74.2049 227.692 74.2643 227.573 74.383 227.514C74.5611 227.395 74.6798 227.217 74.7392 226.98C74.7392 226.148 74.7392 225.376 74.7392 224.545C73.9674 224.961 73.1364 225.376 72.3646 225.792C73.1364 225.792 73.9674 225.733 74.7392 225.792C74.6204 225.792 74.5017 225.733 74.3236 225.733C74.4424 225.733 74.5611 225.792 74.6204 225.792C74.5017 225.733 74.383 225.733 74.3236 225.673C74.4424 225.733 74.5017 225.733 74.6204 225.851C74.5611 225.792 74.4424 225.733 74.383 225.673C74.5017 225.733 74.5611 225.851 74.6204 225.97C74.5611 225.911 74.5611 225.792 74.5017 225.733C74.6204 225.911 74.6798 226.148 74.6798 226.386C74.6798 226.326 74.6798 226.208 74.6798 226.148C74.6798 226.386 74.6798 226.564 74.5611 226.742C74.6204 226.623 74.6204 226.564 74.6798 226.445C74.6204 226.505 74.6204 226.623 74.5611 226.683C74.6204 226.623 74.6798 226.505 74.7985 226.445C74.7392 226.505 74.6798 226.564 74.6204 226.564C74.7392 226.505 74.7985 226.386 74.9173 226.326C74.8579 226.386 74.7985 226.386 74.7985 226.445C74.9173 226.386 75.036 226.326 75.1547 226.267C75.0954 226.267 75.0954 226.326 75.036 226.326C75.2141 226.267 75.3328 226.208 75.5109 226.148C75.4515 226.148 75.3922 226.208 75.2734 226.208C75.4515 226.148 75.5703 226.148 75.7484 226.089C75.5703 226.148 75.3922 226.148 75.2141 226.148C75.3328 226.148 75.5109 226.148 75.6296 226.148C74.9766 226.148 74.3236 226.148 73.6706 226.148C73.1957 226.148 72.7208 226.208 72.3053 226.386C72.0084 226.505 71.5335 226.801 71.4148 227.098C71.2961 227.336 71.2367 227.633 71.4148 227.87C71.771 228.167 72.1272 228.226 72.4833 228.226Z" fill="#2D614B"/>
<path d="M105.547 223.834C108.753 223.834 111.187 225.437 112.137 228.168C113.205 231.077 112.493 234.343 110.415 236.243C107.744 238.677 102.876 238.558 100.323 236.005C97.8894 233.571 97.7113 228.999 99.9671 226.268C101.451 224.487 103.351 223.834 105.547 223.834ZM103.826 230.84C103.826 231.077 103.826 231.315 103.885 231.552C104.004 232.502 104.657 233.215 105.488 233.215C106.319 233.274 107.031 232.68 107.21 231.671C107.328 231.137 107.328 230.543 107.21 230.009C107.031 229.059 106.378 228.465 105.607 228.465C104.776 228.465 104.123 229.118 103.944 230.127C103.826 230.365 103.826 230.602 103.826 230.84Z" fill="#2D614B"/>
<path d="M104.895 224.843C107.329 224.902 109.585 226.149 110.475 228.583C111.366 231.018 111.009 234.224 108.932 236.005C108.813 236.124 108.575 236.242 108.338 236.42C107.922 236.658 108.635 236.302 108.16 236.539C107.982 236.599 107.863 236.658 107.685 236.717C107.744 236.717 107.982 236.658 107.685 236.717C107.507 236.777 107.388 236.777 107.21 236.836C106.676 236.955 107.566 236.836 107.032 236.895C106.795 236.895 106.616 236.955 106.379 236.955C106.676 236.955 106.32 236.955 106.201 236.955C106.082 236.955 105.904 236.955 105.785 236.955C105.429 236.955 105.37 236.955 105.014 236.836C104.42 236.717 103.886 236.539 103.292 236.242C101.036 235.055 99.9677 232.502 100.205 230.068C100.324 228.702 100.739 227.277 101.689 226.268C101.927 225.971 102.224 225.733 102.52 225.555C102.639 225.437 102.817 225.377 102.995 225.258C102.817 225.377 103.292 225.14 103.351 225.14C103.648 225.021 102.936 225.199 103.47 225.08C103.53 225.08 104.183 224.902 103.886 224.962C104.242 224.843 104.657 224.843 104.895 224.843C105.667 224.843 106.735 224.605 107.151 223.893C107.566 223.24 106.795 222.824 106.201 222.824C102.283 222.884 98.3649 224.665 97.0589 228.643C96.0497 231.611 96.8808 235.352 99.4928 237.311C102.342 239.448 106.498 239.508 109.644 237.964C113.028 236.361 114.868 232.858 114.274 229.177C113.978 227.455 113.146 225.733 111.722 224.665C110.119 223.418 108.219 222.884 106.201 222.884C105.429 222.884 104.361 223.121 103.945 223.834C103.53 224.427 104.301 224.843 104.895 224.843Z" fill="#2D614B"/>
<path d="M102.106 231.314C102.106 231.611 102.106 231.908 102.165 232.204C102.224 232.501 102.402 232.798 102.521 233.036C102.759 233.451 103.174 233.807 103.649 233.986C105.252 234.579 107.389 233.986 108.398 232.561C108.754 232.026 108.873 231.433 108.932 230.839C108.932 230.245 108.932 229.592 108.695 228.998C108.458 228.464 108.101 228.048 107.567 227.751C106.795 227.336 105.846 227.395 104.955 227.573C104.005 227.811 103.174 228.286 102.64 229.117C102.462 229.355 102.284 229.711 102.224 230.008C102.106 230.364 102.106 230.661 102.106 231.017C102.106 231.314 102.165 231.492 102.462 231.67C102.759 231.848 103.234 231.848 103.59 231.789C104.065 231.729 104.54 231.611 104.896 231.314C105.133 231.136 105.549 230.898 105.549 230.542C105.549 230.126 105.608 229.711 105.786 229.295C105.727 229.355 105.727 229.473 105.667 229.533C105.727 229.414 105.786 229.355 105.846 229.236C105.905 229.176 105.905 229.117 105.964 229.058C106.083 228.88 105.846 229.176 105.846 229.176L105.964 229.058C106.083 228.939 105.786 229.176 105.786 229.176L105.846 229.117C105.964 229.058 105.905 229.117 105.608 229.236C105.667 229.176 105.905 229.117 105.549 229.236C105.193 229.355 105.43 229.295 105.489 229.236C105.371 229.236 105.252 229.295 105.133 229.295C105.252 229.295 105.193 229.295 105.014 229.295C104.658 229.295 104.896 229.295 104.955 229.295C105.193 229.295 104.599 229.236 104.777 229.295C104.777 229.295 104.896 229.295 104.896 229.355C104.896 229.355 104.54 229.176 104.777 229.295C104.896 229.355 104.955 229.414 105.074 229.473C105.014 229.414 104.896 229.355 104.836 229.295C105.014 229.414 105.193 229.651 105.311 229.83C105.252 229.77 105.252 229.651 105.193 229.592C105.43 230.067 105.489 230.542 105.489 231.076C105.489 231.017 105.489 230.898 105.489 230.839C105.489 231.314 105.43 231.789 105.252 232.264C105.311 232.204 105.311 232.086 105.371 232.026C105.311 232.145 105.252 232.204 105.193 232.323C105.193 232.382 105.133 232.382 105.074 232.442C105.014 232.561 105.311 232.204 105.133 232.323C105.074 232.382 105.074 232.382 105.014 232.442C104.896 232.561 105.371 232.204 105.133 232.323C104.955 232.442 105.489 232.145 105.371 232.204C105.193 232.264 105.133 232.204 105.608 232.145C105.549 232.145 105.549 232.145 105.489 232.145C105.846 232.086 105.964 232.086 105.786 232.086H105.727C105.727 232.086 106.202 232.086 105.964 232.086C105.727 232.086 106.261 232.145 106.142 232.086C106.083 232.086 106.024 232.026 106.024 232.026C106.32 232.086 106.261 232.145 106.142 232.086C106.024 232.026 105.964 231.967 105.846 231.908C105.905 231.967 106.024 232.026 106.083 232.086C105.846 231.908 105.667 231.729 105.549 231.492C105.608 231.551 105.608 231.67 105.667 231.729C105.43 231.254 105.371 230.779 105.371 230.245C105.371 229.948 104.896 229.77 104.718 229.77C104.302 229.651 103.827 229.711 103.412 229.83C102.996 229.948 102.581 230.126 102.284 230.423C102.165 230.779 102.046 230.958 102.106 231.314Z" fill="#2D614B"/>
<path d="M89.5794 237.906C87.6798 237.846 85.3052 236.896 84.1179 234.165C82.9307 231.434 83.0494 228.762 84.8897 226.328C86.6706 223.894 90.5886 223.122 93.6755 224.428C96.4062 225.616 97.9497 228.525 97.5342 231.731C96.9999 235.649 94.3879 237.906 89.5794 237.906ZM88.7483 230.9C88.7483 231.078 88.7483 231.256 88.7483 231.434C88.8077 232.443 89.4607 233.215 90.2918 233.275C91.1229 233.334 91.8946 232.74 92.0133 231.672C92.0727 231.137 92.0727 230.603 92.0133 230.128C91.8352 229.119 91.1229 228.525 90.3511 228.525C89.52 228.584 88.8077 229.297 88.7483 230.306C88.7483 230.484 88.7483 230.662 88.7483 230.9Z" fill="#2D614B"/>
<path d="M90.6479 237.133C87.9171 237.014 86.0175 234.996 85.3051 232.443C84.8302 230.84 84.8896 229.237 85.602 227.693C85.8988 226.981 86.3143 226.387 86.7892 225.793C86.9673 225.615 87.2048 225.437 87.4422 225.259C87.561 225.199 87.6203 225.14 87.561 225.14C87.6203 225.081 88.0952 224.843 87.9765 224.903C88.0952 224.843 88.2733 224.784 88.392 224.724C88.6889 224.606 87.9765 224.784 88.5701 224.665C89.1638 224.546 88.214 224.665 88.867 224.606C88.9857 224.606 89.1044 224.546 89.2231 224.546C89.6387 224.487 90.4104 224.546 90.9447 224.665C92.2507 224.962 93.438 225.674 94.3284 226.684C96.05 228.643 96.2281 231.612 95.2782 233.986C95.0408 234.521 94.8033 234.996 94.3878 235.471C94.2691 235.649 94.0316 235.886 93.9129 235.946C93.7942 236.005 93.7348 236.124 93.6161 236.183C93.5567 236.243 93.2005 236.48 93.3786 236.361C93.2599 236.421 93.1412 236.48 92.9631 236.599C92.6662 236.777 93.1412 236.539 92.785 236.658C92.7256 236.658 92.2507 236.836 92.6069 236.718C92.4288 236.777 92.3101 236.836 92.132 236.836C91.5977 236.955 92.4882 236.777 91.8945 236.896C91.7164 236.896 91.5383 236.955 91.3602 236.955C91.1821 236.955 90.5291 237.014 90.2323 237.014C89.52 237.014 88.3921 237.311 87.9171 237.905C87.4422 238.499 88.3327 238.617 88.7482 238.617C91.9539 238.617 95.8719 237.668 97.7715 234.877C99.4931 232.383 99.6712 228.821 98.009 226.268C95.9313 223.062 91.8351 222.468 88.392 223.299C86.6111 223.715 84.7709 224.546 83.5242 225.971C82.2182 227.396 81.5059 229.296 81.5059 231.255C81.5059 233.274 82.337 235.471 83.8804 236.896C85.0677 238.024 86.7892 238.617 88.392 238.736C89.2231 238.796 90.173 238.617 90.826 238.083C91.4196 237.668 91.3602 237.133 90.6479 237.133Z" fill="#2D614B"/>
<path d="M89.4605 230.068C88.8668 230.068 88.2138 230.246 87.7389 230.542C87.4421 230.721 87.0266 230.958 87.0266 231.314C87.0266 231.849 87.0266 232.383 87.3234 232.858C87.6202 233.333 87.9764 233.689 88.5107 233.867C89.4605 234.224 90.529 233.986 91.4788 233.689C92.1318 233.452 92.8442 233.036 93.2598 232.442C93.6159 231.908 93.7347 231.374 93.794 230.721C93.8534 230.127 93.794 229.533 93.5566 228.999C92.9036 227.574 91.2414 227.514 89.876 227.871C88.9856 228.108 88.0357 228.524 87.5015 229.296C87.3234 229.593 87.1453 229.83 87.0859 230.186C86.9672 230.543 87.0266 230.958 87.0266 231.374C87.0266 231.611 87.5608 231.671 87.6796 231.73C88.0951 231.789 88.57 231.73 88.9262 231.611C89.3417 231.492 89.7573 231.374 90.1135 231.077C90.2916 230.899 90.4697 230.78 90.4697 230.483C90.4697 230.305 90.4697 230.127 90.4697 229.949C90.4697 230.008 90.4697 230.068 90.4697 230.127C90.529 229.771 90.5884 229.414 90.8258 229.058C90.7665 229.118 90.7665 229.177 90.7071 229.236C90.8258 229.118 90.9446 228.999 91.0039 228.821C90.8258 228.939 90.8258 228.999 90.8852 228.88C91.0039 228.821 90.9446 228.821 90.7071 228.999C91.0039 228.88 90.4697 229.118 90.3509 229.118C90.1728 229.177 90.1135 229.177 90.2322 229.177C89.876 229.236 89.7573 229.296 89.9354 229.236C89.5792 229.236 89.5198 229.296 89.6979 229.296C89.4011 229.296 89.3417 229.296 89.5198 229.296C89.6979 229.296 89.223 229.177 89.5198 229.296C89.5792 229.296 89.6386 229.355 89.7573 229.355C89.6979 229.296 89.6386 229.296 89.5198 229.236C89.7573 229.355 89.9947 229.533 90.1135 229.771C90.0541 229.711 90.0541 229.652 89.9947 229.593C90.4103 230.186 90.4103 230.899 90.4103 231.611C90.4103 231.552 90.4103 231.492 90.4103 231.433C90.3509 231.908 90.2916 232.324 90.0541 232.739C90.1135 232.68 90.1135 232.621 90.1728 232.561C90.1135 232.621 90.0541 232.68 90.0541 232.739C90.0541 232.799 89.9947 232.799 89.9947 232.799C89.876 232.858 89.9354 232.858 90.1135 232.739C90.0541 232.739 90.0541 232.799 89.9947 232.799C90.2322 232.68 90.2916 232.621 90.1728 232.68C90.0541 232.739 90.1135 232.739 90.4103 232.561C90.2916 232.621 90.3509 232.561 90.529 232.502C90.7071 232.442 90.8852 232.383 91.0633 232.383C90.8852 232.383 91.0039 232.383 91.3008 232.383C91.0633 232.383 91.7163 232.383 91.3601 232.383C91.182 232.383 91.6569 232.502 91.3601 232.383C91.3007 232.383 91.2414 232.324 91.1227 232.264C91.182 232.324 91.2414 232.324 91.3601 232.383C91.1227 232.264 90.8852 232.086 90.7665 231.849C90.8258 231.908 90.8258 231.967 90.8852 232.027C90.529 231.492 90.4697 230.958 90.4697 230.364C89.6386 230.78 88.8668 231.196 88.0357 231.611C88.4513 231.611 88.9856 231.492 89.4011 231.314C89.6979 231.196 90.1728 231.017 90.3509 230.721C90.4697 230.542 90.5884 230.305 90.4103 230.186C90.1135 230.068 89.7573 230.068 89.4605 230.068Z" fill="#2D614B"/>
<path d="M78.7158 228.345C80.9123 229.473 81.8027 230.779 81.6246 232.738C81.3872 235.232 79.7843 236.835 77.0536 236.894C73.7886 237.013 70.5236 236.894 67.1992 236.894C67.1992 231.373 67.1992 225.792 67.1992 220.27C67.1992 220.27 67.2586 220.211 67.3179 220.211C70.7017 220.27 74.1448 220.152 77.5285 220.389C80.1999 220.627 81.5653 222.705 81.2091 225.376C81.031 226.801 80.0812 227.751 78.7158 228.345ZM72.542 232.738C73.4918 232.738 74.3822 232.798 75.2133 232.738C75.8663 232.679 76.2225 232.323 76.2225 231.61C76.2225 230.898 75.8663 230.482 75.2133 230.423C74.3229 230.364 73.4324 230.423 72.4826 230.423C72.542 231.195 72.542 231.967 72.542 232.738ZM72.542 226.742C73.3137 226.742 74.0261 226.801 74.7384 226.742C75.3914 226.682 75.8663 226.445 75.9257 225.673C75.9257 224.901 75.5695 224.486 74.7978 224.426C74.0854 224.367 73.3137 224.426 72.542 224.426C72.542 225.139 72.542 225.851 72.542 226.742Z" fill="#61C08B"/>
<path d="M104.954 223.418C108.159 223.418 110.593 224.962 111.543 227.574C112.611 230.364 111.899 233.571 109.821 235.411C107.15 237.786 102.282 237.608 99.7296 235.174C97.2956 232.799 97.1175 228.346 99.3734 225.733C100.857 224.071 102.757 223.418 104.954 223.418ZM103.232 230.246C103.232 230.483 103.232 230.721 103.291 230.958C103.41 231.908 104.063 232.561 104.894 232.621C105.725 232.68 106.438 232.086 106.616 231.077C106.734 230.543 106.734 230.008 106.616 229.474C106.438 228.524 105.785 227.99 105.013 227.99C104.182 227.99 103.529 228.643 103.351 229.593C103.232 229.771 103.232 230.008 103.232 230.246Z" fill="#61C08B"/>
<path d="M88.9856 237.131C87.086 237.072 84.7115 236.182 83.5242 233.51C82.3369 230.897 82.4556 228.226 84.2959 225.851C86.0768 223.476 89.9948 222.704 93.0818 224.01C95.8125 225.198 97.3559 227.988 96.9404 231.076C96.4061 234.875 93.7941 237.131 88.9856 237.131ZM88.1546 230.304C88.1546 230.482 88.1546 230.66 88.1546 230.838C88.2139 231.847 88.8669 232.56 89.698 232.619C90.5291 232.679 91.3008 232.085 91.4196 231.076C91.4789 230.601 91.4789 230.066 91.4196 229.532C91.2415 228.582 90.5291 227.988 89.7574 227.988C88.9263 228.048 88.2139 228.76 88.1546 229.71C88.1546 229.888 88.1546 230.066 88.1546 230.304Z" fill="#61C08B"/>
<path d="M10.3889 158.76L9.32031 139.227L169.602 140.295L169.365 144.57L11.4574 141.601L13.4164 160.6C13.4758 160.541 12.5853 160.125 10.3889 158.76Z" fill="#61C08B"/>
</g>
<defs>
<clipPath id="clip0_114_4643">
<rect width="181" height="312" fill="white"/>
</clipPath>
</defs>
</svg>
