<svg width="280" height="280" viewBox="0 0 280 280" fill="none" xmlns="http://www.w3.org/2000/svg">
  <!-- Background  -->
  <rect width="273" height="273" rx="49" fill="#378563"/>
  <!-- Text -->
  <g transform="translate(98,46)">
    <path d="M0.759766 27H7.86772V19.2273H11.8052C17.7754 19.2273 21.7768 15.7116 21.7768 10.0739C21.7768 4.5 17.8777 0.818181 12.0609 0.818181H0.759766V27ZM7.86772 13.7045V6.49432H10.3734C12.8663 6.49432 14.362 7.82386 14.362 10.0739C14.362 12.3111 12.8663 13.7045 10.3734 13.7045H7.86772ZM32.5254 27.358C38.9174 27.358 42.7015 23.267 42.7015 17.233C42.7015 11.1989 38.9174 7.10795 32.5254 7.10795C26.1333 7.10795 22.3493 11.1989 22.3493 17.233C22.3493 23.267 26.1333 27.358 32.5254 27.358ZM32.5765 22.142C30.6845 22.142 29.5595 20.2628 29.5595 17.1818C29.5595 14.1009 30.6845 12.2216 32.5765 12.2216C34.3663 12.2216 35.4913 14.1009 35.4913 17.1818C35.4913 20.2628 34.3663 22.142 32.5765 22.142ZM54.0254 27.358C60.4174 27.358 64.2015 23.267 64.2015 17.233C64.2015 11.1989 60.4174 7.10795 54.0254 7.10795C47.6333 7.10795 43.8493 11.1989 43.8493 17.233C43.8493 23.267 47.6333 27.358 54.0254 27.358ZM54.0765 22.142C52.1845 22.142 51.0595 20.2628 51.0595 17.1818C51.0595 14.1009 52.1845 12.2216 54.0765 12.2216C55.8663 12.2216 56.9913 14.1009 56.9913 17.1818C56.9913 20.2628 55.8663 22.142 54.0765 22.142ZM73.122 0.818181H66.0652V27H73.122V0.818181Z" fill="white"/>  </g>
  <!-- Icon -->
  <g transform="translate(68,102)">
    <path d="M132.286 69.775L135.786 54.875C135.786 54.775 135.786 54.475 135.686 54.275L125.986 42.175L122.386 26.275C122.386 26.175 122.286 25.875 121.986 25.875L107.586 18.975L98.486 7.575C98.386 7.475 98.186 7.275 97.886 7.275H83.186L68.186 0.075C68.086 -0.025 67.786 -0.025 67.586 0.075L52.686 7.275H37.986C37.686 7.275 37.586 7.375 37.386 7.575L28.186 19.175L14.786 25.575L13.386 26.275C13.086 26.375 12.786 26.675 12.786 26.975L12.486 28.975L9.486 42.375L1.586 52.475L0.186002 54.175C0.0860016 54.475 -0.113997 54.775 0.0860031 55.075L0.786004 57.375L3.686 69.675L0.186002 84.975C0.186002 85.075 0.186004 85.375 0.286004 85.575L9.786 97.575L13.386 113.375C13.386 113.475 13.486 113.775 13.786 113.775L28.486 120.875L37.686 132.475C37.786 132.575 37.986 132.775 38.286 132.775H52.886L67.786 139.975H68.386L83.386 132.775H98.086C98.386 132.775 98.486 132.675 98.686 132.475L107.786 121.075L120.186 115.175L122.386 114.175C122.486 114.075 122.686 113.875 122.686 113.775L123.386 110.575L126.286 97.675L135.986 85.575C136.086 85.475 136.086 85.175 136.086 84.975L132.286 69.775ZM66.986 1.575V6.875H55.886L66.986 1.575ZM52.986 8.375H67.186V22.575L46.086 11.675L52.986 8.375ZM49.686 8.375L44.386 10.975L39.286 8.375H49.686ZM38.686 9.675L42.686 11.675L37.786 14.175L38.686 9.675ZM44.286 12.475L67.086 24.075L67.186 67.875L32.186 40.075L37.286 15.775L44.286 12.475ZM18.886 109.075L20.786 111.375H15.886L18.886 109.075ZM16.186 109.375L16.886 106.475L18.086 107.875L16.186 109.375ZM17.486 104.675L23.386 80.975C23.386 80.675 23.386 80.575 23.286 80.375L6.886 60.675L8.886 51.875L31.586 41.475L66.586 69.175L19.186 107.075L17.486 104.675ZM37.086 9.875L36.086 14.975L31.286 17.275L37.086 9.875ZM29.186 19.775L35.686 16.575L31.086 39.075L20.486 30.775L29.186 19.775ZM19.386 29.875L15.386 26.575L26.386 21.275L19.386 29.875ZM14.386 27.875L18.386 31.175L11.586 39.675L14.386 27.875ZM10.986 42.575L19.586 31.775L30.286 40.475L9.386 49.975L10.986 42.575ZM8.986 45.275L7.686 50.775L2.786 53.075L8.986 45.275ZM7.386 52.575L5.786 59.175L2.286 54.875L7.386 52.575ZM1.986 56.775L5.486 60.975L4.186 66.475L1.986 56.775ZM1.386 84.775L3.986 72.875L8.786 93.975L1.386 84.775ZM4.886 69.775L6.586 62.375L21.886 80.975L16.286 103.375L10.986 96.775L4.886 69.775ZM14.286 111.075L11.786 100.075L15.786 105.175L14.286 111.075ZM15.586 112.975L22.086 112.875L26.286 118.075L15.586 112.975ZM38.386 131.175L31.286 122.175L49.586 131.175H38.386ZM29.186 119.575L23.886 112.775L47.286 112.475L61.286 131.075H52.886L29.186 119.575ZM55.886 132.575H62.386L66.186 137.475L55.886 132.575ZM67.486 137.075L64.186 132.575H67.486V137.075ZM63.286 131.175L48.286 111.375C48.186 111.275 47.986 111.075 47.686 111.075L22.886 111.375L20.286 108.175L67.486 70.575L67.786 131.175H63.286ZM131.586 66.375L130.286 60.775L133.886 56.275L131.586 66.375ZM133.786 54.275L129.886 59.075L126.686 45.475L133.786 54.275ZM118.386 104.475L116.486 107.075L68.986 69.375L101.586 43.375L128.486 59.975L128.586 60.575L112.586 80.075C112.486 80.175 112.486 80.475 112.486 80.675L118.386 104.475ZM118.986 106.275L119.886 109.475L117.686 107.875L118.986 106.275ZM128.086 57.875L102.686 42.275L115.986 31.775L124.686 42.775L128.086 57.875ZM123.886 39.575L117.086 30.875L121.086 27.575L123.886 39.575ZM120.286 26.575L116.286 29.875L109.686 21.475L120.286 26.575ZM114.986 30.775L101.886 41.175L99.686 16.575L106.486 19.875L114.986 30.775ZM104.386 17.175L99.486 14.875L99.086 10.575L104.386 17.175ZM98.086 14.075L93.186 11.775L97.686 9.475L98.086 14.075ZM96.586 8.475L91.386 11.075L86.086 8.475H96.586ZM89.986 11.975L68.586 22.675V8.475H82.886L89.986 11.975ZM68.486 1.575L79.786 7.075L68.486 6.975V1.575ZM91.586 12.775L98.186 15.775L100.486 42.175L68.686 67.575L68.586 24.175L91.586 12.775ZM115.686 108.175L112.986 111.675L88.986 110.975C88.686 110.975 88.586 111.075 88.386 111.275L73.086 131.075H69.086L68.786 70.975L115.686 108.175ZM68.886 132.575H71.886L68.886 136.375V132.575ZM70.186 137.075L73.786 132.475H79.686L70.186 137.075ZM97.486 130.975H86.086L104.386 122.175L97.486 130.975ZM106.586 119.775L82.786 131.175H74.886L89.286 112.575L111.786 113.175L106.586 119.775ZM109.486 118.175L113.486 113.075L119.686 113.175L109.486 118.175ZM114.686 111.675L116.686 109.075L120.186 111.775L114.686 111.675ZM121.486 110.675L120.086 104.875L123.986 99.975L121.486 110.675ZM124.686 96.775L119.586 103.175L113.986 80.775L129.186 62.275L130.886 69.775L124.686 96.775ZM126.786 94.175L131.686 73.075L134.286 84.775L126.786 94.175Z" fill="white"/>
  </g>
</svg>
