<svg width="258" height="237" viewBox="0 0 258 237" fill="none" xmlns="http://www.w3.org/2000/svg">
<g clip-path="url(#clip0_114_4866)">
<path d="M129.026 237C200.286 237 258.053 210.862 258.053 178.62C258.053 146.378 200.286 120.24 129.026 120.24C57.7671 120.24 0 146.378 0 178.62C0 210.862 57.7671 237 129.026 237Z" fill="#131414"/>
<path d="M107.733 208.101C104.669 206.202 101.921 204.462 99.1738 202.774C91.1955 197.764 83.2172 192.807 75.1861 187.85C74.3935 187.375 74.235 186.9 74.2878 186.057C74.4463 183.683 74.4992 181.363 74.6577 178.99C74.6577 178.568 74.6049 178.304 74.235 178.041C70.3251 175.087 66.8379 171.659 62.7167 168.97C59.1766 166.649 55.4253 165.12 51.0398 165.647C49.3491 165.858 47.6583 166.28 46.2317 167.124C44.7523 167.968 43.2729 167.651 41.7935 167.282C38.6233 166.544 35.9815 164.804 33.3396 163.011C29.8524 160.637 26.5766 158.001 22.6139 156.418C21.4515 155.944 20.5004 154.836 19.4437 154.045C19.0738 153.782 19.1795 153.36 19.1795 152.991C19.0738 145.185 18.8096 137.433 18.387 129.681C17.8586 120.083 17.066 110.432 16.0093 100.886C14.9526 91.0246 13.5788 81.2155 11.9409 71.4064C9.19343 55.1107 5.60055 38.9204 1.1623 22.9939C0.84528 21.7809 0.633934 20.5152 0.0527344 19.355C0.0527344 19.0913 0.0527344 18.8804 0.0527344 18.6167C0.739607 17.2983 1.10946 15.8744 1.63783 14.5032C1.84917 13.9231 2.06052 13.6594 2.74739 13.6594C9.77463 13.6594 16.749 13.2903 23.7763 12.8684C32.2829 12.341 40.7896 11.7081 49.2962 10.7061C58.7539 9.59867 68.2116 8.49119 77.6694 7.38371C89.082 6.01255 100.548 4.64139 111.96 3.27023C120.572 2.21549 129.238 1.26622 137.85 0.158746C139.118 0.000534952 140.28 0.158746 141.496 0.527905C155.973 4.95781 170.714 8.28024 185.561 11.128C199.352 13.7649 213.195 15.9798 227.038 18.1421C231.793 18.8804 236.548 19.5132 241.251 20.4625C243.734 20.9371 246.112 22.0446 248.542 22.7829C249.071 22.9411 248.965 23.3103 248.912 23.6267C247.802 30.8517 246.957 38.1294 246.059 45.4071C245.372 51.3664 244.791 57.3256 244.21 63.2849C243.417 71.09 242.836 78.8423 242.307 86.6474C241.99 91.2883 241.726 95.8764 241.515 100.517C240.828 115.705 240.405 130.894 240.564 146.082C240.617 152.516 240.828 159.003 240.987 165.436C241.039 166.386 240.67 166.913 239.983 167.493C234.065 172.398 226.826 174.665 219.852 177.355C215.731 178.937 211.451 179.992 207.118 181.047C206.643 181.152 206.167 181.258 205.692 180.941C199.51 176.933 192.853 176.933 185.984 178.779C180.436 180.256 175.258 182.629 169.975 184.685C166.329 186.057 162.736 187.428 158.826 187.902C156.448 188.166 154.758 189.432 154.176 191.752C153.331 195.022 151.006 196.604 148.1 197.922C136.74 202.985 124.747 205.886 112.489 207.679C111.537 207.837 110.534 207.942 109.583 208.206C110.164 208.206 110.745 208.206 111.326 208.206L107.733 208.101ZM235.703 95.2435C236.231 85.0126 236.813 74.8343 237.552 64.6561C238.292 54.7415 239.137 44.8797 239.93 34.9652C240.088 32.6975 240.247 30.4298 240.511 28.1621C240.617 27.2128 240.247 26.8964 239.349 26.6327C237.394 25.9999 235.597 26.7382 233.748 27.1073C209.496 32.0646 185.244 37.0219 160.992 41.9792C143.134 45.618 125.328 49.3624 107.416 52.8957C105.778 53.2122 105.725 53.7923 105.778 55.0579C106.254 63.2849 106.677 71.5119 107.099 79.7389C107.469 86.8584 107.839 93.9779 108.209 101.045C108.737 111.381 109.318 121.717 109.847 132.054C110.217 138.962 110.534 145.871 110.956 152.78C111.696 165.7 112.013 178.673 113.387 191.541C113.651 193.914 113.809 196.34 113.968 198.713C114.021 199.663 114.232 200.137 115.447 200.032C121.999 199.399 128.339 197.922 134.733 196.393C139.488 195.233 144.243 194.125 148.998 192.965C149.95 192.754 150.531 192.227 150.636 191.225C150.636 191.119 150.689 190.961 150.689 190.856C150.848 186.689 150.372 187.639 154.229 185.635C165.8 179.623 178.111 175.72 190.845 172.82C197.027 171.448 203.261 170.288 209.496 169.286C210.659 169.075 210.976 169.655 211.187 170.499C211.504 171.765 211.081 172.978 210.817 174.138C210.394 176.142 210.341 176.142 212.349 175.615C220.486 173.4 227.777 169.655 234.329 164.434C235.069 163.854 235.333 163.274 235.28 162.378C234.752 153.36 234.752 144.342 234.646 134.533C234.752 121.928 235.069 108.586 235.703 95.2435ZM40.9481 156.893C41.1594 155.944 41.635 155.838 42.4275 155.944C53.2061 157.262 62.7167 161.534 71.2762 168.073C73.2311 169.603 75.0804 171.238 76.9825 172.925C78.4619 174.244 78.8846 175.878 78.6204 177.724C78.3562 179.939 77.6165 182.101 77.6694 184.369C77.6694 185.055 77.8807 185.477 78.5676 185.793C87.5498 190.381 96.4263 195.286 105.567 199.505C106.095 199.768 106.571 200.085 107.416 200.137C107.416 197.026 107.416 194.02 107.416 190.961C107.416 178.093 107.205 165.225 106.518 152.358C106.095 143.709 105.514 135.113 104.827 126.464C104.246 119.028 103.559 111.645 102.767 104.209C101.974 96.6674 101.129 89.1788 100.072 81.6901C99.0681 74.3069 98.0114 66.9238 97.0075 59.5933C96.849 58.4331 96.4791 57.4839 95.7394 56.5873C93.4146 53.7923 90.5086 51.8937 87.3384 50.3644C76.6655 45.1961 65.5698 41.1354 54.5799 36.7055C39.68 30.6935 24.7802 24.7869 9.8803 18.8276C9.51044 18.6694 9.14059 18.4585 8.7179 18.4057C7.87252 18.3003 6.76295 18.0366 6.18175 18.4057C5.33637 18.9331 6.18175 19.9351 6.3931 20.6207C10.6728 36.0726 14.0015 51.7883 16.5377 67.6094C18.387 78.9478 19.8664 90.339 21.0288 101.783C22.1912 113.174 23.1422 124.618 23.7763 136.062C24.0933 141.494 24.3575 146.979 24.6745 152.41C24.7273 152.938 24.833 153.307 25.3085 153.623C29.9053 156.366 34.4492 159.161 39.046 161.903C39.2045 162.009 39.363 162.061 39.5743 162.167C39.997 160.374 40.5782 158.633 40.9481 156.893ZM39.046 24.7342C59.5465 32.2756 80.2055 39.3951 100.917 46.3036C102.608 46.8837 104.088 46.5146 105.673 46.3036C120.255 44.1414 134.68 40.9772 149.104 38.0766C165.589 34.7015 182.074 31.3263 198.506 28.0039C204.529 26.7909 210.606 25.5252 216.629 24.2595C216.788 24.2068 216.946 24.1541 217.21 24.1013C216.788 23.574 216.206 23.6267 215.731 23.4685C202.68 19.9351 189.471 17.2983 176.262 14.5032C163.951 11.9191 151.64 9.22951 139.541 5.69613C138.22 5.32697 137.005 5.69613 135.737 5.85434C122.686 7.70014 109.583 9.22951 96.4791 10.7061C85.542 11.9191 74.552 13.0793 63.6149 14.2923C52.3607 15.5579 41.1594 16.8764 29.9053 18.1948C27.8975 18.4057 25.8897 18.6694 23.9348 18.9331C23.9348 19.0386 23.9348 19.0913 23.9348 19.1968C29.0071 21.0426 34.0265 22.8884 39.046 24.7342Z" fill="#131414"/>
<path d="M235.28 162.377C235.332 163.326 235.015 163.906 234.329 164.434C227.724 169.655 220.433 173.399 212.349 175.614C210.341 176.141 210.394 176.141 210.816 174.137C211.081 172.924 211.503 171.764 211.186 170.499C210.975 169.602 210.658 169.075 209.495 169.286C203.261 170.288 197.026 171.395 190.844 172.819C178.163 175.667 165.853 179.622 154.229 185.634C150.372 187.638 150.9 186.636 150.689 190.855C150.689 190.96 150.636 191.119 150.636 191.224C150.53 192.226 150.002 192.754 148.998 192.964C144.243 194.072 139.487 195.232 134.732 196.392C128.392 197.922 121.998 199.398 115.447 200.031C114.231 200.137 114.073 199.662 113.967 198.713C113.809 196.34 113.65 193.914 113.386 191.541C112.065 178.62 111.748 165.699 110.956 152.779C110.533 145.87 110.216 138.962 109.846 132.053C109.318 121.717 108.736 111.38 108.208 101.044C107.838 93.9244 107.468 86.805 107.099 79.7382C106.676 71.5112 106.253 63.2843 105.778 55.0573C105.725 53.7389 105.778 53.2115 107.416 52.8951C125.274 49.3617 143.133 45.6701 160.992 41.9785C185.244 37.0212 209.495 32.064 233.747 27.1067C235.597 26.7375 237.393 25.9992 239.348 26.6321C240.193 26.8957 240.563 27.2122 240.51 28.1614C240.246 30.4291 240.088 32.6968 239.929 34.9645C239.137 44.8791 238.291 54.7409 237.552 64.6554C236.812 74.8337 236.178 85.0646 235.702 95.2429C235.015 108.585 234.698 121.981 234.646 134.585C234.751 144.341 234.804 153.359 235.28 162.377ZM204.529 55.1628C209.39 54.7409 214.198 54.5299 219.059 54.5299C219.746 54.5299 220.116 54.5299 220.063 55.4265C219.323 67.3977 219.059 79.3163 219.112 91.2876C219.112 93.4498 218.689 93.7135 216.576 93.0807C216.364 93.0279 216.1 92.9224 215.836 92.8697C213.881 92.2896 213.511 92.5533 213.141 94.5573C212.771 96.5086 212.56 98.5126 211.873 100.358C211.028 102.626 209.443 103.839 207.012 103.892C206.537 103.892 206.167 103.944 205.797 104.366C204.317 106.265 203.314 108.374 202.997 110.748C202.521 114.175 204.687 116.285 206.959 117.023C209.971 118.025 213.035 118.711 216.206 117.498C216.893 117.234 217.632 117.076 218.425 116.865C218.583 118.605 218.266 120.293 218.161 121.981C217.527 130.155 216.84 138.329 216.206 146.503C216.153 147.4 215.624 147.611 214.99 147.874C209.231 150.406 203.261 152.357 197.29 154.414C193.327 155.785 189.312 157.209 185.349 158.633C185.085 158.738 184.821 158.844 184.609 159.213C186.617 158.844 188.678 158.475 190.686 158.053C200.46 155.943 209.971 152.99 219.534 150.195C220.38 149.931 220.433 149.456 220.433 148.718C220.327 138.487 220.221 128.256 220.063 118.025C220.063 117.076 220.327 116.496 221.067 115.968C222.546 114.861 224.078 113.754 225.399 112.435C228.517 109.324 228.992 106.529 227.143 102.521C226.139 100.358 224.765 98.4598 223.233 96.6668C221.806 94.9792 221.278 93.1334 221.384 90.9184C221.912 81.9004 221.489 72.8824 222.123 63.8644C222.44 59.3817 222.969 54.8991 224.025 50.4692C224.29 49.3617 224.078 49.2035 223.022 49.4144C213.458 51.5239 203.842 53.6334 194.279 55.6901C193.539 55.8483 192.746 55.8484 192.059 56.323C191.954 56.3757 191.848 56.3757 191.69 56.4285C191.795 56.3757 191.901 56.3757 192.007 56.323C196.181 55.9011 200.355 55.5319 204.529 55.1628ZM187.78 87.7542C182.232 83.1134 175.786 80.8984 168.494 82.1641C164.373 82.9024 160.886 84.8537 158.35 88.2816C154.757 93.0807 151.798 98.1961 150.319 104.103C148.681 110.642 149.262 116.865 152.591 122.824C156.131 129.1 160.675 134.321 166.962 137.96C174.571 142.337 179.59 142.073 187.357 136.325C193.592 131.684 196.656 125.197 197.766 117.656C198.083 115.494 198.347 113.332 198.294 111.433C198.241 101.73 194.965 93.819 187.78 87.7542ZM127.916 82.6915C128.022 80.7402 128.075 78.7889 128.444 76.8904C128.973 74.2008 130.452 72.4605 133.2 71.6694C144.665 68.2943 156.078 64.8136 167.543 61.3857C167.913 61.2803 168.336 61.2275 168.706 60.8584C160.939 61.9658 153.278 63.6007 145.616 65.1301C139.17 66.4485 132.724 67.8196 126.225 68.7689C125.221 68.9271 124.852 69.1908 124.957 70.2983C125.538 76.363 126.014 82.4278 126.542 88.4925C127.81 86.6995 127.81 84.6955 127.916 82.6915ZM127.441 157.42C129.026 160.162 131.35 160.373 133.464 158C135.26 155.943 136 153.517 136.106 150.828C136.317 145.923 135.525 141.177 133.464 136.694C132.83 135.323 131.456 134.69 129.713 134.848C127.863 135.007 126.489 136.009 126.225 137.485C125.644 140.649 125.274 143.866 125.221 147.031C125.274 150.722 125.591 154.203 127.441 157.42ZM124.27 110.906C124.746 112.752 125.591 114.334 126.912 115.705C127.916 116.707 128.973 116.76 130.03 116.127C131.932 114.966 133.411 113.437 133.887 111.222C135.207 104.999 134.098 99.0399 131.509 93.3443C130.611 91.3403 127.916 90.9184 126.384 92.4478C124.535 94.2936 123.848 96.6668 123.689 99.1981C123.583 100.569 123.689 101.94 123.689 103.312C123.689 105.843 123.636 108.427 124.27 110.906ZM156.976 166.28C149.632 168.073 142.34 170.235 134.89 171.712C131.826 172.292 131.879 172.344 131.667 169.286C131.509 166.965 131.298 164.645 131.139 162.377C131.086 161.481 130.611 161.428 129.924 161.428C129.237 161.428 128.761 161.481 128.709 162.377C128.392 166.807 128.022 171.184 127.652 175.614C127.599 176.141 127.441 176.616 128.339 176.352C140.914 172.766 153.542 169.286 165.8 164.75C165.958 164.697 166.117 164.539 166.592 164.276C163.158 164.803 160.041 165.541 156.976 166.28Z" fill="#61C08B"/>
<path d="M38.9923 161.955C34.3956 159.213 29.8516 156.418 25.2549 153.675C24.7793 153.359 24.6208 153.042 24.6208 152.462C24.3567 147.03 24.0396 141.546 23.7226 136.114C23.0886 124.67 22.1904 113.226 20.9751 101.835C19.8127 90.3909 18.3333 78.9998 16.484 67.6613C13.8951 51.8402 10.5664 36.1246 6.33946 20.6726C6.12811 19.9343 5.28273 18.9851 6.12811 18.4577C6.76215 18.0885 7.81887 18.3522 8.66426 18.4577C9.08695 18.5104 9.4568 18.7214 9.82666 18.8796C24.7793 24.7861 39.6792 30.6927 54.5791 36.7047C65.569 41.1346 76.6647 45.1426 87.3376 50.3636C90.5606 51.8929 93.4666 53.8442 95.7386 56.5865C96.4783 57.4831 96.8482 58.4323 97.0067 59.5925C98.0106 66.9757 99.0673 74.3589 100.071 81.6893C101.075 89.178 101.973 96.7194 102.766 104.208C103.558 111.591 104.245 119.027 104.826 126.463C105.513 135.112 106.042 143.708 106.517 152.357C107.151 165.225 107.415 178.093 107.415 190.96C107.415 194.019 107.415 197.025 107.415 200.137C106.57 200.084 106.095 199.767 105.566 199.504C96.3726 195.285 87.549 190.38 78.5668 185.792C77.9327 185.476 77.7214 185.054 77.6686 184.368C77.6157 182.101 78.3554 179.938 78.6196 177.723C78.831 175.825 78.4611 174.243 76.9817 172.924C75.1324 171.289 73.2831 169.602 71.2754 168.073C62.7159 161.533 53.2053 157.261 42.4267 155.943C41.6342 155.838 41.1586 155.943 40.9473 156.892C40.5774 158.633 40.0491 160.373 39.5207 162.166C39.3094 162.061 39.1508 162.008 38.9923 161.955ZM57.5907 155.257C57.4851 155.363 57.5907 155.468 57.6964 155.521C57.8021 155.785 58.0663 155.838 58.2776 155.89C65.6219 159.898 72.9133 163.959 80.2575 167.967C85.0656 170.604 89.9266 173.241 94.7347 175.878C96.1085 176.616 96.1613 176.616 96.1084 174.981C95.8443 165.963 95.3159 156.945 94.6819 147.927C94.1007 140.227 93.4666 132.528 92.6212 124.828C92.5684 124.564 92.6741 124.248 92.4099 124.037C92.1986 124.459 92.3042 124.934 92.3042 125.408C92.4099 139.595 92.5156 153.834 92.5684 168.02C92.5684 169.918 92.1986 170.129 90.455 169.391C79.9934 164.803 69.5318 160.267 59.0173 155.732C58.8588 155.679 58.7003 155.627 58.5418 155.627C58.3304 155.521 58.0663 155.416 57.8549 155.31C57.8021 155.257 57.6436 155.205 57.5907 155.257ZM58.9645 50.7855C59.0702 50.5745 58.7531 50.5218 58.5946 50.5218C54.2092 48.0959 49.6124 46.1446 45.0157 44.1406C36.509 40.449 27.8967 37.0738 19.6014 32.9076C19.1787 32.6967 18.8088 32.4857 18.3861 32.9076C17.9106 33.3823 18.2276 33.7514 18.3861 34.1206C21.1336 40.1326 22.4017 46.5138 23.3528 53.0004C24.3567 59.5398 24.9907 66.1319 26.5758 72.5658C26.6815 72.935 26.6286 73.3042 27.1041 73.5678C26.84 69.9817 26.6286 66.5011 26.3644 63.0204C25.9946 58.0104 25.5719 52.9477 25.202 47.9377C25.0435 45.7227 24.8322 43.5078 24.7265 41.2401C24.6208 39.6052 24.9379 39.3943 26.4701 39.9216C36.826 43.455 47.182 47.0411 57.5907 50.5745C57.8549 50.68 58.1719 50.7327 58.4361 50.7855C58.5946 50.8382 58.8588 51.0491 58.9645 50.7855Z" fill="#2FA874"/>
<path d="M23.9355 19.1965C28.955 21.0423 34.0273 22.9408 39.0468 24.7866C59.5473 32.328 80.2063 39.4475 100.918 46.3561C102.609 46.9362 104.088 46.567 105.673 46.3561C120.256 44.1938 134.681 41.0296 149.105 38.1291C165.59 34.7539 182.075 31.3788 198.507 28.0563C204.53 26.8434 210.606 25.5777 216.63 24.312C216.788 24.2593 216.947 24.2065 217.211 24.1538C216.788 23.6264 216.207 23.6792 215.732 23.521C202.681 19.9876 189.472 17.3507 176.263 14.5557C163.952 11.9716 151.641 9.28197 139.542 5.7486C138.221 5.37944 137.005 5.7486 135.737 5.90681C122.687 7.7526 109.583 9.28197 96.4799 10.7586C85.5428 11.9716 74.5528 13.1318 63.6157 14.3447C52.3615 15.6104 41.1602 16.9288 29.9061 18.2473C27.8983 18.4582 25.8905 18.7219 23.9355 18.9856C23.9355 19.0383 23.9355 19.0911 23.9355 19.1965Z" fill="#2C8460"/>
<path d="M197.714 117.604C196.604 125.145 193.54 131.684 187.305 136.272C179.538 142.021 174.518 142.284 166.91 137.907C160.622 134.321 156.079 129.047 152.539 122.772C149.21 116.813 148.629 110.59 150.267 104.05C151.746 98.1964 154.652 93.0281 158.298 88.2291C160.887 84.8012 164.321 82.7972 168.442 82.1116C175.734 80.8459 182.18 83.0608 187.728 87.7017C194.913 93.7664 198.189 101.677 198.189 111.328C198.295 113.279 198.031 115.441 197.714 117.604ZM157.716 96.6142C156.871 95.9814 156.554 96.1923 156.079 96.9834C154.282 99.8839 153.595 103.101 153.437 106.423C153.331 108.375 153.49 110.326 153.595 112.224C153.701 113.332 154.176 113.648 155.127 113.648C156.448 113.648 157.769 113.596 159.09 113.701C160.517 113.807 161.838 114.07 162.683 115.652C160.147 115.916 157.716 116.285 155.339 116.391C154.176 116.443 154.071 116.865 154.229 117.815C154.599 120.557 155.762 122.93 157.399 125.145C158.879 127.096 160.464 128.942 161.943 130.893C162.419 131.526 162.736 131.21 163.159 130.893C165.219 129.417 167.28 127.94 169.288 126.463C169.763 126.147 170.08 125.778 170.661 126.411C171.295 127.096 170.609 127.307 170.344 127.571C168.759 129.153 167.227 130.735 166.065 132.739C165.589 133.583 165.536 134.058 166.54 134.638C169.393 136.167 172.194 137.802 175.469 138.171C177.16 138.382 178.745 138.066 180.278 137.327C181.281 136.853 181.493 135.903 181.546 134.954C181.704 133.53 181.281 132.159 181.229 130.735C181.229 129.68 181.229 128.626 182.074 127.571C182.972 129.469 183.818 131.21 184.61 133.003C184.98 133.794 185.244 133.899 185.984 133.372C187.833 132.053 189.577 130.577 190.951 128.731C191.585 127.835 192.06 126.78 192.43 125.725C192.853 124.459 192.747 123.405 191.532 122.614C190.951 122.192 190.422 121.612 190.105 120.926C189.947 120.557 189.735 120.082 190.052 119.766C190.422 119.397 190.951 119.291 191.426 119.608C191.902 119.871 192.377 120.135 192.747 120.504C193.487 121.19 193.857 120.979 194.226 120.135C195.23 117.815 195.494 115.441 195.389 112.963C195.23 109.746 194.543 106.582 193.909 103.417C193.751 102.626 193.487 102.468 192.694 102.679C191.585 102.943 190.369 102.784 189.154 103.312C190.528 105.369 191.479 107.531 191.902 109.957C192.853 115.389 190.105 119.66 185.72 122.297C183.448 123.668 180.859 123.405 178.375 122.561C176.209 121.77 174.043 120.926 171.718 120.768C170.397 120.715 169.34 119.819 168.548 118.764C165.695 114.861 165.642 110.537 167.121 106.16C167.544 104.999 168.442 104.103 169.605 103.523C171.454 102.626 173.039 101.255 174.783 100.148C176.685 98.9347 178.64 97.8799 181.017 98.1964C182.18 98.3546 183.131 98.7237 184.029 99.462C186.776 101.677 189.735 100.886 192.271 99.5675C192.694 99.3566 192.588 99.0929 192.43 98.7765C189.365 91.6042 184.346 86.6997 176.526 84.9594C175.575 84.7484 175.205 84.8012 175.417 86.0668C175.839 88.5982 175.681 91.1823 175.469 93.8192C173.937 93.3445 173.145 92.2898 172.722 90.9186C172.299 89.4947 172.088 88.0181 171.665 86.5942C171.137 84.7484 170.978 84.6957 169.182 85.1703C165.166 86.2251 162.049 88.5455 159.354 91.5515C158.773 92.1843 158.985 92.7644 159.249 93.3973C159.777 94.7685 160.834 95.8232 161.732 96.9307C162.577 97.9854 163.528 98.9874 163.581 100.78C161.521 99.2511 159.566 97.9854 157.716 96.6142ZM182.919 102.257C181.968 101.572 181.017 101.361 179.908 101.572C175.417 102.415 173.039 105.738 173.62 110.273C174.043 113.807 175.839 116.443 178.798 118.289C181.334 119.871 185.931 118.922 187.622 116.496C188.309 115.494 188.045 114.334 188.15 113.437C187.939 108.902 186.618 104.999 182.919 102.257ZM170.027 108.005C168.548 109.535 168.495 111.222 168.865 112.91C169.182 114.228 169.499 115.652 171.243 116.232C170.82 113.437 170.45 110.8 170.027 108.005Z" fill="#131414"/>
<path d="M192.007 56.3246C192.693 55.8499 193.486 55.8499 194.226 55.6917C203.789 53.5822 213.405 51.5255 222.969 49.416C224.025 49.2051 224.237 49.3633 223.973 50.4707C222.916 54.8479 222.387 59.3306 222.07 63.8659C221.436 72.884 221.859 81.902 221.331 90.92C221.172 93.1877 221.701 94.9808 223.18 96.6684C224.712 98.4614 226.086 100.36 227.09 102.522C228.939 106.53 228.411 109.325 225.346 112.437C224.025 113.755 222.493 114.863 221.014 115.97C220.274 116.497 220.01 117.078 220.01 118.027C220.168 128.258 220.274 138.489 220.38 148.72C220.38 149.458 220.327 149.933 219.481 150.196C209.918 152.939 200.355 155.892 190.633 158.054C188.625 158.476 186.564 158.845 184.557 159.214C184.768 158.845 185.032 158.74 185.296 158.634C189.259 157.21 193.275 155.839 197.237 154.415C203.155 152.359 209.178 150.407 214.938 147.876C215.519 147.612 216.047 147.401 216.153 146.505C216.787 138.331 217.474 130.156 218.108 121.982C218.213 120.295 218.583 118.66 218.372 116.867C217.579 117.078 216.84 117.236 216.153 117.499C212.983 118.712 209.918 118.027 206.906 117.025C204.634 116.287 202.468 114.177 202.944 110.749C203.261 108.323 204.265 106.266 205.744 104.368C206.061 103.946 206.484 103.893 206.959 103.893C209.39 103.841 210.975 102.628 211.82 100.36C212.507 98.4614 212.718 96.5101 213.088 94.5589C213.458 92.5549 213.828 92.2912 215.783 92.8713C216.047 92.924 216.258 93.0295 216.523 93.0822C218.583 93.7151 219.059 93.3987 219.059 91.2892C219.059 79.3179 219.323 67.3466 220.01 55.428C220.063 54.5315 219.693 54.5315 219.006 54.5315C214.145 54.4788 209.284 54.7424 204.476 55.1643C200.355 55.5335 196.181 55.9027 192.007 56.3246ZM216.1 101.415C216.893 101.52 217.474 101.151 218.108 100.94C218.478 100.835 218.9 100.624 219.27 100.571C219.799 100.518 220.38 100.624 220.591 101.098C220.75 101.52 220.221 101.784 219.957 102.048C218.108 103.577 215.836 103.841 213.617 104.21C212.032 104.473 210.446 104.684 208.861 105.159C206.22 106.056 205.321 107.585 205.955 110.274C206.906 114.599 209.39 116.234 213.722 115.285C216.417 114.652 219.006 113.65 221.595 112.595C224.659 111.329 226.033 107.216 224.765 103.63C224.395 102.575 223.814 101.626 223.127 100.729C221.119 98.2505 218.425 96.6156 215.73 94.6643C215.519 97.1957 216.47 99.2525 216.1 101.415Z" fill="#131414"/>
<path d="M126.544 88.4408C127.759 86.7005 127.812 84.6438 127.918 82.6925C128.023 80.7412 128.076 78.79 128.446 76.8914C128.974 74.2018 130.454 72.4615 133.201 71.6705C144.667 68.2953 156.079 64.8146 167.545 61.3867C167.915 61.2813 168.337 61.2285 168.707 60.8594C160.94 61.9669 153.279 63.6017 145.618 65.1311C139.172 66.4495 132.726 67.8207 126.227 68.7699C125.223 68.9281 124.853 69.1918 124.959 70.2993C125.54 76.3113 126.068 82.3761 126.544 88.4408Z" fill="#131414"/>
<path d="M126.227 137.487C126.491 136.01 127.917 135.008 129.714 134.85C131.457 134.692 132.831 135.325 133.465 136.696C135.526 141.178 136.318 145.872 136.107 150.829C136.001 153.519 135.262 155.945 133.465 158.002C131.352 160.427 129.027 160.164 127.442 157.421C125.593 154.204 125.275 150.724 125.223 147.032C125.275 143.868 125.645 140.651 126.227 137.487ZM132.197 142.444C131.774 140.862 130.982 139.544 129.555 138.7C129.133 138.436 128.868 138.331 128.71 139.016C127.442 144.817 127.653 150.566 129.238 156.261C129.45 157 129.661 157.843 130.718 157.738C131.722 157.632 131.933 156.894 132.144 156.103C132.831 154.046 132.091 151.884 132.567 150.091C132.673 147.401 132.884 144.87 132.197 142.444Z" fill="#131414"/>
<path d="M123.689 99.1985C123.848 96.6671 124.535 94.2939 126.384 92.4481C127.916 90.9188 130.664 91.3934 131.509 93.3447C134.045 99.0403 135.155 105 133.887 111.223C133.411 113.49 131.932 115.02 130.03 116.127C128.92 116.813 127.864 116.707 126.913 115.705C125.539 114.334 124.693 112.752 124.271 110.906C123.637 108.375 123.689 105.843 123.689 103.259C123.689 101.888 123.637 100.517 123.689 99.1985ZM127.705 113.437C127.864 113.912 127.864 114.387 128.55 114.439C129.237 114.492 129.819 114.387 130.188 113.807C130.4 113.437 130.611 112.963 130.664 112.541C131.509 108.006 130.981 103.417 130.611 98.8821C130.505 97.5636 129.766 96.4034 128.603 95.6124C127.969 95.1905 127.705 95.1905 127.23 95.9288C126.12 97.7746 126.278 99.7786 126.278 101.783C126.331 105.738 126.49 109.64 127.705 113.437Z" fill="#131414"/>
<path d="M166.646 164.328C163.159 164.803 160.041 165.541 156.977 166.28C149.632 168.073 142.341 170.235 134.891 171.711C131.827 172.292 131.879 172.344 131.668 169.286C131.51 166.965 131.298 164.645 131.14 162.377C131.087 161.48 130.611 161.428 129.924 161.428C129.238 161.428 128.762 161.48 128.709 162.377C128.392 166.807 128.022 171.184 127.653 175.614C127.6 176.141 127.441 176.616 128.339 176.352C140.914 172.766 153.542 169.286 165.8 164.75C166.012 164.697 166.17 164.592 166.646 164.328Z" fill="#131414"/>
<path d="M192.007 56.3242C191.901 56.377 191.795 56.377 191.637 56.4297C191.795 56.377 191.901 56.3242 192.007 56.3242Z" fill="#131414"/>
<path d="M58.332 155.89C65.6763 159.898 72.9677 163.959 80.312 167.967C85.1201 170.604 89.981 173.241 94.7891 175.878C96.1629 176.616 96.2157 176.616 96.1629 174.981C95.8987 165.963 95.3703 156.945 94.7363 147.927C94.1551 140.227 93.521 132.528 92.6757 124.828C92.6228 124.564 92.7285 124.248 92.4643 124.037C92.253 124.459 92.3587 124.934 92.3587 125.408C92.4643 139.595 92.57 153.834 92.6228 168.02C92.6228 169.918 92.253 170.129 90.5094 169.391C80.0478 164.803 69.5862 160.267 59.0717 155.732C58.9132 155.679 58.7547 155.627 58.5962 155.627C58.4905 155.679 58.3849 155.785 58.332 155.89Z" fill="#131414"/>
<path d="M58.5963 50.4691C54.2109 48.0432 49.6142 46.0919 45.0174 44.0879C36.5107 40.3963 27.8984 37.0211 19.6031 32.8549C19.1804 32.644 18.8106 32.433 18.3879 32.8549C17.9123 33.3295 18.2294 33.6987 18.3879 34.0679C21.1354 40.0799 22.4034 46.4611 23.3545 52.9477C24.3584 59.4871 24.9924 66.0792 26.5775 72.5131C26.6832 72.8823 26.6303 73.2514 27.1059 73.5151C26.8417 69.929 26.6303 66.4484 26.3662 62.9677C25.9963 57.9577 25.5736 52.895 25.2038 47.885C25.0453 45.67 24.8339 43.455 24.7282 41.1874C24.6226 39.5525 24.9396 39.3416 26.4718 39.8689C36.8278 43.4023 47.1837 46.9884 57.5925 50.5218C57.8566 50.6273 58.1737 50.68 58.4378 50.7327C58.4378 50.68 58.5435 50.5745 58.5963 50.4691Z" fill="#131414"/>
<path d="M58.5954 155.627C58.384 155.521 58.1199 155.416 57.9085 155.311C57.8557 155.363 57.8028 155.469 57.75 155.521C57.8557 155.785 58.1199 155.838 58.3312 155.891C58.384 155.785 58.4897 155.68 58.5954 155.627Z" fill="#131414"/>
<path d="M58.3848 50.7871C58.5961 50.8399 58.8075 51.1035 58.966 50.7871C59.0716 50.5762 58.7546 50.5234 58.5961 50.5234C58.5433 50.5762 58.4376 50.6816 58.3848 50.7871Z" fill="#131414"/>
<path d="M57.9077 155.258C57.802 155.258 57.6435 155.205 57.5906 155.258C57.485 155.363 57.5906 155.469 57.6963 155.522C57.7492 155.416 57.8548 155.363 57.9077 155.258Z" fill="#131414"/>
<path d="M163.635 100.675C161.521 99.2515 159.619 97.9858 157.77 96.6146C156.924 95.9818 156.607 96.1927 156.132 96.9838C154.335 99.8843 153.648 103.101 153.49 106.424C153.384 108.375 153.543 110.326 153.648 112.225C153.754 113.332 154.23 113.649 155.181 113.649C156.502 113.649 157.823 113.596 159.143 113.701C160.57 113.807 161.891 114.071 162.736 115.653C160.2 115.916 157.77 116.286 155.392 116.391C154.23 116.444 154.124 116.866 154.282 117.815C154.652 120.557 155.815 122.93 157.453 125.145C158.932 127.097 160.517 128.942 161.997 130.894C162.472 131.527 162.789 131.21 163.212 130.894C165.272 129.417 167.333 127.94 169.341 126.464C169.816 126.147 170.133 125.778 170.715 126.411C171.349 127.097 170.662 127.308 170.398 127.571C168.812 129.153 167.28 130.735 166.118 132.739C165.642 133.583 165.589 134.058 166.593 134.638C169.447 136.167 172.247 137.802 175.523 138.171C177.213 138.382 178.799 138.066 180.331 137.328C181.335 136.853 181.546 135.904 181.599 134.954C181.757 133.531 181.335 132.159 181.282 130.735C181.282 129.681 181.282 128.626 182.127 127.571C183.025 129.47 183.871 131.21 184.663 133.003C185.033 133.794 185.297 133.9 186.037 133.372C187.886 132.054 189.63 130.577 191.004 128.731C191.638 127.835 192.113 126.78 192.483 125.725C192.906 124.46 192.8 123.405 191.585 122.614C191.004 122.192 190.475 121.612 190.158 120.926C190 120.557 189.789 120.083 190.106 119.766C190.475 119.397 191.004 119.292 191.479 119.608C191.955 119.872 192.43 120.135 192.8 120.504C193.54 121.19 193.91 120.979 194.28 120.135C195.284 117.815 195.548 115.442 195.442 112.963C195.283 109.746 194.597 106.582 193.963 103.418C193.804 102.627 193.54 102.468 192.747 102.679C191.638 102.943 190.423 102.785 189.207 103.312C190.581 105.369 191.532 107.531 191.955 109.957C192.906 115.389 190.158 119.661 185.773 122.298C183.501 123.669 180.912 123.405 178.429 122.561C176.262 121.77 174.096 120.926 171.771 120.768C170.45 120.715 169.394 119.819 168.601 118.764C165.748 114.862 165.695 110.537 167.175 106.16C167.597 105 168.495 104.103 169.658 103.523C171.507 102.627 173.092 101.255 174.836 100.148C176.738 98.935 178.693 97.8803 181.071 98.1967C182.233 98.3549 183.184 98.7241 184.082 99.4624C186.83 101.677 189.789 100.886 192.325 99.5679C192.747 99.3569 192.642 99.0933 192.483 98.7768C189.419 91.6046 184.399 86.7001 176.579 84.9598C175.628 84.7488 175.259 84.8015 175.47 86.0672C175.893 88.5986 175.734 91.1827 175.523 93.8196C173.99 93.3449 173.198 92.2902 172.775 90.919C172.353 89.4951 172.141 88.0185 171.718 86.5946C171.19 84.7488 171.032 84.6961 169.235 85.1707C165.22 86.2254 162.102 88.5459 159.408 91.5519C158.826 92.1847 159.038 92.7648 159.302 93.3977C159.83 94.7688 160.887 95.8236 161.785 96.931C162.683 97.8803 163.582 98.935 163.635 100.675Z" fill="#ECF5E3"/>
<path d="M188.097 113.491C187.886 108.903 186.617 105.053 182.866 102.311C181.915 101.625 180.964 101.414 179.854 101.625C175.363 102.469 172.986 105.791 173.567 110.327C173.99 113.86 175.786 116.497 178.745 118.343C181.281 119.925 185.878 118.976 187.569 116.55C188.255 115.495 187.991 114.388 188.097 113.491Z" fill="#2FA874"/>
<path d="M171.242 116.233C170.819 113.438 170.397 110.801 169.974 108.006C168.494 109.535 168.442 111.223 168.811 112.91C169.181 114.282 169.498 115.653 171.242 116.233Z" fill="#2FA874"/>
<path d="M215.626 94.7695C215.467 97.1954 216.471 99.2522 216.048 101.414C216.841 101.52 217.422 101.151 218.056 100.94C218.426 100.834 218.849 100.623 219.219 100.571C219.747 100.518 220.328 100.623 220.54 101.098C220.698 101.52 220.17 101.784 219.906 102.047C218.056 103.577 215.784 103.84 213.565 104.209C211.98 104.473 210.395 104.684 208.81 105.159C206.168 106.055 205.27 107.585 205.904 110.274C206.855 114.599 209.338 116.233 213.671 115.284C216.366 114.651 218.954 113.649 221.543 112.595C224.608 111.329 225.982 107.215 224.714 103.629C224.344 102.575 223.763 101.625 223.076 100.729C221.015 98.3556 218.373 96.7208 215.626 94.7695Z" fill="#ECF5E3"/>
<path d="M132.618 150.142C132.671 147.4 132.83 144.921 132.196 142.495C131.773 140.913 130.98 139.595 129.554 138.751C129.131 138.487 128.867 138.382 128.708 139.068C127.44 144.869 127.652 150.617 129.237 156.313C129.448 157.051 129.66 157.895 130.716 157.789C131.72 157.684 131.931 156.945 132.143 156.154C132.883 154.098 132.143 151.935 132.618 150.142Z" fill="#ECF5E3"/>
<path d="M126.279 101.836C126.332 105.739 126.543 109.694 127.758 113.438C127.917 113.913 127.917 114.388 128.604 114.44C129.291 114.493 129.872 114.388 130.242 113.807C130.453 113.438 130.664 112.964 130.717 112.542C131.563 108.006 131.034 103.418 130.664 98.8829C130.559 97.5645 129.819 96.4042 128.657 95.6132C128.023 95.1913 127.758 95.1913 127.283 95.9296C126.068 97.8281 126.226 99.8321 126.279 101.836Z" fill="#ECF5E3"/>
</g>
<defs>
<clipPath id="clip0_114_4866">
<rect width="258" height="237" fill="white"/>
</clipPath>
</defs>
</svg>
