<svg width="280" height="280" viewBox="0 0 280 280" fill="none" xmlns="http://www.w3.org/2000/svg">
  <!-- Background  -->
  <rect width="273" height="273" rx="49" fill="#50CC94"/>
  <!-- Top  -->
  <g clip-path="url(#clip0_9_191)">
    <path
    d="M2.1693 51.1583C2.1693 51.1583 -7.15256e-07 3.8719e-05 45.5552 3.8719e-05C91.1104 3.8719e-05 231.948 3.8719e-05 231.948 3.8719e-05C231.948 3.8719e-05 275 -0.560091 275 48.1709C275 52.2785 266.657 19.231 241.292 14.9367C226.608 12.3228 192.4 25.7659 166.201 17.7374C137.667 8.96206 103.292 4.10763 70.5855 19.9779C52.7306 28.5665 47.057 24.2722 28.8683 17.1773C15.1851 11.7627 2.1693 51.1583 2.1693 51.1583Z"
    fill="#4F9E73"/>
    <path
      d="M0.000350723 58.9999C0.000350723 58.9999 -2.16894 7.84171 43.3863 7.84171C88.9415 7.84171 229.779 7.84171 229.779 7.84171C229.779 7.84171 272.831 7.28159 272.831 56.0126C272.831 60.1202 264.488 27.0727 239.124 22.7784C224.439 20.1645 190.231 33.6075 164.033 25.5791C135.665 16.617 101.29 11.7626 68.4166 27.6329C50.5616 36.2215 44.8881 31.9272 26.6994 24.8322C13.0161 19.6044 0.000350723 58.9999 0.000350723 58.9999Z"
      fill="#2C8460"/>
    <path
      d="M0.000350723 55.4526C0.000350723 55.4526 -2.16894 4.29435 43.3863 4.29435C88.9415 4.29435 229.779 4.29435 229.779 4.29435C229.779 4.29435 272.831 3.73422 272.831 52.4652C272.831 56.5728 264.488 23.5254 239.124 19.2311C224.439 16.6171 190.231 30.0602 164.033 22.0317C135.665 13.0697 101.29 8.21524 68.4166 24.0855C50.5616 32.6741 44.8881 28.3798 26.6994 21.2849C13.0161 16.057 0.000350723 55.4526 0.000350723 55.4526Z"
      fill="#7CC68B"/>
  </g>
  <defs>
    <clipPath id="clip0_9_191">
      <rect width="275" height="59" fill="white"/>
    </clipPath>
  </defs>
  <!-- Drops -->
  <g transform="translate(249,82)">
    <path d="M23.0498 0C23.0498 0 14.4826 12.3032 18.7662 14.8232C23.0498 17.3431 29.1692 16.3055 29.7811 14.8232C30.393 13.3409 23.0498 0 23.0498 0Z" fill="#7DDCA7"/>
    <path d="M25.9055 67.8901C24.8856 63.2949 19.7861 64.1843 19.7861 69.076C19.7861 70.1136 19.9901 71.003 20.398 71.5959C22.6418 74.1159 26.1095 73.0782 26.3134 71.5959C26.7214 71.1512 26.3134 69.8171 25.9055 67.8901Z" fill="#7DDCA7"/>
    <path d="M26.1095 153.716C25.2936 145.415 20.806 147.194 20.806 155.94C20.806 157.867 21.01 159.497 21.4179 160.387C23.4577 164.982 26.3135 163.055 26.5174 160.387C26.7214 159.497 26.5174 156.977 26.1095 153.716Z" fill="#7DDCA7"/>
  </g>
  <!-- Text -->
  <g transform="translate(86,46)">
    <path d="M0.098544 6.54545H7.97354V27H14.9792V6.54545H22.8542V0.818181H0.098544V6.54545ZM22.5925 27H29.6493V16.7727C29.6493 14.5227 31.1962 13.0398 33.28 13.0398C34.0087 13.0398 35.1848 13.1548 35.888 13.3977V7.37642C35.3255 7.21023 34.7118 7.10795 34.0982 7.10795C32.0016 7.10795 30.3652 8.33523 29.6493 11.0966H29.4448V7.36364H22.5925V27ZM41.7594 27.3068C44.3162 27.3068 46.2466 26.4375 47.4355 24.2386H47.589V27H54.1855V13.5511C54.1855 9.92045 50.7466 7.10795 45.1344 7.10795C39.2665 7.10795 36.3773 10.1761 36.1344 13.7557H42.6287C42.7949 12.5412 43.6898 11.9659 45.0321 11.9659C46.2594 11.9659 47.1287 12.5284 47.1287 13.5511V13.6023C47.1287 14.7401 45.8759 15.098 42.5776 15.3409C38.525 15.6349 35.3674 17.2713 35.3674 21.5795C35.3674 25.4915 38.0009 27.3068 41.7594 27.3068ZM44.0605 22.858C42.8588 22.858 42.0151 22.2699 42.0151 21.1705C42.0151 20.1605 42.731 19.3807 44.3674 19.125C45.4924 18.946 46.4384 18.7159 47.1799 18.4091V20.0455C47.1799 21.8352 45.6586 22.858 44.0605 22.858ZM63.6653 27.2557C66.4267 27.2557 68.3187 25.7727 69.1369 23.7784H69.2903V27H76.296V0.818181H69.2392V10.7898H69.1369C68.3699 8.79545 66.5289 7.10795 63.6142 7.10795C59.7278 7.10795 55.9437 10.0739 55.9437 17.1818C55.9437 23.983 59.4721 27.2557 63.6653 27.2557ZM66.2733 21.8352C64.3301 21.8352 63.2051 20.0966 63.2051 17.1818C63.2051 14.267 64.3301 12.5284 66.2733 12.5284C68.2164 12.5284 69.3926 14.267 69.3926 17.1818C69.3926 20.0455 68.2164 21.8352 66.2733 21.8352ZM88.1696 27.358C93.6156 27.358 97.1184 24.75 97.7832 20.6591H91.34C90.9309 21.7713 89.7676 22.3977 88.323 22.3977C86.2264 22.3977 84.9991 21.017 84.9991 19.125V18.8182H97.7832V17.1818C97.7832 10.9304 93.948 7.10795 88.0162 7.10795C81.9309 7.10795 78.0446 11.1477 78.0446 17.233C78.0446 23.5866 81.8798 27.358 88.1696 27.358ZM84.9991 14.9318C85.0375 13.2315 86.4437 12.0682 88.1696 12.0682C89.921 12.0682 91.2505 13.2443 91.2889 14.9318H84.9991Z" fill="white"/>
  </g>
  <!-- Icon -->
  <g transform="translate(66,102)">
    <path d="M137.85 0.4C137.65 0.2 137.35 0 137.15 0H0.849999C0.449999 0 0.35 0.2 0.15 0.4C-0.05 0.6 -0.05 0.899999 0.15 1.3L68.25 139.5C68.45 139.9 68.75 140 68.95 140C69.15 140 69.65 139.8 69.65 139.5L137.75 1.3C137.95 1.1 137.95 0.7 137.85 0.4V0.4ZM67.85 40.7L52.95 31.6L67.85 5.8V40.7ZM67.15 42.4L35.95 61.4L52.05 33.2L67.15 42.4V42.4ZM67.85 44V63H36.65L67.85 44ZM69.65 44L100.85 63H69.65V44V44ZM70.55 42.4L85.45 33.2L101.55 61.2L70.55 42.4V42.4ZM69.65 40.9V5.7L84.55 31.5L69.65 40.9V40.9ZM70.75 3.9L102.45 21L86.15 30.9L70.75 3.9V3.9ZM51.55 30.9L34.85 20.6L67.15 3.5L51.55 30.9V30.9ZM50.65 32.3L33.65 61.7L33.45 21.9L50.65 32.3ZM67.85 64.8V83.8L35.25 64.8H67.85V64.8ZM69.65 64.8H103.05L69.65 84V64.8V64.8ZM87.05 32.3L104.05 21.9L104.25 61.9L87.05 32.3V32.3ZM104.25 19.7L70.75 1.8H133.85L104.25 19.7ZM33.05 19.6L3.85 1.8H66.65L33.05 19.6V19.6ZM31.65 20.8C31.65 20.8 31.65 21 31.65 20.8L31.85 61.9L2.75 3.2L31.65 20.8V20.8ZM67.85 86V135.4L33.75 66.2L67.85 86ZM69.65 86.2L103.55 66.6L69.65 135.2V86.2V86.2ZM105.85 21.2L134.95 3.2L106.05 61.7L105.85 21.2Z" fill="white"/>
  </g>
</svg>
