<svg width="280" height="280" viewBox="0 0 280 280" fill="none" xmlns="http://www.w3.org/2000/svg">
  <!-- Background  -->
  <rect width="273" height="273" rx="49" fill="#2C5F4A"/>
  <!-- Top  -->
  <g clip-path="url(#clip0_9_249)" transform="translate(-42,0)">
    <path d="M310.861 46.4707C310.861 46.4707 313 1.28009e-05 268.074 1.28009e-05C223.148 1.28009e-05 84.4211 1.28009e-05 84.4211 1.28009e-05C84.4211 1.28009e-05 41.7992 -0.508793 41.7992 43.7571C41.7992 47.4883 50.0273 17.4689 75.041 13.5681C89.5226 11.1937 123.258 23.4049 149.095 16.1121C177.235 8.14086 211.135 3.73123 243.39 18.1473C260.998 25.949 266.593 22.0481 284.531 15.6033C298.025 10.6849 310.861 46.4707 310.861 46.4707Z" fill="#61C08B"/>
    <path d="M313 53.5939C313 53.5939 315.139 7.12328 270.214 7.12328C225.288 7.12328 86.3959 7.12328 86.3959 7.12328C86.3959 7.12328 43.9385 6.44487 43.9385 50.8803C43.9385 54.6115 52.1667 24.5922 77.1803 20.6914C91.6619 18.3169 125.397 30.5282 151.234 23.2354C179.374 15.2641 213.274 10.8545 245.529 25.2706C263.137 33.0722 268.732 29.1714 286.67 22.7266C300.164 17.8081 313 53.5939 313 53.5939Z" fill="#2C8460"/>
    <path d="M313 50.3715C313 50.3715 315.139 3.90086 270.214 3.90086C225.288 3.90086 86.3959 3.90086 86.3959 3.90086C86.3959 3.90086 43.9385 3.22246 43.9385 47.6579C43.9385 51.3891 52.1667 21.3698 77.1803 17.4689C91.6619 15.0945 125.397 27.3058 151.234 20.013C179.374 12.0417 213.274 7.63208 245.529 22.0482C263.137 29.8498 268.732 25.949 286.67 19.5042C300.164 14.5857 313 50.3715 313 50.3715Z" fill="#56AA73"/>
  </g>
  <defs>
    <clipPath id="clip0_9_249">
      <rect width="313" height="289" fill="white"/>
    </clipPath>
  </defs>
  <!-- Drops -->
  <g transform="translate(-42,0)">
    <path d="M45.0904 62.0739C45.0904 62.0739 52.0021 76.1508 48.5463 79.034C45.0904 81.9172 40.1535 80.73 39.6598 79.034C39.1661 77.1684 45.0904 62.0739 45.0904 62.0739Z" fill="#61C08B"/>
    <path d="M42.7865 139.751C43.6094 134.494 47.7235 135.511 47.7235 141.108C47.7235 142.295 47.5589 143.313 47.2298 143.991C45.4196 146.874 42.622 145.687 42.4574 143.991C42.2928 143.482 42.4574 141.786 42.7865 139.751Z" fill="#61C08B"/>
    <path d="M42.622 237.781C43.2802 228.283 46.9006 230.318 46.9006 240.325C46.9006 242.529 46.7361 244.395 46.4069 245.413C44.7613 250.67 42.4574 248.465 42.2929 245.413C42.2929 244.565 42.4574 241.512 42.622 237.781Z" fill="#61C08B"/>
  </g>
  <!-- Text -->
  <g transform="translate(104,46)">
    <path d="M0.00266339 27H21.3777V21.2727H9.0538L21.4288 4.75568V0.818181H0.0537998V6.54545H12.3777L0.00266339 23.0625V27ZM29.4703 27.3068C32.0272 27.3068 33.9576 26.4375 35.1465 24.2386H35.2999V27H41.8965V13.5511C41.8965 9.92045 38.4576 7.10795 32.8453 7.10795C26.9775 7.10795 24.0882 10.1761 23.8453 13.7557H30.3397C30.5059 12.5412 31.4007 11.9659 32.7431 11.9659C33.9703 11.9659 34.8397 12.5284 34.8397 13.5511V13.6023C34.8397 14.7401 33.5868 15.098 30.2885 15.3409C26.236 15.6349 23.0783 17.2713 23.0783 21.5795C23.0783 25.4915 25.7118 27.3068 29.4703 27.3068ZM31.7715 22.858C30.5698 22.858 29.726 22.2699 29.726 21.1705C29.726 20.1605 30.4419 19.3807 32.0783 19.125C33.2033 18.946 34.1493 18.7159 34.8908 18.4091V20.0455C34.8908 21.8352 33.3695 22.858 31.7715 22.858ZM44.2683 34.3636H51.3251V23.7784H51.4274C52.2456 25.7727 54.1376 27.2557 56.899 27.2557C61.0922 27.2557 64.6206 23.983 64.6206 17.1818C64.6206 10.0739 60.8365 7.10795 56.9501 7.10795C54.0353 7.10795 52.1944 8.79545 51.4274 10.7898H51.274V7.36364H44.2683V34.3636ZM51.1717 17.1818C51.1717 14.267 52.3478 12.5284 54.291 12.5284C56.2342 12.5284 57.3592 14.267 57.3592 17.1818C57.3592 20.0966 56.2342 21.8352 54.291 21.8352C52.3478 21.8352 51.1717 20.0455 51.1717 17.1818Z" fill="white"/>
  </g>
  <!-- Icon -->
  <g transform="translate(74,102)">
    <path d="M124.9 45.6C124.9 45.4 124.9 45.3 124.7 45.1V44.9L107.2 15.3C107.2 15.1 107 15.1 107 15.1C106.8 14.9 106.7 14.8 106.5 14.8L71 0.200001C70.8 0.200001 70.7 0.2 70.5 0L49.2 0.300003C49 0.300003 48.9 0.3 48.7 0.5H48.5L22.9 19.4C22.7 19.4 22.7 19.6 22.6 19.7L0.200001 56.9C7.59959e-07 57.1 0 57.2 0 57.6L6.9 97.1C6.9 97.3 7.1 97.6 7.2 97.8L25.7 116.4L26 116.7L49.9 128.4C50.1 128.4 50.2 128.6 50.4 128.6L78.3 130.1C78.5 130.1 78.6 130.1 79 129.9L110.7 111.3C110.9 111.1 111 111.1 111 111L126.8 82.7C127 82.5 127 82.2 127 82L124.9 45.6ZM104.6 16.3L101.3 20.7L80.4 6.2L104.6 16.3ZM57.2 44.3L36.3 68.8L26.6 59.3L46.1 24.7L57.2 44.3ZM48 23.4L62.8 23.1L81.3 50.4L59.5 43.4L48 23.4ZM36.5 72.1L58.1 93.2L25.9 84.5L36.5 72.1ZM61 96.3L63 114.7L29 87.4L61 96.3ZM61.9 93.5L38 70.3L59.1 45.6L82.5 53L61.9 93.5ZM88.9 85.6L102.6 98.9L68 114.5L88.9 85.6ZM65.3 114.4L63.3 96.1L85.2 86.6L65.3 114.4ZM88.1 82.9L64.8 93.1L85.1 53.6L109.7 48.5L88.1 82.9ZM84.6 51.2L65.5 23L100.6 23.3L110.2 45.7L84.6 51.2ZM71.3 2.8L97.9 21.1L64.7 20.8L71.3 2.8ZM68.9 2.1L62.7 18.9L51.5 2.5L68.9 2.1ZM49.2 3L61.2 20.8L46 21.1L26.7 19.5L49.2 3ZM44 23.2L26.2 55.1C26 46.4 25.5 27.5 24.9 21.5L44 23.2ZM22.8 23.9C23.3 30.8 23.6 46.6 24 58.1L3.2 56.5L22.8 23.9ZM23.9 60.6L22.9 82L3.8 58.9L23.9 60.6ZM3.1 61.5L22.2 84.7L8.8 94.7L3.1 61.5ZM9.9 97.1L22.9 87.2L25.2 112.5L9.9 97.1ZM26.1 62L34.8 70.4L25.2 81.6L26.1 62ZM50.5 125.7L27.7 114.7L25.2 87.5L62.5 117.3L50.5 125.7ZM53.9 126.2L64.3 119L74.7 127.4L53.9 126.2ZM78.5 127.2L66.6 117.7L104 100.8L108.5 109.7L78.5 127.2ZM109 105.5L106 99.6L109.1 96.8L109 105.5ZM109.4 93.6L104.8 97.7L90.5 83.5L111 50.8L109.4 93.6ZM102.9 22.4L106.2 18L121.9 44.7L112.8 45.5L102.9 22.4ZM111.3 105.5L111.6 94.8L122.3 85.6L111.3 105.5ZM111.7 91.7L112.9 52.4L124.1 81.2L111.7 91.7ZM113.6 47.7L122.7 46.9L124.3 75.4L113.6 47.7Z" fill="white"/>
  </g>
</svg>
